<svg xmlns="http://www.w3.org/2000/svg">
 <g>
  <title>Layer 1</title>
  <path d="m24.433771,3.79072c-1.048784,0 -2.09671,0.406266 -2.911303,1.220839l-15.62086,15.620478l-0.219131,0.219124l-0.062608,0.313036l-1.095653,5.509426l-0.313043,1.471268l1.471303,-0.313038l5.509562,-1.095623l0.313043,-0.062607l0.21913,-0.219124l15.62086,-15.620476c1.629185,-1.629146 1.629185,-4.193319 0,-5.822464c-0.814589,-0.814572 -1.862514,-1.220839 -2.911301,-1.220839zm0,1.909517c0.503912,0 1.014942,0.232326 1.502607,0.719982c0.975334,0.975312 0.975334,2.02983 0,3.005142l-0.719997,0.688677l-2.973915,-2.973837l0.688698,-0.719982c0.487669,-0.487656 0.998695,-0.719982 1.502607,-0.719982zm-3.599998,2.848624l2.973911,2.973838l-12.114774,12.114478c-0.655497,-1.282785 -1.691095,-2.318361 -2.973912,-2.973837l12.114775,-12.114478l0,-0.000001zm-13.398252,13.742262c1.201169,0.486727 2.142826,1.42836 2.629564,2.629501l-3.286954,0.657375l0.65739,-3.286875l0,-0.000002z" id="svg_1" fill="rgb(51, 51, 51)"/>
 </g>
</svg>