<svg width="45" height="45" viewBox="0 0 45 45" fill="none" xmlns="http://www.w3.org/2000/svg">
<path d="M34.4531 22.6758C34.4531 29.0831 29.2589 34.2773 22.8516 34.2773C16.4442 34.2773 11.25 29.0831 11.25 22.6758C11.25 16.2684 16.4442 11.0742 22.8516 11.0742C29.2589 11.0742 34.4531 16.2684 34.4531 22.6758ZM12.9902 22.6758C12.9902 28.122 17.4053 32.5371 22.8516 32.5371C28.2978 32.5371 32.7129 28.122 32.7129 22.6758C32.7129 17.2295 28.2978 12.8145 22.8516 12.8145C17.4053 12.8145 12.9902 17.2295 12.9902 22.6758Z" fill="#11C15B"/>
<path d="M43.2422 7.73438L36.2109 3.67488V11.7939L43.2422 7.73438ZM21.7969 8.4375H36.9141V7.03125H21.7969V8.4375ZM8.4375 21.7969C8.4375 14.4187 14.4187 8.4375 21.7969 8.4375V7.03125C13.642 7.03125 7.03125 13.642 7.03125 21.7969H8.4375Z" fill="#11C15B"/>
<path d="M2.10938 37.4414L9.14062 41.5009V33.3819L2.10938 37.4414ZM23.5547 36.7383H8.4375V38.1445H23.5547V36.7383ZM36.9141 23.3789C36.9141 30.7571 30.9329 36.7383 23.5547 36.7383V38.1445C31.7095 38.1445 38.3203 31.5337 38.3203 23.3789H36.9141Z" fill="#11C15B"/>
<path d="M26.5829 19.8113L26.1754 21.2015H18.4091L18.8166 19.8113H26.5829ZM22.9395 29.1836L18.5529 23.8143L18.5289 22.8075H20.7102C21.2775 22.8075 21.7609 22.7276 22.1604 22.5678C22.5599 22.404 22.8655 22.1603 23.0773 21.8367C23.289 21.5091 23.3949 21.0977 23.3949 20.6023C23.3949 19.8712 23.1752 19.2979 22.7357 18.8824C22.2963 18.4629 21.6211 18.2532 20.7102 18.2532H18.4091L18.8166 16.9109H20.7102C21.685 16.9109 22.484 17.0727 23.1072 17.3963C23.7345 17.7159 24.1979 18.1553 24.4975 18.7146C24.8011 19.2699 24.9529 19.8991 24.9529 20.6023C24.9529 21.2375 24.8131 21.8228 24.5335 22.3581C24.2578 22.8894 23.8144 23.3169 23.2031 23.6405C22.5959 23.9641 21.7929 24.1259 20.7941 24.1259H20.7582L24.8091 29.0877V29.1836H22.9395ZM26.5829 16.9109L26.1754 18.3011L20.063 18.2532L20.4705 16.9109H26.5829Z" fill="#11C15B"/>
</svg>
