<svg width="45" height="45" viewBox="0 0 45 45" fill="none" xmlns="http://www.w3.org/2000/svg">
<g clip-path="url(#clip0_716_187)">
<path d="M43.97 38.9987L32.2384 27.2671C34.1496 24.3883 35.1562 21.0546 35.1562 17.5781C35.1562 7.88555 27.2707 0 17.5781 0C7.88555 0 0 7.88555 0 17.5781C0 27.2707 7.88555 35.1562 17.5781 35.1562C21.0547 35.1562 24.3884 34.1495 27.2671 32.2385L30.5098 35.4812C30.5103 35.4816 30.5107 35.4821 30.5112 35.4826L38.9987 43.97C39.6629 44.6342 40.5456 45 41.4844 45C42.4231 45 43.3058 44.6342 43.9697 43.9703C44.6341 43.3064 45 42.4237 45 41.4844C45 40.5451 44.6341 39.6623 43.97 38.9987ZM26.8538 30.3862L26.8536 30.3863C24.1407 32.3568 20.9333 33.3984 17.5781 33.3984C8.8548 33.3984 1.75781 26.3014 1.75781 17.5781C1.75781 8.8548 8.8548 1.75781 17.5781 1.75781C26.3014 1.75781 33.3984 8.8548 33.3984 17.5781C33.3984 20.9333 32.3568 24.1407 30.3862 26.8537C29.4004 28.2118 28.2119 29.4004 26.8538 30.3862ZM28.6977 31.183C29.6074 30.4388 30.4389 29.6073 31.183 28.6977L33.6765 31.1912C32.9182 32.0862 32.0862 32.9183 31.1912 33.6765L28.6977 31.183ZM42.7271 42.7271C42.3948 43.0593 41.9535 43.2422 41.4844 43.2422C41.0152 43.2422 40.5739 43.0593 40.2417 42.7271L32.4374 34.9228C33.3275 34.159 34.159 33.3276 34.9227 32.4375L42.7272 40.242C43.0593 40.5737 43.2422 41.0149 43.2422 41.4844C43.2422 41.9539 43.0593 42.395 42.7271 42.7271Z" fill="white"/>
<path d="M17.5781 3.51562C9.82397 3.51562 3.51562 9.82397 3.51562 17.5781C3.51562 25.3323 9.82397 31.6406 17.5781 31.6406C25.3323 31.6406 31.6406 25.3323 31.6406 17.5781C31.6406 9.82397 25.3323 3.51562 17.5781 3.51562ZM17.5781 29.8828C10.7933 29.8828 5.27344 24.3629 5.27344 17.5781C5.27344 10.7933 10.7933 5.27344 17.5781 5.27344C24.3629 5.27344 29.8828 10.7933 29.8828 17.5781C29.8828 24.3629 24.3629 29.8828 17.5781 29.8828Z" fill="white"/>
<path d="M22.0126 14.0105L21.6051 15.4007H13.8388L14.2463 14.0105H22.0126ZM18.3691 23.3828L13.9826 18.0135L13.9586 17.0067H16.1399C16.7072 17.0067 17.1906 16.9268 17.5901 16.767C17.9896 16.6032 18.2952 16.3596 18.507 16.036C18.7187 15.7084 18.8246 15.2969 18.8246 14.8015C18.8246 14.0704 18.6048 13.4971 18.1654 13.0816C17.7259 12.6622 17.0508 12.4524 16.1399 12.4524H13.8388L14.2463 11.1101H16.1399C17.1147 11.1101 17.9137 11.2719 18.5369 11.5955C19.1642 11.9151 19.6276 12.3545 19.9272 12.9138C20.2308 13.4691 20.3826 14.0984 20.3826 14.8015C20.3826 15.4367 20.2428 16.022 19.9632 16.5573C19.6875 17.0886 19.2441 17.5161 18.6328 17.8397C18.0256 18.1633 17.2226 18.3251 16.2238 18.3251H16.1879L20.2388 23.2869V23.3828H18.3691ZM22.0126 11.1101L21.6051 12.5004L15.4927 12.4524L15.9002 11.1101H22.0126Z" fill="white"/>
</g>
<defs>
<clipPath id="clip0_716_187">
<rect width="45" height="45" fill="white"/>
</clipPath>
</defs>
</svg>
