<svg width="45" height="45" viewBox="0 0 45 45" fill="none" xmlns="http://www.w3.org/2000/svg">
<g clip-path="url(#clip0_715_17)">
<path d="M42.9256 43.2421H40.9979V15.2521C40.9979 13.9493 39.9379 12.8894 38.6352 12.8894H34.3265C33.0237 12.8894 31.9638 13.9494 31.9638 15.2521V43.2421H27.069V27.9337C27.069 26.6309 26.0091 25.5711 24.7063 25.5711H20.3976C19.0948 25.5711 18.0349 26.631 18.0349 27.9337V43.2421H13.1401V35.314C13.1401 34.0112 12.0801 32.9513 10.7774 32.9513H6.46857C5.16577 32.9513 4.1059 34.0113 4.1059 35.314V43.2421H2.07422C1.5888 43.2421 1.19531 43.6356 1.19531 44.121C1.19531 44.6064 1.5888 44.9999 2.07422 44.9999H42.9256C43.411 44.9999 43.8045 44.6064 43.8045 44.121C43.8045 43.6356 43.411 43.2421 42.9256 43.2421ZM11.3821 43.2421H5.86362V35.314C5.86362 34.9804 6.13494 34.7091 6.46849 34.7091H10.7772C11.1108 34.7091 11.3821 34.9804 11.3821 35.314V43.2421ZM25.3111 43.2421H19.7926V27.9337C19.7926 27.6002 20.0639 27.3289 20.3975 27.3289H24.7062C25.0397 27.3289 25.3111 27.6002 25.3111 27.9337V43.2421ZM39.2401 43.2421H33.7216V15.2521C33.7216 14.9185 33.9929 14.6472 34.3265 14.6472H38.6352C38.9688 14.6472 39.2401 14.9185 39.2401 15.2521V43.2421Z" fill="#536DFE"/>
<path d="M40.9967 0.924258C41.009 0.684404 40.9246 0.440508 40.7415 0.257344C40.5583 0.0741797 40.3144 -0.0102832 40.0745 0.00210938C40.0604 0.00149414 40.0464 0 40.032 0H34.7146C34.2292 0 33.8357 0.393486 33.8357 0.878906C33.8357 1.36433 34.2292 1.75781 34.7146 1.75781H37.998L29.3094 10.4465L26.0328 7.16994C25.868 7.00515 25.6444 6.91251 25.4113 6.91251C25.1782 6.91251 24.9546 7.00515 24.7898 7.16994L8.98983 22.97C8.64662 23.3133 8.64662 23.8698 8.98983 24.2131C9.16148 24.3846 9.38639 24.4703 9.61131 24.4703C9.83622 24.4703 10.0612 24.3846 10.2328 24.2129L25.4113 9.03428L28.6879 12.3108C29.0311 12.6541 29.5876 12.6541 29.9309 12.3108L39.241 3.00085V5.97243C39.241 6.45785 39.6345 6.85134 40.1199 6.85134C40.6053 6.85134 40.9988 6.45785 40.9988 5.97243V0.966797C40.9988 0.952471 40.9973 0.938496 40.9967 0.924258Z" fill="#536DFE"/>
<path d="M6.64648 27.5369C7.13189 27.5369 7.52539 27.1434 7.52539 26.658C7.52539 26.1726 7.13189 25.7791 6.64648 25.7791C6.16108 25.7791 5.76758 26.1726 5.76758 26.658C5.76758 27.1434 6.16108 27.5369 6.64648 27.5369Z" fill="#536DFE"/>
</g>
<defs>
<clipPath id="clip0_715_17">
<rect width="45" height="45" fill="white"/>
</clipPath>
</defs>
</svg>
