<svg width="45" height="45" viewBox="0 0 45 45" fill="none" xmlns="http://www.w3.org/2000/svg">
<g clip-path="url(#clip0_715_10)">
<path d="M44.9093 8.64624C44.9093 7.34546 44.25 5.25 43.4466 3.86183L42.2567 4.42925C42.7274 5.41652 43.5909 7.54339 43.5909 8.64624C43.5909 12.6868 40.3037 15.9741 36.2631 15.9741C32.2225 15.9741 28.9352 12.6868 28.9352 8.64624C28.9352 4.60564 32.2226 1.31836 36.2631 1.31836C38.6428 1.31836 40.8834 2.48124 42.2567 4.42925L43.4466 3.86183C41.8267 1.5641 39.0709 0 36.2631 0C32.2777 0 28.914 2.71072 27.9174 6.38499C27.8602 6.34131 27.8025 6.29622 27.7429 6.24937C27.2151 5.83418 26.558 5.31738 25.3239 5.31738C24.0901 5.31738 23.4331 5.83418 22.9051 6.24946C22.4254 6.62678 22.0788 6.89941 21.3014 6.89941C20.5238 6.89941 20.1772 6.62678 19.6975 6.24946C19.1697 5.83418 18.5125 5.31738 17.2787 5.31738H16.2828L18.9652 11.6371L17.2953 11.6455L17.302 12.9639L19.1038 12.9547C18.504 14.9977 17.4593 16.3305 15.9641 18.2376L15.9501 18.2553C15.22 19.1864 14.6374 20.217 14.2185 21.3184L15.4507 21.7871C15.8224 20.81 16.3396 19.8954 16.9877 19.0688L17.0016 19.051C18.6234 16.9825 19.824 15.4512 20.4737 12.9478L28.7414 12.9059C29.2654 13.8277 29.9536 14.6444 30.7664 15.3156C31.3978 16.5457 32.194 17.5748 33.322 18.9828C34.8149 20.8461 35.604 23.0956 35.604 25.4884C35.604 27.0962 35.2475 28.6349 34.5462 30.0648L25.4175 35.6146L19.674 33.6043L26.206 30.8361L25.3378 28.433L25.3301 28.4126C24.6963 26.8248 22.891 26.0474 21.3025 26.676L17.4146 28.1148C16.6883 27.4687 15.797 26.906 14.8261 26.5329C14.8017 26.2897 14.7855 26.0448 14.7785 25.8015C14.7502 24.8393 15.2677 22.5601 15.4978 21.6374L14.2185 21.3184C13.9593 22.3581 13.4288 24.7576 13.4606 25.8401C13.4637 25.9447 13.4684 26.0495 13.4743 26.1546C12.4384 25.9719 11.3605 26.031 10.3286 26.4428C8.99376 26.9756 7.86173 27.9034 7.1042 29.0775H5.58106V26.5541H0V45H5.58106V41.8381H9.55011L26.0808 43.6218L32.2219 38.6001L31.8046 38.0898L31.3873 37.5795L25.6734 42.2519L9.65628 40.5236L9.62104 40.5199H5.58106V30.3957H7.86155L8.05052 30.0598C8.65345 28.9883 9.63607 28.1386 10.8173 27.6671C12.9268 26.8253 15.3411 27.9022 16.7977 29.343L17.0961 29.6383L21.7673 27.9097L21.7829 27.9037C22.6954 27.5396 23.7331 27.9827 24.1019 28.892L24.5417 30.1095L15.5865 33.8602L16.078 35.0836L17.8621 34.3669L25.5699 37.0647L35.4421 31.0627C36.0281 30.7331 36.7632 30.9207 37.1189 31.4924C37.4751 32.0646 37.3175 32.8099 36.7603 33.1891L36.7364 33.2054L31.3873 37.5795L32.2219 38.6001L37.5277 34.2613C38.6506 33.4776 38.9639 31.9618 38.2384 30.7959C37.7756 30.0522 36.9998 29.6254 36.1877 29.5843C36.6752 28.2807 36.9223 26.9082 36.9223 25.4883C36.9223 22.8313 36.0091 20.2281 34.3509 18.1585C33.9395 17.6449 33.5748 17.185 33.2487 16.75C34.1878 17.1005 35.2034 17.2926 36.2631 17.2926C41.0307 17.2925 44.9093 13.4138 44.9093 8.64624ZM20.3944 11.6299L18.401 6.9336C18.5614 7.03318 18.7138 7.15298 18.8826 7.28569C19.4106 7.70098 20.0676 8.21777 21.3014 8.21777C22.5352 8.21777 23.1923 7.70098 23.7203 7.28569C24.2 6.90838 24.5465 6.63574 25.324 6.63574C26.1017 6.63574 26.4483 6.90838 26.9281 7.28569C27.1425 7.45427 27.3766 7.63717 27.6587 7.79634C27.6312 8.07601 27.6168 8.35945 27.6168 8.64624C27.6168 9.67966 27.7994 10.6712 28.1334 11.5907L20.3944 11.6299ZM4.2627 43.6816H1.31836V27.8723H4.2627V29.0773V43.6816Z" fill="#11C15B"/>
<path d="M33.9766 12.6714L37.5171 4.23619L38.7328 4.74643L35.1922 13.1816L33.9766 12.6714Z" fill="#11C15B"/>
<path d="M33.9052 3.43457C32.6791 3.43457 31.6816 4.54577 31.6816 5.91159C31.6816 7.27741 32.6791 8.38861 33.9052 8.38861C35.1313 8.38861 36.1287 7.27741 36.1287 5.91159C36.1287 4.54577 35.1313 3.43457 33.9052 3.43457ZM33.9052 7.07017C33.4061 7.07017 33 6.55038 33 5.9115C33 5.27263 33.4061 4.75284 33.9052 4.75284C34.4043 4.75284 34.8104 5.27263 34.8104 5.9115C34.8104 6.55038 34.4043 7.07017 33.9052 7.07017Z" fill="#11C15B"/>
<path d="M38.6864 14.1567C39.9125 14.1567 40.91 13.0455 40.91 11.6797C40.91 10.3138 39.9125 9.20264 38.6864 9.20264C37.4604 9.20264 36.4629 10.3138 36.4629 11.6797C36.4629 13.0455 37.4603 14.1567 38.6864 14.1567ZM38.6864 10.5211C39.1856 10.5211 39.5916 11.0409 39.5916 11.6797C39.5916 12.3186 39.1856 12.8384 38.6864 12.8384C38.1873 12.8384 37.7812 12.3186 37.7812 11.6797C37.7812 11.0409 38.1873 10.5211 38.6864 10.5211Z" fill="#11C15B"/>
<path d="M32.5055 22.5489L32.1999 23.5916H26.3752L26.6808 22.5489H32.5055ZM29.7729 29.5781L26.483 25.5511L26.4651 24.7961H28.101C28.5265 24.7961 28.889 24.7362 29.1887 24.6163C29.4883 24.4935 29.7175 24.3107 29.8763 24.068C30.0351 23.8223 30.1145 23.5137 30.1145 23.1421C30.1145 22.5938 29.9497 22.1639 29.6201 21.8522C29.2905 21.5376 28.7842 21.3803 28.101 21.3803H26.3752L26.6808 20.3736H28.101C28.8321 20.3736 29.4314 20.4949 29.8988 20.7376C30.3692 20.9773 30.7168 21.3069 30.9415 21.7264C31.1692 22.1429 31.2831 22.6148 31.2831 23.1421C31.2831 23.6185 31.1782 24.0575 30.9685 24.459C30.7617 24.8575 30.4291 25.1781 29.9707 25.4208C29.5153 25.6635 28.913 25.7848 28.164 25.7848H28.137L31.1752 29.5062V29.5781H29.7729ZM32.5055 20.3736L32.1999 21.4163L27.6156 21.3803L27.9213 20.3736H32.5055Z" fill="#11C15B"/>
</g>
<defs>
<clipPath id="clip0_715_10">
<rect width="45" height="45" fill="white"/>
</clipPath>
</defs>
</svg>
