<svg width="45" height="45" viewBox="0 0 45 45" fill="none" xmlns="http://www.w3.org/2000/svg">
<g clip-path="url(#clip0_719_256)">
<path d="M44.2827 34.7499L27.0825 4.95842C26.1261 3.30186 24.413 2.31274 22.5 2.31274C20.587 2.31274 18.8739 3.30186 17.9175 4.95842L0.717384 34.7499C-0.239128 36.4066 -0.239128 38.3847 0.717384 40.0413C1.6739 41.698 3.38688 42.687 5.2999 42.687H39.7001C41.613 42.687 43.3261 41.6979 44.2827 40.0414C45.2392 38.3847 45.2392 36.4066 44.2827 34.7499ZM41.9994 38.7232C41.5195 39.5545 40.6599 40.0507 39.7001 40.0507H5.2999C4.33996 40.0507 3.4804 39.5545 3.00051 38.7232C2.52063 37.8919 2.52063 36.8995 3.00051 36.0682L20.2008 6.27669C20.6806 5.44542 21.5402 4.94919 22.5001 4.94919C23.4598 4.94919 24.3195 5.44542 24.7994 6.27669L41.9995 36.0682C42.4793 36.8995 42.4793 37.8919 41.9994 38.7232Z" fill="#DE264E"/>
<path d="M23.818 15.4695H21.1816V28.6515H23.818V15.4695Z" fill="#DE264E"/>
<path d="M22.4998 31.2881C21.5307 31.2881 20.7422 32.0766 20.7422 33.0457C20.7422 34.0149 21.5307 34.8034 22.4998 34.8034C23.4689 34.8034 24.2575 34.0149 24.2575 33.0457C24.2575 32.0766 23.469 31.2881 22.4998 31.2881Z" fill="#DE264E"/>
</g>
<defs>
<clipPath id="clip0_719_256">
<rect width="45" height="45" fill="white"/>
</clipPath>
</defs>
</svg>
