<svg width="46" height="46" viewBox="0 0 46 46" fill="none" xmlns="http://www.w3.org/2000/svg">
<path d="M23 43.1564C17.6542 43.1564 12.5274 41.0328 8.74738 37.2527C4.96735 33.4727 2.84375 28.3459 2.84375 23.0001C2.84375 17.6543 4.96735 12.5275 8.74738 8.74749C12.5274 4.96746 17.6542 2.84386 23 2.84386C26.1411 2.83346 29.2394 3.57268 32.0375 5.00011C32.2025 5.08383 32.3493 5.19922 32.4697 5.3397C32.5901 5.48017 32.6816 5.64298 32.7391 5.81884C32.7965 5.99469 32.8188 6.18013 32.8046 6.36459C32.7904 6.54904 32.74 6.72889 32.6562 6.89386C32.5725 7.05883 32.4571 7.2057 32.3167 7.32608C32.1762 7.44646 32.0134 7.53799 31.8375 7.59544C31.6617 7.6529 31.4762 7.67516 31.2918 7.66094C31.1073 7.64673 30.9275 7.59633 30.7625 7.51261C28.3623 6.27555 25.7002 5.63255 23 5.63761C19.5705 5.63761 16.218 6.65433 13.3663 8.55926C10.5145 10.4642 8.29152 13.1718 6.97827 16.3399C5.66501 19.5079 5.32045 22.9942 5.98815 26.3581C6.65584 29.7219 8.30581 32.8123 10.7295 35.2386C13.1532 37.6649 16.2418 39.3182 19.6049 39.9896C22.968 40.6609 26.4547 40.3201 29.6242 39.0103C32.7937 37.7004 35.5037 35.4804 37.4117 32.6307C39.3197 29.781 40.34 26.4296 40.3438 23.0001C40.3535 22.844 40.3535 22.6875 40.3438 22.5314C40.3089 22.1584 40.4237 21.7869 40.6628 21.4985C40.9019 21.2102 41.2458 21.0287 41.6188 20.9939C41.9917 20.9591 42.3632 21.0738 42.6516 21.3129C42.9399 21.552 43.1214 21.8959 43.1562 22.2689V23.0001C43.1513 28.3444 41.0261 33.4683 37.2471 37.2472C33.4682 41.0262 28.3442 43.1514 23 43.1564Z" fill="#20BF55"/>
<path d="M22.6622 29.3938C22.48 29.3965 22.2992 29.3612 22.1313 29.2902C21.9634 29.2192 21.8122 29.114 21.6872 28.9813L12.631 20.0938C12.3676 19.8301 12.2197 19.4727 12.2197 19.1C12.2197 18.7274 12.3676 18.37 12.631 18.1063C12.9002 17.8462 13.2598 17.7009 13.6341 17.7009C14.0084 17.7009 14.3681 17.8462 14.6372 18.1063L22.681 26.0375L40.7747 8.24379C41.0439 7.98373 41.4036 7.83838 41.7779 7.83838C42.1521 7.83838 42.5118 7.98373 42.781 8.24379C43.0443 8.50746 43.1923 8.86488 43.1923 9.23754C43.1923 9.61019 43.0443 9.96761 42.781 10.2313L23.6935 28.9813C23.5593 29.1174 23.3984 29.2242 23.2209 29.2952C23.0435 29.3662 22.8533 29.3998 22.6622 29.3938Z" fill="#20BF55"/>
</svg>
