<svg width="46" height="46" viewBox="0 0 46 46" fill="none" xmlns="http://www.w3.org/2000/svg">
<path d="M42.6875 17.375H41.2812V13.4866C41.2812 10.9783 39.2405 8.9375 36.7322 8.9375H32.8438V6.45533C32.8438 3.947 30.803 1.90625 28.2947 1.90625H6.45533C3.947 1.90625 1.90625 3.947 1.90625 6.45533V32.5136C1.90625 35.0217 3.947 37.0625 6.45533 37.0625H14.6896C15.3622 41.0465 18.8274 44.0938 23.0001 44.0938C27.1729 44.0938 30.6379 41.0465 31.3107 37.0625H36.7325C39.2405 37.0625 41.2812 35.0218 41.2812 32.5134V28.625H42.6875C43.464 28.625 44.0938 27.9953 44.0938 27.2188V18.7812C44.0938 18.0047 43.464 17.375 42.6875 17.375ZM23 41.2812C19.8984 41.2812 17.375 38.7579 17.375 35.6562C17.375 32.5546 19.8984 30.0312 23 30.0312C26.1016 30.0312 28.625 32.5546 28.625 35.6562C28.625 38.7579 26.1016 41.2812 23 41.2812ZM38.4688 32.5134C38.4688 33.4707 37.6894 34.25 36.7322 34.25H31.3104C30.6378 30.266 27.1726 27.2188 22.9999 27.2188C18.8271 27.2188 15.3621 30.266 14.6893 34.25H6.45533C5.49809 34.25 4.71875 33.4707 4.71875 32.5134C4.71875 23.8273 4.71875 15.1413 4.71875 6.45519C4.71875 5.49809 5.49809 4.71875 6.45533 4.71875H28.2948C29.2519 4.71875 30.0312 5.49809 30.0312 6.45533V8.9375H18.7812C18.0047 8.9375 17.375 9.56722 17.375 10.3438C17.375 11.1203 18.0047 11.75 18.7812 11.75H36.7322C37.6894 11.75 38.4688 12.5293 38.4688 13.4866V17.375H32.8438C29.7421 17.375 27.2188 19.8984 27.2188 23C27.2188 26.1016 29.7421 28.625 32.8438 28.625H38.4688V32.5134ZM41.2812 25.8125H32.8438C31.2927 25.8125 30.0312 24.5511 30.0312 23C30.0312 21.4489 31.2927 20.1875 32.8438 20.1875H41.2812V25.8125Z" fill="white"/>
<path d="M25.8125 34.25H24.4062V32.8438C24.4062 32.0672 23.7765 31.4375 23 31.4375C22.2235 31.4375 21.5938 32.0672 21.5938 32.8438V34.25H20.1875C19.411 34.25 18.7812 34.8797 18.7812 35.6562C18.7812 36.4328 19.411 37.0625 20.1875 37.0625H21.5938V38.4688C21.5938 39.2453 22.2235 39.875 23 39.875C23.7765 39.875 24.4062 39.2453 24.4062 38.4688V37.0625H25.8125C26.589 37.0625 27.2188 36.4328 27.2188 35.6562C27.2188 34.8797 26.589 34.25 25.8125 34.25Z" fill="white"/>
</svg>
