<svg width="800" height="802" viewBox="0 0 800 802" fill="none" xmlns="http://www.w3.org/2000/svg">
<path d="M469.761 508.366C472.894 510.481 481.339 511.926 481.356 511.926C481.374 511.926 480.648 506.233 480.542 505.872C479.48 501.778 474.913 494.45 470.027 494.158C469.215 494.129 468.407 494.267 467.654 494.562C466.902 494.858 466.222 495.304 465.659 495.872C465.096 496.441 464.662 497.118 464.387 497.86C464.112 498.602 464.001 499.392 464.061 500.178C464.202 503.515 467.088 506.542 469.761 508.366Z" fill="#119285"/>
<path d="M467.797 532.585C471.337 533.789 479.197 533.135 479.835 533.066C480.216 537.48 480.896 541.864 481.87 546.19C482.437 548.719 483.074 551.23 483.747 553.759C483.269 552.658 482.826 551.66 482.738 551.54C480.596 547.842 474.205 541.959 469.408 542.939C468.618 543.121 467.876 543.462 467.231 543.941C466.585 544.42 466.052 545.026 465.664 545.719C465.276 546.413 465.044 547.178 464.981 547.964C464.918 548.751 465.027 549.541 465.301 550.284C466.327 553.466 469.939 555.651 473.001 556.717C476.064 557.784 482.897 557.354 484.703 557.216C484.968 558.196 485.216 559.16 485.499 560.123C486.809 564.75 488.137 569.36 489.288 573.883C489.713 575.483 490.049 577.083 490.403 578.682C489.96 577.702 489.589 576.876 489.518 576.756C487.376 573.075 480.985 567.175 476.188 568.156C475.399 568.339 474.659 568.682 474.015 569.162C473.372 569.641 472.839 570.247 472.452 570.94C472.065 571.632 471.831 572.396 471.768 573.182C471.704 573.967 471.81 574.757 472.081 575.5C473.108 578.699 476.719 580.867 479.799 581.933C482.879 583 489.022 582.621 491.164 582.466C491.465 584.186 491.766 585.752 491.996 587.369C492.12 588.469 492.315 589.519 492.386 590.637C492.457 591.755 492.545 592.821 492.634 593.905C492.722 595.986 492.811 598.136 492.846 600.166C492.846 601.593 492.846 602.935 492.846 604.294C492.457 602.694 491.625 599.564 491.536 599.306C489.978 595.35 484.579 588.59 479.693 588.831C478.883 588.894 478.097 589.122 477.384 589.501C476.672 589.879 476.05 590.4 475.559 591.028C475.067 591.656 474.718 592.378 474.534 593.147C474.349 593.915 474.334 594.713 474.488 595.487C475.002 598.79 478.241 601.49 481.109 602.987C484.26 604.707 491.908 605.171 492.846 605.223C492.846 607.476 492.846 609.661 492.846 611.725C492.757 615.922 492.58 619.689 492.368 622.939L495.501 623.541C495.643 620.101 495.749 616.197 495.749 611.759C495.749 609.471 495.749 607.029 495.749 604.535C498.141 604.089 500.505 603.515 502.83 602.815C504.76 605.859 510.425 610.108 511.151 610.641C509.876 612.516 508.619 614.339 507.415 616.025C505.096 619.258 502.954 622.114 501.025 624.625L504.388 625.279C506.052 623.008 507.929 620.445 509.805 617.624C511.097 615.715 512.461 613.668 513.824 611.535C514.691 611.897 521.772 614.786 525.348 614.7C528.605 614.7 532.748 613.634 534.748 610.916C535.243 610.291 535.597 609.573 535.787 608.806C535.978 608.04 536 607.244 535.853 606.468C535.706 605.693 535.393 604.957 534.935 604.306C534.476 603.656 533.882 603.107 533.19 602.694C528.942 600.321 520.993 604.002 517.754 606.857C517.577 607.012 515.718 609.059 514.567 610.383L516.231 607.769C517.346 606.048 518.409 604.174 519.559 602.23L521.135 599.34C521.684 598.377 522.144 597.311 522.657 596.279C523.79 593.888 524.817 591.394 525.808 588.865C527.402 589.811 533.155 593.114 536.43 593.509C539.705 593.905 543.883 593.509 546.29 591.153C546.879 590.609 547.343 589.95 547.652 589.22C547.961 588.49 548.108 587.704 548.083 586.915C548.058 586.126 547.862 585.351 547.507 584.641C547.152 583.93 546.647 583.301 546.025 582.793C542.219 579.835 533.775 582.294 530.092 584.634C529.862 584.771 527.437 586.749 526.145 587.85C526.711 586.319 527.295 584.806 527.826 583.258C529.367 578.751 530.783 574.141 532.217 569.497C532.642 568.087 533.102 566.693 533.544 565.3C534.111 565.644 540.873 569.686 544.502 570.134C547.742 570.546 551.973 570.134 554.38 567.777C554.966 567.233 555.428 566.576 555.735 565.847C556.042 565.119 556.188 564.335 556.163 563.548C556.138 562.761 555.943 561.988 555.59 561.28C555.237 560.571 554.734 559.942 554.115 559.435C550.291 556.459 541.847 558.919 538.183 561.258C537.917 561.447 534.447 564.268 533.598 565.042C534.589 561.963 535.598 558.902 536.713 555.926C538.228 551.9 540.002 547.971 542.024 544.161C542.29 544.333 549.317 548.581 553.035 549.046C556.275 549.458 560.506 549.046 562.913 546.689C563.5 546.144 563.961 545.485 564.269 544.755C564.576 544.025 564.722 543.24 564.697 542.452C564.672 541.664 564.476 540.889 564.123 540.179C563.77 539.469 563.268 538.839 562.648 538.33C558.824 535.371 550.38 537.831 546.715 540.17C546.432 540.359 542.697 543.404 542.059 544.006C542.183 543.799 542.29 543.559 542.413 543.335C544.544 539.571 547.021 536.002 549.813 532.671C551.318 530.813 552.876 529.11 554.434 527.51C555.655 528.439 561.302 532.671 564.595 533.376C567.888 534.081 572.012 534.202 574.685 532.086C575.33 531.607 575.863 531.003 576.251 530.31C576.638 529.618 576.871 528.855 576.935 528.069C576.998 527.284 576.891 526.494 576.619 525.752C576.347 525.009 575.918 524.331 575.358 523.761C571.906 520.407 563.232 521.937 559.426 523.881C559.213 523.984 557.195 525.292 555.744 526.272C556.452 525.55 557.177 524.793 557.868 524.122C560.47 521.576 563.019 519.392 565.285 517.483C566.595 516.416 567.799 515.47 568.932 514.593C570.614 514.885 577.429 516.003 580.669 515.229C583.908 514.455 587.644 512.649 589.007 509.57C589.352 508.856 589.539 508.08 589.555 507.291C589.571 506.503 589.416 505.72 589.101 504.993C588.785 504.266 588.316 503.612 587.723 503.073C587.131 502.534 586.428 502.122 585.661 501.864C581.005 500.454 574.03 505.683 571.499 509.157C571.286 509.45 568.436 514.507 568.525 514.524H568.613C567.516 515.35 566.33 516.244 565.073 517.242C562.754 519.099 560.152 521.215 557.478 523.726C554.565 526.387 551.816 529.213 549.247 532.189C546.344 535.499 543.755 539.057 541.511 542.819C541.514 542.865 541.514 542.911 541.511 542.957C541.812 541.598 542.537 537.796 542.555 537.47C542.856 533.238 540.873 524.896 536.324 523.142C535.562 522.869 534.75 522.757 533.94 522.81C533.13 522.864 532.341 523.083 531.624 523.453C530.908 523.823 530.279 524.336 529.781 524.958C529.282 525.58 528.923 526.298 528.729 527.063C527.773 530.28 529.544 534.03 531.509 536.558C533.721 539.413 540.714 543.129 541.263 543.438C539.071 547.32 537.155 551.343 535.527 555.479C534.553 557.887 533.651 560.329 532.783 562.806C533.013 561.619 533.208 560.553 533.208 560.398C533.509 556.184 531.526 547.842 526.977 546.07C526.215 545.798 525.403 545.685 524.593 545.739C523.783 545.792 522.994 546.011 522.277 546.382C521.561 546.752 520.932 547.264 520.434 547.887C519.935 548.509 519.576 549.226 519.382 549.992C518.426 553.208 520.197 556.958 522.162 559.486C524.127 562.015 530.057 565.335 531.615 566.177C531.296 567.124 530.96 568.069 530.641 569.033C529.119 573.591 527.596 578.149 525.985 582.57C525.401 584.135 524.782 585.649 524.215 587.162C524.41 586.113 524.569 585.219 524.569 585.081C524.87 580.867 522.887 572.524 518.356 570.753C517.592 570.483 516.78 570.373 515.97 570.427C515.16 570.482 514.37 570.702 513.653 571.071C512.936 571.441 512.306 571.952 511.805 572.573C511.304 573.194 510.942 573.91 510.743 574.675C509.805 577.891 511.575 581.641 513.523 584.169C515.47 586.698 520.834 589.691 522.71 590.705C522.02 592.254 521.347 593.784 520.621 595.246C520.09 596.227 519.666 597.225 519.081 598.188L517.435 601.043C516.32 602.763 515.187 604.672 514.054 606.392L511.752 609.833C512.337 608.285 513.416 605.223 513.523 604.965C514.21 601.298 513.923 597.521 512.691 593.991C512.793 593.585 512.852 593.17 512.868 592.752C512.925 591.966 512.812 591.178 512.536 590.437C512.259 589.696 511.826 589.02 511.263 588.452C510.701 587.885 510.022 587.438 509.271 587.142C508.519 586.846 507.712 586.706 506.902 586.732C502.016 587.042 497.466 594.369 496.387 598.48C496.387 598.721 495.944 601.421 495.732 603.124C495.732 602.109 495.732 601.112 495.643 600.063C495.555 597.981 495.413 595.9 495.271 593.664L494.953 590.396C494.864 589.312 494.634 588.16 494.475 587.042C494.067 584.427 493.501 581.796 492.899 579.164C494.776 579.164 501.432 578.751 504.37 577.444C507.309 576.137 510.619 573.471 511.274 570.185C511.465 569.412 511.485 568.608 511.331 567.827C511.178 567.046 510.855 566.305 510.385 565.655C509.914 565.004 509.307 564.458 508.603 564.053C507.898 563.648 507.113 563.393 506.3 563.305C501.432 562.875 495.785 569.446 494.085 573.35C493.979 573.591 493.094 576.532 492.634 578.149C492.244 576.567 491.872 574.984 491.43 573.402C490.155 568.826 488.721 564.234 487.305 559.641L486.03 555.427C486.703 555.427 494.634 555.169 497.927 553.587C500.848 552.193 504.176 549.63 504.831 546.328C505.019 545.555 505.036 544.752 504.881 543.972C504.726 543.192 504.403 542.452 503.934 541.802C503.464 541.152 502.857 540.607 502.155 540.201C501.452 539.795 500.668 539.538 499.856 539.448C494.988 539.035 489.341 545.606 487.641 549.51C487.517 549.802 486.225 554.034 485.96 555.117C485.039 552.021 484.189 548.925 483.393 545.846C482.357 541.684 481.6 537.461 481.127 533.204C481.445 533.204 489.713 532.98 493.094 531.363C496.015 529.97 499.325 527.39 499.98 524.105C500.168 523.333 500.186 522.531 500.032 521.752C499.879 520.973 499.557 520.235 499.089 519.585C498.621 518.935 498.017 518.389 497.316 517.982C496.615 517.575 495.834 517.317 495.023 517.225C490.155 516.812 484.508 523.382 482.809 527.287C482.667 527.596 481.286 532.137 481.038 532.98C481.038 532.722 480.95 532.481 480.932 532.223C480.573 527.946 480.615 523.645 481.056 519.375C481.251 517.001 481.587 514.765 481.959 512.58C483.517 512.684 490.58 513.131 493.784 512.013C496.988 510.895 500.44 508.727 501.45 505.528C501.716 504.784 501.819 503.993 501.75 503.208C501.681 502.422 501.443 501.66 501.05 500.97C500.658 500.28 500.12 499.679 499.472 499.204C498.824 498.73 498.08 498.394 497.289 498.218C492.51 497.272 486.154 503.206 484.012 506.904C483.906 507.111 482.95 509.278 482.242 510.86C482.419 509.88 482.596 508.865 482.791 507.936C483.517 504.496 484.42 501.228 485.216 498.424C485.694 496.825 486.154 495.397 486.615 494.073C488.19 493.402 494.51 490.632 496.776 488.293C499.042 485.954 501.131 482.41 500.511 479.108C500.391 478.337 500.108 477.599 499.678 476.94C499.249 476.281 498.684 475.717 498.018 475.281C497.352 474.846 496.6 474.551 495.811 474.413C495.021 474.275 494.21 474.298 493.43 474.481C488.739 475.788 485.907 483.907 485.765 488.138C485.765 488.5 486.243 494.245 486.331 494.21H486.42C485.977 495.483 485.499 496.859 485.004 498.373C484.136 501.176 483.233 504.341 482.348 507.85C481.442 511.634 480.756 515.464 480.295 519.323C479.764 523.643 479.628 528 479.888 532.344C479.888 532.344 479.888 532.447 479.888 532.499C479.374 531.209 477.799 527.614 477.639 527.338C475.48 523.658 469.089 517.758 464.309 518.738C463.521 518.922 462.78 519.265 462.137 519.745C461.493 520.224 460.961 520.83 460.573 521.522C460.186 522.215 459.953 522.979 459.889 523.764C459.825 524.55 459.932 525.34 460.202 526.083C461.123 529.351 464.734 531.535 467.797 532.585Z" fill="#4DBAAB"/>
<path d="M554.449 526.649C554.449 526.649 557.087 521.489 557.211 521.162C558.645 517.155 558.981 508.606 555.104 505.682C554.444 505.223 553.692 504.906 552.897 504.749C552.101 504.592 551.281 504.6 550.489 504.772C549.697 504.944 548.952 505.276 548.301 505.747C547.651 506.218 547.109 506.817 546.713 507.505C544.943 510.36 545.598 514.385 546.802 517.378C548.218 520.904 554.449 526.632 554.449 526.649Z" fill="#119285"/>
<path d="M288.114 184.978C291.459 185.443 298.735 183.258 298.735 183.258C298.735 183.258 295.85 179.027 295.637 178.786C293.106 175.965 286.52 171.906 282.555 173.626C281.905 173.918 281.325 174.34 280.854 174.863C280.382 175.387 280.029 176.001 279.817 176.666C279.605 177.331 279.539 178.032 279.624 178.723C279.708 179.414 279.941 180.08 280.307 180.678C281.758 183.293 285.281 184.565 288.114 184.978Z" fill="#263238"/>
<path d="M296.469 204.827C299.673 204.431 305.674 200.854 306.152 200.578C308.244 203.911 310.569 207.101 313.11 210.125C314.579 211.845 316.101 213.651 317.659 215.371C316.827 214.683 316.084 214.081 315.889 214.012C312.702 211.931 305.267 209.746 301.868 212.292C301.321 212.741 300.877 213.297 300.565 213.923C300.252 214.549 300.079 215.232 300.056 215.928C300.032 216.624 300.16 217.316 300.429 217.961C300.699 218.606 301.105 219.188 301.621 219.671C303.745 221.787 307.48 222.114 310.33 221.77C313.18 221.426 318.403 218.467 319.748 217.676C320.35 218.329 320.952 219 321.518 219.654C324.439 222.784 327.36 225.915 330.14 229.063C331.113 230.181 332.034 231.299 332.954 232.503C332.211 231.884 331.591 231.385 331.485 231.316C328.281 229.235 320.863 227.05 317.464 229.596C316.915 230.043 316.468 230.598 316.155 231.225C315.841 231.851 315.666 232.535 315.643 233.232C315.62 233.928 315.748 234.621 316.019 235.266C316.29 235.911 316.698 236.494 317.217 236.975C319.323 239.091 323.058 239.417 325.926 239.073C328.794 238.729 333.485 236.063 335.096 235.117C335.999 236.304 336.867 237.474 337.752 238.661C338.3 239.486 338.885 240.243 339.398 241.086L340.92 243.563C341.841 245.18 342.797 246.831 343.647 248.431C344.249 249.531 344.797 250.598 345.417 251.664C344.443 250.546 342.531 248.413 342.337 248.224C339.504 245.696 332.494 242.445 328.741 244.526C328.13 244.887 327.604 245.369 327.198 245.941C326.791 246.513 326.513 247.161 326.381 247.844C326.249 248.527 326.267 249.229 326.432 249.905C326.598 250.581 326.908 251.216 327.343 251.767C329.113 254.176 332.742 255.053 335.627 255.208C338.778 255.208 345.027 252.765 345.806 252.455C346.709 254.176 347.577 255.896 348.391 257.616C350.037 260.953 351.418 263.997 352.587 266.646L355.295 265.906C354.02 263.189 352.498 260.024 350.692 256.532C349.772 254.812 348.745 252.817 347.665 250.873C349.39 249.588 351.039 248.21 352.604 246.745C355.704 248.172 358.993 249.173 362.376 249.721C362.128 251.699 361.88 253.608 361.615 255.414C361.102 258.854 360.57 261.933 360.075 264.633L362.996 263.842C363.385 261.417 363.775 258.682 364.146 255.741C364.394 253.728 364.624 251.595 364.837 249.394C365.651 249.394 372.413 248.895 375.211 247.433C377.742 246.108 380.521 243.752 381.07 240.828C381.207 240.145 381.194 239.442 381.032 238.765C380.87 238.088 380.562 237.451 380.129 236.898C379.696 236.344 379.148 235.885 378.52 235.552C377.892 235.218 377.199 235.017 376.485 234.962C372.183 234.722 367.404 240.69 366.023 244.165C365.934 244.371 365.315 246.71 364.943 248.19C364.943 247.278 365.12 246.47 365.191 245.489C365.332 243.649 365.439 241.825 365.563 239.847V236.958C365.563 235.994 365.563 234.962 365.563 233.965C365.563 231.626 365.279 229.269 365.031 226.895C366.678 227.033 372.555 227.411 375.281 226.483C378.008 225.554 381.176 223.627 382.097 220.806C382.339 220.156 382.438 219.464 382.387 218.774C382.337 218.084 382.139 217.412 381.806 216.802C381.472 216.191 381.011 215.655 380.451 215.228C379.892 214.8 379.246 214.492 378.556 214.322C374.325 213.462 368.678 218.656 366.766 221.89C366.66 222.096 365.545 224.573 364.996 225.949C364.819 224.539 364.66 223.111 364.447 221.684C363.828 217.538 363.066 213.359 362.323 209.196C362.093 207.923 361.88 206.65 361.668 205.377C362.252 205.377 369.227 206.014 372.29 204.982C374.998 204.053 378.185 202.127 379.123 199.306C379.365 198.655 379.464 197.963 379.413 197.273C379.363 196.584 379.165 195.912 378.832 195.301C378.498 194.69 378.037 194.154 377.477 193.727C376.917 193.3 376.272 192.991 375.582 192.821C371.369 191.961 365.722 197.156 363.81 200.389C363.668 200.647 362.04 204.208 361.721 205.137C361.243 202.333 360.801 199.529 360.482 196.76C360.018 193.005 359.805 189.224 359.845 185.442C360.128 185.442 367.404 186.13 370.466 185.046C373.175 184.117 376.361 182.208 377.299 179.387C377.54 178.731 377.636 178.033 377.58 177.339C377.524 176.644 377.319 175.969 376.976 175.357C376.634 174.745 376.162 174.21 375.593 173.787C375.023 173.364 374.368 173.063 373.67 172.903C369.457 172.043 363.792 177.22 361.898 180.471C361.739 180.729 360.128 184.582 359.792 185.287C359.792 185.081 359.792 184.84 359.792 184.633C359.955 180.844 360.452 177.074 361.279 173.367C361.721 171.32 362.252 169.394 362.819 167.519C364.164 167.777 370.307 168.878 373.228 168.207C376.149 167.536 379.406 166.022 380.645 163.322C380.965 162.694 381.144 162.008 381.172 161.309C381.199 160.609 381.075 159.911 380.806 159.262C380.537 158.612 380.129 158.025 379.61 157.539C379.092 157.053 378.473 156.679 377.795 156.442C373.688 155.134 367.492 159.693 365.226 162.72C365.102 162.875 364.04 164.681 363.279 166.022C363.544 165.18 363.81 164.302 364.076 163.494C365.102 160.484 366.218 157.801 367.244 155.41C367.829 154.068 368.377 152.864 368.926 151.729C370.378 151.316 376.202 149.579 378.432 147.704C380.663 145.829 382.893 142.991 382.699 140.032C382.68 139.338 382.511 138.654 382.203 138.027C381.895 137.4 381.455 136.842 380.91 136.391C380.366 135.94 379.73 135.606 379.044 135.409C378.358 135.213 377.637 135.159 376.928 135.251C372.661 135.939 369.316 142.75 368.749 146.448C368.749 146.775 368.501 151.849 368.59 151.832H368.678C368.129 152.916 367.563 154.068 366.908 155.272C365.846 157.629 364.66 160.312 363.562 163.322C362.352 166.54 361.341 169.825 360.535 173.161C359.602 176.887 359.009 180.686 358.765 184.513V184.651C358.446 183.464 357.455 180.179 357.349 179.921C355.862 176.48 350.905 170.667 346.603 171.028C345.89 171.105 345.202 171.327 344.584 171.681C343.966 172.035 343.432 172.512 343.017 173.08C342.602 173.649 342.316 174.297 342.178 174.98C342.039 175.664 342.051 176.369 342.213 177.048C342.779 179.955 345.753 182.208 348.267 183.464C351.188 184.857 358.216 185.184 358.765 185.184C358.626 189.092 358.75 193.005 359.136 196.898C359.367 199.168 359.65 201.438 359.969 203.778C359.668 202.763 359.384 201.851 359.331 201.731C357.844 198.291 352.87 192.477 348.586 192.838C347.874 192.916 347.187 193.138 346.57 193.49C345.953 193.843 345.419 194.318 345.003 194.884C344.587 195.45 344.299 196.095 344.157 196.777C344.014 197.459 344.022 198.162 344.178 198.841C344.744 201.748 347.718 204.001 350.25 205.274C352.781 206.547 358.853 206.839 360.429 206.908C360.57 207.768 360.694 208.628 360.818 209.523C361.473 213.702 362.146 217.882 362.677 221.993C362.854 223.438 362.978 224.883 363.12 226.311C362.854 225.399 362.606 224.59 362.553 224.59C361.066 221.15 356.109 215.319 351.808 215.681C351.096 215.76 350.409 215.984 349.792 216.339C349.176 216.693 348.643 217.17 348.229 217.738C347.815 218.306 347.528 218.953 347.388 219.635C347.249 220.318 347.258 221.022 347.417 221.701C347.984 224.608 350.958 226.861 353.472 228.117C355.985 229.372 361.491 229.665 363.385 229.733C363.474 231.213 363.562 232.692 363.58 234.12C363.58 235.1 363.58 236.046 363.58 237.027C363.58 238.007 363.491 238.953 363.438 239.916C363.297 241.74 363.155 243.632 362.96 245.42C362.836 246.676 362.695 247.846 362.553 249.05C362.376 247.605 361.987 244.784 361.934 244.543C360.989 241.384 359.228 238.512 356.817 236.201C356.723 235.848 356.599 235.502 356.446 235.169C356.171 234.525 355.76 233.945 355.239 233.467C354.718 232.988 354.099 232.621 353.423 232.391C352.746 232.16 352.027 232.071 351.313 232.129C350.598 232.187 349.904 232.39 349.276 232.726C345.559 234.842 344.957 242.359 345.736 246.022C345.736 246.229 346.585 248.517 347.116 249.944C346.674 249.153 346.249 248.379 345.771 247.553C344.868 245.954 343.912 244.371 342.885 242.651L341.292 240.209C340.779 239.383 340.142 238.575 339.522 237.732C338.123 235.84 336.619 233.982 335.061 232.142C336.513 231.368 341.629 228.529 343.363 226.293C345.098 224.057 346.674 220.755 345.842 217.917C345.667 217.244 345.349 216.615 344.908 216.07C344.467 215.525 343.914 215.075 343.283 214.751C342.652 214.427 341.959 214.235 341.247 214.188C340.535 214.14 339.821 214.239 339.15 214.477C335.132 216.025 333.361 223.369 333.609 227.102C333.609 227.343 334.123 229.991 334.424 231.454C333.468 230.353 332.529 229.252 331.538 228.168C328.67 225.055 325.661 221.993 322.687 218.914L319.978 216.076C320.492 215.801 326.652 212.636 328.599 210.056C330.37 207.82 331.91 204.517 331.078 201.679C330.903 201.005 330.585 200.374 330.143 199.827C329.701 199.28 329.145 198.83 328.513 198.506C327.88 198.181 327.184 197.99 326.47 197.944C325.756 197.898 325.04 197.999 324.368 198.239C320.368 199.77 318.597 207.132 318.845 210.864C318.845 211.14 319.571 214.975 319.801 215.939C317.818 213.857 315.853 211.759 313.995 209.609C311.486 206.721 309.168 203.682 307.055 200.51C307.303 200.389 313.747 197.07 315.73 194.472C317.5 192.236 319.04 188.934 318.208 186.096C318.033 185.423 317.715 184.794 317.274 184.249C316.834 183.704 316.28 183.254 315.649 182.93C315.018 182.606 314.325 182.414 313.613 182.367C312.901 182.319 312.187 182.418 311.516 182.655C307.516 184.186 305.728 191.548 305.993 195.281C305.993 195.573 306.772 199.684 306.967 200.441L306.577 199.89C304.553 196.651 302.829 193.243 301.426 189.708C300.629 187.764 299.974 185.872 299.39 183.997C300.647 183.498 306.471 181.125 308.471 179.009C310.472 176.893 312.384 173.849 311.87 170.942C311.777 170.252 311.534 169.589 311.159 168.996C310.784 168.403 310.284 167.894 309.693 167.501C309.102 167.109 308.432 166.841 307.728 166.717C307.023 166.593 306.299 166.614 305.604 166.779C301.444 167.88 298.859 175.001 298.682 178.82C298.682 179.026 298.824 181.107 298.947 182.621C298.682 181.778 298.416 180.901 298.186 180.093C297.319 177.031 296.735 174.193 296.221 171.664C295.938 170.219 295.726 168.912 295.531 167.691C296.505 166.556 300.381 161.98 301.196 159.228C302.01 156.476 302.222 152.898 300.399 150.628C299.989 150.056 299.46 149.575 298.845 149.216C298.231 148.857 297.546 148.628 296.834 148.543C296.122 148.459 295.4 148.521 294.715 148.726C294.03 148.931 293.397 149.275 292.858 149.733C289.689 152.572 290.769 160.054 292.38 163.494C292.521 163.786 295.265 168.121 295.301 168.069C295.46 169.256 295.637 170.512 295.885 171.888C296.327 174.434 296.859 177.306 297.655 180.385C298.472 183.719 299.489 187.005 300.7 190.224C302.04 193.836 303.711 197.325 305.692 200.647C305.696 200.687 305.696 200.728 305.692 200.768C304.754 199.942 302.152 197.723 301.833 197.586C298.629 195.504 291.211 193.32 287.813 195.865C287.263 196.313 286.816 196.868 286.503 197.495C286.189 198.121 286.014 198.805 285.991 199.501C285.968 200.198 286.096 200.891 286.367 201.536C286.638 202.181 287.046 202.763 287.565 203.245C289.884 204.844 293.601 205.171 296.469 204.827Z" fill="#263238"/>
<path d="M362.341 166.779C362.341 166.779 362.341 161.619 362.341 161.378C361.845 157.68 358.641 150.799 354.392 150.043C353.684 149.938 352.962 149.979 352.271 150.164C351.58 150.348 350.937 150.671 350.383 151.112C349.829 151.553 349.377 152.102 349.055 152.724C348.733 153.346 348.549 154.026 348.515 154.721C348.267 157.662 350.48 160.604 352.622 162.461C355.101 164.646 362.341 166.779 362.341 166.779Z" fill="#263238"/>
<path d="M62.9185 673.647C66.0696 672.65 71.5043 667.73 71.5043 667.73C71.5043 667.73 67.0787 665.236 66.7777 665.116C63.2372 663.688 55.7135 662.932 52.9519 666.045C52.5112 666.576 52.1901 667.192 52.0093 667.852C51.8284 668.511 51.7919 669.2 51.9019 669.874C52.012 670.549 52.2663 671.193 52.6484 671.766C53.0305 672.339 53.5319 672.827 54.1203 673.2C56.6518 674.852 60.1923 674.49 62.9185 673.647Z" fill="#4DBAAB"/>
<path d="M79.1341 687.613C81.7895 685.893 85.4716 680.234 85.7549 679.77C89.0866 681.826 92.5584 683.659 96.1463 685.257C98.2352 686.203 100.36 687.08 102.502 687.957L100.395 687.458C96.6597 686.977 89.1361 688.198 87.3127 691.913C87.0317 692.54 86.8892 693.217 86.8943 693.9C86.8994 694.584 87.052 695.258 87.3424 695.881C87.6327 696.503 88.0542 697.06 88.5797 697.514C89.1051 697.968 89.7229 698.31 90.393 698.518C93.2077 699.482 96.642 698.191 98.9965 696.695C101.351 695.199 104.626 690.382 105.458 689.11L107.936 690.073C111.902 691.621 115.885 693.135 119.726 694.734C121.089 695.302 122.399 695.904 123.727 696.454L121.957 696.024C118.222 695.543 110.698 696.764 108.875 700.479C108.594 701.106 108.451 701.783 108.456 702.466C108.461 703.149 108.614 703.824 108.904 704.447C109.194 705.069 109.616 705.626 110.141 706.08C110.667 706.534 111.285 706.876 111.955 707.084C114.77 708.047 118.204 706.757 120.558 705.261C122.913 703.765 125.869 699.413 126.86 697.899C128.188 698.553 129.534 699.206 130.79 699.894C131.64 700.393 132.561 700.806 133.322 701.339L135.765 702.887C137.305 703.919 138.881 704.969 140.332 706.018C141.359 706.723 142.315 707.428 143.289 708.133C141.943 707.566 139.288 706.413 139.058 706.413C135.429 705.399 127.799 705.485 125.427 708.89C125.042 709.471 124.79 710.125 124.684 710.808C124.579 711.491 124.624 712.188 124.817 712.852C125.009 713.517 125.344 714.135 125.8 714.665C126.256 715.194 126.823 715.624 127.462 715.925C130.082 717.301 133.676 716.527 136.314 715.392C139.146 714.119 143.501 709.269 144.05 708.667C145.643 709.836 147.201 710.989 148.635 712.107C151.573 714.36 154.14 716.441 156.353 718.282L158.407 716.562C156.088 714.704 153.308 712.571 150.175 710.249C148.546 709.045 146.794 707.807 144.97 706.534C145.936 704.686 146.775 702.778 147.484 700.823C150.844 700.779 154.182 700.275 157.398 699.327C158.07 701.167 158.708 702.956 159.274 704.659C160.372 707.893 161.292 710.834 162.053 713.414L164.266 711.505C163.523 709.2 162.655 706.637 161.646 703.885C160.973 702.01 160.23 700.032 159.433 698.002C160.124 697.607 165.877 694.356 167.683 691.896C169.488 689.436 170.781 686.392 169.896 683.623C169.711 682.964 169.385 682.351 168.94 681.823C168.495 681.295 167.94 680.865 167.312 680.56C166.683 680.254 165.996 680.081 165.294 680.052C164.593 680.023 163.892 680.137 163.239 680.389C159.345 681.989 157.787 689.247 158.141 692.911C158.141 693.117 158.654 695.439 158.991 696.901L157.999 694.425C157.309 692.705 156.583 691.088 155.804 689.264C155.397 688.404 154.972 687.544 154.565 686.684C154.158 685.824 153.645 684.964 153.184 684.07C152.069 682.057 150.83 680.062 149.644 678.101C151.148 677.516 156.495 675.366 158.495 673.388C160.495 671.41 162.407 668.4 162.036 665.528C161.954 664.849 161.726 664.194 161.367 663.607C161.007 663.02 160.525 662.512 159.95 662.118C159.376 661.724 158.722 661.451 158.032 661.319C157.343 661.186 156.632 661.196 155.946 661.348C151.857 662.363 149.201 669.312 148.971 672.975C148.971 673.216 149.095 675.865 149.201 677.31C148.422 676.123 147.643 674.936 146.811 673.767C144.404 670.327 141.872 667.041 139.359 663.687C138.58 662.655 137.836 661.623 137.075 660.591C137.606 660.402 144.014 657.977 146.227 655.775C148.44 653.573 150.157 650.787 149.768 647.914C149.686 647.235 149.458 646.581 149.099 645.994C148.739 645.406 148.257 644.899 147.682 644.504C147.108 644.11 146.454 643.838 145.765 643.705C145.075 643.573 144.364 643.582 143.678 643.734C139.589 644.749 136.916 651.698 136.597 655.362C136.597 655.637 136.792 659.439 136.898 660.419C135.128 658.148 133.57 655.861 132.047 653.539C129.958 650.435 128.084 647.2 126.436 643.855C126.683 643.752 133.393 641.258 135.659 639.004C137.624 637.043 139.589 634.016 139.199 631.144C139.131 630.426 138.9 629.732 138.522 629.113C138.144 628.493 137.628 627.963 137.013 627.561C136.397 627.159 135.698 626.895 134.964 626.789C134.231 626.683 133.482 626.737 132.773 626.947C128.666 627.961 126.011 634.911 125.781 638.574C125.781 638.867 125.993 642.96 126.082 643.734C126.082 643.545 125.869 643.356 125.781 643.15C124.217 639.757 122.973 636.234 122.063 632.623C121.532 630.628 121.125 628.701 120.788 626.826C122.081 626.482 127.993 624.865 130.277 623.042C132.561 621.219 134.738 618.501 134.614 615.594C134.609 614.912 134.456 614.238 134.165 613.617C133.874 612.995 133.452 612.44 132.926 611.988C132.4 611.535 131.782 611.195 131.113 610.99C130.443 610.784 129.736 610.718 129.038 610.795C124.86 611.363 121.426 618.002 120.788 621.614C120.788 621.804 120.611 623.851 120.541 625.33C120.417 624.487 120.24 623.61 120.133 622.784C119.673 619.705 119.461 616.85 119.301 614.339C119.301 612.894 119.16 611.604 119.124 610.382C120.222 609.402 124.577 605.411 125.71 602.831C126.843 600.251 127.48 596.794 126.028 594.231C125.698 593.63 125.241 593.102 124.687 592.684C124.133 592.266 123.494 591.966 122.812 591.803C122.131 591.641 121.422 591.62 120.731 591.742C120.041 591.864 119.385 592.126 118.806 592.511C115.371 594.902 115.46 602.315 116.611 605.807C116.717 606.099 118.823 610.658 118.877 610.606C118.877 611.776 118.877 613.031 118.877 614.407C118.983 616.936 119.142 619.791 119.532 622.887C119.921 626.232 120.513 629.552 121.302 632.829C122.16 636.505 123.344 640.102 124.842 643.58C124.846 643.62 124.846 643.66 124.842 643.7C124.028 642.788 121.691 640.26 121.479 640.122C118.629 637.731 111.654 634.704 108.043 636.837C107.453 637.207 106.951 637.693 106.567 638.264C106.183 638.834 105.927 639.477 105.815 640.15C105.704 640.823 105.739 641.511 105.918 642.17C106.097 642.829 106.417 643.444 106.856 643.975C108.627 646.297 112.167 647.071 115.07 647.071C118.257 647.071 124.541 644.319 125.037 644.096C126.652 647.591 128.509 650.976 130.596 654.227C131.799 656.136 133.074 658.011 134.366 659.886C133.641 659.129 133.003 658.441 132.897 658.355C130.047 655.947 123.072 652.937 119.461 655.052C118.867 655.42 118.359 655.906 117.972 656.478C117.585 657.05 117.327 657.696 117.215 658.372C117.103 659.047 117.14 659.739 117.322 660.4C117.505 661.061 117.829 661.677 118.275 662.208C120.045 664.53 123.585 665.287 126.471 665.304C129.357 665.321 134.756 663.051 136.172 662.431L137.694 664.582C140.137 668.022 142.58 671.376 144.882 674.781C145.696 675.968 146.457 677.19 147.201 678.394C146.564 677.706 146.015 677.138 145.926 677.069C143.076 674.661 136.101 671.634 132.49 673.767C131.896 674.133 131.389 674.617 131.002 675.188C130.615 675.758 130.357 676.402 130.245 677.077C130.133 677.751 130.17 678.441 130.352 679.101C130.535 679.761 130.859 680.376 131.304 680.905C133.074 683.227 136.615 684.001 139.518 684.001C142.421 684.001 147.254 681.971 148.953 681.249C149.679 682.505 150.423 683.76 151.078 685.016C151.52 685.876 151.998 686.736 152.37 687.579C152.742 688.422 153.167 689.299 153.556 690.176C154.229 691.896 154.955 693.616 155.574 695.233C156.034 696.385 156.424 697.486 156.831 698.587C156.052 697.4 154.441 695.147 154.282 694.889C152.039 692.511 149.204 690.734 146.05 689.729C145.816 689.447 145.549 689.193 145.254 688.972C144.735 688.551 144.134 688.237 143.487 688.049C142.84 687.862 142.161 687.804 141.49 687.879C140.819 687.955 140.171 688.163 139.586 688.489C139 688.816 138.489 689.256 138.084 689.78C135.747 693.221 138.58 700.101 140.934 702.956C141.076 703.111 142.811 704.797 143.908 705.829L141.678 704.281C140.155 703.248 138.597 702.268 136.933 701.184L134.455 699.705C133.623 699.189 132.685 698.759 131.799 698.26C129.728 697.177 127.586 696.179 125.391 695.233C126.312 693.926 129.551 689.282 130.082 686.633C130.613 683.984 130.525 680.372 128.524 678.222C128.071 677.699 127.509 677.275 126.876 676.978C126.243 676.68 125.552 676.516 124.849 676.494C124.146 676.473 123.447 676.596 122.796 676.855C122.145 677.114 121.557 677.504 121.072 677.998C118.239 681.043 119.956 688.318 121.851 691.432C121.957 691.638 123.621 693.771 124.506 694.872C123.178 694.304 121.851 693.737 120.505 693.152C116.575 691.621 112.557 690.176 108.556 688.731L104.891 687.39C105.228 686.925 109.193 681.473 109.795 678.445C110.326 675.745 110.238 672.184 108.237 670.017C107.782 669.497 107.22 669.075 106.587 668.779C105.954 668.483 105.264 668.319 104.562 668.298C103.86 668.277 103.161 668.399 102.51 668.657C101.859 668.914 101.272 669.302 100.784 669.793C97.952 672.838 99.6692 680.114 101.563 683.244C101.705 683.485 104.042 686.547 104.679 687.304C101.988 686.306 99.3682 685.291 96.7305 684.19C93.2394 682.703 89.8459 681.009 86.5692 679.116C86.7108 678.892 90.8886 673.233 91.4905 670.12C92.0216 667.437 91.9331 663.859 89.9327 661.709C89.4805 661.185 88.9199 660.76 88.2874 660.461C87.6549 660.162 86.9646 659.996 86.2616 659.973C85.5585 659.95 84.8584 660.072 84.2069 660.329C83.5553 660.587 82.9669 660.975 82.4799 661.468C79.6474 664.53 81.3823 671.789 83.2588 674.919C83.4181 675.177 85.9319 678.462 86.4276 679.03L85.8434 678.72C82.6123 676.725 79.5729 674.451 76.7619 671.926C75.1864 670.55 73.7525 669.157 72.4071 667.764C73.2922 666.783 77.293 662.277 78.1604 659.542C79.0279 656.807 79.3111 653.35 77.5585 650.941C77.1684 650.375 76.6596 649.894 76.0653 649.531C75.471 649.168 74.8047 648.931 74.1098 648.835C73.4148 648.74 72.7069 648.787 72.0322 648.975C71.3575 649.163 70.7313 649.487 70.1942 649.927C67.0255 652.644 67.9283 660.006 69.433 663.377C69.433 663.549 70.566 665.321 71.3626 666.611C70.7607 665.958 70.1234 665.321 69.5923 664.702C67.468 662.38 65.6801 660.109 64.1045 658.097C63.2194 656.962 62.4405 655.895 61.7324 654.898C62.0864 653.504 63.5026 647.828 62.9184 645.059C62.3343 642.29 61.0066 639.073 58.3335 637.766C57.7161 637.426 57.0314 637.219 56.325 637.157C55.6186 637.095 54.9066 637.179 54.2366 637.406C53.5666 637.632 52.9539 637.994 52.4393 638.469C51.9248 638.943 51.5201 639.518 51.2524 640.157C49.73 643.992 54.0317 650.116 56.9703 652.421C57.2182 652.627 61.573 655.293 61.5907 655.224V655.138C62.2634 656.102 62.9893 657.151 63.8036 658.269C65.3437 660.316 67.0963 662.603 69.1144 664.994C71.3248 667.58 73.6892 670.039 76.1954 672.356C78.9854 674.983 82.0129 677.361 85.2415 679.46H85.3654C84.1793 679.133 80.7981 678.325 80.5326 678.29C76.7973 677.809 69.2737 679.03 67.4503 682.745C67.1693 683.372 67.0268 684.049 67.0319 684.732C67.037 685.416 67.1897 686.09 67.48 686.713C67.7703 687.335 68.1918 687.892 68.7173 688.346C69.2428 688.8 69.8605 689.143 70.5306 689.35C73.3453 690.4 76.7796 689.11 79.1341 687.613Z" fill="#119285"/>
<path d="M120.117 626.328C120.205 626.328 117.851 621.873 117.674 621.597C115.567 618.553 109.672 613.857 105.601 614.975C104.929 615.179 104.31 615.518 103.783 615.97C103.256 616.422 102.834 616.977 102.543 617.599C102.252 618.221 102.1 618.896 102.096 619.579C102.092 620.262 102.237 620.938 102.52 621.563C103.618 624.264 106.875 625.932 109.601 626.723C112.788 627.514 120.117 626.328 120.117 626.328Z" fill="#4DBAAB"/>
<path d="M366.43 197.432L350.586 210.969" stroke="#263238" stroke-linecap="round" stroke-linejoin="round"/>
<path d="M507.432 76.9922L415.254 155.719" stroke="#263238" stroke-linecap="round" stroke-linejoin="round"/>
<path d="M493.642 73.6387L404.014 105.46" stroke="#263238" stroke-linecap="round" stroke-linejoin="round"/>
<path d="M411.555 60.6172L354.021 65.2613" stroke="#263238" stroke-linecap="round" stroke-linejoin="round"/>
<path d="M478.116 55.2168L417.98 60.0846" stroke="#263238" stroke-linecap="round" stroke-linejoin="round"/>
<path d="M452.623 20.5055L392.682 1" stroke="#263238" stroke-linecap="round" stroke-linejoin="round"/>
<path d="M472.948 26.7493L460.963 23.0684" stroke="#263238" stroke-linecap="round" stroke-linejoin="round"/>
<path d="M713.916 197.432L729.76 210.969" stroke="#263238" stroke-linecap="round" stroke-linejoin="round"/>
<path d="M572.914 76.9922L704.162 189.106" stroke="#263238" stroke-linecap="round" stroke-linejoin="round"/>
<path d="M586.705 73.6387L676.334 105.46" stroke="#263238" stroke-linecap="round" stroke-linejoin="round"/>
<path d="M668.773 60.6172L726.307 65.2613" stroke="#263238" stroke-linecap="round" stroke-linejoin="round"/>
<path d="M602.213 55.2168L662.367 60.0846" stroke="#263238" stroke-linecap="round" stroke-linejoin="round"/>
<path d="M627.721 20.5049L673.517 6.40039" stroke="#263238" stroke-linecap="round" stroke-linejoin="round"/>
<path d="M607.381 26.7493L619.383 23.0684" stroke="#263238" stroke-linecap="round" stroke-linejoin="round"/>
<path d="M541.903 62.4902H532.414V101.742H541.903V62.4902Z" fill="#F4B45C" stroke="#263238" stroke-linecap="round" stroke-linejoin="round"/>
<path d="M551.178 110.154H523.137L526.447 94.9316H547.867L551.178 110.154Z" fill="#F4B45C" stroke="#263238" stroke-linecap="round" stroke-linejoin="round"/>
<path d="M568.068 116.552H506.25L512.835 102.533H561.482L568.068 116.552Z" fill="#F4B45C" stroke="#263238" stroke-linecap="round" stroke-linejoin="round"/>
<path d="M505.824 20.9336C501.402 20.8516 497.055 22.0507 493.338 24.378C489.62 26.7052 486.699 30.0553 484.949 34.0013C483.198 37.9473 482.696 42.3104 483.506 46.5347C484.317 50.7589 486.404 54.653 489.501 57.7206C492.598 60.7882 496.564 62.8905 500.896 63.7594C505.227 64.6283 509.726 64.2246 513.82 62.5997C517.914 60.9747 521.418 58.2022 523.884 54.6354C526.35 51.0686 527.668 46.8691 527.669 42.572C527.697 39.7575 527.154 36.9651 526.071 34.3545C524.989 31.7438 523.387 29.3659 521.359 27.3566C519.33 25.3472 516.914 23.7458 514.249 22.6438C511.583 21.5417 508.72 20.9606 505.824 20.9336ZM505.824 58.775C502.527 58.833 499.286 57.9359 496.516 56.198C493.746 54.46 491.571 51.96 490.268 49.0164C488.965 46.0729 488.594 42.8191 489.202 39.6699C489.81 36.5207 491.369 33.6186 493.681 31.3335C495.992 29.0484 498.952 27.4839 502.182 26.8392C505.412 26.1945 508.767 26.499 511.818 27.7137C514.87 28.9285 517.48 30.9985 519.316 33.66C521.152 36.3215 522.131 39.4539 522.128 42.658C522.142 46.8812 520.435 50.9381 517.38 53.942C514.325 56.946 510.17 58.6526 505.824 58.6889V58.775Z" fill="#F4B45C" stroke="#263238" stroke-linecap="round" stroke-linejoin="round"/>
<path d="M571.802 20.9336C567.381 20.8516 563.034 22.0507 559.316 24.378C555.598 26.7052 552.678 30.0553 550.927 34.0013C549.176 37.9473 548.674 42.3104 549.485 46.5347C550.296 50.7589 552.382 54.653 555.479 57.7206C558.576 60.7882 562.543 62.8905 566.874 63.7594C571.205 64.6283 575.705 64.2246 579.799 62.5997C583.893 60.9747 587.396 58.2022 589.863 54.6354C592.329 51.0686 593.646 46.8691 593.647 42.572C593.675 39.7575 593.133 36.9651 592.05 34.3545C590.967 31.7438 589.366 29.3659 587.337 27.3566C585.309 25.3472 582.893 23.7458 580.227 22.6438C577.562 21.5417 574.699 20.9606 571.802 20.9336ZM571.802 58.775C568.504 58.8365 565.263 57.9423 562.49 56.2065C559.717 54.4707 557.539 51.9719 556.234 49.0287C554.929 46.0855 554.555 42.8312 555.161 39.6809C555.767 36.5306 557.324 33.6269 559.635 31.3401C561.946 29.0533 564.905 27.487 568.136 26.8409C571.367 26.1948 574.722 26.4981 577.775 27.7123C580.827 28.9265 583.438 30.9965 585.275 33.6583C587.112 36.3201 588.092 39.4532 588.089 42.658C588.103 46.8782 586.398 50.9326 583.347 53.936C580.296 56.9394 576.145 58.6481 571.802 58.6889V58.775Z" fill="#F4B45C" stroke="#263238" stroke-linecap="round" stroke-linejoin="round"/>
<path d="M537.159 73.293C533.533 73.2953 529.943 72.6034 526.592 71.2568C523.242 69.9101 520.197 67.9353 517.633 65.445C515.068 62.9547 513.034 59.9978 511.645 56.7432C510.257 53.4887 509.543 50.0002 509.543 46.4773V18.8359H564.722V46.4773C564.722 53.5833 561.819 60.3988 556.651 65.4267C551.483 70.4547 544.473 73.2839 537.159 73.293Z" fill="#F4B45C" stroke="#263238" stroke-linecap="round" stroke-linejoin="round"/>
<path d="M536.397 27.6602L539.955 38.2901H551.462L542.15 44.8608L545.709 55.4907L536.397 48.9201L527.085 55.4907L530.644 44.8608L521.332 38.2901H532.839L536.397 27.6602Z" fill="#263238"/>
<path d="M628.377 116.691H447.102V277.276H628.377V116.691Z" fill="#263238" stroke="#263238" stroke-linejoin="round"/>
<path d="M567.586 116.691H447.102V277.276H567.586V116.691Z" fill="#ECECEC" stroke="#263238" stroke-linejoin="round"/>
<path d="M488.824 196.469H307.549V357.054H488.824V196.469Z" fill="#263238" stroke="#263238" stroke-linejoin="round"/>
<path d="M428.033 196.469H307.549V357.054H428.033V196.469Z" fill="#ECECEC" stroke="#263238" stroke-linejoin="round"/>
<path d="M389.461 241.964V229.132H381.193C380.563 226.892 379.622 224.745 378.396 222.751L383.513 217.763L374.166 208.681L369.067 213.635C366.781 212.288 364.298 211.285 361.703 210.659V204.725H348.479V210.659C345.624 211.371 342.909 212.533 340.442 214.099L336.795 210.556L327.501 219.586L331.449 223.422C329.973 225.993 328.961 228.792 328.457 231.695H323.43V244.544H329.449C330.364 247.199 331.709 249.696 333.432 251.94L329.36 255.896L338.654 264.927L343.699 260.025C346.057 261.091 348.561 261.821 351.134 262.192V268.883H364.341V260.885C366.536 260.111 368.618 259.065 370.536 257.771L376.042 263.121L385.389 254.039L379.246 248.07C380.271 246.119 381.038 244.05 381.53 241.912L389.461 241.964ZM355.1 252.284C351.829 252.288 348.63 251.348 345.909 249.585C343.188 247.822 341.066 245.314 339.811 242.379C338.557 239.444 338.227 236.213 338.863 233.095C339.499 229.978 341.073 227.114 343.384 224.865C345.696 222.617 348.642 221.085 351.85 220.464C355.058 219.842 358.383 220.159 361.405 221.375C364.428 222.59 367.011 224.649 368.829 227.292C370.646 229.934 371.616 233.041 371.616 236.219C371.607 240.471 369.863 244.546 366.767 247.551C363.671 250.555 359.476 252.245 355.1 252.25V252.284Z" fill="#10235A"/>
<path d="M401.55 292.877V283.434H395.478C395.001 281.787 394.305 280.209 393.407 278.738L397.178 275.074L390.309 268.366L386.556 272.012C384.874 271.023 383.048 270.286 381.139 269.828V265.459H371.42V269.828C369.321 270.337 367.323 271.179 365.508 272.322L362.905 269.742L356.037 276.416L358.94 279.237C357.858 281.132 357.11 283.19 356.727 285.326H353.045V294.769H357.471C358.14 296.72 359.126 298.555 360.392 300.204L357.4 303.111L364.268 309.785L367.986 306.19C369.718 306.964 371.553 307.497 373.438 307.772V312.692H383.157V306.826C384.764 306.237 386.287 305.451 387.689 304.487L391.743 308.426L398.612 301.752L394.097 297.366C394.848 295.933 395.407 294.413 395.761 292.842L401.55 292.877ZM376.289 300.428C373.887 300.428 371.539 299.736 369.542 298.439C367.545 297.143 365.988 295.3 365.069 293.144C364.15 290.988 363.909 288.615 364.378 286.326C364.846 284.037 366.003 281.935 367.701 280.285C369.4 278.634 371.564 277.511 373.919 277.055C376.275 276.6 378.717 276.834 380.936 277.727C383.155 278.62 385.052 280.132 386.386 282.073C387.72 284.013 388.433 286.294 388.433 288.628C388.433 290.178 388.118 291.712 387.508 293.144C386.898 294.575 386.003 295.876 384.876 296.972C383.748 298.067 382.409 298.937 380.936 299.53C379.462 300.123 377.883 300.428 376.289 300.428Z" fill="#10235A"/>
<path d="M589.058 300.084H407.783V460.669H589.058V300.084Z" fill="#263238" stroke="#263238" stroke-linejoin="round"/>
<path d="M528.267 300.084H407.783V460.669H528.267V300.084Z" fill="#ECECEC" stroke="#263238" stroke-linejoin="round"/>
<path d="M498.739 328.052L488.277 320.552C486.3 319.133 483.926 318.331 481.469 318.254C479.012 318.177 476.589 318.829 474.522 320.122L453.775 332.163C452.68 332.815 451.876 333.842 451.523 335.042C451.169 336.241 451.291 337.526 451.864 338.643C452.438 339.759 453.421 340.626 454.62 341.073C455.819 341.52 457.147 341.513 458.342 341.056L477.726 334.588L500.988 357.981L515.451 353.079V324.474L498.739 328.052Z" fill="#E15165"/>
<path d="M475.159 337.753L455.846 344.221C452.305 345.7 448.464 339.989 448.464 336.274C448.464 331.475 453.172 330.15 456.872 326.968L460.413 323.941C458.505 322.254 456.121 321.162 453.568 320.806C451.014 320.451 448.41 320.848 446.091 321.946C440.531 324.592 434.136 325.06 428.229 323.253L423.096 321.688V353.474L429.646 354.266L430.265 353.75C432.406 351.966 435.175 351.057 437.99 351.214C440.806 351.371 443.449 352.582 445.366 354.592L468.592 378.863C469.118 379.409 469.838 379.742 470.607 379.793C471.376 379.844 472.136 379.61 472.734 379.138C473.049 378.886 473.309 378.575 473.497 378.224C473.686 377.872 473.799 377.487 473.83 377.092C473.862 376.697 473.811 376.299 473.68 375.924C473.549 375.548 473.342 375.202 473.07 374.906L467.264 368.577L475.319 373.737C476.096 374.193 477.015 374.362 477.91 374.215C478.805 374.068 479.616 373.613 480.194 372.934C480.773 372.254 481.082 371.396 481.065 370.514C481.047 369.632 480.704 368.786 480.098 368.129L475.425 363.416L482.506 367.768C483.358 368.269 484.367 368.457 485.349 368.298C486.332 368.14 487.224 367.646 487.865 366.905C488.505 366.164 488.853 365.225 488.844 364.258C488.835 363.29 488.471 362.357 487.817 361.628L483.621 357.069L491.304 361.593C491.883 361.934 492.556 362.092 493.232 362.046C493.907 362 494.551 361.751 495.075 361.335C495.434 361.05 495.727 360.694 495.935 360.291C496.142 359.888 496.259 359.446 496.277 358.995C496.296 358.545 496.215 358.096 496.042 357.678C495.868 357.26 495.605 356.882 495.269 356.571L475.159 337.753Z" fill="#E15165"/>
<path d="M439.026 365.774L442 362.127C442.599 361.342 442.86 360.361 442.728 359.392C442.596 358.423 442.082 357.542 441.293 356.935C440.505 356.327 439.505 356.041 438.504 356.137C437.503 356.233 436.579 356.704 435.928 357.449L432.954 361.095C432.356 361.881 432.095 362.862 432.227 363.831C432.359 364.8 432.873 365.681 433.661 366.288C434.45 366.896 435.45 367.182 436.451 367.086C437.452 366.99 438.376 366.519 439.026 365.774Z" fill="#E15165"/>
<path d="M444.762 371.088L447.736 367.442C448.298 366.654 448.53 365.688 448.384 364.74C448.239 363.793 447.727 362.935 446.953 362.341C446.179 361.747 445.202 361.461 444.219 361.543C443.236 361.625 442.323 362.067 441.664 362.78L438.69 366.41C438.129 367.197 437.897 368.163 438.042 369.111C438.188 370.058 438.7 370.917 439.473 371.511C440.247 372.105 441.225 372.39 442.207 372.308C443.19 372.226 444.104 371.784 444.762 371.071V371.088Z" fill="#E15165"/>
<path d="M450.444 376.403L453.401 372.774C453.999 371.988 454.26 371.008 454.128 370.039C453.996 369.07 453.482 368.188 452.694 367.581C451.906 366.974 450.905 366.688 449.904 366.784C448.903 366.88 447.98 367.35 447.329 368.095L444.337 371.742C443.701 372.523 443.409 373.517 443.525 374.506C443.641 375.496 444.156 376.401 444.957 377.022C445.357 377.336 445.818 377.568 446.312 377.707C446.806 377.845 447.323 377.887 447.834 377.829C448.345 377.772 448.838 377.616 449.287 377.371C449.735 377.126 450.128 376.797 450.444 376.403Z" fill="#E15165"/>
<path d="M458.501 372.808C458.103 372.5 457.647 372.273 457.157 372.137C456.668 372.002 456.157 371.962 455.652 372.02C455.147 372.077 454.658 372.231 454.215 372.473C453.771 372.714 453.381 373.038 453.067 373.427L450.093 377.056C449.756 377.442 449.503 377.889 449.348 378.371C449.193 378.853 449.14 379.361 449.191 379.863C449.242 380.366 449.396 380.854 449.645 381.297C449.894 381.741 450.232 382.131 450.64 382.445C451.047 382.759 451.515 382.99 452.017 383.124C452.518 383.259 453.042 383.294 453.557 383.228C454.073 383.162 454.569 382.995 455.017 382.739C455.465 382.482 455.855 382.141 456.165 381.735L459.139 378.088C459.455 377.701 459.689 377.258 459.829 376.782C459.968 376.307 460.009 375.81 459.95 375.319C459.891 374.829 459.732 374.354 459.484 373.923C459.235 373.492 458.901 373.113 458.501 372.808Z" fill="#E15165"/>
<path d="M431.238 402.65H249.963V563.235H431.238V402.65Z" fill="#263238" stroke="#263238" stroke-linejoin="round"/>
<path d="M370.447 402.65H249.963V563.235H370.447V402.65Z" fill="#ECECEC" stroke="#263238" stroke-linejoin="round"/>
<path d="M281.508 483.098H268.178V504.581H281.508V483.098Z" fill="#4DBAAB"/>
<path d="M297.688 473.914H284.357V504.6H297.688V473.914Z" fill="#4DBAAB"/>
<path d="M313.889 467.635H300.559V504.582H313.889V467.635Z" fill="#4DBAAB"/>
<path d="M330.33 458H317V503.324H330.33V458Z" fill="#119285"/>
<path d="M322.19 445.791L311.444 449.059L314.294 451.605L306.664 459.689L288.749 462.992L269.914 477.045C269.541 477.321 269.296 477.73 269.233 478.181C269.17 478.632 269.294 479.09 269.577 479.453C269.864 479.812 270.286 480.047 270.751 480.105C271.215 480.163 271.684 480.04 272.056 479.762L290.325 466.174L308.559 462.734L316.985 453.824L319.835 456.369L322.19 445.791Z" fill="#4DBAAB"/>
<path d="M541.084 524.553H359.809V685.138H541.084V524.553Z" fill="#263238" stroke="#263238" stroke-linejoin="round"/>
<path d="M480.293 524.553H359.809V685.138H480.293V524.553Z" fill="#ECECEC" stroke="#263238" stroke-linejoin="round"/>
<path d="M439.487 581.228L428.405 574.124V572.094C430.752 569.064 432.059 565.393 432.14 561.602C432.14 552.296 428.228 551.281 423.377 551.281C418.527 551.281 414.615 553.311 414.615 561.602C414.707 565.475 416.072 569.217 418.509 572.283V573.47L406.365 581.228C405.347 581.878 404.512 582.764 403.934 583.805C403.356 584.847 403.054 586.013 403.055 587.196V589.742L422.351 597.964L442.85 589.742V587.196C442.845 586.008 442.535 584.84 441.948 583.797C441.36 582.755 440.514 581.872 439.487 581.228Z" fill="#6D8CEB"/>
<path d="M451.648 570.752C451.66 565.409 450.092 560.175 447.13 555.673C444.168 551.172 439.938 547.591 434.941 545.359C429.945 543.127 424.394 542.336 418.949 543.081C413.504 543.826 408.394 546.076 404.227 549.563C400.06 553.049 397.012 557.626 395.445 562.748C393.878 567.869 393.859 573.32 395.39 578.452C396.921 583.584 399.937 588.181 404.079 591.695C408.222 595.209 413.316 597.492 418.756 598.273V620.273C417.939 620.824 417.27 621.56 416.808 622.416C416.345 623.273 416.103 624.225 416.101 625.192V662.518C416.101 664.114 416.754 665.646 417.916 666.775C419.078 667.904 420.654 668.538 422.297 668.538C423.94 668.538 425.516 667.904 426.678 666.775C427.84 665.646 428.493 664.114 428.493 662.518V625.192C428.495 624.224 428.255 623.27 427.792 622.413C427.329 621.556 426.658 620.821 425.837 620.273V598.497C432.91 597.795 439.463 594.569 444.231 589.445C448.998 584.32 451.641 577.66 451.648 570.752ZM399.567 570.752C399.563 566.258 400.932 561.863 403.499 558.124C406.067 554.385 409.718 551.47 413.99 549.748C418.263 548.025 422.966 547.573 427.503 548.448C432.041 549.322 436.209 551.485 439.481 554.662C442.754 557.839 444.983 561.888 445.886 566.296C446.79 570.704 446.328 575.274 444.559 579.426C442.789 583.579 439.792 587.129 435.946 589.627C432.1 592.124 427.578 593.457 422.952 593.457C416.756 593.448 410.816 591.054 406.433 586.798C402.049 582.543 399.581 576.773 399.567 570.752Z" fill="#6D8CEB"/>
<path d="M324.084 640.416H142.809V801.001H324.084V640.416Z" fill="#263238" stroke="#263238" stroke-linejoin="round"/>
<path d="M263.293 640.416H142.809V801.001H263.293V640.416Z" fill="#ECECEC" stroke="#263238" stroke-linejoin="round"/>
<path d="M245.202 739.026C245.201 737.839 244.896 736.67 244.315 735.626C243.734 734.581 242.896 733.693 241.874 733.041L230.739 725.902V723.873C233.092 720.844 234.404 717.174 234.492 713.38C234.492 704.092 230.562 703.06 225.641 703.06C220.72 703.06 216.878 705.09 216.878 713.38C216.957 717.256 218.323 721.003 220.773 724.062V725.266L208.629 733.006C207.607 733.658 206.769 734.547 206.188 735.591C205.607 736.636 205.302 737.805 205.301 738.992V745.494C204.263 745.3 203.206 745.213 202.15 745.236C201.24 745.223 200.331 745.309 199.441 745.494V738.992C199.44 737.805 199.135 736.636 198.554 735.591C197.973 734.547 197.134 733.658 196.113 733.006L185.067 725.902V723.873C187.419 720.844 188.732 717.174 188.819 713.38C188.819 706.242 186.5 703.972 183.208 703.301L188.89 697.005H198.538L201.123 732.972H202.273L205.991 696.988H219.091L224.065 702.561L223.729 696.988H230.137V649.996H175.95V697.04H183.845L183.119 703.318C182.108 703.148 181.083 703.067 180.057 703.077C175.206 703.077 171.294 705.107 171.294 713.398C171.37 717.316 172.763 721.104 175.259 724.182V725.386L163.115 733.127C162.094 733.779 161.255 734.667 160.674 735.712C160.093 736.756 159.789 737.925 159.787 739.112V749.983H194.431C193.787 751.802 193.487 753.719 193.546 755.642C193.631 759.517 194.997 763.261 197.441 766.324V767.511L185.297 775.268C184.274 775.915 183.435 776.8 182.854 777.842C182.272 778.885 181.968 780.051 181.969 781.237V792.159H221.782V781.237C221.782 780.051 221.478 778.885 220.897 777.842C220.316 776.8 219.476 775.915 218.454 775.268L207.319 768.164V766.135C209.671 763.106 210.984 759.435 211.072 755.642C211.125 753.731 210.881 751.823 210.346 749.983H245.273L245.202 739.026ZM177.118 695.905V651.183H229.004V695.905H222.508L222.702 699.345L219.622 695.905H204.929L201.813 726.298L199.636 695.905H188.359L184.677 700.101L185.137 695.99L177.118 695.905Z" fill="#F4B45C"/>
<path d="M196.926 687.424H208.822V685.67H196.943L196.926 687.424Z" fill="#F4B45C"/>
<path d="M197.74 690.504H208.008C208.529 689.977 208.821 689.274 208.822 688.543H196.926C196.927 689.274 197.219 689.977 197.74 690.504Z" fill="#F4B45C"/>
<path d="M201.35 694.254H204.36C204.747 694.256 205.131 694.184 205.49 694.041C205.848 693.899 206.175 693.689 206.449 693.424C206.724 693.158 206.942 692.843 207.091 692.495C207.24 692.148 207.316 691.775 207.316 691.398H198.465C198.46 692.148 198.761 692.869 199.302 693.404C199.842 693.939 200.579 694.245 201.35 694.254Z" fill="#F4B45C"/>
<path d="M195.19 676.899C196.943 678.954 197.901 681.54 197.898 684.209V684.742H207.882V684.209C207.88 681.537 208.845 678.949 210.609 676.899C212.129 675.147 212.962 672.929 212.963 670.638C212.964 669.3 212.682 667.976 212.133 666.749C211.585 665.522 210.783 664.417 209.777 663.504C208.771 662.591 207.582 661.889 206.285 661.441C204.987 660.994 203.609 660.81 202.235 660.902C200.384 661.019 198.602 661.63 197.087 662.67C195.571 663.709 194.381 665.136 193.648 666.791C192.915 668.447 192.668 670.268 192.934 672.051C193.2 673.835 193.968 675.513 195.154 676.899H195.19Z" fill="#F4B45C"/>
<path d="M214.521 670.706C214.521 670.953 214.622 671.189 214.801 671.363C214.981 671.537 215.224 671.635 215.477 671.635H220.523C220.776 671.635 221.019 671.537 221.199 671.363C221.378 671.189 221.479 670.953 221.479 670.706C221.479 670.46 221.378 670.224 221.199 670.049C221.019 669.875 220.776 669.777 220.523 669.777H215.477C215.224 669.777 214.981 669.875 214.801 670.049C214.622 670.224 214.521 670.46 214.521 670.706Z" fill="#F4B45C"/>
<path d="M190.907 670.706C190.907 670.46 190.806 670.224 190.627 670.049C190.447 669.875 190.204 669.777 189.951 669.777H184.852C184.599 669.777 184.356 669.875 184.176 670.049C183.997 670.224 183.896 670.46 183.896 670.706C183.896 670.953 183.997 671.189 184.176 671.363C184.356 671.537 184.599 671.635 184.852 671.635H189.951C190.204 671.635 190.447 671.537 190.627 671.363C190.806 671.189 190.907 670.953 190.907 670.706Z" fill="#F4B45C"/>
<path d="M202.715 659.216C202.969 659.216 203.212 659.119 203.391 658.944C203.571 658.77 203.671 658.534 203.671 658.288V653.368C203.674 653.247 203.651 653.127 203.605 653.014C203.559 652.902 203.49 652.799 203.403 652.713C203.316 652.626 203.211 652.557 203.096 652.51C202.981 652.464 202.858 652.439 202.733 652.439C202.483 652.444 202.244 652.544 202.069 652.718C201.893 652.891 201.795 653.125 201.795 653.368V658.27C201.795 658.513 201.89 658.746 202.061 658.922C202.232 659.098 202.467 659.203 202.715 659.216Z" fill="#F4B45C"/>
<path d="M211.83 662.76C212.083 662.756 212.324 662.658 212.503 662.485L216.044 659.044C216.134 658.96 216.205 658.858 216.254 658.746C216.303 658.633 216.328 658.513 216.328 658.391C216.328 658.269 216.303 658.148 216.254 658.036C216.205 657.924 216.134 657.822 216.044 657.737C215.862 657.564 215.617 657.467 215.362 657.467C215.107 657.467 214.863 657.564 214.681 657.737L211.14 661.177C210.963 661.351 210.863 661.586 210.863 661.831C210.863 662.076 210.963 662.311 211.14 662.485C211.327 662.656 211.573 662.754 211.83 662.76Z" fill="#F4B45C"/>
<path d="M192.96 678.875L189.419 682.315C189.242 682.489 189.143 682.724 189.143 682.969C189.143 683.213 189.242 683.448 189.419 683.622C189.507 683.71 189.611 683.779 189.727 683.827C189.842 683.874 189.967 683.898 190.092 683.898C190.217 683.898 190.342 683.874 190.457 683.827C190.573 683.779 190.677 683.71 190.765 683.622L194.305 680.182C194.456 680.004 194.533 679.778 194.521 679.547C194.509 679.317 194.41 679.099 194.242 678.936C194.074 678.773 193.85 678.676 193.613 678.665C193.376 678.654 193.143 678.729 192.96 678.875Z" fill="#F4B45C"/>
<path d="M192.783 662.381C192.873 662.47 192.981 662.54 193.1 662.587C193.218 662.634 193.345 662.658 193.474 662.657C193.662 662.655 193.845 662.6 194.001 662.498C194.157 662.396 194.279 662.251 194.351 662.082C194.423 661.913 194.441 661.728 194.405 661.548C194.369 661.369 194.279 661.204 194.146 661.074L190.765 657.789C190.681 657.689 190.575 657.607 190.456 657.548C190.337 657.49 190.206 657.457 190.073 657.45C189.94 657.444 189.807 657.465 189.682 657.511C189.558 657.558 189.445 657.63 189.35 657.721C189.256 657.813 189.182 657.923 189.134 658.044C189.086 658.165 189.065 658.294 189.071 658.424C189.078 658.553 189.112 658.68 189.172 658.796C189.232 658.911 189.317 659.014 189.42 659.096L192.783 662.381Z" fill="#F4B45C"/>
<path d="M212.591 679.03C212.409 678.857 212.164 678.76 211.909 678.76C211.655 678.76 211.41 678.857 211.228 679.03C211.051 679.204 210.951 679.439 210.951 679.684C210.951 679.929 211.051 680.164 211.228 680.337L214.591 683.606C214.679 683.693 214.783 683.762 214.899 683.81C215.015 683.857 215.139 683.882 215.264 683.882C215.39 683.882 215.514 683.857 215.629 683.81C215.745 683.762 215.849 683.693 215.937 683.606C216.114 683.432 216.214 683.197 216.214 682.952C216.214 682.707 216.114 682.472 215.937 682.298L212.591 679.03Z" fill="#F4B45C"/>
<path d="M274.35 279.899C274.35 279.899 280.139 286.349 279.271 288.602C278.679 290.803 278.387 293.07 278.404 295.345C278.404 295.345 285.91 299.284 285.91 301.245C285.634 303.107 285.035 304.909 284.139 306.577C284.139 306.577 285.91 317.809 284.724 320.613C283.538 323.416 271.128 325.394 271.128 325.394L266.508 339.155L239.954 331.294L244.291 317.534C244.291 317.534 237.652 301.245 236.484 295.913C235.315 290.58 243.707 280.174 254.187 277.646C260.983 276.291 268.047 277.08 274.35 279.899Z" fill="#EE9F88" stroke="#263238" stroke-linejoin="round"/>
<path d="M265.862 304.144C265.862 304.144 270.483 304.419 269.916 302.166C269.35 299.912 267.597 298.725 268.465 297.676C269.332 296.627 274.82 293.187 273.085 290.934C271.35 288.68 266.146 287.012 268.465 284.483C270.784 281.955 284.078 276.33 284.078 276.33C284.078 276.33 270.483 270.155 268.465 270.155C266.447 270.155 276.555 267.076 273.085 264.548C269.615 262.019 247.363 262.019 238.406 273.527C229.448 285.034 230.599 291.776 234.068 301.323C237.538 310.869 244.177 322.118 247.646 322.961C251.116 323.804 262.676 324.354 263.26 320.433C263.844 316.511 265.862 304.144 265.862 304.144Z" fill="#263238" stroke="#263238" stroke-linejoin="round"/>
<path d="M269.614 306.671C269.614 306.671 261.435 296.85 260.939 300.6C260.444 304.349 263.347 317.8 268.64 314.618" fill="#EE9F88"/>
<path d="M269.614 306.671C269.614 306.671 261.435 296.85 260.939 300.6C260.444 304.349 263.347 317.8 268.64 314.618" stroke="#263238" stroke-linejoin="round"/>
<path d="M224.242 335.311C224.242 335.311 230.597 337.271 245.91 340.368C261.223 343.464 274.235 346.543 274.235 346.543C274.235 346.543 270.198 334.743 265.861 332.507C261.524 330.271 238.404 325.764 235.519 326.039C232.633 326.315 224.242 335.311 224.242 335.311Z" fill="#FBA2E3" stroke="#263238" stroke-linejoin="round"/>
<path d="M321.722 414.974C321.722 414.974 348.028 391.96 349.462 390.549C350.896 389.139 347.692 378.199 347.692 376.513C347.692 374.828 353.764 372.007 353.764 372.007C353.764 372.007 354.632 367.518 357.517 367.518C360.403 367.518 365.324 371.164 365.324 371.164L365.908 374.26C365.908 374.26 369.944 382.964 369.944 384.374C369.542 387.359 368.121 390.127 365.908 392.235C363.023 395.039 356.366 400.938 356.366 400.938C356.366 400.938 333.247 431.263 328.042 435.477C322.838 439.691 315.898 444.181 313.296 439.141C310.694 434.101 321.722 414.974 321.722 414.974Z" fill="#EE9F88" stroke="#263238" stroke-linejoin="round"/>
<path d="M354.305 370.693L355.173 372.947L352.854 374.632" stroke="#263238" stroke-linejoin="round"/>
<path d="M155.566 382.121C155.566 382.121 145.44 392.235 146.024 396.449C146.609 400.663 170.011 447.552 170.011 447.552C170.011 447.552 171.782 454.587 172.897 455.138C174.012 455.688 176.65 459.919 176.65 459.919C176.65 459.919 176.65 463.566 180.987 459.627C185.324 455.688 191.396 451.216 191.113 447.587C190.774 445.165 189.659 442.908 187.927 441.136C187.927 441.136 186.493 437.696 185.041 437.49C183.589 437.283 176.951 437.197 176.951 437.197L169.48 398.978L155.566 382.121Z" fill="#EE9F88" stroke="#263238" stroke-linejoin="round"/>
<path d="M179.721 442.591L183.491 444.552C183.491 444.552 178.853 451.294 180.588 452.705C182.323 454.115 187.528 444.001 188.112 442.591C188.696 441.18 187.244 439.787 187.244 439.787" fill="#D98066"/>
<path d="M179.721 442.591L183.491 444.552C183.491 444.552 178.853 451.294 180.588 452.705C182.323 454.115 187.528 444.001 188.112 442.591C188.696 441.18 187.244 439.787 187.244 439.787" stroke="#263238" stroke-linejoin="round"/>
<path d="M182.039 445.119L174.516 451.587" stroke="#263238" stroke-linejoin="round"/>
<path d="M194.378 586.766L175.631 602.556C176.348 604.399 177.666 605.963 179.384 607.011C181.88 608.232 192.714 618.363 196.042 620.376C202.042 624.079 208.943 626.174 216.046 626.447C224.897 626.447 226.473 623.214 226.473 621.992C226.473 620.771 209.39 609.849 209.39 609.849L205.637 595.28L194.378 586.766Z" fill="white" stroke="#263238" stroke-linejoin="round"/>
<path d="M179.402 599.393L175.631 602.557C176.348 604.401 177.666 605.965 179.384 607.012C181.88 608.234 192.714 618.365 196.042 620.377C202.042 624.081 208.943 626.176 216.046 626.449C221.18 626.449 223.853 625.348 225.216 624.179C221.437 623.301 217.597 622.691 213.727 622.355C207.991 622.355 201.671 617.35 201.671 617.35L179.402 599.393Z" fill="white" stroke="#263238" stroke-linejoin="round"/>
<path d="M188.396 429.105C188.396 429.105 184.324 449.746 187.988 456.265C190.93 461.21 194.194 465.967 197.76 470.507L249.7 535.216L193.494 588.056L206.47 600.939C206.47 600.939 277.281 544.177 281.476 541.752C285.672 539.327 281.476 519.185 280.255 517.413C279.033 515.642 254.621 463.747 254.621 463.747L256.905 440.63L188.396 429.105Z" fill="#202D4A" stroke="#263238" stroke-linejoin="round"/>
<path d="M226.066 614.839C226.066 614.839 238.688 628.496 240.706 629.889C242.724 631.282 257.045 639.367 257.045 639.367C257.045 639.367 256.762 641.31 255.611 641.603C254.461 641.895 226.066 642.153 224.065 641.878C222.065 641.603 205.353 633.02 203.406 632.108C200.543 630.585 197.765 628.914 195.086 627.103L207.708 607.305L226.066 614.839Z" fill="white" stroke="#263238" stroke-linejoin="round"/>
<path d="M204.701 466.172L216.739 474.549L233.964 529.316L204.701 609.608L230.158 616.488L231.804 607.51L236.867 598.084C236.867 598.084 267.953 531.827 268.378 526.392C268.802 520.956 254.623 463.678 254.623 463.678L252.038 439.425L207.268 435.229" fill="#10235A"/>
<path d="M204.701 466.172L216.739 474.549L233.964 529.316L204.701 609.608L230.158 616.488L231.804 607.51L236.867 598.084C236.867 598.084 267.953 531.827 268.378 526.392C268.802 520.956 254.623 463.678 254.623 463.678L252.038 439.425L207.268 435.229" stroke="#263238" stroke-linejoin="round"/>
<path d="M255.611 641.62C256.762 641.327 257.045 639.384 257.045 639.384L254.514 637.939C243.591 637.13 225.269 635.754 224.065 635.754C222.861 635.754 204.999 625.606 198.467 621.805L195.086 627.12C197.765 628.931 200.543 630.602 203.406 632.125C205.407 632.968 222.047 641.62 224.065 641.895C226.083 642.17 254.461 641.878 255.611 641.62Z" fill="white" stroke="#263238" stroke-linejoin="round"/>
<path d="M227.995 334.469C227.995 334.469 199.388 337.272 199.087 338.408C198.786 339.543 160.938 379.397 160.938 379.397L171.063 398.214L195.334 388.117L188.394 429.106C188.394 429.106 183.774 430.827 192.147 435.006C200.521 439.186 219.905 444.553 233.2 444.553C246.494 444.553 254 444.553 256.904 440.631C258.79 438.204 259.803 435.243 259.789 432.203C260.072 429.949 273.668 395.686 273.668 395.686C273.668 395.686 304.01 433.527 305.161 434.456C306.312 435.385 311.817 436.176 316.438 430.792C321.058 425.408 320.191 413.11 320.191 413.11C320.191 413.11 303.143 383.06 302.276 378.846C301.408 374.632 298.735 361.646 297.071 358.343C295.407 355.041 293.035 354.697 288.397 352.443C283.759 350.19 271.066 345.993 271.066 345.993L227.995 334.469Z" fill="#F3D1EA" stroke="#263238" stroke-linejoin="round"/>
<path d="M201.992 346.836L195.336 388.117L198.221 349.072" stroke="#263238" stroke-linejoin="round"/>
<path d="M194.467 386.982L186.961 369.008" stroke="#263238" stroke-linejoin="round"/>
<path d="M175.809 376.679L171.348 374.064" stroke="#263238" stroke-linejoin="round"/>
<path d="M195.335 388.116L179.58 378.896" stroke="#263238" stroke-linejoin="round"/>
<path d="M287.193 375.251L294.469 364.242" stroke="#263238" stroke-linejoin="round"/>
<path d="M273.67 395.684L284.893 378.725" stroke="#263238" stroke-linejoin="round"/>
<path d="M295.551 382.165L298.808 380.238" stroke="#263238" stroke-linejoin="round"/>
<path d="M275.404 394.017L291.602 384.488" stroke="#263238" stroke-linejoin="round"/>
<path d="M273.951 393.724L302.275 388.959" stroke="#263238" stroke-linejoin="round"/>
<path d="M192.148 430.241L220.49 423.498" stroke="#263238" stroke-linejoin="round"/>
<path d="M239.803 414.125C241.628 413.435 243.402 412.624 245.114 411.699" stroke="#263238" stroke-linejoin="round"/>
<path d="M204.01 423.499C214.644 421.537 225.144 418.941 235.45 415.725" stroke="#263238" stroke-linejoin="round"/>
<path d="M319.907 411.132C319.327 415.693 317.189 419.932 313.835 423.172C310.537 426.627 306.2 428.981 301.443 429.898C301.443 429.898 304.046 439.461 307.232 439.461C310.419 439.461 315.906 441.181 320.81 434.68C325.714 428.178 326.882 417.273 325.43 414.452C323.979 411.631 323.094 410.289 319.907 411.132Z" fill="#FBA2E3" stroke="#263238" stroke-linejoin="round"/>
<path d="M165.276 372.945C165.276 372.945 179.155 398.213 177.986 398.746C176.818 399.279 171.932 403.528 170.197 403.803C168.462 404.078 160.655 396.493 157.805 390.043C154.955 383.592 154.052 381.047 154.92 379.929C155.787 378.811 163.541 372.945 165.276 372.945Z" fill="#FBA2E3" stroke="#263238" stroke-linejoin="round"/>
<path d="M797.385 239.278C798.943 230.678 801.191 209.435 787.861 198.994C770.955 185.75 758.953 209.59 744.224 191.047C729.495 172.505 725.141 132.221 681.557 132.737C637.973 133.253 634.645 157.128 634.645 165.074C634.645 173.021 621.562 178.835 618.836 178.835C616.11 178.835 600.833 171.955 595.38 187.315C589.928 202.675 593.61 211.568 584.953 211.894C576.297 212.221 565.48 200.731 553.726 206.476C541.971 212.221 541.918 224.417 537.015 228.648C532.111 232.879 523.915 225.483 513.01 229.714C506.407 232.277 504.406 236.405 503.857 239.261L797.385 239.278Z" fill="#AAD8EC" stroke="black" stroke-miterlimit="10"/>
<path d="M319.839 73.0692C320.777 67.909 322.122 55.0258 314.068 48.7131C303.853 40.6977 296.595 55.1118 287.673 43.897C278.751 32.6822 276.166 8.32613 249.736 8.63574C223.306 8.94535 221.412 23.3767 221.412 28.1928C221.412 33.009 213.481 36.5351 211.835 36.5351C210.188 36.5351 200.948 32.3554 197.673 41.6953C194.398 51.0352 196.61 56.3674 191.37 56.5566C186.13 56.7458 179.616 49.814 172.482 53.2885C165.348 56.763 165.401 64.1249 162.374 66.6878C159.346 69.2507 154.46 64.7613 147.857 67.3414C146.491 67.7377 145.257 68.4803 144.283 69.493C143.31 70.5056 142.631 71.7518 142.316 73.1036L319.839 73.0692Z" fill="#AAD8EC" stroke="black" stroke-miterlimit="10"/>
<path d="M179.686 141.871C180.253 138.757 181.067 131.052 176.146 127.267C170.021 122.451 165.666 131.103 160.32 124.378C154.974 117.652 153.487 103.049 137.66 103.238C121.834 103.427 120.648 112.079 120.648 114.969C120.648 117.859 115.904 119.957 114.912 119.957C113.921 119.957 108.398 117.463 106.415 123.036C104.432 128.609 105.778 131.826 102.627 131.946C99.4757 132.066 95.5457 127.904 91.2971 129.985C87.0484 132.066 87.0307 136.487 85.2428 138.035C83.4548 139.583 80.4984 136.865 76.5508 138.413C75.731 138.647 74.9904 139.089 74.4053 139.694C73.8202 140.299 73.4119 141.044 73.2227 141.853L179.686 141.871Z" fill="#AAD8EC" stroke="black" stroke-miterlimit="10"/>
<path d="M737.319 441.162C737.886 438.048 738.7 430.343 733.867 426.558C727.742 421.742 723.387 430.394 718.041 423.669C712.695 416.943 711.119 402.34 695.293 402.529C679.467 402.718 678.281 411.37 678.281 414.26C678.281 417.15 673.537 419.248 672.545 419.248C671.554 419.248 666.031 416.754 664.048 422.327C662.065 427.9 663.411 431.117 660.26 431.237C657.109 431.357 653.179 427.195 648.93 429.276C644.681 431.357 644.664 435.778 642.876 437.326C641.088 438.874 638.131 436.156 634.184 437.704C633.364 437.938 632.623 438.38 632.038 438.985C631.453 439.59 631.045 440.335 630.855 441.145L737.319 441.162Z" fill="#AAD8EC" stroke="black" stroke-miterlimit="10"/>
<path d="M687.506 152.451C688.001 149.733 688.709 143.008 684.496 139.705C679.185 135.508 675.344 143.145 670.67 137.177C665.997 131.208 664.634 118.548 650.808 118.72C636.982 118.892 635.955 126.444 635.955 129.041C635.955 131.638 631.813 133.41 630.946 133.41C630.078 133.41 625.245 131.225 623.528 136.093C621.811 140.961 622.962 143.782 620.218 143.885C617.474 143.988 614.075 140.342 610.34 142.165C606.604 143.988 606.604 147.841 605.029 149.183C603.453 150.524 600.887 148.185 597.417 149.527C596.703 149.732 596.058 150.119 595.55 150.648C595.043 151.178 594.691 151.83 594.531 152.537L687.506 152.451Z" fill="#AAD8EC" stroke="black" stroke-miterlimit="10"/>
</svg>
