<svg width="800" height="802" viewBox="0 0 800 802" fill="none" xmlns="http://www.w3.org/2000/svg">
<path d="M439.759 508.366C442.892 510.481 451.337 511.926 451.354 511.926C451.372 511.926 450.646 506.233 450.54 505.872C449.478 501.778 444.911 494.45 440.025 494.158C439.214 494.129 438.405 494.267 437.653 494.562C436.9 494.858 436.22 495.304 435.657 495.872C435.094 496.441 434.66 497.118 434.385 497.86C434.11 498.602 433.999 499.392 434.059 500.178C434.201 503.515 437.086 506.542 439.759 508.366Z" fill="#119285"/>
<path d="M437.797 532.585C441.337 533.789 449.197 533.135 449.835 533.066C450.216 537.48 450.896 541.864 451.87 546.19C452.437 548.719 453.074 551.23 453.747 553.759C453.269 552.658 452.826 551.66 452.738 551.54C450.596 547.842 444.205 541.959 439.408 542.939C438.618 543.121 437.876 543.462 437.231 543.941C436.585 544.42 436.052 545.026 435.664 545.719C435.276 546.413 435.044 547.178 434.981 547.964C434.918 548.751 435.027 549.541 435.301 550.284C436.327 553.466 439.939 555.651 443.001 556.717C446.064 557.784 452.897 557.354 454.703 557.216C454.968 558.196 455.216 559.16 455.499 560.123C456.809 564.75 458.137 569.36 459.288 573.883C459.713 575.483 460.049 577.083 460.403 578.682C459.96 577.702 459.589 576.876 459.518 576.756C457.376 573.075 450.985 567.175 446.188 568.156C445.399 568.339 444.659 568.682 444.015 569.162C443.372 569.641 442.839 570.247 442.452 570.94C442.065 571.632 441.831 572.396 441.768 573.182C441.704 573.967 441.81 574.757 442.081 575.5C443.108 578.699 446.719 580.867 449.799 581.933C452.879 583 459.022 582.621 461.164 582.466C461.465 584.186 461.766 585.752 461.996 587.369C462.12 588.469 462.315 589.519 462.386 590.637C462.457 591.755 462.545 592.821 462.634 593.905C462.722 595.986 462.811 598.136 462.846 600.166C462.846 601.593 462.846 602.935 462.846 604.294C462.457 602.694 461.625 599.564 461.536 599.306C459.978 595.35 454.579 588.59 449.693 588.831C448.883 588.894 448.097 589.122 447.384 589.501C446.672 589.879 446.05 590.4 445.559 591.028C445.067 591.656 444.718 592.378 444.534 593.147C444.349 593.915 444.334 594.713 444.488 595.487C445.002 598.79 448.241 601.49 451.109 602.987C454.26 604.707 461.908 605.171 462.846 605.223C462.846 607.476 462.846 609.661 462.846 611.725C462.757 615.922 462.58 619.689 462.368 622.939L465.501 623.541C465.643 620.101 465.749 616.197 465.749 611.759C465.749 609.471 465.749 607.029 465.749 604.535C468.141 604.089 470.505 603.515 472.83 602.815C474.76 605.859 480.425 610.108 481.151 610.641C479.876 612.516 478.619 614.339 477.415 616.025C475.096 619.258 472.954 622.114 471.025 624.625L474.388 625.279C476.052 623.008 477.929 620.445 479.805 617.624C481.097 615.715 482.461 613.668 483.824 611.535C484.691 611.897 491.772 614.786 495.348 614.7C498.605 614.7 502.748 613.634 504.748 610.916C505.243 610.291 505.597 609.573 505.787 608.806C505.978 608.04 506 607.244 505.853 606.468C505.706 605.693 505.393 604.957 504.935 604.306C504.476 603.656 503.882 603.107 503.19 602.694C498.942 600.321 490.993 604.002 487.754 606.857C487.577 607.012 485.718 609.059 484.567 610.383L486.231 607.769C487.346 606.048 488.409 604.174 489.559 602.23L491.135 599.34C491.684 598.377 492.144 597.311 492.657 596.279C493.79 593.888 494.817 591.394 495.808 588.865C497.402 589.811 503.155 593.114 506.43 593.509C509.705 593.905 513.883 593.509 516.29 591.153C516.879 590.609 517.343 589.95 517.652 589.22C517.961 588.49 518.108 587.704 518.083 586.915C518.058 586.126 517.862 585.351 517.507 584.641C517.152 583.93 516.647 583.301 516.025 582.793C512.219 579.835 503.775 582.294 500.092 584.634C499.862 584.771 497.437 586.749 496.145 587.85C496.711 586.319 497.295 584.806 497.826 583.258C499.367 578.751 500.783 574.141 502.217 569.497C502.642 568.087 503.102 566.693 503.544 565.3C504.111 565.644 510.873 569.686 514.502 570.134C517.742 570.546 521.973 570.134 524.38 567.777C524.966 567.233 525.428 566.576 525.735 565.847C526.042 565.119 526.188 564.335 526.163 563.548C526.138 562.761 525.943 561.988 525.59 561.28C525.237 560.571 524.734 559.942 524.115 559.435C520.291 556.459 511.847 558.919 508.183 561.258C507.917 561.447 504.447 564.268 503.598 565.042C504.589 561.963 505.598 558.902 506.713 555.926C508.228 551.9 510.002 547.971 512.024 544.161C512.29 544.333 519.317 548.581 523.035 549.046C526.275 549.458 530.506 549.046 532.913 546.689C533.5 546.144 533.961 545.485 534.269 544.755C534.576 544.025 534.722 543.24 534.697 542.452C534.672 541.664 534.476 540.889 534.123 540.179C533.77 539.469 533.268 538.839 532.648 538.33C528.824 535.371 520.38 537.831 516.715 540.17C516.432 540.359 512.697 543.404 512.059 544.006C512.183 543.799 512.29 543.559 512.413 543.335C514.544 539.571 517.021 536.002 519.813 532.671C521.318 530.813 522.876 529.11 524.434 527.51C525.655 528.439 531.302 532.671 534.595 533.376C537.888 534.081 542.012 534.202 544.685 532.086C545.33 531.607 545.863 531.003 546.251 530.31C546.638 529.618 546.871 528.855 546.935 528.069C546.998 527.284 546.891 526.494 546.619 525.752C546.347 525.009 545.918 524.331 545.358 523.761C541.906 520.407 533.232 521.937 529.426 523.881C529.213 523.984 527.195 525.292 525.744 526.272C526.452 525.55 527.177 524.793 527.868 524.122C530.47 521.576 533.019 519.392 535.285 517.483C536.595 516.416 537.799 515.47 538.932 514.593C540.614 514.885 547.429 516.003 550.669 515.229C553.908 514.455 557.644 512.649 559.007 509.57C559.352 508.856 559.539 508.08 559.555 507.291C559.571 506.503 559.416 505.72 559.101 504.993C558.785 504.266 558.316 503.612 557.723 503.073C557.131 502.534 556.428 502.122 555.661 501.864C551.005 500.454 544.03 505.683 541.499 509.157C541.286 509.45 538.436 514.507 538.525 514.524H538.613C537.516 515.35 536.33 516.244 535.073 517.242C532.754 519.099 530.152 521.215 527.478 523.726C524.565 526.387 521.816 529.213 519.247 532.189C516.344 535.499 513.755 539.057 511.511 542.819C511.514 542.865 511.514 542.911 511.511 542.957C511.812 541.598 512.537 537.796 512.555 537.47C512.856 533.238 510.873 524.896 506.324 523.142C505.562 522.869 504.75 522.757 503.94 522.81C503.13 522.864 502.341 523.083 501.624 523.453C500.908 523.823 500.279 524.336 499.781 524.958C499.282 525.58 498.923 526.298 498.729 527.063C497.773 530.28 499.544 534.03 501.509 536.558C503.721 539.413 510.714 543.129 511.263 543.438C509.071 547.32 507.155 551.343 505.527 555.479C504.553 557.887 503.651 560.329 502.783 562.806C503.013 561.619 503.208 560.553 503.208 560.398C503.509 556.184 501.526 547.842 496.977 546.07C496.215 545.798 495.403 545.685 494.593 545.739C493.783 545.792 492.994 546.011 492.277 546.382C491.561 546.752 490.932 547.264 490.434 547.887C489.935 548.509 489.576 549.226 489.382 549.992C488.426 553.208 490.197 556.958 492.162 559.486C494.127 562.015 500.057 565.335 501.615 566.177C501.296 567.124 500.96 568.069 500.641 569.033C499.119 573.591 497.596 578.149 495.985 582.57C495.401 584.135 494.782 585.649 494.215 587.162C494.41 586.113 494.569 585.219 494.569 585.081C494.87 580.867 492.887 572.524 488.356 570.753C487.592 570.483 486.78 570.373 485.97 570.427C485.16 570.482 484.37 570.702 483.653 571.071C482.936 571.441 482.306 571.952 481.805 572.573C481.304 573.194 480.942 573.91 480.743 574.675C479.805 577.891 481.575 581.641 483.523 584.169C485.47 586.698 490.834 589.691 492.71 590.705C492.02 592.254 491.347 593.784 490.621 595.246C490.09 596.227 489.666 597.225 489.081 598.188L487.435 601.043C486.32 602.763 485.187 604.672 484.054 606.392L481.752 609.833C482.337 608.285 483.416 605.223 483.523 604.965C484.21 601.298 483.923 597.521 482.691 593.991C482.793 593.585 482.852 593.17 482.868 592.752C482.925 591.966 482.812 591.178 482.536 590.437C482.259 589.696 481.826 589.02 481.263 588.452C480.701 587.885 480.022 587.438 479.271 587.142C478.519 586.846 477.712 586.706 476.902 586.732C472.016 587.042 467.466 594.369 466.387 598.48C466.387 598.721 465.944 601.421 465.732 603.124C465.732 602.109 465.732 601.112 465.643 600.063C465.555 597.981 465.413 595.9 465.271 593.664L464.953 590.396C464.864 589.312 464.634 588.16 464.475 587.042C464.067 584.427 463.501 581.796 462.899 579.164C464.776 579.164 471.432 578.751 474.37 577.444C477.309 576.137 480.619 573.471 481.274 570.185C481.465 569.412 481.485 568.608 481.331 567.827C481.178 567.046 480.855 566.305 480.385 565.655C479.914 565.004 479.307 564.458 478.603 564.053C477.898 563.648 477.113 563.393 476.3 563.305C471.432 562.875 465.785 569.446 464.085 573.35C463.979 573.591 463.094 576.532 462.634 578.149C462.244 576.567 461.872 574.984 461.43 573.402C460.155 568.826 458.721 564.234 457.305 559.641L456.03 555.427C456.703 555.427 464.634 555.169 467.927 553.587C470.848 552.193 474.176 549.63 474.831 546.328C475.019 545.555 475.036 544.752 474.881 543.972C474.726 543.192 474.403 542.452 473.934 541.802C473.464 541.152 472.857 540.607 472.155 540.201C471.452 539.795 470.668 539.538 469.856 539.448C464.988 539.035 459.341 545.606 457.641 549.51C457.517 549.802 456.225 554.034 455.96 555.117C455.039 552.021 454.189 548.925 453.393 545.846C452.357 541.684 451.6 537.461 451.127 533.204C451.445 533.204 459.713 532.98 463.094 531.363C466.015 529.97 469.325 527.39 469.98 524.105C470.168 523.333 470.186 522.531 470.032 521.752C469.879 520.973 469.557 520.235 469.089 519.585C468.621 518.935 468.017 518.389 467.316 517.982C466.615 517.575 465.834 517.317 465.023 517.225C460.155 516.812 454.508 523.382 452.809 527.287C452.667 527.596 451.286 532.137 451.038 532.98C451.038 532.722 450.95 532.481 450.932 532.223C450.573 527.946 450.615 523.645 451.056 519.375C451.251 517.001 451.587 514.765 451.959 512.58C453.517 512.684 460.58 513.131 463.784 512.013C466.988 510.895 470.44 508.727 471.45 505.528C471.716 504.784 471.819 503.993 471.75 503.208C471.681 502.422 471.443 501.66 471.05 500.97C470.658 500.28 470.12 499.679 469.472 499.204C468.824 498.73 468.08 498.394 467.289 498.218C462.51 497.272 456.154 503.206 454.012 506.904C453.906 507.111 452.95 509.278 452.242 510.86C452.419 509.88 452.596 508.865 452.791 507.936C453.517 504.496 454.42 501.228 455.216 498.424C455.694 496.825 456.154 495.397 456.615 494.073C458.19 493.402 464.51 490.632 466.776 488.293C469.042 485.954 471.131 482.41 470.511 479.108C470.391 478.337 470.108 477.599 469.678 476.94C469.249 476.281 468.684 475.717 468.018 475.281C467.352 474.846 466.6 474.551 465.811 474.413C465.021 474.275 464.21 474.298 463.43 474.481C458.739 475.788 455.907 483.907 455.765 488.138C455.765 488.5 456.243 494.245 456.331 494.21H456.42C455.977 495.483 455.499 496.859 455.004 498.373C454.136 501.176 453.233 504.341 452.348 507.85C451.442 511.634 450.756 515.464 450.295 519.323C449.764 523.643 449.628 528 449.888 532.344C449.888 532.344 449.888 532.447 449.888 532.499C449.374 531.209 447.799 527.614 447.639 527.338C445.48 523.658 439.089 517.758 434.309 518.738C433.521 518.922 432.78 519.265 432.137 519.745C431.493 520.224 430.961 520.83 430.573 521.522C430.186 522.215 429.953 522.979 429.889 523.764C429.825 524.55 429.932 525.34 430.202 526.083C431.123 529.351 434.734 531.535 437.797 532.585Z" fill="#4DBAAB"/>
<path d="M524.449 526.649C524.449 526.649 527.087 521.489 527.211 521.162C528.645 517.155 528.981 508.606 525.104 505.682C524.444 505.223 523.692 504.906 522.897 504.749C522.101 504.592 521.281 504.6 520.489 504.772C519.697 504.944 518.952 505.276 518.301 505.747C517.651 506.218 517.109 506.817 516.713 507.505C514.943 510.36 515.598 514.385 516.802 517.378C518.218 520.904 524.449 526.632 524.449 526.649Z" fill="#119285"/>
<path d="M258.114 184.978C261.459 185.443 268.735 183.258 268.735 183.258C268.735 183.258 265.85 179.027 265.637 178.786C263.106 175.965 256.52 171.906 252.555 173.626C251.905 173.918 251.325 174.34 250.854 174.863C250.382 175.387 250.029 176.001 249.817 176.666C249.605 177.331 249.539 178.032 249.624 178.723C249.708 179.414 249.941 180.08 250.307 180.678C251.758 183.293 255.281 184.565 258.114 184.978Z" fill="#263238"/>
<path d="M266.469 204.827C269.673 204.431 275.674 200.854 276.152 200.578C278.244 203.911 280.569 207.101 283.11 210.125C284.579 211.845 286.101 213.651 287.659 215.371C286.827 214.683 286.084 214.081 285.889 214.012C282.702 211.931 275.267 209.746 271.868 212.292C271.321 212.741 270.877 213.297 270.565 213.923C270.252 214.549 270.079 215.232 270.056 215.928C270.032 216.624 270.16 217.316 270.429 217.961C270.699 218.606 271.105 219.188 271.621 219.671C273.745 221.787 277.48 222.114 280.33 221.77C283.18 221.426 288.403 218.467 289.748 217.676C290.35 218.329 290.952 219 291.518 219.654C294.439 222.784 297.36 225.915 300.14 229.063C301.113 230.181 302.034 231.299 302.954 232.503C302.211 231.884 301.591 231.385 301.485 231.316C298.281 229.235 290.863 227.05 287.464 229.596C286.915 230.043 286.468 230.598 286.155 231.225C285.841 231.851 285.666 232.535 285.643 233.232C285.62 233.928 285.748 234.621 286.019 235.266C286.29 235.911 286.698 236.494 287.217 236.975C289.323 239.091 293.058 239.417 295.926 239.073C298.794 238.729 303.485 236.063 305.096 235.117C305.999 236.304 306.867 237.474 307.752 238.661C308.3 239.486 308.885 240.243 309.398 241.086L310.92 243.563C311.841 245.18 312.797 246.831 313.647 248.431C314.249 249.531 314.797 250.598 315.417 251.664C314.443 250.546 312.531 248.413 312.337 248.224C309.504 245.696 302.494 242.445 298.741 244.526C298.13 244.887 297.604 245.369 297.198 245.941C296.791 246.513 296.513 247.161 296.381 247.844C296.249 248.527 296.267 249.229 296.432 249.905C296.598 250.581 296.908 251.216 297.343 251.767C299.113 254.176 302.742 255.053 305.627 255.208C308.778 255.208 315.027 252.765 315.806 252.455C316.709 254.176 317.577 255.896 318.391 257.616C320.037 260.953 321.418 263.997 322.587 266.646L325.295 265.906C324.02 263.189 322.498 260.024 320.692 256.532C319.772 254.812 318.745 252.817 317.665 250.873C319.39 249.588 321.039 248.21 322.604 246.745C325.704 248.172 328.993 249.173 332.376 249.721C332.128 251.699 331.88 253.608 331.615 255.414C331.102 258.854 330.57 261.933 330.075 264.633L332.996 263.842C333.385 261.417 333.775 258.682 334.146 255.741C334.394 253.728 334.624 251.595 334.837 249.394C335.651 249.394 342.413 248.895 345.211 247.433C347.742 246.108 350.521 243.752 351.07 240.828C351.207 240.145 351.194 239.442 351.032 238.765C350.87 238.088 350.562 237.451 350.129 236.898C349.696 236.344 349.148 235.885 348.52 235.552C347.892 235.218 347.199 235.017 346.485 234.962C342.183 234.722 337.404 240.69 336.023 244.165C335.934 244.371 335.315 246.71 334.943 248.19C334.943 247.278 335.12 246.47 335.191 245.489C335.332 243.649 335.439 241.825 335.563 239.847V236.958C335.563 235.994 335.563 234.962 335.563 233.965C335.563 231.626 335.279 229.269 335.031 226.895C336.678 227.033 342.555 227.411 345.281 226.483C348.008 225.554 351.176 223.627 352.097 220.806C352.339 220.156 352.438 219.464 352.387 218.774C352.337 218.084 352.139 217.412 351.806 216.802C351.472 216.191 351.011 215.655 350.451 215.228C349.892 214.8 349.246 214.492 348.556 214.322C344.325 213.462 338.678 218.656 336.766 221.89C336.66 222.096 335.545 224.573 334.996 225.949C334.819 224.539 334.66 223.111 334.447 221.684C333.828 217.538 333.066 213.359 332.323 209.196C332.093 207.923 331.88 206.65 331.668 205.377C332.252 205.377 339.227 206.014 342.29 204.982C344.998 204.053 348.185 202.127 349.123 199.306C349.365 198.655 349.464 197.963 349.413 197.273C349.363 196.584 349.165 195.912 348.832 195.301C348.498 194.69 348.037 194.154 347.477 193.727C346.917 193.3 346.272 192.991 345.582 192.821C341.369 191.961 335.722 197.156 333.81 200.389C333.668 200.647 332.04 204.208 331.721 205.137C331.243 202.333 330.801 199.529 330.482 196.76C330.018 193.005 329.805 189.224 329.845 185.442C330.128 185.442 337.404 186.13 340.466 185.046C343.175 184.117 346.361 182.208 347.299 179.387C347.54 178.731 347.636 178.033 347.58 177.339C347.524 176.644 347.319 175.969 346.976 175.357C346.634 174.745 346.162 174.21 345.593 173.787C345.023 173.364 344.368 173.063 343.67 172.903C339.457 172.043 333.792 177.22 331.898 180.471C331.739 180.729 330.128 184.582 329.792 185.287C329.792 185.081 329.792 184.84 329.792 184.633C329.955 180.844 330.452 177.074 331.279 173.367C331.721 171.32 332.252 169.394 332.819 167.519C334.164 167.777 340.307 168.878 343.228 168.207C346.149 167.536 349.406 166.022 350.645 163.322C350.965 162.694 351.144 162.008 351.172 161.309C351.199 160.609 351.075 159.911 350.806 159.262C350.537 158.612 350.129 158.025 349.61 157.539C349.092 157.053 348.473 156.679 347.795 156.442C343.688 155.134 337.492 159.693 335.226 162.72C335.102 162.875 334.04 164.681 333.279 166.022C333.544 165.18 333.81 164.302 334.076 163.494C335.102 160.484 336.218 157.801 337.244 155.41C337.829 154.068 338.377 152.864 338.926 151.729C340.378 151.316 346.202 149.579 348.432 147.704C350.663 145.829 352.893 142.991 352.699 140.032C352.68 139.338 352.511 138.654 352.203 138.027C351.895 137.4 351.455 136.842 350.91 136.391C350.366 135.94 349.73 135.606 349.044 135.409C348.358 135.213 347.637 135.159 346.928 135.251C342.661 135.939 339.316 142.75 338.749 146.448C338.749 146.775 338.501 151.849 338.59 151.832H338.678C338.129 152.916 337.563 154.068 336.908 155.272C335.846 157.629 334.66 160.312 333.562 163.322C332.352 166.54 331.341 169.825 330.535 173.161C329.602 176.887 329.009 180.686 328.765 184.513V184.651C328.446 183.464 327.455 180.179 327.349 179.921C325.862 176.48 320.905 170.667 316.603 171.028C315.89 171.105 315.202 171.327 314.584 171.681C313.966 172.035 313.432 172.512 313.017 173.08C312.602 173.649 312.316 174.297 312.178 174.98C312.039 175.664 312.051 176.369 312.213 177.048C312.779 179.955 315.753 182.208 318.267 183.464C321.188 184.857 328.216 185.184 328.765 185.184C328.626 189.092 328.75 193.005 329.136 196.898C329.367 199.168 329.65 201.438 329.969 203.778C329.668 202.763 329.384 201.851 329.331 201.731C327.844 198.291 322.87 192.477 318.586 192.838C317.874 192.916 317.187 193.138 316.57 193.49C315.953 193.843 315.419 194.318 315.003 194.884C314.587 195.45 314.299 196.095 314.157 196.777C314.014 197.459 314.022 198.162 314.178 198.841C314.744 201.748 317.718 204.001 320.25 205.274C322.781 206.547 328.853 206.839 330.429 206.908C330.57 207.768 330.694 208.628 330.818 209.523C331.473 213.702 332.146 217.882 332.677 221.993C332.854 223.438 332.978 224.883 333.12 226.311C332.854 225.399 332.606 224.59 332.553 224.59C331.066 221.15 326.109 215.319 321.808 215.681C321.096 215.76 320.409 215.984 319.792 216.339C319.176 216.693 318.643 217.17 318.229 217.738C317.815 218.306 317.528 218.953 317.388 219.635C317.249 220.318 317.258 221.022 317.417 221.701C317.984 224.608 320.958 226.861 323.472 228.117C325.985 229.372 331.491 229.665 333.385 229.733C333.474 231.213 333.562 232.692 333.58 234.12C333.58 235.1 333.58 236.046 333.58 237.027C333.58 238.007 333.491 238.953 333.438 239.916C333.297 241.74 333.155 243.632 332.96 245.42C332.836 246.676 332.695 247.846 332.553 249.05C332.376 247.605 331.987 244.784 331.934 244.543C330.989 241.384 329.228 238.512 326.817 236.201C326.723 235.848 326.599 235.502 326.446 235.169C326.171 234.525 325.76 233.945 325.239 233.467C324.718 232.988 324.099 232.621 323.423 232.391C322.746 232.16 322.027 232.071 321.313 232.129C320.598 232.187 319.904 232.39 319.276 232.726C315.559 234.842 314.957 242.359 315.736 246.022C315.736 246.229 316.585 248.517 317.116 249.944C316.674 249.153 316.249 248.379 315.771 247.553C314.868 245.954 313.912 244.371 312.885 242.651L311.292 240.209C310.779 239.383 310.142 238.575 309.522 237.732C308.123 235.84 306.619 233.982 305.061 232.142C306.513 231.368 311.629 228.529 313.363 226.293C315.098 224.057 316.674 220.755 315.842 217.917C315.667 217.244 315.349 216.615 314.908 216.07C314.467 215.525 313.914 215.075 313.283 214.751C312.652 214.427 311.959 214.235 311.247 214.188C310.535 214.14 309.821 214.239 309.15 214.477C305.132 216.025 303.361 223.369 303.609 227.102C303.609 227.343 304.123 229.991 304.424 231.454C303.468 230.353 302.529 229.252 301.538 228.168C298.67 225.055 295.661 221.993 292.687 218.914L289.978 216.076C290.492 215.801 296.652 212.636 298.599 210.056C300.37 207.82 301.91 204.517 301.078 201.679C300.903 201.005 300.585 200.374 300.143 199.827C299.701 199.28 299.145 198.83 298.513 198.506C297.88 198.181 297.184 197.99 296.47 197.944C295.756 197.898 295.04 197.999 294.368 198.239C290.368 199.77 288.597 207.132 288.845 210.864C288.845 211.14 289.571 214.975 289.801 215.939C287.818 213.857 285.853 211.759 283.995 209.609C281.486 206.721 279.168 203.682 277.055 200.51C277.303 200.389 283.747 197.07 285.73 194.472C287.5 192.236 289.04 188.934 288.208 186.096C288.033 185.423 287.715 184.794 287.274 184.249C286.834 183.704 286.28 183.254 285.649 182.93C285.018 182.606 284.325 182.414 283.613 182.367C282.901 182.319 282.187 182.418 281.516 182.655C277.516 184.186 275.728 191.548 275.993 195.281C275.993 195.573 276.772 199.684 276.967 200.441L276.577 199.89C274.553 196.651 272.829 193.243 271.426 189.708C270.629 187.764 269.974 185.872 269.39 183.997C270.647 183.498 276.471 181.125 278.471 179.009C280.472 176.893 282.384 173.849 281.87 170.942C281.777 170.252 281.534 169.589 281.159 168.996C280.784 168.403 280.284 167.894 279.693 167.501C279.102 167.109 278.432 166.841 277.728 166.717C277.023 166.593 276.299 166.614 275.604 166.779C271.444 167.88 268.859 175.001 268.682 178.82C268.682 179.026 268.824 181.107 268.947 182.621C268.682 181.778 268.416 180.901 268.186 180.093C267.319 177.031 266.735 174.193 266.221 171.664C265.938 170.219 265.726 168.912 265.531 167.691C266.505 166.556 270.381 161.98 271.196 159.228C272.01 156.476 272.222 152.898 270.399 150.628C269.989 150.056 269.46 149.575 268.845 149.216C268.231 148.857 267.546 148.628 266.834 148.543C266.122 148.459 265.4 148.521 264.715 148.726C264.03 148.931 263.397 149.275 262.858 149.733C259.689 152.572 260.769 160.054 262.38 163.494C262.521 163.786 265.265 168.121 265.301 168.069C265.46 169.256 265.637 170.512 265.885 171.888C266.327 174.434 266.859 177.306 267.655 180.385C268.472 183.719 269.489 187.005 270.7 190.224C272.04 193.836 273.711 197.325 275.692 200.647C275.696 200.687 275.696 200.728 275.692 200.768C274.754 199.942 272.152 197.723 271.833 197.586C268.629 195.504 261.211 193.32 257.813 195.865C257.263 196.313 256.816 196.868 256.503 197.495C256.189 198.121 256.014 198.805 255.991 199.501C255.968 200.198 256.096 200.891 256.367 201.536C256.638 202.181 257.046 202.763 257.565 203.245C259.884 204.844 263.601 205.171 266.469 204.827Z" fill="#263238"/>
<path d="M332.341 166.779C332.341 166.779 332.341 161.619 332.341 161.378C331.845 157.68 328.641 150.799 324.392 150.043C323.684 149.938 322.962 149.979 322.271 150.164C321.58 150.348 320.937 150.671 320.383 151.112C319.829 151.553 319.377 152.102 319.055 152.724C318.733 153.346 318.549 154.026 318.515 154.721C318.267 157.662 320.48 160.604 322.622 162.461C325.101 164.646 332.341 166.779 332.341 166.779Z" fill="#263238"/>
<path d="M32.9185 673.647C36.0696 672.65 41.5043 667.73 41.5043 667.73C41.5043 667.73 37.0787 665.236 36.7777 665.116C33.2372 663.688 25.7135 662.932 22.9519 666.045C22.5112 666.576 22.1901 667.192 22.0093 667.852C21.8284 668.511 21.7919 669.2 21.9019 669.874C22.012 670.549 22.2663 671.193 22.6484 671.766C23.0305 672.339 23.5319 672.827 24.1203 673.2C26.6518 674.852 30.1923 674.49 32.9185 673.647Z" fill="#4DBAAB"/>
<path d="M79.1341 687.613C81.7895 685.893 85.4716 680.234 85.7549 679.77C89.0866 681.826 92.5584 683.659 96.1463 685.257C98.2352 686.203 100.36 687.08 102.502 687.957L100.395 687.458C96.6597 686.977 89.1361 688.198 87.3127 691.913C87.0317 692.54 86.8892 693.217 86.8943 693.9C86.8994 694.584 87.052 695.258 87.3424 695.881C87.6327 696.503 88.0542 697.06 88.5797 697.514C89.1051 697.968 89.7229 698.31 90.393 698.518C93.2077 699.482 96.642 698.191 98.9965 696.695C101.351 695.199 104.626 690.382 105.458 689.11L107.936 690.073C111.902 691.621 115.885 693.135 119.726 694.734C121.089 695.302 122.399 695.904 123.727 696.454L121.957 696.024C118.222 695.543 110.698 696.764 108.875 700.479C108.594 701.106 108.451 701.783 108.456 702.466C108.461 703.149 108.614 703.824 108.904 704.447C109.194 705.069 109.616 705.626 110.141 706.08C110.667 706.534 111.285 706.876 111.955 707.084C114.77 708.047 118.204 706.757 120.558 705.261C122.913 703.765 125.869 699.413 126.86 697.899C128.188 698.553 129.534 699.206 130.79 699.894C131.64 700.393 132.561 700.806 133.322 701.339L135.765 702.887C137.305 703.919 138.881 704.969 140.332 706.018C141.359 706.723 142.315 707.428 143.289 708.133C141.943 707.566 139.288 706.413 139.058 706.413C135.429 705.399 127.799 705.485 125.427 708.89C125.042 709.471 124.79 710.125 124.684 710.808C124.579 711.491 124.624 712.188 124.817 712.852C125.009 713.517 125.344 714.135 125.8 714.665C126.256 715.194 126.823 715.624 127.462 715.925C130.082 717.301 133.676 716.527 136.314 715.392C139.146 714.119 143.501 709.269 144.05 708.667C145.643 709.836 147.201 710.989 148.635 712.107C151.573 714.36 154.14 716.441 156.353 718.282L158.407 716.562C156.088 714.704 153.308 712.571 150.175 710.249C148.546 709.045 146.794 707.807 144.97 706.534C145.936 704.686 146.775 702.778 147.484 700.823C150.844 700.779 154.182 700.275 157.398 699.327C158.07 701.167 158.708 702.956 159.274 704.659C160.372 707.893 161.292 710.834 162.053 713.414L164.266 711.505C163.523 709.2 162.655 706.637 161.646 703.885C160.973 702.01 160.23 700.032 159.433 698.002C160.124 697.607 165.877 694.356 167.683 691.896C169.488 689.436 170.781 686.392 169.896 683.623C169.711 682.964 169.385 682.351 168.94 681.823C168.495 681.295 167.94 680.865 167.312 680.56C166.683 680.254 165.996 680.081 165.294 680.052C164.593 680.023 163.892 680.137 163.239 680.389C159.345 681.989 157.787 689.247 158.141 692.911C158.141 693.117 158.654 695.439 158.991 696.901L157.999 694.425C157.309 692.705 156.583 691.088 155.804 689.264C155.397 688.404 154.972 687.544 154.565 686.684C154.158 685.824 153.645 684.964 153.184 684.07C152.069 682.057 150.83 680.062 149.644 678.101C151.148 677.516 156.495 675.366 158.495 673.388C160.495 671.41 162.407 668.4 162.036 665.528C161.954 664.849 161.726 664.194 161.367 663.607C161.007 663.02 160.525 662.512 159.95 662.118C159.376 661.724 158.722 661.451 158.032 661.319C157.343 661.186 156.632 661.196 155.946 661.348C151.857 662.363 149.201 669.312 148.971 672.975C148.971 673.216 149.095 675.865 149.201 677.31C148.422 676.123 147.643 674.936 146.811 673.767C144.404 670.327 141.872 667.041 139.359 663.687C138.58 662.655 137.836 661.623 137.075 660.591C137.606 660.402 144.014 657.977 146.227 655.775C148.44 653.573 150.157 650.787 149.768 647.914C149.686 647.235 149.458 646.581 149.099 645.994C148.739 645.406 148.257 644.899 147.682 644.504C147.108 644.11 146.454 643.838 145.765 643.705C145.075 643.573 144.364 643.582 143.678 643.734C139.589 644.749 136.916 651.698 136.597 655.362C136.597 655.637 136.792 659.439 136.898 660.419C135.128 658.148 133.57 655.861 132.047 653.539C129.958 650.435 128.084 647.2 126.436 643.855C126.683 643.752 133.393 641.258 135.659 639.004C137.624 637.043 139.589 634.016 139.199 631.144C139.131 630.426 138.9 629.732 138.522 629.113C138.144 628.493 137.628 627.963 137.013 627.561C136.397 627.159 135.698 626.895 134.964 626.789C134.231 626.683 133.482 626.737 132.773 626.947C128.666 627.961 126.011 634.911 125.781 638.574C125.781 638.867 125.993 642.96 126.082 643.734C126.082 643.545 125.869 643.356 125.781 643.15C124.217 639.757 122.973 636.234 122.063 632.623C121.532 630.628 121.125 628.701 120.788 626.826C122.081 626.482 127.993 624.865 130.277 623.042C132.561 621.219 134.738 618.501 134.614 615.594C134.609 614.912 134.456 614.238 134.165 613.617C133.874 612.995 133.452 612.44 132.926 611.988C132.4 611.535 131.782 611.195 131.113 610.99C130.443 610.784 129.736 610.718 129.038 610.795C124.86 611.363 121.426 618.002 120.788 621.614C120.788 621.804 120.611 623.851 120.541 625.33C120.417 624.487 120.24 623.61 120.133 622.784C119.673 619.705 119.461 616.85 119.301 614.339C119.301 612.894 119.16 611.604 119.124 610.382C120.222 609.402 124.577 605.411 125.71 602.831C126.843 600.251 127.48 596.794 126.028 594.231C125.698 593.63 125.241 593.102 124.687 592.684C124.133 592.266 123.494 591.966 122.812 591.803C122.131 591.641 121.422 591.62 120.731 591.742C120.041 591.864 119.385 592.126 118.806 592.511C115.371 594.902 115.46 602.315 116.611 605.807C116.717 606.099 118.823 610.658 118.877 610.606C118.877 611.776 118.877 613.031 118.877 614.407C118.983 616.936 119.142 619.791 119.532 622.887C119.921 626.232 120.513 629.552 121.302 632.829C122.16 636.505 123.344 640.102 124.842 643.58C124.846 643.62 124.846 643.66 124.842 643.7C124.028 642.788 121.691 640.26 121.479 640.122C118.629 637.731 111.654 634.704 108.043 636.837C107.453 637.207 106.951 637.693 106.567 638.264C106.183 638.834 105.927 639.477 105.815 640.15C105.704 640.823 105.739 641.511 105.918 642.17C106.097 642.829 106.417 643.444 106.856 643.975C108.627 646.297 112.167 647.071 115.07 647.071C118.257 647.071 124.541 644.319 125.037 644.096C126.652 647.591 128.509 650.976 130.596 654.227C131.799 656.136 133.074 658.011 134.366 659.886C133.641 659.129 133.003 658.441 132.897 658.355C130.047 655.947 123.072 652.937 119.461 655.052C118.867 655.42 118.359 655.906 117.972 656.478C117.585 657.05 117.327 657.696 117.215 658.372C117.103 659.047 117.14 659.739 117.322 660.4C117.505 661.061 117.829 661.677 118.275 662.208C120.045 664.53 123.585 665.287 126.471 665.304C129.357 665.321 134.756 663.051 136.172 662.431L137.694 664.582C140.137 668.022 142.58 671.376 144.882 674.781C145.696 675.968 146.457 677.19 147.201 678.394C146.564 677.706 146.015 677.138 145.926 677.069C143.076 674.661 136.101 671.634 132.49 673.767C131.896 674.133 131.389 674.617 131.002 675.188C130.615 675.758 130.357 676.402 130.245 677.077C130.133 677.751 130.17 678.441 130.352 679.101C130.535 679.761 130.859 680.376 131.304 680.905C133.074 683.227 136.615 684.001 139.518 684.001C142.421 684.001 147.254 681.971 148.953 681.249C149.679 682.505 150.423 683.76 151.078 685.016C151.52 685.876 151.998 686.736 152.37 687.579C152.742 688.422 153.167 689.299 153.556 690.176C154.229 691.896 154.955 693.616 155.574 695.233C156.034 696.385 156.424 697.486 156.831 698.587C156.052 697.4 154.441 695.147 154.282 694.889C152.039 692.511 149.204 690.734 146.05 689.729C145.816 689.447 145.549 689.193 145.254 688.972C144.735 688.551 144.134 688.237 143.487 688.049C142.84 687.862 142.161 687.804 141.49 687.879C140.819 687.955 140.171 688.163 139.586 688.489C139 688.816 138.489 689.256 138.084 689.78C135.747 693.221 138.58 700.101 140.934 702.956C141.076 703.111 142.811 704.797 143.908 705.829L141.678 704.281C140.155 703.248 138.597 702.268 136.933 701.184L134.455 699.705C133.623 699.189 132.685 698.759 131.799 698.26C129.728 697.177 127.586 696.179 125.391 695.233C126.312 693.926 129.551 689.282 130.082 686.633C130.613 683.984 130.525 680.372 128.524 678.222C128.071 677.699 127.509 677.275 126.876 676.978C126.243 676.68 125.552 676.516 124.849 676.494C124.146 676.473 123.447 676.596 122.796 676.855C122.145 677.114 121.557 677.504 121.072 677.998C118.239 681.043 119.956 688.318 121.851 691.432C121.957 691.638 123.621 693.771 124.506 694.872C123.178 694.304 121.851 693.737 120.505 693.152C116.575 691.621 112.557 690.176 108.556 688.731L104.891 687.39C105.228 686.925 109.193 681.473 109.795 678.445C110.326 675.745 110.238 672.184 108.237 670.017C107.782 669.497 107.22 669.075 106.587 668.779C105.954 668.483 105.264 668.319 104.562 668.298C103.86 668.277 103.161 668.399 102.51 668.657C101.859 668.914 101.272 669.302 100.784 669.793C97.952 672.838 99.6692 680.114 101.563 683.244C101.705 683.485 104.042 686.547 104.679 687.304C101.988 686.306 99.3682 685.291 96.7305 684.19C93.2394 682.703 89.8459 681.009 86.5692 679.116C86.7108 678.892 90.8886 673.233 91.4905 670.12C92.0216 667.437 91.9331 663.859 89.9327 661.709C89.4805 661.185 88.9199 660.76 88.2874 660.461C87.6549 660.162 86.9646 659.996 86.2616 659.973C85.5585 659.95 84.8584 660.072 84.2069 660.329C83.5553 660.587 82.9669 660.975 82.4799 661.468C79.6474 664.53 81.3823 671.789 83.2588 674.919C83.4181 675.177 85.9319 678.462 86.4276 679.03L85.8434 678.72C82.6123 676.725 79.5729 674.451 76.7619 671.926C75.1864 670.55 73.7525 669.157 72.4071 667.764C73.2922 666.783 77.293 662.277 78.1604 659.542C79.0279 656.807 79.3111 653.35 77.5585 650.941C77.1684 650.375 76.6596 649.894 76.0653 649.531C75.471 649.168 74.8047 648.931 74.1098 648.835C73.4148 648.74 72.7069 648.787 72.0322 648.975C71.3575 649.163 70.7313 649.487 70.1942 649.927C67.0255 652.644 67.9283 660.006 69.433 663.377C69.433 663.549 70.566 665.321 71.3626 666.611C70.7607 665.958 70.1234 665.321 69.5923 664.702C67.468 662.38 65.6801 660.109 64.1045 658.097C63.2194 656.962 62.4405 655.895 61.7324 654.898C62.0864 653.504 63.5026 647.828 62.9184 645.059C62.3343 642.29 61.0066 639.073 58.3335 637.766C57.7161 637.426 57.0314 637.219 56.325 637.157C55.6186 637.095 54.9066 637.179 54.2366 637.406C53.5666 637.632 52.9539 637.994 52.4393 638.469C51.9248 638.943 51.5201 639.518 51.2524 640.157C49.73 643.992 54.0317 650.116 56.9703 652.421C57.2182 652.627 61.573 655.293 61.5907 655.224V655.138C62.2634 656.102 62.9893 657.151 63.8036 658.269C65.3437 660.316 67.0963 662.603 69.1144 664.994C71.3248 667.58 73.6892 670.039 76.1954 672.356C78.9854 674.983 82.0129 677.361 85.2415 679.46H85.3654C84.1793 679.133 80.7981 678.325 80.5326 678.29C76.7973 677.809 69.2737 679.03 67.4503 682.745C67.1693 683.372 67.0268 684.049 67.0319 684.732C67.037 685.416 67.1897 686.09 67.48 686.713C67.7703 687.335 68.1918 687.892 68.7173 688.346C69.2428 688.8 69.8605 689.143 70.5306 689.35C73.3453 690.4 76.7796 689.11 79.1341 687.613Z" fill="#119285"/>
<path d="M90.1167 626.328C90.2052 626.328 87.8508 621.873 87.6738 621.597C85.5671 618.553 79.6722 613.857 75.6005 614.975C74.9294 615.179 74.3101 615.518 73.7832 615.97C73.2563 616.422 72.8336 616.977 72.5428 617.599C72.252 618.221 72.0997 618.896 72.0958 619.579C72.0919 620.262 72.2366 620.938 72.5203 621.563C73.6179 624.264 76.8751 625.932 79.6014 626.723C82.7878 627.514 90.1167 626.328 90.1167 626.328Z" fill="#4DBAAB"/>
<path d="M336.43 197.432L320.586 210.969" stroke="#263238" stroke-linecap="round" stroke-linejoin="round"/>
<path d="M477.432 76.9922L385.254 155.719" stroke="#263238" stroke-linecap="round" stroke-linejoin="round"/>
<path d="M463.642 73.6387L374.014 105.46" stroke="#263238" stroke-linecap="round" stroke-linejoin="round"/>
<path d="M381.555 60.6172L324.021 65.2613" stroke="#263238" stroke-linecap="round" stroke-linejoin="round"/>
<path d="M448.116 55.2168L387.98 60.0846" stroke="#263238" stroke-linecap="round" stroke-linejoin="round"/>
<path d="M422.623 20.5055L362.682 1" stroke="#263238" stroke-linecap="round" stroke-linejoin="round"/>
<path d="M442.948 26.7493L430.963 23.0684" stroke="#263238" stroke-linecap="round" stroke-linejoin="round"/>
<path d="M683.916 197.432L699.76 210.969" stroke="#263238" stroke-linecap="round" stroke-linejoin="round"/>
<path d="M542.914 76.9922L674.162 189.106" stroke="#263238" stroke-linecap="round" stroke-linejoin="round"/>
<path d="M556.705 73.6387L646.334 105.46" stroke="#263238" stroke-linecap="round" stroke-linejoin="round"/>
<path d="M638.773 60.6172L696.307 65.2613" stroke="#263238" stroke-linecap="round" stroke-linejoin="round"/>
<path d="M572.213 55.2168L632.367 60.0846" stroke="#263238" stroke-linecap="round" stroke-linejoin="round"/>
<path d="M597.721 20.5049L643.517 6.40039" stroke="#263238" stroke-linecap="round" stroke-linejoin="round"/>
<path d="M577.381 26.7493L589.383 23.0684" stroke="#263238" stroke-linecap="round" stroke-linejoin="round"/>
<path d="M511.903 62.4902H502.414V101.742H511.903V62.4902Z" fill="#F4B45C" stroke="#263238" stroke-linecap="round" stroke-linejoin="round"/>
<path d="M521.178 110.154H493.137L496.447 94.9316H517.867L521.178 110.154Z" fill="#F4B45C" stroke="#263238" stroke-linecap="round" stroke-linejoin="round"/>
<path d="M538.068 116.552H476.25L482.835 102.533H531.482L538.068 116.552Z" fill="#F4B45C" stroke="#263238" stroke-linecap="round" stroke-linejoin="round"/>
<path d="M475.824 20.9336C471.402 20.8516 467.055 22.0507 463.338 24.378C459.62 26.7052 456.699 30.0553 454.949 34.0013C453.198 37.9473 452.696 42.3104 453.506 46.5347C454.317 50.7589 456.404 54.653 459.501 57.7206C462.598 60.7882 466.564 62.8905 470.896 63.7594C475.227 64.6283 479.726 64.2246 483.82 62.5997C487.914 60.9747 491.418 58.2022 493.884 54.6354C496.35 51.0686 497.668 46.8691 497.669 42.572C497.697 39.7575 497.154 36.9651 496.071 34.3545C494.989 31.7438 493.387 29.3659 491.359 27.3566C489.33 25.3472 486.914 23.7458 484.249 22.6438C481.583 21.5417 478.72 20.9606 475.824 20.9336ZM475.824 58.775C472.527 58.833 469.286 57.9359 466.516 56.198C463.746 54.46 461.571 51.96 460.268 49.0164C458.965 46.0729 458.594 42.8191 459.202 39.6699C459.81 36.5207 461.369 33.6186 463.681 31.3335C465.992 29.0484 468.952 27.4839 472.182 26.8392C475.412 26.1945 478.767 26.499 481.818 27.7137C484.87 28.9285 487.48 30.9985 489.316 33.66C491.152 36.3215 492.131 39.4539 492.128 42.658C492.142 46.8812 490.435 50.9381 487.38 53.942C484.325 56.946 480.17 58.6526 475.824 58.6889V58.775Z" fill="#F4B45C" stroke="#263238" stroke-linecap="round" stroke-linejoin="round"/>
<path d="M541.802 20.9336C537.381 20.8516 533.034 22.0507 529.316 24.378C525.598 26.7052 522.678 30.0553 520.927 34.0013C519.176 37.9473 518.674 42.3104 519.485 46.5347C520.296 50.7589 522.382 54.653 525.479 57.7206C528.576 60.7882 532.543 62.8905 536.874 63.7594C541.205 64.6283 545.705 64.2246 549.799 62.5997C553.893 60.9747 557.396 58.2022 559.863 54.6354C562.329 51.0686 563.646 46.8691 563.647 42.572C563.675 39.7575 563.133 36.9651 562.05 34.3545C560.967 31.7438 559.366 29.3659 557.337 27.3566C555.309 25.3472 552.893 23.7458 550.227 22.6438C547.562 21.5417 544.699 20.9606 541.802 20.9336ZM541.802 58.775C538.504 58.8365 535.263 57.9423 532.49 56.2065C529.717 54.4707 527.539 51.9719 526.234 49.0287C524.929 46.0855 524.555 42.8312 525.161 39.6809C525.767 36.5306 527.324 33.6269 529.635 31.3401C531.946 29.0533 534.905 27.487 538.136 26.8409C541.367 26.1948 544.722 26.4981 547.775 27.7123C550.827 28.9265 553.438 30.9965 555.275 33.6583C557.112 36.3201 558.092 39.4532 558.089 42.658C558.103 46.8782 556.398 50.9326 553.347 53.936C550.296 56.9394 546.145 58.6481 541.802 58.6889V58.775Z" fill="#F4B45C" stroke="#263238" stroke-linecap="round" stroke-linejoin="round"/>
<path d="M507.159 73.293C503.533 73.2953 499.943 72.6034 496.592 71.2568C493.242 69.9101 490.197 67.9353 487.633 65.445C485.068 62.9547 483.034 59.9978 481.645 56.7432C480.257 53.4887 479.543 50.0002 479.543 46.4773V18.8359H534.722V46.4773C534.722 53.5833 531.819 60.3988 526.651 65.4267C521.483 70.4547 514.473 73.2839 507.159 73.293Z" fill="#F4B45C" stroke="#263238" stroke-linecap="round" stroke-linejoin="round"/>
<path d="M506.397 27.6602L509.955 38.2901H521.462L512.15 44.8608L515.709 55.4907L506.397 48.9201L497.085 55.4907L500.644 44.8608L491.332 38.2901H502.839L506.397 27.6602Z" fill="#263238"/>
<path d="M598.377 116.691H417.102V277.276H598.377V116.691Z" fill="#263238" stroke="#263238" stroke-linejoin="round"/>
<path d="M537.586 116.691H417.102V277.276H537.586V116.691Z" fill="#ECECEC" stroke="#263238" stroke-linejoin="round"/>
<path d="M458.824 196.469H277.549V357.054H458.824V196.469Z" fill="#263238" stroke="#263238" stroke-linejoin="round"/>
<path d="M398.033 196.469H277.549V357.054H398.033V196.469Z" fill="#ECECEC" stroke="#263238" stroke-linejoin="round"/>
<path d="M359.461 241.964V229.132H351.193C350.563 226.892 349.622 224.745 348.396 222.751L353.513 217.763L344.166 208.681L339.067 213.635C336.781 212.288 334.298 211.285 331.703 210.659V204.725H318.479V210.659C315.624 211.371 312.909 212.533 310.442 214.099L306.795 210.556L297.501 219.586L301.449 223.422C299.973 225.993 298.961 228.792 298.457 231.695H293.43V244.544H299.449C300.364 247.199 301.709 249.696 303.432 251.94L299.36 255.896L308.654 264.927L313.699 260.025C316.057 261.091 318.561 261.821 321.134 262.192V268.883H334.341V260.885C336.536 260.111 338.618 259.065 340.536 257.771L346.042 263.121L355.389 254.039L349.246 248.07C350.271 246.119 351.038 244.05 351.53 241.912L359.461 241.964ZM325.1 252.284C321.829 252.288 318.63 251.348 315.909 249.585C313.188 247.822 311.066 245.314 309.811 242.379C308.557 239.444 308.227 236.213 308.863 233.095C309.499 229.978 311.073 227.114 313.384 224.865C315.696 222.617 318.642 221.085 321.85 220.464C325.058 219.842 328.383 220.159 331.405 221.375C334.428 222.59 337.011 224.649 338.829 227.292C340.646 229.934 341.616 233.041 341.616 236.219C341.607 240.471 339.863 244.546 336.767 247.551C333.671 250.555 329.476 252.245 325.1 252.25V252.284Z" fill="#10235A"/>
<path d="M371.55 292.877V283.434H365.478C365.001 281.787 364.305 280.209 363.407 278.738L367.178 275.074L360.309 268.366L356.556 272.012C354.874 271.023 353.048 270.286 351.139 269.828V265.459H341.42V269.828C339.321 270.337 337.323 271.179 335.508 272.322L332.905 269.742L326.037 276.416L328.94 279.237C327.858 281.132 327.11 283.19 326.727 285.326H323.045V294.769H327.471C328.14 296.72 329.126 298.555 330.392 300.204L327.4 303.111L334.268 309.785L337.986 306.19C339.718 306.964 341.553 307.497 343.438 307.772V312.692H353.157V306.826C354.764 306.237 356.287 305.451 357.689 304.487L361.743 308.426L368.612 301.752L364.097 297.366C364.848 295.933 365.407 294.413 365.761 292.842L371.55 292.877ZM346.289 300.428C343.887 300.428 341.539 299.736 339.542 298.439C337.545 297.143 335.988 295.3 335.069 293.144C334.15 290.988 333.909 288.615 334.378 286.326C334.846 284.037 336.003 281.935 337.701 280.285C339.4 278.634 341.564 277.511 343.919 277.055C346.275 276.6 348.717 276.834 350.936 277.727C353.155 278.62 355.052 280.132 356.386 282.073C357.72 284.013 358.433 286.294 358.433 288.628C358.433 290.178 358.118 291.712 357.508 293.144C356.898 294.575 356.003 295.876 354.876 296.972C353.748 298.067 352.409 298.937 350.936 299.53C349.462 300.123 347.883 300.428 346.289 300.428Z" fill="#10235A"/>
<path d="M559.058 300.084H377.783V460.669H559.058V300.084Z" fill="#263238" stroke="#263238" stroke-linejoin="round"/>
<path d="M498.267 300.084H377.783V460.669H498.267V300.084Z" fill="#ECECEC" stroke="#263238" stroke-linejoin="round"/>
<path d="M468.739 328.052L458.277 320.552C456.3 319.133 453.926 318.331 451.469 318.254C449.012 318.177 446.589 318.829 444.522 320.122L423.775 332.163C422.68 332.815 421.876 333.842 421.523 335.042C421.169 336.241 421.291 337.526 421.864 338.643C422.438 339.759 423.421 340.626 424.62 341.073C425.819 341.52 427.147 341.513 428.342 341.056L447.726 334.588L470.988 357.981L485.451 353.079V324.474L468.739 328.052Z" fill="#E15165"/>
<path d="M445.159 337.753L425.846 344.221C422.305 345.7 418.464 339.989 418.464 336.274C418.464 331.475 423.172 330.15 426.872 326.968L430.413 323.941C428.505 322.254 426.121 321.162 423.568 320.806C421.014 320.451 418.41 320.848 416.091 321.946C410.531 324.592 404.136 325.06 398.229 323.253L393.096 321.688V353.474L399.646 354.266L400.265 353.75C402.406 351.966 405.175 351.057 407.99 351.214C410.806 351.371 413.449 352.582 415.366 354.592L438.592 378.863C439.118 379.409 439.838 379.742 440.607 379.793C441.376 379.844 442.136 379.61 442.734 379.138C443.049 378.886 443.309 378.575 443.497 378.224C443.686 377.872 443.799 377.487 443.83 377.092C443.862 376.697 443.811 376.299 443.68 375.924C443.549 375.548 443.342 375.202 443.07 374.906L437.264 368.577L445.319 373.737C446.096 374.193 447.015 374.362 447.91 374.215C448.805 374.068 449.616 373.613 450.194 372.934C450.773 372.254 451.082 371.396 451.065 370.514C451.047 369.632 450.704 368.786 450.098 368.129L445.425 363.416L452.506 367.768C453.358 368.269 454.367 368.457 455.349 368.298C456.332 368.14 457.224 367.646 457.865 366.905C458.505 366.164 458.853 365.225 458.844 364.258C458.835 363.29 458.471 362.357 457.817 361.628L453.621 357.069L461.304 361.593C461.883 361.934 462.556 362.092 463.232 362.046C463.907 362 464.551 361.751 465.075 361.335C465.434 361.05 465.727 360.694 465.935 360.291C466.142 359.888 466.259 359.446 466.277 358.995C466.296 358.545 466.215 358.096 466.042 357.678C465.868 357.26 465.605 356.882 465.269 356.571L445.159 337.753Z" fill="#E15165"/>
<path d="M409.026 365.774L412 362.127C412.599 361.342 412.86 360.361 412.728 359.392C412.596 358.423 412.082 357.542 411.293 356.935C410.505 356.327 409.505 356.041 408.504 356.137C407.503 356.233 406.579 356.704 405.928 357.449L402.954 361.095C402.356 361.881 402.095 362.862 402.227 363.831C402.359 364.8 402.873 365.681 403.661 366.288C404.45 366.896 405.45 367.182 406.451 367.086C407.452 366.99 408.376 366.519 409.026 365.774Z" fill="#E15165"/>
<path d="M414.762 371.088L417.736 367.442C418.298 366.654 418.53 365.688 418.384 364.74C418.239 363.793 417.727 362.935 416.953 362.341C416.179 361.747 415.202 361.461 414.219 361.543C413.236 361.625 412.323 362.067 411.664 362.78L408.69 366.41C408.129 367.197 407.897 368.163 408.042 369.111C408.188 370.058 408.7 370.917 409.473 371.511C410.247 372.105 411.225 372.39 412.207 372.308C413.19 372.226 414.104 371.784 414.762 371.071V371.088Z" fill="#E15165"/>
<path d="M420.444 376.403L423.401 372.774C423.999 371.988 424.26 371.008 424.128 370.039C423.996 369.07 423.482 368.188 422.694 367.581C421.906 366.974 420.905 366.688 419.904 366.784C418.903 366.88 417.98 367.35 417.329 368.095L414.337 371.742C413.701 372.523 413.409 373.517 413.525 374.506C413.641 375.496 414.156 376.401 414.957 377.022C415.357 377.336 415.818 377.568 416.312 377.707C416.806 377.845 417.323 377.887 417.834 377.829C418.345 377.772 418.838 377.616 419.287 377.371C419.735 377.126 420.128 376.797 420.444 376.403Z" fill="#E15165"/>
<path d="M428.501 372.808C428.103 372.5 427.647 372.273 427.157 372.137C426.668 372.002 426.157 371.962 425.652 372.02C425.147 372.077 424.658 372.231 424.215 372.473C423.771 372.714 423.381 373.038 423.067 373.427L420.093 377.056C419.756 377.442 419.503 377.889 419.348 378.371C419.193 378.853 419.14 379.361 419.191 379.863C419.242 380.366 419.396 380.854 419.645 381.297C419.894 381.741 420.232 382.131 420.64 382.445C421.047 382.759 421.515 382.99 422.017 383.124C422.518 383.259 423.042 383.294 423.557 383.228C424.073 383.162 424.569 382.995 425.017 382.739C425.465 382.482 425.855 382.141 426.165 381.735L429.139 378.088C429.455 377.701 429.689 377.258 429.829 376.782C429.968 376.307 430.009 375.81 429.95 375.319C429.891 374.829 429.732 374.354 429.484 373.923C429.235 373.492 428.901 373.113 428.501 372.808Z" fill="#E15165"/>
<path d="M401.238 402.65H219.963V563.235H401.238V402.65Z" fill="#263238" stroke="#263238" stroke-linejoin="round"/>
<path d="M340.447 402.65H219.963V563.235H340.447V402.65Z" fill="#ECECEC" stroke="#263238" stroke-linejoin="round"/>
<path d="M251.508 483.098H238.178V504.581H251.508V483.098Z" fill="#4DBAAB"/>
<path d="M267.688 473.914H254.357V504.6H267.688V473.914Z" fill="#4DBAAB"/>
<path d="M283.889 467.635H270.559V504.582H283.889V467.635Z" fill="#4DBAAB"/>
<path d="M300.33 458H287V503.324H300.33V458Z" fill="#119285"/>
<path d="M292.19 445.791L281.444 449.059L284.294 451.605L276.664 459.689L258.749 462.992L239.914 477.045C239.541 477.321 239.296 477.73 239.233 478.181C239.17 478.632 239.294 479.09 239.577 479.453C239.864 479.812 240.286 480.047 240.751 480.105C241.215 480.163 241.684 480.04 242.056 479.762L260.325 466.174L278.559 462.734L286.985 453.824L289.835 456.369L292.19 445.791Z" fill="#4DBAAB"/>
<path d="M511.084 524.553H329.809V685.138H511.084V524.553Z" fill="#263238" stroke="#263238" stroke-linejoin="round"/>
<path d="M450.293 524.553H329.809V685.138H450.293V524.553Z" fill="#ECECEC" stroke="#263238" stroke-linejoin="round"/>
<path d="M409.487 581.228L398.405 574.124V572.094C400.752 569.064 402.059 565.393 402.14 561.602C402.14 552.296 398.228 551.281 393.377 551.281C388.527 551.281 384.615 553.311 384.615 561.602C384.707 565.475 386.072 569.217 388.509 572.283V573.47L376.365 581.228C375.347 581.878 374.512 582.764 373.934 583.805C373.356 584.847 373.054 586.013 373.055 587.196V589.742L392.351 597.964L412.85 589.742V587.196C412.845 586.008 412.535 584.84 411.948 583.797C411.36 582.755 410.514 581.872 409.487 581.228Z" fill="#6D8CEB"/>
<path d="M421.648 570.752C421.66 565.409 420.092 560.175 417.13 555.673C414.168 551.172 409.938 547.591 404.941 545.359C399.945 543.127 394.394 542.336 388.949 543.081C383.504 543.826 378.394 546.076 374.227 549.563C370.06 553.049 367.012 557.626 365.445 562.748C363.878 567.869 363.859 573.32 365.39 578.452C366.921 583.584 369.937 588.181 374.079 591.695C378.222 595.209 383.316 597.492 388.756 598.273V620.273C387.939 620.824 387.27 621.56 386.808 622.416C386.345 623.273 386.103 624.225 386.101 625.192V662.518C386.101 664.114 386.754 665.646 387.916 666.775C389.078 667.904 390.654 668.538 392.297 668.538C393.94 668.538 395.516 667.904 396.678 666.775C397.84 665.646 398.493 664.114 398.493 662.518V625.192C398.495 624.224 398.255 623.27 397.792 622.413C397.329 621.556 396.658 620.821 395.837 620.273V598.497C402.91 597.795 409.463 594.569 414.231 589.445C418.998 584.32 421.641 577.66 421.648 570.752ZM369.567 570.752C369.563 566.258 370.932 561.863 373.499 558.124C376.067 554.385 379.718 551.47 383.99 549.748C388.263 548.025 392.966 547.573 397.503 548.448C402.041 549.322 406.209 551.485 409.481 554.662C412.754 557.839 414.983 561.888 415.886 566.296C416.79 570.704 416.328 575.274 414.559 579.426C412.789 583.579 409.792 587.129 405.946 589.627C402.1 592.124 397.578 593.457 392.952 593.457C386.756 593.448 380.816 591.054 376.433 586.798C372.049 582.543 369.581 576.773 369.567 570.752Z" fill="#6D8CEB"/>
<path d="M324.084 640.416H142.809V801.001H324.084V640.416Z" fill="#263238" stroke="#263238" stroke-linejoin="round"/>
<path d="M263.293 640.416H142.809V801.001H263.293V640.416Z" fill="#ECECEC" stroke="#263238" stroke-linejoin="round"/>
<path d="M245.202 739.026C245.201 737.839 244.896 736.67 244.315 735.626C243.734 734.581 242.896 733.693 241.874 733.041L230.739 725.902V723.873C233.092 720.844 234.404 717.174 234.492 713.38C234.492 704.092 230.562 703.06 225.641 703.06C220.72 703.06 216.878 705.09 216.878 713.38C216.957 717.256 218.323 721.003 220.773 724.062V725.266L208.629 733.006C207.607 733.658 206.769 734.547 206.188 735.591C205.607 736.636 205.302 737.805 205.301 738.992V745.494C204.263 745.3 203.206 745.213 202.15 745.236C201.24 745.223 200.331 745.309 199.441 745.494V738.992C199.44 737.805 199.135 736.636 198.554 735.591C197.973 734.547 197.134 733.658 196.113 733.006L185.067 725.902V723.873C187.419 720.844 188.732 717.174 188.819 713.38C188.819 706.242 186.5 703.972 183.208 703.301L188.89 697.005H198.538L201.123 732.972H202.273L205.991 696.988H219.091L224.065 702.561L223.729 696.988H230.137V649.996H175.95V697.04H183.845L183.119 703.318C182.108 703.148 181.083 703.067 180.057 703.077C175.206 703.077 171.294 705.107 171.294 713.398C171.37 717.316 172.763 721.104 175.259 724.182V725.386L163.115 733.127C162.094 733.779 161.255 734.667 160.674 735.712C160.093 736.756 159.789 737.925 159.787 739.112V749.983H194.431C193.787 751.802 193.487 753.719 193.546 755.642C193.631 759.517 194.997 763.261 197.441 766.324V767.511L185.297 775.268C184.274 775.915 183.435 776.8 182.854 777.842C182.272 778.885 181.968 780.051 181.969 781.237V792.159H221.782V781.237C221.782 780.051 221.478 778.885 220.897 777.842C220.316 776.8 219.476 775.915 218.454 775.268L207.319 768.164V766.135C209.671 763.106 210.984 759.435 211.072 755.642C211.125 753.731 210.881 751.823 210.346 749.983H245.273L245.202 739.026ZM177.118 695.905V651.183H229.004V695.905H222.508L222.702 699.345L219.622 695.905H204.929L201.813 726.298L199.636 695.905H188.359L184.677 700.101L185.137 695.99L177.118 695.905Z" fill="#F4B45C"/>
<path d="M196.926 687.424H208.822V685.67H196.943L196.926 687.424Z" fill="#F4B45C"/>
<path d="M197.74 690.504H208.008C208.529 689.977 208.821 689.274 208.822 688.543H196.926C196.927 689.274 197.219 689.977 197.74 690.504Z" fill="#F4B45C"/>
<path d="M201.35 694.254H204.36C204.747 694.256 205.131 694.184 205.49 694.041C205.848 693.899 206.175 693.689 206.449 693.424C206.724 693.158 206.942 692.843 207.091 692.495C207.24 692.148 207.316 691.775 207.316 691.398H198.465C198.46 692.148 198.761 692.869 199.302 693.404C199.842 693.939 200.579 694.245 201.35 694.254Z" fill="#F4B45C"/>
<path d="M195.19 676.899C196.943 678.954 197.901 681.54 197.898 684.209V684.742H207.882V684.209C207.88 681.537 208.845 678.949 210.609 676.899C212.129 675.147 212.962 672.929 212.963 670.638C212.964 669.3 212.682 667.976 212.133 666.749C211.585 665.522 210.783 664.417 209.777 663.504C208.771 662.591 207.582 661.889 206.285 661.441C204.987 660.994 203.609 660.81 202.235 660.902C200.384 661.019 198.602 661.63 197.087 662.67C195.571 663.709 194.381 665.136 193.648 666.791C192.915 668.447 192.668 670.268 192.934 672.051C193.2 673.835 193.968 675.513 195.154 676.899H195.19Z" fill="#F4B45C"/>
<path d="M184.521 670.706C184.521 670.953 184.622 671.189 184.801 671.363C184.981 671.537 185.224 671.635 185.477 671.635H190.523C190.776 671.635 191.019 671.537 191.199 671.363C191.378 671.189 191.479 670.953 191.479 670.706C191.479 670.46 191.378 670.224 191.199 670.049C191.019 669.875 190.776 669.777 190.523 669.777H185.477C185.224 669.777 184.981 669.875 184.801 670.049C184.622 670.224 184.521 670.46 184.521 670.706Z" fill="#F4B45C"/>
<path d="M160.907 670.706C160.907 670.46 160.806 670.224 160.627 670.049C160.447 669.875 160.204 669.777 159.951 669.777H154.852C154.599 669.777 154.356 669.875 154.176 670.049C153.997 670.224 153.896 670.46 153.896 670.706C153.896 670.953 153.997 671.189 154.176 671.363C154.356 671.537 154.599 671.635 154.852 671.635H159.951C160.204 671.635 160.447 671.537 160.627 671.363C160.806 671.189 160.907 670.953 160.907 670.706Z" fill="#F4B45C"/>
<path d="M172.715 659.216C172.969 659.216 173.212 659.119 173.391 658.944C173.571 658.77 173.671 658.534 173.671 658.288V653.368C173.674 653.247 173.651 653.127 173.605 653.014C173.559 652.902 173.49 652.799 173.403 652.713C173.316 652.626 173.211 652.557 173.096 652.51C172.981 652.464 172.858 652.439 172.733 652.439C172.483 652.444 172.244 652.544 172.069 652.718C171.893 652.891 171.795 653.125 171.795 653.368V658.27C171.795 658.513 171.89 658.746 172.061 658.922C172.232 659.098 172.467 659.203 172.715 659.216Z" fill="#F4B45C"/>
<path d="M181.83 662.76C182.083 662.756 182.324 662.658 182.503 662.485L186.044 659.044C186.134 658.96 186.205 658.858 186.254 658.746C186.303 658.633 186.328 658.513 186.328 658.391C186.328 658.269 186.303 658.148 186.254 658.036C186.205 657.924 186.134 657.822 186.044 657.737C185.862 657.564 185.617 657.467 185.362 657.467C185.107 657.467 184.863 657.564 184.681 657.737L181.14 661.177C180.963 661.351 180.863 661.586 180.863 661.831C180.863 662.076 180.963 662.311 181.14 662.485C181.327 662.656 181.573 662.754 181.83 662.76Z" fill="#F4B45C"/>
<path d="M192.96 678.875L189.419 682.315C189.242 682.489 189.143 682.724 189.143 682.969C189.143 683.213 189.242 683.448 189.419 683.622C189.507 683.71 189.611 683.779 189.727 683.827C189.842 683.874 189.967 683.898 190.092 683.898C190.217 683.898 190.342 683.874 190.457 683.827C190.573 683.779 190.677 683.71 190.765 683.622L194.305 680.182C194.456 680.004 194.533 679.778 194.521 679.547C194.509 679.317 194.41 679.099 194.242 678.936C194.074 678.773 193.85 678.676 193.613 678.665C193.376 678.654 193.143 678.729 192.96 678.875Z" fill="#F4B45C"/>
<path d="M162.783 662.381C162.873 662.47 162.981 662.54 163.1 662.587C163.218 662.634 163.345 662.658 163.474 662.657C163.662 662.655 163.845 662.6 164.001 662.498C164.157 662.396 164.279 662.251 164.351 662.082C164.423 661.913 164.441 661.728 164.405 661.548C164.369 661.369 164.279 661.204 164.146 661.074L160.765 657.789C160.681 657.689 160.575 657.607 160.456 657.548C160.337 657.49 160.206 657.457 160.073 657.45C159.94 657.444 159.807 657.465 159.682 657.511C159.558 657.558 159.445 657.63 159.35 657.721C159.256 657.813 159.182 657.923 159.134 658.044C159.086 658.165 159.065 658.294 159.071 658.424C159.078 658.553 159.112 658.68 159.172 658.796C159.232 658.911 159.317 659.014 159.42 659.096L162.783 662.381Z" fill="#F4B45C"/>
<path d="M212.591 679.03C212.409 678.857 212.164 678.76 211.909 678.76C211.655 678.76 211.41 678.857 211.228 679.03C211.051 679.204 210.951 679.439 210.951 679.684C210.951 679.929 211.051 680.164 211.228 680.337L214.591 683.606C214.679 683.693 214.783 683.762 214.899 683.81C215.015 683.857 215.139 683.882 215.264 683.882C215.39 683.882 215.514 683.857 215.629 683.81C215.745 683.762 215.849 683.693 215.937 683.606C216.114 683.432 216.214 683.197 216.214 682.952C216.214 682.707 216.114 682.472 215.937 682.298L212.591 679.03Z" fill="#F4B45C"/>
<path d="M278.35 279.899C278.35 279.899 284.139 286.349 283.271 288.602C282.679 290.803 282.387 293.07 282.404 295.345C282.404 295.345 289.91 299.284 289.91 301.245C289.634 303.107 289.035 304.909 288.139 306.577C288.139 306.577 289.91 317.809 288.724 320.613C287.538 323.416 275.128 325.394 275.128 325.394L270.508 339.155L243.954 331.294L248.291 317.534C248.291 317.534 241.652 301.245 240.484 295.913C239.315 290.58 247.707 280.174 258.187 277.646C264.983 276.291 272.047 277.08 278.35 279.899Z" fill="#EE9F88" stroke="#263238" stroke-linejoin="round"/>
<path d="M269.862 304.144C269.862 304.144 274.483 304.419 273.916 302.166C273.35 299.912 271.597 298.725 272.465 297.676C273.332 296.627 278.82 293.187 277.085 290.934C275.35 288.68 270.146 287.012 272.465 284.483C274.784 281.955 288.078 276.33 288.078 276.33C288.078 276.33 274.483 270.155 272.465 270.155C270.447 270.155 280.555 267.076 277.085 264.548C273.615 262.019 251.363 262.019 242.406 273.527C233.448 285.034 234.599 291.776 238.068 301.323C241.538 310.869 248.177 322.118 251.646 322.961C255.116 323.804 266.676 324.354 267.26 320.433C267.844 316.511 269.862 304.144 269.862 304.144Z" fill="#263238" stroke="#263238" stroke-linejoin="round"/>
<path d="M273.614 306.671C273.614 306.671 265.435 296.85 264.939 300.6C264.444 304.349 267.347 317.8 272.64 314.618" fill="#EE9F88"/>
<path d="M273.614 306.671C273.614 306.671 265.435 296.85 264.939 300.6C264.444 304.349 267.347 317.8 272.64 314.618" stroke="#263238" stroke-linejoin="round"/>
<path d="M228.242 335.311C228.242 335.311 234.597 337.271 249.91 340.368C265.223 343.464 278.235 346.543 278.235 346.543C278.235 346.543 274.198 334.743 269.861 332.507C265.524 330.271 242.404 325.764 239.519 326.039C236.633 326.315 228.242 335.311 228.242 335.311Z" fill="#FBA2E3" stroke="#263238" stroke-linejoin="round"/>
<path d="M325.722 414.974C325.722 414.974 352.028 391.96 353.462 390.549C354.896 389.139 351.692 378.199 351.692 376.513C351.692 374.828 357.764 372.007 357.764 372.007C357.764 372.007 358.632 367.518 361.517 367.518C364.403 367.518 369.324 371.164 369.324 371.164L369.908 374.26C369.908 374.26 373.944 382.964 373.944 384.374C373.542 387.359 372.121 390.127 369.908 392.235C367.023 395.039 360.366 400.938 360.366 400.938C360.366 400.938 337.247 431.263 332.042 435.477C326.838 439.691 319.898 444.181 317.296 439.141C314.694 434.101 325.722 414.974 325.722 414.974Z" fill="#EE9F88" stroke="#263238" stroke-linejoin="round"/>
<path d="M358.305 370.693L359.173 372.947L356.854 374.632" stroke="#263238" stroke-linejoin="round"/>
<path d="M159.566 382.121C159.566 382.121 149.44 392.235 150.024 396.449C150.609 400.663 174.011 447.552 174.011 447.552C174.011 447.552 175.782 454.587 176.897 455.138C178.012 455.688 180.65 459.919 180.65 459.919C180.65 459.919 180.65 463.566 184.987 459.627C189.324 455.688 195.396 451.216 195.113 447.587C194.774 445.165 193.659 442.908 191.927 441.136C191.927 441.136 190.493 437.696 189.041 437.49C187.589 437.283 180.951 437.197 180.951 437.197L173.48 398.978L159.566 382.121Z" fill="#EE9F88" stroke="#263238" stroke-linejoin="round"/>
<path d="M183.721 442.591L187.491 444.552C187.491 444.552 182.853 451.294 184.588 452.705C186.323 454.115 191.528 444.001 192.112 442.591C192.696 441.18 191.244 439.787 191.244 439.787" fill="#D98066"/>
<path d="M183.721 442.591L187.491 444.552C187.491 444.552 182.853 451.294 184.588 452.705C186.323 454.115 191.528 444.001 192.112 442.591C192.696 441.18 191.244 439.787 191.244 439.787" stroke="#263238" stroke-linejoin="round"/>
<path d="M186.039 445.119L178.516 451.587" stroke="#263238" stroke-linejoin="round"/>
<path d="M198.378 586.766L179.631 602.556C180.348 604.399 181.666 605.963 183.384 607.011C185.88 608.232 196.714 618.363 200.042 620.376C206.042 624.079 212.943 626.174 220.046 626.447C228.897 626.447 230.473 623.214 230.473 621.992C230.473 620.771 213.39 609.849 213.39 609.849L209.637 595.28L198.378 586.766Z" fill="white" stroke="#263238" stroke-linejoin="round"/>
<path d="M183.402 599.393L179.631 602.557C180.348 604.401 181.666 605.965 183.384 607.012C185.88 608.234 196.714 618.365 200.042 620.377C206.042 624.081 212.943 626.176 220.046 626.449C225.18 626.449 227.853 625.348 229.216 624.179C225.437 623.301 221.597 622.691 217.727 622.355C211.991 622.355 205.671 617.35 205.671 617.35L183.402 599.393Z" fill="white" stroke="#263238" stroke-linejoin="round"/>
<path d="M192.396 429.105C192.396 429.105 188.324 449.746 191.988 456.265C194.93 461.21 198.194 465.967 201.76 470.507L253.7 535.216L197.494 588.056L210.47 600.939C210.47 600.939 281.281 544.177 285.476 541.752C289.672 539.327 285.476 519.185 284.255 517.413C283.033 515.642 258.621 463.747 258.621 463.747L260.905 440.63L192.396 429.105Z" fill="#202D4A" stroke="#263238" stroke-linejoin="round"/>
<path d="M230.066 614.839C230.066 614.839 242.688 628.496 244.706 629.889C246.724 631.282 261.045 639.367 261.045 639.367C261.045 639.367 260.762 641.31 259.611 641.603C258.461 641.895 230.066 642.153 228.065 641.878C226.065 641.603 209.353 633.02 207.406 632.108C204.543 630.585 201.765 628.914 199.086 627.103L211.708 607.305L230.066 614.839Z" fill="white" stroke="#263238" stroke-linejoin="round"/>
<path d="M208.701 466.172L220.739 474.549L237.964 529.316L208.701 609.608L234.158 616.488L235.804 607.51L240.867 598.084C240.867 598.084 271.953 531.827 272.378 526.392C272.802 520.956 258.623 463.678 258.623 463.678L256.038 439.425L211.268 435.229" fill="#10235A"/>
<path d="M208.701 466.172L220.739 474.549L237.964 529.316L208.701 609.608L234.158 616.488L235.804 607.51L240.867 598.084C240.867 598.084 271.953 531.827 272.378 526.392C272.802 520.956 258.623 463.678 258.623 463.678L256.038 439.425L211.268 435.229" stroke="#263238" stroke-linejoin="round"/>
<path d="M259.611 641.62C260.762 641.327 261.045 639.384 261.045 639.384L258.514 637.939C247.591 637.13 229.269 635.754 228.065 635.754C226.861 635.754 208.999 625.606 202.467 621.805L199.086 627.12C201.765 628.931 204.543 630.602 207.406 632.125C209.407 632.968 226.047 641.62 228.065 641.895C230.083 642.17 258.461 641.878 259.611 641.62Z" fill="white" stroke="#263238" stroke-linejoin="round"/>
<path d="M231.995 334.469C231.995 334.469 203.388 337.272 203.087 338.408C202.786 339.543 164.938 379.397 164.938 379.397L175.063 398.214L199.334 388.117L192.394 429.106C192.394 429.106 187.774 430.827 196.147 435.006C204.521 439.186 223.905 444.553 237.2 444.553C250.494 444.553 258 444.553 260.904 440.631C262.79 438.204 263.803 435.243 263.789 432.203C264.072 429.949 277.668 395.686 277.668 395.686C277.668 395.686 308.01 433.527 309.161 434.456C310.312 435.385 315.817 436.176 320.438 430.792C325.058 425.408 324.191 413.11 324.191 413.11C324.191 413.11 307.143 383.06 306.276 378.846C305.408 374.632 302.735 361.646 301.071 358.343C299.407 355.041 297.035 354.697 292.397 352.443C287.759 350.19 275.066 345.993 275.066 345.993L231.995 334.469Z" fill="#F3D1EA" stroke="#263238" stroke-linejoin="round"/>
<path d="M205.992 346.836L199.336 388.117L202.221 349.072" stroke="#263238" stroke-linejoin="round"/>
<path d="M198.467 386.982L190.961 369.008" stroke="#263238" stroke-linejoin="round"/>
<path d="M179.809 376.679L175.348 374.064" stroke="#263238" stroke-linejoin="round"/>
<path d="M199.335 388.116L183.58 378.896" stroke="#263238" stroke-linejoin="round"/>
<path d="M291.193 375.251L298.469 364.242" stroke="#263238" stroke-linejoin="round"/>
<path d="M277.67 395.684L288.893 378.725" stroke="#263238" stroke-linejoin="round"/>
<path d="M299.551 382.165L302.808 380.238" stroke="#263238" stroke-linejoin="round"/>
<path d="M279.404 394.017L295.602 384.488" stroke="#263238" stroke-linejoin="round"/>
<path d="M277.951 393.724L306.275 388.959" stroke="#263238" stroke-linejoin="round"/>
<path d="M196.148 430.241L224.49 423.498" stroke="#263238" stroke-linejoin="round"/>
<path d="M243.803 414.125C245.628 413.435 247.402 412.624 249.114 411.699" stroke="#263238" stroke-linejoin="round"/>
<path d="M208.01 423.499C218.644 421.537 229.144 418.941 239.45 415.725" stroke="#263238" stroke-linejoin="round"/>
<path d="M323.907 411.132C323.327 415.693 321.189 419.932 317.835 423.172C314.537 426.627 310.2 428.981 305.443 429.898C305.443 429.898 308.046 439.461 311.232 439.461C314.419 439.461 319.906 441.181 324.81 434.68C329.714 428.178 330.882 417.273 329.43 414.452C327.979 411.631 327.094 410.289 323.907 411.132Z" fill="#FBA2E3" stroke="#263238" stroke-linejoin="round"/>
<path d="M169.276 372.945C169.276 372.945 183.155 398.213 181.986 398.746C180.818 399.279 175.932 403.528 174.197 403.803C172.462 404.078 164.655 396.493 161.805 390.043C158.955 383.592 158.052 381.047 158.92 379.929C159.787 378.811 167.541 372.945 169.276 372.945Z" fill="#FBA2E3" stroke="#263238" stroke-linejoin="round"/>
<path d="M337.464 45.6344C338.03 42.5211 338.845 34.8152 333.923 31.0311C327.798 26.2149 323.443 34.8668 318.097 28.1414C312.751 21.4159 311.264 6.81261 295.438 7.00182C279.611 7.19103 278.425 15.8429 278.425 18.7326C278.425 21.6223 273.681 23.7208 272.69 23.7208C271.698 23.7208 266.175 21.2267 264.192 26.7997C262.21 32.3727 263.555 35.5892 260.404 35.7096C257.253 35.83 253.323 31.6675 249.074 33.7488C244.826 35.83 244.808 40.2506 243.02 41.7986C241.232 43.3467 238.276 40.629 234.328 42.177C233.508 42.4106 232.768 42.8526 232.183 43.4574C231.598 44.0622 231.189 44.8078 231 45.6172L337.464 45.6344Z" fill="#AAD8EC" stroke="black" stroke-miterlimit="10"/>
</svg>
