<svg width="800" height="800" viewBox="0 0 800 800" fill="none" xmlns="http://www.w3.org/2000/svg">
<path d="M446.761 519.366C449.894 521.481 458.339 522.926 458.356 522.926C458.374 522.926 457.648 517.233 457.542 516.872C456.48 512.778 451.913 505.45 447.027 505.158C446.215 505.129 445.407 505.267 444.654 505.562C443.902 505.858 443.222 506.304 442.659 506.872C442.096 507.441 441.662 508.118 441.387 508.86C441.112 509.602 441.001 510.392 441.061 511.178C441.202 514.515 444.088 517.542 446.761 519.366Z" fill="#119285"/>
<path d="M444.797 543.585C448.337 544.789 456.197 544.135 456.835 544.066C457.216 548.48 457.896 552.864 458.87 557.19C459.437 559.719 460.074 562.23 460.747 564.759C460.269 563.658 459.826 562.66 459.738 562.54C457.596 558.842 451.205 552.959 446.408 553.939C445.618 554.121 444.876 554.462 444.231 554.941C443.585 555.42 443.052 556.026 442.664 556.719C442.276 557.413 442.044 558.178 441.981 558.964C441.918 559.751 442.027 560.541 442.301 561.284C443.327 564.466 446.939 566.651 450.001 567.717C453.064 568.784 459.897 568.354 461.703 568.216C461.968 569.196 462.216 570.16 462.499 571.123C463.809 575.75 465.137 580.36 466.288 584.883C466.713 586.483 467.049 588.083 467.403 589.682C466.96 588.702 466.589 587.876 466.518 587.756C464.376 584.075 457.985 578.175 453.188 579.156C452.399 579.339 451.659 579.682 451.015 580.162C450.372 580.641 449.839 581.247 449.452 581.94C449.065 582.632 448.831 583.396 448.768 584.182C448.704 584.967 448.81 585.757 449.081 586.5C450.108 589.699 453.719 591.867 456.799 592.933C459.879 594 466.022 593.621 468.164 593.466C468.465 595.186 468.766 596.752 468.996 598.369C469.12 599.469 469.315 600.519 469.386 601.637C469.457 602.755 469.545 603.821 469.634 604.905C469.722 606.986 469.811 609.136 469.846 611.166C469.846 612.593 469.846 613.935 469.846 615.294C469.457 613.694 468.625 610.564 468.536 610.306C466.978 606.35 461.579 599.59 456.693 599.831C455.883 599.894 455.097 600.122 454.384 600.501C453.672 600.879 453.05 601.4 452.559 602.028C452.067 602.656 451.718 603.378 451.534 604.147C451.349 604.915 451.334 605.713 451.488 606.487C452.002 609.79 455.241 612.49 458.109 613.987C461.26 615.707 468.908 616.171 469.846 616.223C469.846 618.476 469.846 620.661 469.846 622.725C469.757 626.922 469.58 630.689 469.368 633.939L472.501 634.541C472.643 631.101 472.749 627.197 472.749 622.759C472.749 620.471 472.749 618.029 472.749 615.535C475.141 615.089 477.505 614.515 479.83 613.815C481.76 616.859 487.425 621.108 488.151 621.641C486.876 623.516 485.619 625.339 484.415 627.025C482.096 630.258 479.954 633.114 478.025 635.625L481.388 636.279C483.052 634.008 484.929 631.445 486.805 628.624C488.097 626.715 489.461 624.668 490.824 622.535C491.691 622.897 498.772 625.786 502.348 625.7C505.605 625.7 509.748 624.634 511.748 621.916C512.243 621.291 512.597 620.573 512.787 619.806C512.978 619.04 513 618.244 512.853 617.468C512.706 616.693 512.393 615.957 511.935 615.306C511.476 614.656 510.882 614.107 510.19 613.694C505.942 611.321 497.993 615.002 494.754 617.857C494.577 618.012 492.718 620.059 491.567 621.383L493.231 618.769C494.346 617.048 495.409 615.174 496.559 613.23L498.135 610.34C498.684 609.377 499.144 608.311 499.657 607.279C500.79 604.888 501.817 602.394 502.808 599.865C504.402 600.811 510.155 604.114 513.43 604.509C516.705 604.905 520.883 604.509 523.29 602.153C523.879 601.609 524.343 600.95 524.652 600.22C524.961 599.49 525.108 598.704 525.083 597.915C525.058 597.126 524.862 596.351 524.507 595.641C524.152 594.93 523.647 594.301 523.025 593.793C519.219 590.835 510.775 593.294 507.092 595.634C506.862 595.771 504.437 597.749 503.145 598.85C503.711 597.319 504.295 595.806 504.826 594.258C506.367 589.751 507.783 585.141 509.217 580.497C509.642 579.087 510.102 577.693 510.544 576.3C511.111 576.644 517.873 580.686 521.502 581.134C524.742 581.546 528.973 581.134 531.38 578.777C531.966 578.233 532.428 577.576 532.735 576.847C533.042 576.119 533.188 575.335 533.163 574.548C533.138 573.761 532.943 572.988 532.59 572.28C532.237 571.571 531.734 570.942 531.115 570.435C527.291 567.459 518.847 569.919 515.183 572.258C514.917 572.447 511.447 575.268 510.598 576.042C511.589 572.963 512.598 569.902 513.713 566.926C515.228 562.9 517.002 558.971 519.024 555.161C519.29 555.333 526.317 559.581 530.035 560.046C533.275 560.458 537.506 560.046 539.913 557.689C540.5 557.144 540.961 556.485 541.269 555.755C541.576 555.025 541.722 554.24 541.697 553.452C541.672 552.664 541.476 551.889 541.123 551.179C540.77 550.469 540.268 549.839 539.648 549.33C535.824 546.371 527.38 548.831 523.715 551.17C523.432 551.359 519.697 554.404 519.059 555.006C519.183 554.799 519.29 554.559 519.413 554.335C521.544 550.571 524.021 547.002 526.813 543.671C528.318 541.813 529.876 540.11 531.434 538.51C532.655 539.439 538.302 543.671 541.595 544.376C544.888 545.081 549.012 545.202 551.685 543.086C552.33 542.607 552.863 542.003 553.251 541.31C553.638 540.618 553.871 539.855 553.935 539.069C553.998 538.284 553.891 537.494 553.619 536.752C553.347 536.009 552.918 535.331 552.358 534.761C548.906 531.407 540.232 532.937 536.426 534.881C536.213 534.984 534.195 536.292 532.744 537.272C533.452 536.55 534.177 535.793 534.868 535.122C537.47 532.576 540.019 530.392 542.285 528.483C543.595 527.416 544.799 526.47 545.932 525.593C547.614 525.885 554.429 527.003 557.669 526.229C560.908 525.455 564.644 523.649 566.007 520.57C566.352 519.856 566.539 519.08 566.555 518.291C566.571 517.503 566.416 516.72 566.101 515.993C565.785 515.266 565.316 514.612 564.723 514.073C564.131 513.534 563.428 513.122 562.661 512.864C558.005 511.454 551.03 516.683 548.499 520.157C548.286 520.45 545.436 525.507 545.525 525.524H545.613C544.516 526.35 543.33 527.244 542.073 528.242C539.754 530.099 537.152 532.215 534.478 534.726C531.565 537.387 528.816 540.213 526.247 543.189C523.344 546.499 520.755 550.057 518.511 553.819C518.514 553.865 518.514 553.911 518.511 553.957C518.812 552.598 519.537 548.796 519.555 548.47C519.856 544.238 517.873 535.896 513.324 534.142C512.562 533.869 511.75 533.757 510.94 533.81C510.13 533.864 509.341 534.083 508.624 534.453C507.908 534.823 507.279 535.336 506.781 535.958C506.282 536.58 505.923 537.298 505.729 538.063C504.773 541.28 506.544 545.03 508.509 547.558C510.721 550.413 517.714 554.129 518.263 554.438C516.071 558.32 514.155 562.343 512.527 566.479C511.553 568.887 510.651 571.329 509.783 573.806C510.013 572.619 510.208 571.553 510.208 571.398C510.509 567.184 508.526 558.842 503.977 557.07C503.215 556.798 502.403 556.685 501.593 556.739C500.783 556.792 499.994 557.011 499.277 557.382C498.561 557.752 497.932 558.264 497.434 558.887C496.935 559.509 496.576 560.226 496.382 560.992C495.426 564.208 497.197 567.958 499.162 570.486C501.127 573.015 507.057 576.335 508.615 577.177C508.296 578.124 507.96 579.069 507.641 580.033C506.119 584.591 504.596 589.149 502.985 593.57C502.401 595.135 501.782 596.649 501.215 598.162C501.41 597.113 501.569 596.219 501.569 596.081C501.87 591.867 499.887 583.524 495.356 581.753C494.592 581.483 493.78 581.373 492.97 581.427C492.16 581.482 491.37 581.702 490.653 582.071C489.936 582.441 489.306 582.952 488.805 583.573C488.304 584.194 487.942 584.91 487.743 585.675C486.805 588.891 488.575 592.641 490.523 595.169C492.47 597.698 497.834 600.691 499.71 601.705C499.02 603.254 498.347 604.784 497.621 606.246C497.09 607.227 496.666 608.225 496.081 609.188L494.435 612.043C493.32 613.763 492.187 615.672 491.054 617.392L488.752 620.833C489.337 619.285 490.416 616.223 490.523 615.965C491.21 612.298 490.923 608.521 489.691 604.991C489.793 604.585 489.852 604.17 489.868 603.752C489.925 602.966 489.812 602.178 489.536 601.437C489.259 600.696 488.826 600.02 488.263 599.452C487.701 598.885 487.022 598.438 486.271 598.142C485.519 597.846 484.712 597.706 483.902 597.732C479.016 598.042 474.466 605.369 473.387 609.48C473.387 609.721 472.944 612.421 472.732 614.124C472.732 613.109 472.732 612.112 472.643 611.063C472.555 608.981 472.413 606.9 472.271 604.664L471.953 601.396C471.864 600.312 471.634 599.16 471.475 598.042C471.067 595.427 470.501 592.796 469.899 590.164C471.776 590.164 478.432 589.751 481.37 588.444C484.309 587.137 487.619 584.471 488.274 581.185C488.465 580.412 488.485 579.608 488.331 578.827C488.178 578.046 487.855 577.305 487.385 576.655C486.914 576.004 486.307 575.458 485.603 575.053C484.898 574.648 484.113 574.393 483.3 574.305C478.432 573.875 472.785 580.446 471.085 584.35C470.979 584.591 470.094 587.532 469.634 589.149C469.244 587.567 468.872 585.984 468.43 584.402C467.155 579.826 465.721 575.234 464.305 570.641L463.03 566.427C463.703 566.427 471.634 566.169 474.927 564.587C477.848 563.193 481.176 560.63 481.831 557.328C482.019 556.555 482.036 555.752 481.881 554.972C481.726 554.192 481.403 553.452 480.934 552.802C480.464 552.152 479.857 551.607 479.155 551.201C478.452 550.795 477.668 550.538 476.856 550.448C471.988 550.035 466.341 556.606 464.641 560.51C464.517 560.802 463.225 565.034 462.96 566.117C462.039 563.021 461.189 559.925 460.393 556.846C459.357 552.684 458.6 548.461 458.127 544.204C458.445 544.204 466.713 543.98 470.094 542.363C473.015 540.97 476.325 538.39 476.98 535.105C477.168 534.333 477.186 533.531 477.032 532.752C476.879 531.973 476.557 531.235 476.089 530.585C475.621 529.935 475.017 529.389 474.316 528.982C473.615 528.575 472.834 528.317 472.023 528.225C467.155 527.812 461.508 534.382 459.809 538.287C459.667 538.596 458.286 543.137 458.038 543.98C458.038 543.722 457.95 543.481 457.932 543.223C457.573 538.946 457.615 534.645 458.056 530.375C458.251 528.001 458.587 525.765 458.959 523.58C460.517 523.684 467.58 524.131 470.784 523.013C473.988 521.895 477.44 519.727 478.45 516.528C478.716 515.784 478.819 514.993 478.75 514.208C478.681 513.422 478.443 512.66 478.05 511.97C477.658 511.28 477.12 510.679 476.472 510.204C475.824 509.73 475.08 509.394 474.289 509.218C469.51 508.272 463.154 514.206 461.012 517.904C460.906 518.111 459.95 520.278 459.242 521.86C459.419 520.88 459.596 519.865 459.791 518.936C460.517 515.496 461.42 512.228 462.216 509.424C462.694 507.825 463.154 506.397 463.615 505.073C465.19 504.402 471.51 501.632 473.776 499.293C476.042 496.954 478.131 493.41 477.511 490.108C477.391 489.337 477.108 488.599 476.678 487.94C476.249 487.281 475.684 486.717 475.018 486.281C474.352 485.846 473.6 485.551 472.811 485.413C472.021 485.275 471.21 485.298 470.43 485.481C465.739 486.788 462.907 494.907 462.765 499.138C462.765 499.5 463.243 505.245 463.331 505.21H463.42C462.977 506.483 462.499 507.859 462.004 509.373C461.136 512.176 460.233 515.341 459.348 518.85C458.442 522.634 457.756 526.464 457.295 530.323C456.764 534.643 456.628 539 456.888 543.344C456.888 543.344 456.888 543.447 456.888 543.499C456.374 542.209 454.799 538.614 454.639 538.338C452.48 534.658 446.089 528.758 441.309 529.738C440.521 529.922 439.78 530.265 439.137 530.745C438.493 531.224 437.961 531.83 437.573 532.522C437.186 533.215 436.953 533.979 436.889 534.764C436.825 535.55 436.932 536.34 437.202 537.083C438.123 540.351 441.734 542.535 444.797 543.585Z" fill="#4DBAAB"/>
<path d="M531.449 537.649C531.449 537.649 534.087 532.489 534.211 532.162C535.645 528.155 535.981 519.606 532.104 516.682C531.444 516.223 530.692 515.906 529.897 515.749C529.101 515.592 528.281 515.6 527.489 515.772C526.697 515.944 525.952 516.276 525.301 516.747C524.651 517.218 524.109 517.817 523.713 518.505C521.943 521.36 522.598 525.385 523.802 528.378C525.218 531.904 531.449 537.632 531.449 537.649Z" fill="#119285"/>
<path d="M265.114 195.978C268.459 196.443 275.735 194.258 275.735 194.258C275.735 194.258 272.85 190.027 272.637 189.786C270.106 186.965 263.52 182.906 259.555 184.626C258.905 184.918 258.325 185.34 257.854 185.863C257.382 186.387 257.029 187.001 256.817 187.666C256.605 188.331 256.539 189.032 256.624 189.723C256.708 190.414 256.941 191.08 257.307 191.678C258.758 194.293 262.281 195.565 265.114 195.978Z" fill="#263238"/>
<path d="M273.469 215.827C276.673 215.431 282.674 211.854 283.152 211.578C285.244 214.911 287.569 218.101 290.11 221.125C291.579 222.845 293.101 224.651 294.659 226.371C293.827 225.683 293.084 225.081 292.889 225.012C289.702 222.931 282.267 220.746 278.868 223.292C278.321 223.741 277.877 224.297 277.565 224.923C277.252 225.549 277.079 226.232 277.056 226.928C277.032 227.624 277.16 228.316 277.429 228.961C277.699 229.606 278.105 230.188 278.621 230.671C280.745 232.787 284.48 233.114 287.33 232.77C290.18 232.426 295.403 229.467 296.748 228.676C297.35 229.329 297.952 230 298.518 230.654C301.439 233.784 304.36 236.915 307.14 240.063C308.113 241.181 309.034 242.299 309.954 243.503C309.211 242.884 308.591 242.385 308.485 242.316C305.281 240.235 297.863 238.05 294.464 240.596C293.915 241.043 293.468 241.598 293.155 242.225C292.841 242.851 292.666 243.535 292.643 244.232C292.62 244.928 292.748 245.621 293.019 246.266C293.29 246.911 293.698 247.494 294.217 247.975C296.323 250.091 300.058 250.417 302.926 250.073C305.794 249.729 310.485 247.063 312.096 246.117C312.999 247.304 313.867 248.474 314.752 249.661C315.3 250.486 315.885 251.243 316.398 252.086L317.92 254.563C318.841 256.18 319.797 257.831 320.647 259.431C321.249 260.531 321.797 261.598 322.417 262.664C321.443 261.546 319.531 259.413 319.337 259.224C316.504 256.696 309.494 253.445 305.741 255.526C305.13 255.887 304.604 256.369 304.198 256.941C303.791 257.513 303.513 258.161 303.381 258.844C303.249 259.527 303.267 260.229 303.432 260.905C303.598 261.581 303.908 262.216 304.343 262.767C306.113 265.176 309.742 266.053 312.627 266.208C315.778 266.208 322.027 263.765 322.806 263.455C323.709 265.176 324.577 266.896 325.391 268.616C327.037 271.953 328.418 274.997 329.587 277.646L332.295 276.906C331.02 274.189 329.498 271.024 327.692 267.532C326.772 265.812 325.745 263.817 324.665 261.873C326.39 260.588 328.039 259.21 329.604 257.745C332.704 259.172 335.993 260.173 339.376 260.721C339.128 262.699 338.88 264.608 338.615 266.414C338.102 269.854 337.57 272.933 337.075 275.633L339.996 274.842C340.385 272.417 340.775 269.682 341.146 266.741C341.394 264.728 341.624 262.595 341.837 260.394C342.651 260.394 349.413 259.895 352.211 258.433C354.742 257.108 357.521 254.752 358.07 251.828C358.207 251.145 358.194 250.442 358.032 249.765C357.87 249.088 357.562 248.451 357.129 247.898C356.696 247.344 356.148 246.885 355.52 246.552C354.892 246.218 354.199 246.017 353.485 245.962C349.183 245.722 344.404 251.69 343.023 255.165C342.934 255.371 342.315 257.71 341.943 259.19C341.943 258.278 342.12 257.47 342.191 256.489C342.332 254.649 342.439 252.825 342.563 250.847V247.958C342.563 246.994 342.563 245.962 342.563 244.965C342.563 242.626 342.279 240.269 342.031 237.895C343.678 238.033 349.555 238.411 352.281 237.483C355.008 236.554 358.176 234.627 359.097 231.806C359.339 231.156 359.438 230.464 359.387 229.774C359.337 229.084 359.139 228.412 358.806 227.802C358.472 227.191 358.011 226.655 357.451 226.228C356.892 225.8 356.246 225.492 355.556 225.322C351.325 224.462 345.678 229.656 343.766 232.89C343.66 233.096 342.545 235.573 341.996 236.949C341.819 235.539 341.66 234.111 341.447 232.684C340.828 228.538 340.066 224.359 339.323 220.196C339.093 218.923 338.88 217.65 338.668 216.377C339.252 216.377 346.227 217.014 349.29 215.982C351.998 215.053 355.185 213.127 356.123 210.306C356.365 209.655 356.464 208.963 356.413 208.273C356.363 207.584 356.165 206.912 355.832 206.301C355.498 205.69 355.037 205.154 354.477 204.727C353.917 204.3 353.272 203.991 352.582 203.821C348.369 202.961 342.722 208.156 340.81 211.389C340.668 211.647 339.04 215.208 338.721 216.137C338.243 213.333 337.801 210.529 337.482 207.76C337.018 204.005 336.805 200.224 336.845 196.442C337.128 196.442 344.404 197.13 347.466 196.046C350.175 195.117 353.361 193.208 354.299 190.387C354.54 189.731 354.636 189.033 354.58 188.339C354.524 187.644 354.319 186.969 353.976 186.357C353.634 185.745 353.162 185.21 352.593 184.787C352.023 184.364 351.368 184.063 350.67 183.903C346.457 183.043 340.792 188.22 338.898 191.471C338.739 191.729 337.128 195.582 336.792 196.287C336.792 196.081 336.792 195.84 336.792 195.633C336.955 191.844 337.452 188.074 338.279 184.367C338.721 182.32 339.252 180.394 339.819 178.519C341.164 178.777 347.307 179.878 350.228 179.207C353.149 178.536 356.406 177.022 357.645 174.322C357.965 173.694 358.144 173.008 358.172 172.309C358.199 171.609 358.075 170.911 357.806 170.262C357.537 169.612 357.129 169.025 356.61 168.539C356.092 168.053 355.473 167.679 354.795 167.442C350.688 166.134 344.492 170.693 342.226 173.72C342.102 173.875 341.04 175.681 340.279 177.022C340.544 176.18 340.81 175.302 341.076 174.494C342.102 171.484 343.218 168.801 344.244 166.41C344.829 165.068 345.377 163.864 345.926 162.729C347.378 162.316 353.202 160.579 355.432 158.704C357.663 156.829 359.893 153.991 359.699 151.032C359.68 150.338 359.511 149.654 359.203 149.027C358.895 148.4 358.455 147.842 357.91 147.391C357.366 146.94 356.73 146.606 356.044 146.409C355.358 146.213 354.637 146.159 353.928 146.251C349.661 146.939 346.316 153.75 345.749 157.448C345.749 157.775 345.501 162.849 345.59 162.832H345.678C345.129 163.916 344.563 165.068 343.908 166.272C342.846 168.629 341.66 171.312 340.562 174.322C339.352 177.54 338.341 180.825 337.535 184.161C336.602 187.887 336.009 191.686 335.765 195.513V195.651C335.446 194.464 334.455 191.179 334.349 190.921C332.862 187.48 327.905 181.667 323.603 182.028C322.89 182.105 322.202 182.327 321.584 182.681C320.966 183.035 320.432 183.512 320.017 184.08C319.602 184.649 319.316 185.297 319.178 185.98C319.039 186.664 319.051 187.369 319.213 188.048C319.779 190.955 322.753 193.208 325.267 194.464C328.188 195.857 335.216 196.184 335.765 196.184C335.626 200.092 335.75 204.005 336.136 207.898C336.367 210.168 336.65 212.438 336.969 214.778C336.668 213.763 336.384 212.851 336.331 212.731C334.844 209.291 329.87 203.477 325.586 203.838C324.874 203.916 324.187 204.138 323.57 204.49C322.953 204.843 322.419 205.318 322.003 205.884C321.587 206.45 321.299 207.095 321.157 207.777C321.014 208.459 321.022 209.162 321.178 209.841C321.744 212.748 324.718 215.001 327.25 216.274C329.781 217.547 335.853 217.839 337.429 217.908C337.57 218.768 337.694 219.628 337.818 220.523C338.473 224.702 339.146 228.882 339.677 232.993C339.854 234.438 339.978 235.883 340.12 237.311C339.854 236.399 339.606 235.59 339.553 235.59C338.066 232.15 333.109 226.319 328.808 226.681C328.096 226.76 327.409 226.984 326.792 227.339C326.176 227.693 325.643 228.17 325.229 228.738C324.815 229.306 324.528 229.953 324.388 230.635C324.249 231.318 324.258 232.022 324.417 232.701C324.984 235.608 327.958 237.861 330.472 239.117C332.985 240.372 338.491 240.665 340.385 240.733C340.474 242.213 340.562 243.692 340.58 245.12C340.58 246.1 340.58 247.046 340.58 248.027C340.58 249.007 340.491 249.953 340.438 250.916C340.297 252.74 340.155 254.632 339.96 256.42C339.836 257.676 339.695 258.846 339.553 260.05C339.376 258.605 338.987 255.784 338.934 255.543C337.989 252.384 336.228 249.512 333.817 247.201C333.723 246.848 333.599 246.502 333.446 246.169C333.171 245.525 332.76 244.945 332.239 244.467C331.718 243.988 331.099 243.621 330.423 243.391C329.746 243.16 329.027 243.071 328.313 243.129C327.598 243.187 326.904 243.39 326.276 243.726C322.559 245.842 321.957 253.359 322.736 257.022C322.736 257.229 323.585 259.517 324.116 260.944C323.674 260.153 323.249 259.379 322.771 258.553C321.868 256.954 320.912 255.371 319.885 253.651L318.292 251.209C317.779 250.383 317.142 249.575 316.522 248.732C315.123 246.84 313.619 244.982 312.061 243.142C313.513 242.368 318.629 239.529 320.363 237.293C322.098 235.057 323.674 231.755 322.842 228.917C322.667 228.244 322.349 227.615 321.908 227.07C321.467 226.525 320.914 226.075 320.283 225.751C319.652 225.427 318.959 225.235 318.247 225.188C317.535 225.14 316.821 225.239 316.15 225.477C312.132 227.025 310.361 234.369 310.609 238.102C310.609 238.343 311.123 240.991 311.424 242.454C310.468 241.353 309.529 240.252 308.538 239.168C305.67 236.055 302.661 232.993 299.687 229.914L296.978 227.076C297.492 226.801 303.652 223.636 305.599 221.056C307.37 218.82 308.91 215.517 308.078 212.679C307.903 212.005 307.585 211.374 307.143 210.827C306.701 210.28 306.145 209.83 305.513 209.506C304.88 209.181 304.184 208.99 303.47 208.944C302.756 208.898 302.04 208.999 301.368 209.239C297.368 210.77 295.597 218.132 295.845 221.864C295.845 222.14 296.571 225.975 296.801 226.939C294.818 224.857 292.853 222.759 290.995 220.609C288.486 217.721 286.168 214.682 284.055 211.51C284.303 211.389 290.747 208.07 292.73 205.472C294.5 203.236 296.04 199.934 295.208 197.096C295.033 196.423 294.715 195.794 294.274 195.249C293.834 194.704 293.28 194.254 292.649 193.93C292.018 193.606 291.325 193.414 290.613 193.367C289.901 193.319 289.187 193.418 288.516 193.655C284.516 195.186 282.728 202.548 282.993 206.281C282.993 206.573 283.772 210.684 283.967 211.441L283.577 210.89C281.553 207.651 279.829 204.243 278.426 200.708C277.629 198.764 276.974 196.872 276.39 194.997C277.647 194.498 283.471 192.125 285.471 190.009C287.472 187.893 289.384 184.849 288.87 181.942C288.777 181.252 288.534 180.589 288.159 179.996C287.784 179.403 287.284 178.894 286.693 178.501C286.102 178.109 285.432 177.841 284.728 177.717C284.023 177.593 283.299 177.614 282.604 177.779C278.444 178.88 275.859 186.001 275.682 189.82C275.682 190.026 275.824 192.107 275.947 193.621C275.682 192.778 275.416 191.901 275.186 191.093C274.319 188.031 273.735 185.193 273.221 182.664C272.938 181.219 272.726 179.912 272.531 178.691C273.505 177.556 277.381 172.98 278.196 170.228C279.01 167.476 279.222 163.898 277.399 161.628C276.989 161.056 276.46 160.575 275.845 160.216C275.231 159.857 274.546 159.628 273.834 159.543C273.122 159.459 272.4 159.521 271.715 159.726C271.03 159.931 270.397 160.275 269.858 160.733C266.689 163.572 267.769 171.054 269.38 174.494C269.521 174.786 272.265 179.121 272.301 179.069C272.46 180.256 272.637 181.512 272.885 182.888C273.327 185.434 273.859 188.306 274.655 191.385C275.472 194.719 276.489 198.005 277.7 201.224C279.04 204.836 280.711 208.325 282.692 211.647C282.696 211.687 282.696 211.728 282.692 211.768C281.754 210.942 279.152 208.723 278.833 208.586C275.629 206.504 268.211 204.32 264.813 206.865C264.263 207.313 263.816 207.868 263.503 208.495C263.189 209.121 263.014 209.805 262.991 210.501C262.968 211.198 263.096 211.891 263.367 212.536C263.638 213.181 264.046 213.763 264.565 214.245C266.884 215.844 270.601 216.171 273.469 215.827Z" fill="#263238"/>
<path d="M339.341 177.779C339.341 177.779 339.341 172.619 339.341 172.378C338.845 168.68 335.641 161.799 331.392 161.043C330.684 160.938 329.962 160.979 329.271 161.164C328.58 161.348 327.937 161.671 327.383 162.112C326.829 162.553 326.377 163.102 326.055 163.724C325.733 164.346 325.549 165.026 325.515 165.721C325.267 168.662 327.48 171.604 329.622 173.461C332.101 175.646 339.341 177.779 339.341 177.779Z" fill="#263238"/>
<path d="M115.079 682.771C118.23 681.773 123.664 676.854 123.664 676.854C123.664 676.854 119.239 674.359 118.938 674.239C115.397 672.811 107.874 672.055 105.112 675.168C104.671 675.7 104.35 676.315 104.169 676.975C103.989 677.634 103.952 678.323 104.062 678.998C104.172 679.672 104.426 680.316 104.809 680.889C105.191 681.462 105.692 681.95 106.28 682.323C108.812 683.975 112.352 683.613 115.079 682.771Z" fill="#4DBAAB"/>
<path d="M128.137 692.105C130.39 690.646 133.514 685.844 133.755 685.45C136.581 687.195 139.527 688.75 142.571 690.106C144.343 690.908 146.146 691.652 147.963 692.397L146.176 691.974C143.006 691.565 136.623 692.601 135.076 695.753C134.838 696.285 134.717 696.859 134.721 697.439C134.726 698.019 134.855 698.591 135.101 699.119C135.348 699.648 135.705 700.12 136.151 700.505C136.597 700.891 137.121 701.181 137.69 701.357C140.078 702.174 142.991 701.08 144.989 699.81C146.987 698.541 149.765 694.454 150.471 693.375L152.574 694.192C155.938 695.505 159.318 696.789 162.577 698.147C163.733 698.628 164.845 699.139 165.971 699.606L164.469 699.241C161.3 698.832 154.917 699.869 153.37 703.021C153.131 703.552 153.011 704.127 153.015 704.706C153.019 705.286 153.149 705.859 153.395 706.387C153.641 706.915 153.999 707.387 154.445 707.773C154.891 708.158 155.415 708.448 155.983 708.625C158.371 709.442 161.285 708.347 163.283 707.078C165.28 705.808 167.788 702.116 168.63 700.832C169.756 701.386 170.897 701.941 171.964 702.525C172.685 702.948 173.466 703.298 174.112 703.75L176.184 705.064C177.491 705.939 178.828 706.83 180.059 707.72C180.93 708.318 181.741 708.917 182.568 709.515C181.426 709.033 179.173 708.056 178.978 708.056C175.899 707.195 169.426 707.267 167.413 710.157C167.087 710.65 166.872 711.204 166.783 711.784C166.694 712.363 166.732 712.955 166.896 713.519C167.059 714.083 167.343 714.607 167.73 715.056C168.117 715.505 168.598 715.87 169.14 716.126C171.363 717.293 174.412 716.636 176.65 715.673C179.053 714.593 182.748 710.478 183.213 709.967C184.565 710.96 185.887 711.937 187.103 712.886C189.597 714.798 191.774 716.563 193.652 718.125L195.394 716.666C193.427 715.09 191.069 713.28 188.41 711.31C187.028 710.288 185.541 709.238 183.994 708.158C184.813 706.59 185.526 704.971 186.127 703.313C188.978 703.275 191.81 702.848 194.538 702.043C195.109 703.605 195.649 705.122 196.13 706.567C197.061 709.311 197.842 711.806 198.488 713.995L200.366 712.375C199.735 710.42 198.999 708.245 198.143 705.91C197.572 704.32 196.941 702.641 196.265 700.919C196.851 700.584 201.732 697.826 203.264 695.739C204.796 693.652 205.893 691.069 205.142 688.719C204.985 688.161 204.709 687.64 204.331 687.193C203.953 686.745 203.482 686.379 202.949 686.12C202.416 685.862 201.833 685.715 201.238 685.69C200.642 685.665 200.048 685.762 199.494 685.976C196.19 687.333 194.868 693.491 195.169 696.6C195.169 696.775 195.604 698.745 195.89 699.985L195.049 697.884C194.463 696.425 193.847 695.053 193.186 693.506C192.841 692.776 192.48 692.047 192.135 691.317C191.789 690.587 191.354 689.857 190.963 689.099C190.017 687.391 188.966 685.698 187.959 684.035C189.236 683.539 193.772 681.714 195.469 680.036C197.166 678.358 198.788 675.804 198.473 673.367C198.404 672.791 198.21 672.236 197.905 671.737C197.601 671.239 197.191 670.809 196.704 670.474C196.216 670.14 195.662 669.909 195.077 669.796C194.491 669.683 193.888 669.692 193.306 669.821C189.837 670.682 187.584 676.577 187.389 679.686C187.389 679.89 187.494 682.138 187.584 683.363C186.923 682.356 186.262 681.35 185.556 680.357C183.514 677.438 181.366 674.651 179.233 671.805C178.572 670.93 177.942 670.054 177.296 669.179C177.746 669.018 183.183 666.96 185.061 665.092C186.938 663.225 188.395 660.86 188.065 658.423C187.995 657.847 187.802 657.292 187.497 656.794C187.192 656.295 186.783 655.865 186.295 655.53C185.808 655.196 185.254 654.965 184.668 654.852C184.083 654.74 183.48 654.748 182.898 654.877C179.428 655.738 177.161 661.634 176.89 664.742C176.89 664.976 177.055 668.201 177.146 669.033C175.644 667.106 174.322 665.165 173.03 663.195C171.258 660.562 169.667 657.817 168.269 654.979C168.479 654.892 174.172 652.776 176.094 650.864C177.761 649.2 179.428 646.632 179.098 644.195C179.041 643.586 178.844 642.997 178.523 642.472C178.203 641.946 177.765 641.496 177.243 641.155C176.721 640.814 176.127 640.59 175.505 640.5C174.883 640.41 174.248 640.456 173.646 640.634C170.162 641.495 167.909 647.391 167.713 650.499C167.713 650.747 167.894 654.22 167.969 654.877C167.969 654.717 167.788 654.556 167.713 654.381C166.387 651.502 165.331 648.513 164.559 645.45C164.109 643.757 163.763 642.122 163.478 640.532C164.574 640.24 169.591 638.868 171.528 637.321C173.466 635.774 175.313 633.468 175.208 631.002C175.203 630.423 175.074 629.851 174.827 629.324C174.58 628.797 174.222 628.326 173.776 627.942C173.33 627.558 172.805 627.27 172.237 627.096C171.669 626.921 171.069 626.865 170.477 626.931C166.932 627.412 164.019 633.045 163.478 636.11C163.478 636.27 163.328 638.007 163.268 639.262C163.162 638.547 163.012 637.803 162.922 637.102C162.532 634.49 162.351 632.068 162.216 629.937C162.216 628.711 162.096 627.617 162.066 626.58C162.997 625.749 166.692 622.363 167.653 620.174C168.615 617.985 169.155 615.052 167.924 612.877C167.643 612.367 167.255 611.92 166.785 611.565C166.315 611.21 165.773 610.955 165.195 610.818C164.617 610.68 164.015 610.662 163.43 610.766C162.844 610.869 162.287 611.091 161.796 611.418C158.882 613.446 158.957 619.736 159.933 622.699C160.023 622.947 161.811 626.814 161.856 626.77C161.856 627.762 161.856 628.828 161.856 629.995C161.946 632.14 162.081 634.563 162.411 637.19C162.742 640.028 163.244 642.844 163.913 645.625C164.641 648.744 165.646 651.796 166.917 654.746C166.92 654.78 166.92 654.814 166.917 654.848C166.226 654.074 164.244 651.929 164.064 651.812C161.646 649.784 155.728 647.215 152.664 649.025C152.164 649.339 151.737 649.751 151.412 650.235C151.086 650.72 150.869 651.265 150.774 651.836C150.68 652.407 150.709 652.991 150.861 653.55C151.013 654.109 151.285 654.631 151.658 655.081C153.16 657.051 156.163 657.708 158.627 657.708C161.33 657.708 166.662 655.373 167.083 655.184C168.453 658.149 170.028 661.021 171.799 663.779C172.82 665.399 173.901 666.99 174.998 668.58C174.382 667.938 173.841 667.354 173.751 667.281C171.333 665.238 165.415 662.685 162.351 664.48C161.847 664.792 161.417 665.204 161.089 665.689C160.76 666.175 160.541 666.722 160.446 667.296C160.351 667.869 160.382 668.455 160.537 669.016C160.692 669.577 160.967 670.1 161.345 670.55C162.847 672.521 165.851 673.163 168.299 673.177C170.747 673.192 175.328 671.265 176.53 670.74L177.821 672.564C179.894 675.483 181.967 678.329 183.919 681.218C184.61 682.225 185.256 683.261 185.887 684.283C185.346 683.699 184.881 683.217 184.805 683.159C182.387 681.116 176.47 678.548 173.406 680.357C172.902 680.668 172.472 681.079 172.144 681.563C171.815 682.047 171.596 682.593 171.501 683.166C171.406 683.738 171.437 684.323 171.592 684.883C171.747 685.443 172.022 685.965 172.399 686.413C173.901 688.384 176.905 689.04 179.368 689.04C181.832 689.04 185.932 687.318 187.374 686.705C187.99 687.771 188.62 688.836 189.176 689.901C189.552 690.631 189.957 691.361 190.272 692.076C190.588 692.791 190.948 693.535 191.279 694.279C191.85 695.739 192.465 697.198 192.991 698.57C193.381 699.548 193.712 700.482 194.057 701.415C193.397 700.409 192.03 698.497 191.895 698.278C189.992 696.261 187.587 694.753 184.911 693.9C184.712 693.661 184.485 693.445 184.235 693.258C183.795 692.901 183.285 692.634 182.736 692.475C182.187 692.316 181.611 692.267 181.042 692.331C180.472 692.395 179.923 692.571 179.426 692.848C178.929 693.126 178.496 693.498 178.152 693.944C176.169 696.862 178.572 702.7 180.57 705.122C180.69 705.254 182.162 706.684 183.093 707.559L181.201 706.246C179.909 705.37 178.587 704.539 177.176 703.619L175.073 702.364C174.367 701.926 173.571 701.561 172.82 701.138C171.063 700.219 169.245 699.372 167.383 698.57C168.164 697.461 170.912 693.52 171.363 691.273C171.814 689.026 171.739 685.961 170.041 684.137C169.657 683.694 169.18 683.334 168.643 683.082C168.106 682.829 167.52 682.689 166.923 682.671C166.327 682.654 165.733 682.758 165.181 682.978C164.629 683.198 164.13 683.528 163.718 683.947C161.315 686.53 162.772 692.703 164.379 695.345C164.469 695.52 165.881 697.329 166.632 698.263C165.506 697.782 164.379 697.3 163.238 696.804C159.903 695.505 156.494 694.279 153.099 693.053L149.99 691.915C150.276 691.521 153.64 686.895 154.151 684.327C154.601 682.035 154.526 679.015 152.829 677.176C152.443 676.735 151.966 676.377 151.429 676.126C150.892 675.875 150.307 675.736 149.711 675.718C149.115 675.7 148.522 675.803 147.97 676.022C147.418 676.24 146.919 676.569 146.506 676.986C144.103 679.569 145.56 685.742 147.167 688.398C147.287 688.602 149.27 691.2 149.81 691.842C147.527 690.996 145.304 690.135 143.067 689.201C140.105 687.939 137.225 686.501 134.445 684.896C134.566 684.706 138.11 679.905 138.621 677.263C139.071 674.987 138.996 671.951 137.299 670.127C136.915 669.683 136.44 669.322 135.903 669.068C135.367 668.815 134.781 668.674 134.184 668.654C133.588 668.635 132.994 668.738 132.441 668.957C131.888 669.175 131.389 669.504 130.976 669.923C128.573 672.521 130.045 678.679 131.637 681.335C131.772 681.554 133.905 684.341 134.325 684.823L133.83 684.56C131.088 682.867 128.51 680.938 126.125 678.796C124.788 677.628 123.571 676.446 122.43 675.264C123.181 674.432 126.575 670.609 127.311 668.288C128.047 665.968 128.287 663.035 126.801 660.992C126.469 660.511 126.038 660.103 125.534 659.795C125.029 659.487 124.464 659.286 123.874 659.205C123.285 659.124 122.684 659.164 122.112 659.323C121.539 659.483 121.008 659.758 120.552 660.131C117.864 662.436 118.63 668.682 119.907 671.543C119.907 671.689 120.868 673.192 121.544 674.286C121.033 673.732 120.492 673.192 120.042 672.666C118.239 670.696 116.723 668.77 115.386 667.063C114.635 666.099 113.974 665.195 113.373 664.348C113.674 663.166 114.875 658.35 114.379 656.001C113.884 653.651 112.757 650.922 110.489 649.813C109.966 649.525 109.385 649.349 108.785 649.296C108.186 649.244 107.582 649.316 107.014 649.508C106.445 649.7 105.925 650.007 105.489 650.409C105.052 650.812 104.709 651.3 104.482 651.842C103.19 655.096 106.84 660.291 109.333 662.247C109.543 662.422 113.238 664.684 113.253 664.625V664.552C113.824 665.37 114.44 666.26 115.13 667.208C116.437 668.945 117.924 670.886 119.636 672.915C121.512 675.109 123.518 677.194 125.644 679.161C128.011 681.389 130.58 683.406 133.319 685.188H133.424C132.418 684.91 129.549 684.224 129.324 684.195C126.155 683.787 119.771 684.823 118.224 687.975C117.986 688.507 117.865 689.081 117.869 689.661C117.874 690.24 118.003 690.813 118.25 691.341C118.496 691.869 118.854 692.341 119.299 692.727C119.745 693.112 120.269 693.403 120.838 693.579C123.226 694.469 126.14 693.375 128.137 692.105Z" fill="#119285"/>
<path d="M163.021 641.521C163.11 641.521 160.755 637.066 160.578 636.791C158.471 633.746 152.576 629.051 148.505 630.169C147.834 630.372 147.214 630.711 146.687 631.163C146.161 631.615 145.738 632.171 145.447 632.793C145.156 633.414 145.004 634.089 145 634.772C144.996 635.455 145.141 636.131 145.425 636.756C146.522 639.457 149.779 641.125 152.506 641.917C155.692 642.708 163.021 641.521 163.021 641.521Z" fill="#4DBAAB"/>
<path d="M343.43 208.432L327.586 221.969" stroke="#263238" stroke-linecap="round" stroke-linejoin="round"/>
<path d="M484.432 87.9922L392.254 166.719" stroke="#263238" stroke-linecap="round" stroke-linejoin="round"/>
<path d="M470.642 84.6387L381.014 116.46" stroke="#263238" stroke-linecap="round" stroke-linejoin="round"/>
<path d="M388.555 71.6172L331.021 76.2613" stroke="#263238" stroke-linecap="round" stroke-linejoin="round"/>
<path d="M455.116 66.2168L394.98 71.0846" stroke="#263238" stroke-linecap="round" stroke-linejoin="round"/>
<path d="M429.623 31.5055L369.682 12" stroke="#263238" stroke-linecap="round" stroke-linejoin="round"/>
<path d="M449.948 37.7493L437.963 34.0684" stroke="#263238" stroke-linecap="round" stroke-linejoin="round"/>
<path d="M690.916 208.432L706.76 221.969" stroke="#263238" stroke-linecap="round" stroke-linejoin="round"/>
<path d="M549.914 87.9922L681.162 200.106" stroke="#263238" stroke-linecap="round" stroke-linejoin="round"/>
<path d="M563.705 84.6387L653.334 116.46" stroke="#263238" stroke-linecap="round" stroke-linejoin="round"/>
<path d="M645.773 71.6172L703.307 76.2613" stroke="#263238" stroke-linecap="round" stroke-linejoin="round"/>
<path d="M579.213 66.2168L639.367 71.0846" stroke="#263238" stroke-linecap="round" stroke-linejoin="round"/>
<path d="M604.721 31.5049L650.517 17.4004" stroke="#263238" stroke-linecap="round" stroke-linejoin="round"/>
<path d="M584.381 37.7493L596.383 34.0684" stroke="#263238" stroke-linecap="round" stroke-linejoin="round"/>
<path d="M518.901 73.4902H509.412V112.742H518.901V73.4902Z" fill="#F4B45C" stroke="#263238" stroke-linecap="round" stroke-linejoin="round"/>
<path d="M528.176 121.154H500.135L503.445 105.932H524.865L528.176 121.154Z" fill="#F4B45C" stroke="#263238" stroke-linecap="round" stroke-linejoin="round"/>
<path d="M545.066 127.552H483.248L489.833 113.533H538.48L545.066 127.552Z" fill="#F4B45C" stroke="#263238" stroke-linecap="round" stroke-linejoin="round"/>
<path d="M482.822 31.9336C478.4 31.8516 474.053 33.0507 470.336 35.378C466.618 37.7052 463.698 41.0553 461.947 45.0013C460.196 48.9473 459.694 53.3104 460.504 57.5347C461.315 61.7589 463.402 65.653 466.499 68.7206C469.596 71.7882 473.562 73.8905 477.894 74.7594C482.225 75.6283 486.724 75.2246 490.818 73.5997C494.912 71.9747 498.416 69.2022 500.882 65.6354C503.349 62.0686 504.666 57.8691 504.667 53.572C504.695 50.7575 504.152 47.9651 503.069 45.3545C501.987 42.7438 500.385 40.3659 498.357 38.3566C496.328 36.3472 493.912 34.7458 491.247 33.6438C488.581 32.5417 485.718 31.9606 482.822 31.9336ZM482.822 69.775C479.525 69.833 476.284 68.9359 473.514 67.198C470.744 65.46 468.569 62.96 467.266 60.0164C465.964 57.0729 465.592 53.8191 466.2 50.6699C466.808 47.5207 468.367 44.6186 470.679 42.3335C472.99 40.0484 475.95 38.4839 479.18 37.8392C482.41 37.1945 485.765 37.499 488.816 38.7137C491.868 39.9285 494.478 41.9985 496.314 44.66C498.15 47.3215 499.129 50.4539 499.126 53.658C499.14 57.8812 497.433 61.9381 494.378 64.942C491.323 67.946 487.168 69.6526 482.822 69.6889V69.775Z" fill="#F4B45C" stroke="#263238" stroke-linecap="round" stroke-linejoin="round"/>
<path d="M548.8 31.9336C544.379 31.8516 540.032 33.0507 536.314 35.378C532.596 37.7052 529.676 41.0553 527.925 45.0013C526.174 48.9473 525.672 53.3104 526.483 57.5347C527.294 61.7589 529.38 65.653 532.477 68.7206C535.574 71.7882 539.541 73.8905 543.872 74.7594C548.203 75.6283 552.703 75.2246 556.797 73.5997C560.891 71.9747 564.394 69.2022 566.861 65.6354C569.327 62.0686 570.645 57.8691 570.645 53.572C570.673 50.7575 570.131 47.9651 569.048 45.3545C567.965 42.7438 566.364 40.3659 564.335 38.3566C562.307 36.3472 559.891 34.7458 557.225 33.6438C554.56 32.5417 551.697 31.9606 548.8 31.9336ZM548.8 69.775C545.503 69.8365 542.261 68.9423 539.488 67.2065C536.715 65.4707 534.537 62.9719 533.232 60.0287C531.927 57.0855 531.553 53.8312 532.159 50.6809C532.765 47.5306 534.322 44.6269 536.633 42.3401C538.944 40.0533 541.903 38.487 545.134 37.8409C548.365 37.1948 551.72 37.4981 554.773 38.7123C557.825 39.9265 560.436 41.9965 562.273 44.6583C564.11 47.3201 565.09 50.4532 565.087 53.658C565.101 57.8782 563.396 61.9326 560.345 64.936C557.294 67.9394 553.144 69.6481 548.8 69.6889V69.775Z" fill="#F4B45C" stroke="#263238" stroke-linecap="round" stroke-linejoin="round"/>
<path d="M514.157 84.293C510.531 84.2953 506.941 83.6034 503.59 82.2568C500.24 80.9101 497.195 78.9353 494.631 76.445C492.066 73.9547 490.032 70.9978 488.644 67.7432C487.255 64.4887 486.541 61.0002 486.541 57.4773V29.8359H541.72V57.4773C541.72 64.5833 538.817 71.3988 533.649 76.4267C528.481 81.4547 521.471 84.2839 514.157 84.293Z" fill="#F4B45C" stroke="#263238" stroke-linecap="round" stroke-linejoin="round"/>
<path d="M513.395 38.6602L516.953 49.2901H528.46L519.148 55.8608L522.707 66.4907L513.395 59.9201L504.083 66.4907L507.642 55.8608L498.33 49.2901H509.837L513.395 38.6602Z" fill="#263238"/>
<path d="M605.377 127.691H424.102V288.276H605.377V127.691Z" fill="#091E3E" stroke="#263238" stroke-linejoin="round"/>
<path d="M544.586 127.691H424.102V288.276H544.586V127.691Z" fill="#ECECEC" stroke="#263238" stroke-linejoin="round"/>
<path d="M466.275 207H285V367.585H466.275V207Z" fill="#091E3E" stroke="#263238" stroke-linejoin="round"/>
<path d="M405.033 207.469H284.549V368.054H405.033V207.469Z" fill="#ECECEC" stroke="#263238" stroke-linejoin="round"/>
<path d="M366.461 252.964V240.132H358.193C357.563 237.892 356.622 235.745 355.396 233.751L360.513 228.763L351.166 219.681L346.067 224.635C343.781 223.288 341.298 222.285 338.703 221.659V215.725H325.479V221.659C322.624 222.371 319.909 223.533 317.442 225.099L313.795 221.556L304.501 230.586L308.449 234.422C306.973 236.993 305.961 239.792 305.457 242.695H300.43V255.544H306.449C307.364 258.199 308.709 260.696 310.432 262.94L306.36 266.896L315.654 275.927L320.699 271.025C323.057 272.091 325.561 272.821 328.134 273.192V279.883H341.341V271.885C343.536 271.111 345.618 270.065 347.536 268.771L353.042 274.121L362.389 265.039L356.246 259.07C357.271 257.119 358.038 255.05 358.53 252.912L366.461 252.964ZM332.1 263.284C328.829 263.288 325.63 262.348 322.909 260.585C320.188 258.822 318.066 256.314 316.811 253.379C315.557 250.444 315.227 247.213 315.863 244.095C316.499 240.978 318.073 238.114 320.384 235.865C322.696 233.617 325.642 232.085 328.85 231.464C332.058 230.842 335.383 231.159 338.405 232.375C341.428 233.59 344.011 235.649 345.829 238.292C347.646 240.934 348.616 244.041 348.616 247.219C348.607 251.471 346.863 255.546 343.767 258.551C340.671 261.555 336.476 263.245 332.1 263.25V263.284Z" fill="#10235A"/>
<path d="M378.55 303.877V294.434H372.478C372.001 292.787 371.305 291.209 370.407 289.738L374.178 286.074L367.309 279.366L363.556 283.012C361.874 282.023 360.048 281.286 358.139 280.828V276.459H348.42V280.828C346.321 281.337 344.323 282.179 342.508 283.322L339.905 280.742L333.037 287.416L335.94 290.237C334.858 292.132 334.11 294.19 333.727 296.326H330.045V305.769H334.471C335.14 307.72 336.126 309.555 337.392 311.204L334.4 314.111L341.268 320.785L344.986 317.19C346.718 317.964 348.553 318.497 350.438 318.772V323.692H360.157V317.826C361.764 317.237 363.287 316.451 364.689 315.487L368.743 319.426L375.612 312.752L371.097 308.366C371.848 306.933 372.407 305.413 372.761 303.842L378.55 303.877ZM353.289 311.428C350.887 311.428 348.539 310.736 346.542 309.439C344.545 308.143 342.988 306.3 342.069 304.144C341.15 301.988 340.909 299.615 341.378 297.326C341.846 295.037 343.003 292.935 344.701 291.285C346.4 289.634 348.564 288.511 350.919 288.055C353.275 287.6 355.717 287.834 357.936 288.727C360.155 289.62 362.052 291.132 363.386 293.073C364.72 295.013 365.433 297.294 365.433 299.628C365.433 301.178 365.118 302.712 364.508 304.144C363.898 305.575 363.003 306.876 361.876 307.972C360.748 309.067 359.409 309.937 357.936 310.53C356.462 311.123 354.883 311.428 353.289 311.428Z" fill="#10235A"/>
<path d="M566.275 311H385V471.585H566.275V311Z" fill="#091E3E" stroke="#263238" stroke-linejoin="round"/>
<path d="M505.267 311.084H384.783V471.669H505.267V311.084Z" fill="#ECECEC" stroke="#263238" stroke-linejoin="round"/>
<path d="M475.739 339.052L465.277 331.552C463.3 330.133 460.926 329.331 458.469 329.254C456.012 329.177 453.589 329.829 451.522 331.122L430.775 343.163C429.68 343.815 428.876 344.842 428.523 346.042C428.169 347.241 428.291 348.526 428.864 349.643C429.438 350.759 430.421 351.626 431.62 352.073C432.819 352.52 434.147 352.513 435.342 352.056L454.726 345.588L477.988 368.981L492.451 364.079V335.474L475.739 339.052Z" fill="#E15165"/>
<path d="M452.159 348.753L432.846 355.221C429.305 356.7 425.464 350.989 425.464 347.274C425.464 342.475 430.172 341.15 433.872 337.968L437.413 334.941C435.505 333.254 433.121 332.162 430.568 331.806C428.014 331.451 425.41 331.848 423.091 332.946C417.531 335.592 411.136 336.06 405.229 334.253L400.096 332.688V364.474L406.646 365.266L407.265 364.75C409.406 362.966 412.175 362.057 414.99 362.214C417.806 362.371 420.449 363.582 422.366 365.592L445.592 389.863C446.118 390.409 446.838 390.742 447.607 390.793C448.376 390.844 449.136 390.61 449.734 390.138C450.049 389.886 450.309 389.575 450.497 389.224C450.686 388.872 450.799 388.487 450.83 388.092C450.862 387.697 450.811 387.299 450.68 386.924C450.549 386.548 450.342 386.202 450.07 385.906L444.264 379.577L452.319 384.737C453.096 385.193 454.015 385.362 454.91 385.215C455.805 385.068 456.616 384.613 457.194 383.934C457.773 383.254 458.082 382.396 458.065 381.514C458.047 380.632 457.704 379.786 457.098 379.129L452.425 374.416L459.506 378.768C460.358 379.269 461.367 379.457 462.349 379.298C463.332 379.14 464.224 378.646 464.865 377.905C465.505 377.164 465.853 376.225 465.844 375.258C465.835 374.29 465.471 373.357 464.817 372.628L460.621 368.069L468.304 372.593C468.883 372.934 469.556 373.092 470.232 373.046C470.907 373 471.551 372.751 472.075 372.335C472.434 372.05 472.727 371.694 472.935 371.291C473.142 370.888 473.259 370.446 473.277 369.995C473.296 369.545 473.215 369.096 473.042 368.678C472.868 368.26 472.605 367.882 472.269 367.571L452.159 348.753Z" fill="#E15165"/>
<path d="M416.026 376.774L419 373.127C419.599 372.342 419.86 371.361 419.728 370.392C419.596 369.423 419.082 368.542 418.293 367.935C417.505 367.327 416.505 367.041 415.504 367.137C414.503 367.233 413.579 367.704 412.928 368.449L409.954 372.095C409.356 372.881 409.095 373.862 409.227 374.831C409.359 375.8 409.873 376.681 410.661 377.288C411.45 377.896 412.45 378.182 413.451 378.086C414.452 377.99 415.376 377.519 416.026 376.774Z" fill="#E15165"/>
<path d="M421.764 382.088L424.738 378.442C425.3 377.654 425.532 376.688 425.386 375.74C425.24 374.793 424.729 373.935 423.955 373.341C423.181 372.747 422.204 372.461 421.221 372.543C420.238 372.625 419.325 373.067 418.666 373.78L415.692 377.41C415.131 378.197 414.899 379.163 415.044 380.111C415.19 381.058 415.702 381.917 416.475 382.511C417.249 383.105 418.227 383.39 419.209 383.308C420.192 383.226 421.105 382.784 421.764 382.071V382.088Z" fill="#E15165"/>
<path d="M427.444 387.403L430.401 383.774C430.999 382.988 431.26 382.008 431.128 381.039C430.996 380.07 430.482 379.188 429.694 378.581C428.906 377.974 427.905 377.688 426.904 377.784C425.903 377.88 424.98 378.35 424.329 379.095L421.337 382.742C420.701 383.523 420.409 384.517 420.525 385.506C420.641 386.496 421.156 387.401 421.957 388.022C422.357 388.336 422.818 388.568 423.312 388.707C423.806 388.845 424.323 388.887 424.834 388.829C425.345 388.772 425.838 388.616 426.287 388.371C426.735 388.126 427.128 387.797 427.444 387.403Z" fill="#E15165"/>
<path d="M435.501 383.808C435.103 383.5 434.647 383.273 434.157 383.137C433.668 383.002 433.157 382.962 432.652 383.02C432.147 383.077 431.658 383.231 431.215 383.473C430.771 383.714 430.381 384.038 430.067 384.427L427.093 388.056C426.756 388.442 426.503 388.889 426.348 389.371C426.193 389.853 426.14 390.361 426.191 390.863C426.242 391.366 426.396 391.854 426.645 392.297C426.894 392.741 427.232 393.131 427.64 393.445C428.047 393.759 428.515 393.99 429.017 394.124C429.518 394.259 430.042 394.294 430.557 394.228C431.073 394.162 431.569 393.995 432.017 393.739C432.465 393.482 432.855 393.141 433.165 392.735L436.139 389.088C436.455 388.701 436.689 388.258 436.829 387.782C436.968 387.307 437.009 386.81 436.95 386.319C436.891 385.829 436.732 385.354 436.484 384.923C436.235 384.492 435.901 384.113 435.501 383.808Z" fill="#E15165"/>
<path d="M408.238 413.65H226.963V574.235H408.238V413.65Z" fill="#091E3E" stroke="#263238" stroke-linejoin="round"/>
<path d="M347.447 413.65H226.963V574.235H347.447V413.65Z" fill="#ECECEC" stroke="#263238" stroke-linejoin="round"/>
<path d="M258.51 494.098H245.18V515.581H258.51V494.098Z" fill="#4DBAAB"/>
<path d="M274.689 484.914H261.359V515.6H274.689V484.914Z" fill="#4DBAAB"/>
<path d="M290.889 478.635H277.559V515.582H290.889V478.635Z" fill="#4DBAAB"/>
<path d="M307.33 469H294V514.324H307.33V469Z" fill="#119285"/>
<path d="M299.19 456.791L288.444 460.059L291.294 462.605L283.664 470.689L265.749 473.992L246.914 488.045C246.541 488.321 246.296 488.73 246.233 489.181C246.17 489.632 246.294 490.09 246.577 490.453C246.864 490.812 247.286 491.047 247.751 491.105C248.215 491.163 248.684 491.04 249.056 490.762L267.325 477.174L285.559 473.734L293.985 464.824L296.835 467.369L299.19 456.791Z" fill="#4DBAAB"/>
<path d="M518.084 535.553H336.809V696.138H518.084V535.553Z" fill="#091E3E" stroke="#263238" stroke-linejoin="round"/>
<path d="M457.293 535.553H336.809V696.138H457.293V535.553Z" fill="#ECECEC" stroke="#263238" stroke-linejoin="round"/>
<path d="M416.487 592.228L405.405 585.124V583.094C407.752 580.064 409.059 576.393 409.14 572.602C409.14 563.296 405.228 562.281 400.377 562.281C395.527 562.281 391.615 564.311 391.615 572.602C391.707 576.475 393.072 580.217 395.509 583.283V584.47L383.365 592.228C382.347 592.878 381.512 593.764 380.934 594.805C380.356 595.847 380.054 597.013 380.055 598.196V600.742L399.351 608.964L419.85 600.742V598.196C419.845 597.008 419.535 595.84 418.948 594.797C418.36 593.755 417.514 592.872 416.487 592.228Z" fill="#6D8CEB"/>
<path d="M428.648 581.752C428.66 576.409 427.092 571.175 424.13 566.673C421.168 562.172 416.938 558.591 411.941 556.359C406.945 554.127 401.394 553.336 395.949 554.081C390.504 554.826 385.394 557.076 381.227 560.563C377.06 564.049 374.012 568.626 372.445 573.748C370.878 578.869 370.859 584.32 372.39 589.452C373.921 594.584 376.937 599.181 381.079 602.695C385.222 606.209 390.316 608.492 395.756 609.273V631.273C394.939 631.824 394.27 632.56 393.808 633.416C393.345 634.273 393.103 635.225 393.101 636.192V673.518C393.101 675.114 393.754 676.646 394.916 677.775C396.078 678.904 397.654 679.538 399.297 679.538C400.94 679.538 402.516 678.904 403.678 677.775C404.84 676.646 405.493 675.114 405.493 673.518V636.192C405.495 635.224 405.255 634.27 404.792 633.413C404.329 632.556 403.658 631.821 402.837 631.273V609.497C409.91 608.795 416.463 605.569 421.231 600.445C425.998 595.32 428.641 588.66 428.648 581.752ZM376.567 581.752C376.563 577.258 377.932 572.863 380.499 569.124C383.067 565.385 386.718 562.47 390.99 560.748C395.263 559.025 399.966 558.573 404.503 559.448C409.041 560.322 413.209 562.485 416.481 565.662C419.754 568.839 421.983 572.888 422.886 577.296C423.79 581.704 423.328 586.274 421.559 590.426C419.789 594.579 416.792 598.129 412.946 600.627C409.1 603.124 404.578 604.457 399.952 604.457C393.756 604.448 387.816 602.054 383.433 597.798C379.049 593.543 376.581 587.773 376.567 581.752Z" fill="#6D8CEB"/>
<path d="M335.961 652.062H182.162V788.307H335.961V652.062Z" fill="#091E3E" stroke="#263238" stroke-width="0.848426" stroke-linejoin="round"/>
<path d="M284.384 652.062H182.162V788.307H284.384V652.062Z" fill="#ECECEC" stroke="#263238" stroke-width="0.848426" stroke-linejoin="round"/>
<path d="M269.035 735.725C269.034 734.718 268.775 733.726 268.282 732.84C267.789 731.953 267.078 731.2 266.211 730.647L256.764 724.59V722.868C258.76 720.299 259.874 717.185 259.948 713.966C259.948 706.086 256.614 705.21 252.439 705.21C248.263 705.21 245.004 706.932 245.004 713.966C245.071 717.254 246.23 720.433 248.308 723.029V724.05L238.005 730.617C237.138 731.171 236.427 731.924 235.934 732.811C235.441 733.697 235.182 734.688 235.181 735.696V741.212C234.301 741.048 233.404 740.974 232.508 740.993C231.736 740.982 230.965 741.056 230.21 741.212V735.696C230.209 734.688 229.95 733.697 229.457 732.811C228.964 731.924 228.253 731.171 227.386 730.617L218.014 724.59V722.868C220.01 720.299 221.124 717.185 221.198 713.966C221.198 707.91 219.231 705.984 216.437 705.414L221.258 700.073H229.444L231.637 730.588H232.613L235.767 700.059H246.881L251.102 704.787L250.816 700.059H256.253V660.189H210.279V700.103H216.978L216.362 705.429C215.504 705.285 214.634 705.216 213.764 705.225C209.648 705.225 206.329 706.947 206.329 713.981C206.394 717.306 207.575 720.519 209.693 723.131V724.153L199.39 730.72C198.524 731.273 197.812 732.026 197.319 732.913C196.826 733.799 196.568 734.791 196.566 735.798V745.021H225.959C225.412 746.564 225.158 748.191 225.208 749.822C225.281 753.109 226.439 756.287 228.513 758.885V759.892L218.209 766.473C217.342 767.022 216.63 767.773 216.137 768.657C215.643 769.542 215.385 770.532 215.386 771.537V780.804H249.164V771.537C249.165 770.532 248.907 769.542 248.413 768.657C247.92 767.773 247.208 767.022 246.341 766.473L236.893 760.446V758.724C238.889 756.155 240.003 753.041 240.078 749.822C240.123 748.201 239.916 746.582 239.462 745.021H269.095L269.035 735.725ZM211.27 699.139V661.196H255.292V699.139H249.78L249.945 702.058L247.332 699.139H234.866L232.222 724.926L230.375 699.139H220.808L217.684 702.7L218.074 699.212L211.27 699.139Z" fill="#F4B45C"/>
<path d="M228.076 691.946H238.169V690.457H228.091L228.076 691.946Z" fill="#F4B45C"/>
<path d="M228.767 694.558H237.478C237.921 694.111 238.168 693.515 238.169 692.895H228.076C228.077 693.515 228.325 694.111 228.767 694.558Z" fill="#F4B45C"/>
<path d="M231.829 697.739H234.382C234.711 697.741 235.037 697.68 235.341 697.559C235.645 697.438 235.922 697.26 236.155 697.035C236.388 696.809 236.573 696.542 236.699 696.247C236.826 695.952 236.891 695.636 236.891 695.316H229.381C229.377 695.953 229.632 696.564 230.091 697.018C230.55 697.472 231.174 697.731 231.829 697.739Z" fill="#F4B45C"/>
<path d="M226.603 683.015C228.091 684.759 228.904 686.953 228.901 689.218V689.67H237.372V689.218C237.371 686.95 238.189 684.755 239.685 683.015C240.975 681.529 241.682 679.647 241.683 677.703C241.684 676.568 241.444 675.445 240.979 674.404C240.514 673.363 239.833 672.426 238.98 671.651C238.126 670.876 237.117 670.281 236.017 669.901C234.916 669.521 233.747 669.365 232.581 669.443C231.011 669.542 229.499 670.061 228.213 670.943C226.927 671.825 225.918 673.035 225.296 674.44C224.674 675.845 224.464 677.389 224.69 678.903C224.915 680.416 225.567 681.84 226.573 683.015H226.603Z" fill="#F4B45C"/>
<path d="M217.551 677.761C217.551 677.97 217.636 678.17 217.788 678.318C217.94 678.466 218.147 678.549 218.362 678.549H222.642C222.857 678.549 223.064 678.466 223.216 678.318C223.368 678.17 223.453 677.97 223.453 677.761C223.453 677.552 223.368 677.351 223.216 677.203C223.064 677.056 222.857 676.973 222.642 676.973H218.362C218.147 676.973 217.94 677.056 217.788 677.203C217.636 677.351 217.551 677.552 217.551 677.761Z" fill="#F4B45C"/>
<path d="M197.516 677.761C197.516 677.552 197.431 677.351 197.278 677.203C197.126 677.056 196.92 676.973 196.705 676.973H192.379C192.164 676.973 191.958 677.056 191.806 677.203C191.654 677.351 191.568 677.552 191.568 677.761C191.568 677.97 191.654 678.17 191.806 678.318C191.958 678.466 192.164 678.549 192.379 678.549H196.705C196.92 678.549 197.126 678.466 197.278 678.318C197.431 678.17 197.516 677.97 197.516 677.761Z" fill="#F4B45C"/>
<path d="M179.715 670.216C179.969 670.216 180.212 670.119 180.391 669.944C180.571 669.77 180.671 669.534 180.671 669.288V664.368C180.674 664.247 180.651 664.127 180.605 664.014C180.559 663.902 180.49 663.799 180.403 663.713C180.316 663.626 180.211 663.557 180.096 663.51C179.981 663.464 179.858 663.439 179.733 663.439C179.483 663.444 179.244 663.544 179.069 663.718C178.893 663.891 178.795 664.125 178.795 664.368V669.27C178.795 669.513 178.89 669.746 179.061 669.922C179.232 670.098 179.467 670.203 179.715 670.216Z" fill="#F4B45C"/>
<path d="M188.83 673.76C189.083 673.756 189.324 673.658 189.503 673.485L193.044 670.044C193.134 669.96 193.205 669.858 193.254 669.746C193.303 669.633 193.328 669.513 193.328 669.391C193.328 669.269 193.303 669.148 193.254 669.036C193.205 668.924 193.134 668.822 193.044 668.737C192.862 668.564 192.617 668.467 192.362 668.467C192.107 668.467 191.863 668.564 191.681 668.737L188.14 672.177C187.963 672.351 187.863 672.586 187.863 672.831C187.863 673.076 187.963 673.311 188.14 673.485C188.327 673.656 188.573 673.754 188.83 673.76Z" fill="#F4B45C"/>
<path d="M224.711 684.693L221.707 687.611C221.557 687.759 221.473 687.958 221.473 688.166C221.473 688.374 221.557 688.573 221.707 688.72C221.782 688.795 221.87 688.853 221.968 688.894C222.066 688.934 222.172 688.955 222.278 688.955C222.385 688.955 222.49 688.934 222.588 688.894C222.686 688.853 222.775 688.795 222.849 688.72L225.853 685.802C225.981 685.65 226.046 685.458 226.036 685.263C226.026 685.068 225.942 684.883 225.799 684.745C225.657 684.606 225.467 684.524 225.266 684.515C225.065 684.505 224.867 684.568 224.711 684.693Z" fill="#F4B45C"/>
<path d="M169.783 673.381C169.873 673.47 169.981 673.54 170.1 673.587C170.218 673.634 170.345 673.658 170.474 673.657C170.662 673.655 170.845 673.6 171.001 673.498C171.157 673.396 171.279 673.251 171.351 673.082C171.423 672.913 171.441 672.728 171.405 672.548C171.369 672.369 171.279 672.204 171.146 672.074L167.765 668.789C167.681 668.689 167.575 668.607 167.456 668.548C167.337 668.49 167.206 668.457 167.073 668.45C166.94 668.444 166.807 668.465 166.682 668.511C166.558 668.558 166.445 668.63 166.35 668.721C166.256 668.813 166.182 668.923 166.134 669.044C166.086 669.165 166.065 669.294 166.071 669.424C166.078 669.553 166.112 669.68 166.172 669.796C166.232 669.911 166.317 670.014 166.42 670.096L169.783 673.381Z" fill="#F4B45C"/>
<path d="M241.366 684.823C241.211 684.676 241.004 684.594 240.788 684.594C240.571 684.594 240.364 684.676 240.209 684.823C240.059 684.971 239.975 685.17 239.975 685.378C239.975 685.585 240.059 685.785 240.209 685.932L243.063 688.705C243.137 688.779 243.226 688.838 243.324 688.878C243.422 688.919 243.527 688.939 243.634 688.939C243.74 688.939 243.846 688.919 243.944 688.878C244.042 688.838 244.13 688.779 244.205 688.705C244.355 688.557 244.439 688.358 244.439 688.15C244.439 687.943 244.355 687.744 244.205 687.596L241.366 684.823Z" fill="#F4B45C"/>
<path d="M285.35 290.899C285.35 290.899 291.139 297.349 290.271 299.602C289.679 301.803 289.387 304.07 289.404 306.345C289.404 306.345 296.91 310.284 296.91 312.245C296.634 314.107 296.035 315.909 295.139 317.577C295.139 317.577 296.91 328.809 295.724 331.613C294.538 334.416 282.128 336.394 282.128 336.394L277.508 350.155L250.954 342.294L255.291 328.534C255.291 328.534 248.652 312.245 247.484 306.913C246.315 301.58 254.707 291.174 265.187 288.646C271.983 287.291 279.047 288.08 285.35 290.899Z" fill="#EE9F88" stroke="#263238" stroke-linejoin="round"/>
<path d="M276.862 315.144C276.862 315.144 281.483 315.419 280.916 313.166C280.35 310.912 278.597 309.725 279.465 308.676C280.332 307.627 285.82 304.187 284.085 301.934C282.35 299.68 277.146 298.012 279.465 295.483C281.784 292.955 295.078 287.33 295.078 287.33C295.078 287.33 281.483 281.155 279.465 281.155C277.447 281.155 287.555 278.076 284.085 275.548C280.615 273.019 258.363 273.019 249.406 284.527C240.448 296.034 241.599 302.776 245.068 312.323C248.538 321.869 255.177 333.118 258.646 333.961C262.116 334.804 273.676 335.354 274.26 331.433C274.844 327.511 276.862 315.144 276.862 315.144Z" fill="#263238" stroke="#263238" stroke-linejoin="round"/>
<path d="M280.614 317.671C280.614 317.671 272.435 307.85 271.939 311.6C271.444 315.349 274.347 328.8 279.64 325.618" fill="#EE9F88"/>
<path d="M280.614 317.671C280.614 317.671 272.435 307.85 271.939 311.6C271.444 315.349 274.347 328.8 279.64 325.618" stroke="#263238" stroke-linejoin="round"/>
<path d="M235.242 346.311C235.242 346.311 241.597 348.271 256.91 351.368C272.223 354.464 285.235 357.543 285.235 357.543C285.235 357.543 281.198 345.743 276.861 343.507C272.524 341.271 249.404 336.764 246.519 337.039C243.633 337.315 235.242 346.311 235.242 346.311Z" fill="#90CAF9" stroke="#263238" stroke-linejoin="round"/>
<path d="M332.722 425.974C332.722 425.974 359.028 402.96 360.462 401.549C361.896 400.139 358.692 389.199 358.692 387.513C358.692 385.828 364.764 383.007 364.764 383.007C364.764 383.007 365.632 378.518 368.517 378.518C371.403 378.518 376.324 382.164 376.324 382.164L376.908 385.26C376.908 385.26 380.944 393.964 380.944 395.374C380.542 398.359 379.121 401.127 376.908 403.235C374.023 406.039 367.366 411.938 367.366 411.938C367.366 411.938 344.247 442.263 339.042 446.477C333.838 450.691 326.898 455.181 324.296 450.141C321.694 445.101 332.722 425.974 332.722 425.974Z" fill="#EE9F88" stroke="#263238" stroke-linejoin="round"/>
<path d="M365.305 381.693L366.173 383.947L363.854 385.632" stroke="#263238" stroke-linejoin="round"/>
<path d="M166.566 393.121C166.566 393.121 156.44 403.235 157.024 407.449C157.609 411.663 181.011 458.552 181.011 458.552C181.011 458.552 182.782 465.587 183.897 466.138C185.012 466.688 187.65 470.919 187.65 470.919C187.65 470.919 187.65 474.566 191.987 470.627C196.324 466.688 202.396 462.216 202.113 458.587C201.774 456.165 200.659 453.908 198.927 452.136C198.927 452.136 197.493 448.696 196.041 448.49C194.589 448.283 187.951 448.197 187.951 448.197L180.48 409.978L166.566 393.121Z" fill="#EE9F88" stroke="#263238" stroke-linejoin="round"/>
<path d="M190.721 453.591L194.491 455.552C194.491 455.552 189.853 462.294 191.588 463.705C193.323 465.115 198.528 455.001 199.112 453.591C199.696 452.18 198.244 450.787 198.244 450.787" fill="#D98066"/>
<path d="M190.721 453.591L194.491 455.552C194.491 455.552 189.853 462.294 191.588 463.705C193.323 465.115 198.528 455.001 199.112 453.591C199.696 452.18 198.244 450.787 198.244 450.787" stroke="#263238" stroke-linejoin="round"/>
<path d="M193.039 456.119L185.516 462.587" stroke="#263238" stroke-linejoin="round"/>
<path d="M205.378 597.766L186.631 613.556C187.348 615.399 188.666 616.963 190.384 618.011C192.88 619.232 203.714 629.363 207.042 631.376C213.042 635.079 219.943 637.174 227.046 637.447C235.897 637.447 237.473 634.214 237.473 632.992C237.473 631.771 220.39 620.849 220.39 620.849L216.637 606.28L205.378 597.766Z" fill="white" stroke="#263238" stroke-linejoin="round"/>
<path d="M190.402 610.393L186.631 613.557C187.348 615.401 188.666 616.965 190.384 618.012C192.88 619.234 203.714 629.365 207.042 631.377C213.042 635.081 219.943 637.176 227.046 637.449C232.18 637.449 234.853 636.348 236.216 635.179C232.437 634.301 228.597 633.691 224.727 633.355C218.991 633.355 212.671 628.35 212.671 628.35L190.402 610.393Z" fill="white" stroke="#263238" stroke-linejoin="round"/>
<path d="M199.396 440.105C199.396 440.105 195.324 460.746 198.988 467.265C201.93 472.21 205.194 476.967 208.76 481.507L260.7 546.216L204.494 599.056L217.47 611.939C217.47 611.939 288.281 555.177 292.476 552.752C296.672 550.327 292.476 530.185 291.255 528.413C290.033 526.642 265.621 474.747 265.621 474.747L267.905 451.63L199.396 440.105Z" fill="#202D4A" stroke="#263238" stroke-linejoin="round"/>
<path d="M237.066 625.839C237.066 625.839 249.688 639.496 251.706 640.889C253.724 642.282 268.045 650.367 268.045 650.367C268.045 650.367 267.762 652.31 266.611 652.603C265.461 652.895 237.066 653.153 235.065 652.878C233.065 652.603 216.353 644.02 214.406 643.108C211.543 641.585 208.765 639.914 206.086 638.103L218.708 618.305L237.066 625.839Z" fill="white" stroke="#263238" stroke-linejoin="round"/>
<path d="M215.701 477.172L227.739 485.549L244.964 540.316L215.701 620.608L241.158 627.488L242.804 618.51L247.867 609.084C247.867 609.084 278.953 542.827 279.378 537.392C279.802 531.956 265.623 474.678 265.623 474.678L263.038 450.425L218.268 446.229" fill="#10235A"/>
<path d="M215.701 477.172L227.739 485.549L244.964 540.316L215.701 620.608L241.158 627.488L242.804 618.51L247.867 609.084C247.867 609.084 278.953 542.827 279.378 537.392C279.802 531.956 265.623 474.678 265.623 474.678L263.038 450.425L218.268 446.229" stroke="#263238" stroke-linejoin="round"/>
<path d="M266.611 652.62C267.762 652.327 268.045 650.384 268.045 650.384L265.514 648.939C254.591 648.13 236.269 646.754 235.065 646.754C233.861 646.754 215.999 636.606 209.467 632.805L206.086 638.12C208.765 639.931 211.543 641.602 214.406 643.125C216.407 643.968 233.047 652.62 235.065 652.895C237.083 653.17 265.461 652.878 266.611 652.62Z" fill="white" stroke="#263238" stroke-linejoin="round"/>
<path d="M238.995 345.469C238.995 345.469 210.388 348.272 210.087 349.408C209.786 350.543 171.938 390.397 171.938 390.397L182.063 409.214L206.334 399.117L199.394 440.106C199.394 440.106 194.774 441.827 203.147 446.006C211.521 450.186 230.905 455.553 244.2 455.553C257.494 455.553 265 455.553 267.904 451.631C269.79 449.204 270.803 446.243 270.789 443.203C271.072 440.949 284.668 406.686 284.668 406.686C284.668 406.686 315.01 444.527 316.161 445.456C317.312 446.385 322.817 447.176 327.438 441.792C332.058 436.408 331.191 424.11 331.191 424.11C331.191 424.11 314.143 394.06 313.276 389.846C312.408 385.632 309.735 372.646 308.071 369.343C306.407 366.041 304.035 365.697 299.397 363.443C294.759 361.19 282.066 356.993 282.066 356.993L238.995 345.469Z" fill="#90CAF9" stroke="#263238" stroke-linejoin="round"/>
<path d="M212.992 357.836L206.336 399.117L209.221 360.072" stroke="#263238" stroke-linejoin="round"/>
<path d="M205.467 397.982L197.961 380.008" stroke="#263238" stroke-linejoin="round"/>
<path d="M186.809 387.679L182.348 385.064" stroke="#263238" stroke-linejoin="round"/>
<path d="M206.335 399.116L190.58 389.896" stroke="#263238" stroke-linejoin="round"/>
<path d="M298.193 386.251L305.469 375.242" stroke="#263238" stroke-linejoin="round"/>
<path d="M284.67 406.684L295.893 389.725" stroke="#263238" stroke-linejoin="round"/>
<path d="M306.551 393.165L309.808 391.238" stroke="#263238" stroke-linejoin="round"/>
<path d="M286.404 405.017L302.602 395.488" stroke="#263238" stroke-linejoin="round"/>
<path d="M284.951 404.724L313.275 399.959" stroke="#263238" stroke-linejoin="round"/>
<path d="M203.148 441.241L231.49 434.498" stroke="#263238" stroke-linejoin="round"/>
<path d="M250.803 425.125C252.628 424.435 254.402 423.624 256.114 422.699" stroke="#263238" stroke-linejoin="round"/>
<path d="M215.01 434.499C225.644 432.537 236.144 429.941 246.45 426.725" stroke="#263238" stroke-linejoin="round"/>
<path d="M330.907 422.132C330.327 426.693 328.189 430.932 324.835 434.172C321.537 437.627 317.2 439.981 312.443 440.898C312.443 440.898 315.046 450.461 318.232 450.461C321.419 450.461 326.906 452.181 331.81 445.68C336.714 439.178 337.882 428.273 336.43 425.452C334.979 422.631 334.094 421.289 330.907 422.132Z" fill="#90CAF9" stroke="#263238" stroke-linejoin="round"/>
<path d="M176.276 383.945C176.276 383.945 190.155 409.213 188.986 409.746C187.818 410.279 182.932 414.528 181.197 414.803C179.462 415.078 171.655 407.493 168.805 401.043C165.955 394.592 165.052 392.047 165.92 390.929C166.787 389.811 174.541 383.945 176.276 383.945Z" fill="#90CAF9" stroke="#263238" stroke-linejoin="round"/>
<path d="M344.464 56.6344C345.03 53.5211 345.845 45.8152 340.923 42.0311C334.798 37.2149 330.443 45.8668 325.097 39.1414C319.751 32.4159 318.264 17.8126 302.438 18.0018C286.611 18.191 285.425 26.8429 285.425 29.7326C285.425 32.6223 280.681 34.7208 279.69 34.7208C278.698 34.7208 273.175 32.2267 271.192 37.7997C269.21 43.3727 270.555 46.5892 267.404 46.7096C264.253 46.83 260.323 42.6675 256.074 44.7488C251.826 46.83 251.808 51.2506 250.02 52.7986C248.232 54.3467 245.276 51.629 241.328 53.177C240.508 53.4106 239.768 53.8526 239.183 54.4574C238.598 55.0622 238.189 55.8078 238 56.6172L344.464 56.6344Z" fill="#AAD8EC" stroke="black" stroke-miterlimit="10"/>
</svg>
