<svg width="36" height="36" viewBox="0 0 36 36" fill="none" xmlns="http://www.w3.org/2000/svg">
<g clip-path="url(#clip0_672_17773)">
<path fill-rule="evenodd" clip-rule="evenodd" d="M15.9821 20.1759C14.0623 20.1759 12.5007 18.6141 12.5007 16.6944C12.5007 14.7748 14.0625 13.2132 15.9821 13.2132C17.9018 13.2132 19.4636 14.7751 19.4636 16.6944C19.4636 18.6139 17.9018 20.1759 15.9821 20.1759ZM15.9821 14.0568C14.5276 14.0568 13.3442 15.2401 13.3442 16.6944C13.3442 18.149 14.5276 19.3321 15.9821 19.3321C17.4367 19.3321 18.6198 18.149 18.6198 16.6944C18.6198 15.2401 17.4367 14.0568 15.9821 14.0568Z" fill="#06A3DA"/>
<path fill-rule="evenodd" clip-rule="evenodd" d="M15.9821 12.3895C15.7493 12.3895 15.5603 12.2006 15.5603 11.9678V10.5307C15.5603 9.97538 16.4039 9.97538 16.4039 10.5307V11.968C16.4039 12.2009 16.2151 12.3895 15.9821 12.3895Z" fill="#06A3DA"/>
<path fill-rule="evenodd" clip-rule="evenodd" d="M18.3453 13.0228C18.025 13.0228 17.8171 12.6734 17.9805 12.3901L18.6989 11.1456C18.976 10.6653 19.7074 11.0859 19.4294 11.5674L18.7109 12.8119C18.6327 12.9472 18.4909 13.0228 18.3453 13.0228Z" fill="#06A3DA"/>
<path fill-rule="evenodd" clip-rule="evenodd" d="M20.0758 14.7531C19.6475 14.7531 19.4919 14.181 19.8646 13.966L21.1091 13.2475C21.5897 12.9698 22.0119 13.7007 21.5309 13.978C21.283 14.1209 20.2936 14.7531 20.0758 14.7531Z" fill="#06A3DA"/>
<path fill-rule="evenodd" clip-rule="evenodd" d="M22.1458 17.1162H20.7085C20.1532 17.1162 20.1534 16.2726 20.7085 16.2726H22.1458C22.7009 16.2726 22.701 17.1162 22.1458 17.1162Z" fill="#06A3DA"/>
<path fill-rule="evenodd" clip-rule="evenodd" d="M21.3197 20.1982C21.1064 20.1982 20.1601 19.5935 19.8646 19.4231C19.3832 19.1455 19.8063 18.4152 20.2864 18.6927L21.5309 19.4111C21.9045 19.6265 21.7475 20.1982 21.3197 20.1982Z" fill="#06A3DA"/>
<path fill-rule="evenodd" clip-rule="evenodd" d="M19.0644 22.4544C18.9188 22.4544 18.777 22.3786 18.6988 22.2432L17.9803 20.9982C17.703 20.5175 18.4329 20.0957 18.7108 20.5765L19.4292 21.8214C19.5927 22.1046 19.3841 22.4544 19.0644 22.4544Z" fill="#06A3DA"/>
<path fill-rule="evenodd" clip-rule="evenodd" d="M15.9821 23.2802C15.7493 23.2802 15.5603 23.091 15.5603 22.8584V21.4211C15.5603 20.8658 16.4039 20.866 16.4039 21.4211V22.8584C16.4039 23.0914 16.2151 23.2802 15.9821 23.2802Z" fill="#06A3DA"/>
<path fill-rule="evenodd" clip-rule="evenodd" d="M12.8995 22.4544C12.5801 22.4544 12.3708 22.1059 12.5349 21.8217L13.2533 20.5768C13.5309 20.0958 14.2618 20.5169 13.9838 20.9986L13.2653 22.2435C13.1872 22.3786 13.0454 22.4544 12.8995 22.4544Z" fill="#06A3DA"/>
<path fill-rule="evenodd" clip-rule="evenodd" d="M10.6445 20.1982C10.2161 20.1982 10.0598 19.6263 10.4329 19.4108L11.6774 18.6924C12.1586 18.4149 12.5799 19.1452 12.0992 19.4228C11.8532 19.5649 10.8603 20.1982 10.6445 20.1982Z" fill="#06A3DA"/>
<path fill-rule="evenodd" clip-rule="evenodd" d="M11.2555 17.1162H9.81852C9.26319 17.1162 9.26319 16.2726 9.81852 16.2726H11.2555C11.8106 16.2726 11.8107 17.1162 11.2555 17.1162Z" fill="#06A3DA"/>
<path fill-rule="evenodd" clip-rule="evenodd" d="M11.8881 14.7531C11.675 14.7531 10.7277 14.148 10.433 13.978C9.95289 13.7009 10.3729 12.9696 10.8548 13.2475L12.0994 13.966C12.4717 14.1809 12.3171 14.7531 11.8881 14.7531Z" fill="#06A3DA"/>
<path fill-rule="evenodd" clip-rule="evenodd" d="M13.619 13.0228C13.4731 13.0228 13.3314 12.9472 13.2532 12.8119L12.5346 11.5674C12.2571 11.086 12.9879 10.6648 13.2651 11.1456L13.9835 12.3901C14.147 12.6734 13.9393 13.0228 13.619 13.0228Z" fill="#06A3DA"/>
<path fill-rule="evenodd" clip-rule="evenodd" d="M15.9821 26.7991C11.0949 26.7991 6.91419 23.3146 6.04112 18.5135C5.89562 17.7114 7.10844 18.3632 7.39478 17.2944C7.57034 16.6393 7.0371 16.0215 6.38518 16.0713C6.12433 16.0911 5.90891 15.8643 5.93648 15.6055C6.48741 10.4656 10.8064 6.58954 15.9826 6.58954C23.8542 6.58954 28.6422 15.2036 24.6638 21.8674C24.2944 22.4862 23.8187 21.4884 23.016 21.9521C22.4485 22.2799 22.3623 23.0589 22.8361 23.5047C23.0137 23.6717 23.0133 23.9556 22.8329 24.1221C20.9614 25.8483 18.5287 26.7991 15.9821 26.7991ZM6.95887 18.7884C8.51683 25.5519 16.7134 28.2129 21.9643 23.7637C21.038 22.2868 22.5221 20.4934 24.1346 21.0912C27.4326 14.9848 23.0217 7.43311 15.9823 7.43311C11.3836 7.43311 7.52376 10.7707 6.83098 15.2652C8.67312 15.6583 8.76696 18.2632 6.95887 18.7884Z" fill="#091E3E"/>
<path fill-rule="evenodd" clip-rule="evenodd" d="M15.9821 32.6727C14.271 32.6727 15.6281 32.1268 14.7221 30.5576C13.6086 28.6291 10.7314 28.9225 10.0269 31.031C9.94797 31.2671 9.68164 31.3844 9.45459 31.2823C0.575918 27.2883 -2.67213 16.4101 2.41714 8.2493C2.81833 7.60586 3.26678 8.67201 4.60566 8.67201C6.83836 8.67201 8.00768 6.02555 6.54521 4.37186C6.38053 4.18551 6.41242 3.897 6.61373 3.75109C14.4125 -1.89948 25.4782 0.582036 30.0783 9.16904C30.4366 9.8379 29.2862 9.69522 28.6169 10.8544C27.497 12.7945 29.2177 15.1252 31.3717 14.6842C31.6149 14.6345 31.8503 14.8077 31.8756 15.0544C32.8432 24.4679 25.4382 32.6727 15.9821 32.6727ZM15.9133 31.8287C24.7927 31.8287 31.7174 24.3517 31.0752 15.5723C27.4906 15.8019 26.0283 10.9886 29.1247 9.18601C24.7196 1.48535 14.706 -0.761314 7.46328 4.18437C9.4554 7.1767 6.0147 10.8445 2.90851 9.06685C-1.52029 16.6413 1.43701 26.4794 9.40583 30.3286C10.9987 27.1067 15.8979 28.2436 15.9133 31.8287ZM23.5029 24.6124C21.6499 24.6124 20.9911 22.1467 22.5935 21.2214C23.4607 20.7205 24.574 21.0178 25.0752 21.8866C25.7776 23.104 24.8854 24.6124 23.5029 24.6124ZM23.5004 21.8216C22.2262 21.8216 22.2083 23.7685 23.5027 23.7685C24.7834 23.7685 24.7803 21.8216 23.5004 21.8216Z" fill="#091E3E"/>
<path fill-rule="evenodd" clip-rule="evenodd" d="M26.1871 9.2915C26.0602 9.2915 25.9353 9.23469 25.852 9.12648C22.1864 4.35546 15.7177 2.92049 10.431 5.56279C9.93476 5.81076 9.55681 5.05686 10.0537 4.80822C15.6931 1.98581 22.6158 3.52117 26.5212 8.61342C26.736 8.89346 26.5268 9.2915 26.1871 9.2915Z" fill="#091E3E"/>
<path fill-rule="evenodd" clip-rule="evenodd" d="M4.60618 9.51524C2.71429 9.51524 1.17503 7.97597 1.17503 6.0841C1.17503 4.1923 2.7143 2.65304 4.60618 2.65304C6.49798 2.65304 8.03724 4.19231 8.03724 6.0841C8.03724 7.97598 6.49805 9.51524 4.60618 9.51524ZM4.60618 3.49626C3.17935 3.49626 2.01862 4.65701 2.01862 6.08374C2.01862 7.51056 3.17936 8.6713 4.60618 8.6713C6.03292 8.6713 7.19365 7.51055 7.19365 6.08374C7.19365 4.657 6.03291 3.49626 4.60618 3.49626Z" fill="#091E3E"/>
<path fill-rule="evenodd" clip-rule="evenodd" d="M30.8563 15.5795C28.2366 15.5795 26.5616 12.7286 27.8874 10.4321C29.4107 7.79384 33.3834 8.31148 34.1732 11.2597C34.7598 13.4491 33.0996 15.5795 30.8563 15.5795ZM30.8616 9.55975C28.2183 9.55975 27.2857 13.0739 29.5649 14.3889C31.5505 15.5344 33.9539 13.7018 33.3584 11.4782C33.054 10.3422 32.0245 9.55975 30.8616 9.55975Z" fill="#091E3E"/>
<path fill-rule="evenodd" clip-rule="evenodd" d="M12.484 35.2832C9.002 35.2832 7.73205 30.6306 10.7655 28.8799C12.406 27.933 14.5068 28.4978 15.4525 30.1358C16.7783 32.4326 15.0953 35.2832 12.484 35.2832ZM12.4781 29.2631C10.5115 29.2631 9.23902 31.4119 10.24 33.1453C10.953 34.3801 12.537 34.8072 13.7751 34.0922C16.063 32.7712 15.1046 29.2631 12.4781 29.2631Z" fill="#091E3E"/>
<path fill-rule="evenodd" clip-rule="evenodd" d="M13.8703 31.4716C13.406 31.4716 13.5397 30.9118 12.7865 30.7103C12.0197 30.505 11.6306 31.2229 11.3138 30.6736C10.843 29.8574 13.2902 29.2017 14.235 30.8388C14.3984 31.122 14.1903 31.4716 13.8703 31.4716Z" fill="#091E3E"/>
<path fill-rule="evenodd" clip-rule="evenodd" d="M6.45562 18.8599C4.06645 18.8599 4.06082 15.2255 6.45263 15.2255C8.84263 15.2255 8.84644 18.8599 6.45562 18.8599ZM6.45296 16.0691C5.17396 16.0691 5.17371 18.0163 6.45595 18.0163C7.73686 18.0163 7.73338 16.0691 6.45296 16.0691Z" fill="#091E3E"/>
<path fill-rule="evenodd" clip-rule="evenodd" d="M23.5029 24.6123C21.6503 24.6123 20.9909 22.1468 22.5935 21.2212C23.4608 20.7204 24.574 21.0177 25.0753 21.8864C25.7776 23.1039 24.8854 24.6123 23.5029 24.6123ZM23.5005 21.8214C22.2256 21.8214 22.2091 23.769 23.5027 23.769C24.7824 23.769 24.781 21.8214 23.5005 21.8214Z" fill="#091E3E"/>
<path fill-rule="evenodd" clip-rule="evenodd" d="M30.8586 13.417C30.3328 13.417 25.721 13.3748 25.721 11.9149C25.721 11.3086 26.4624 10.8883 27.9874 10.6297C28.5332 10.5366 28.6768 11.3685 28.128 11.4615C27.2215 11.615 26.7901 11.8057 26.6251 11.9173C27.8513 12.7771 33.8654 12.7766 35.0916 11.9173C34.3191 11.3962 33.1208 11.6958 33.2429 10.9756C33.2818 10.7457 33.5015 10.5919 33.7291 10.63C35.2542 10.8884 35.9959 11.3085 35.9959 11.9149C35.9966 13.3747 31.3844 13.417 30.8586 13.417Z" fill="#091E3E"/>
<path fill-rule="evenodd" clip-rule="evenodd" d="M4.04645 14.6174C3.64068 14.6174 3.38498 13.9072 3.04117 13.5635C2.79684 13.3192 1.50132 12.7152 2.15515 12.222C3.24688 11.3984 2.88637 11.759 3.70986 10.6672C4.20307 10.0134 4.80707 11.3089 5.05139 11.5533C5.2963 11.7982 6.59099 12.4015 5.9375 12.8954C4.83888 13.7255 5.21367 13.3494 4.38295 14.4499C4.30339 14.5553 4.17882 14.6174 4.04645 14.6174ZM3.10943 12.5583C3.76724 13.0547 3.54991 12.8373 4.04611 13.4953C4.54149 12.8378 4.32565 13.0537 4.98313 12.5583C4.32507 12.062 4.54248 12.2794 4.04611 11.6216C3.54983 12.2793 3.76708 12.062 3.10943 12.5583Z" fill="#091E3E"/>
<path fill-rule="evenodd" clip-rule="evenodd" d="M8.33953 28.5395C7.93783 28.5395 7.69118 27.8504 7.35891 27.5181C7.11559 27.2748 5.85751 26.6898 6.5047 26.201C7.55955 25.4041 7.20553 25.7598 8.00269 24.703C8.4827 24.0668 9.07424 25.3106 9.32022 25.5566C9.56305 25.7995 10.8222 26.3863 10.174 26.8741C9.12681 27.6622 9.46389 27.3266 8.67611 28.3717C8.59647 28.4774 8.47166 28.5395 8.33953 28.5395ZM7.45915 26.5372C8.07552 27.0023 7.87413 26.8009 8.3392 27.4173C8.80417 26.8011 8.60312 27.0022 9.21932 26.5372C8.60304 26.0717 8.80434 26.2732 8.3392 25.6567C7.8743 26.273 8.07519 26.0719 7.45915 26.5372Z" fill="#091E3E"/>
<path fill-rule="evenodd" clip-rule="evenodd" d="M28.1227 22.13C27.7209 22.13 27.4743 21.4408 27.1421 21.1086C26.899 20.8654 25.6403 20.2799 26.2882 19.7914C27.3409 18.9979 26.9932 19.3452 27.7859 18.2929C28.2656 17.6561 28.8582 18.9015 29.1033 19.1468C29.3465 19.3898 30.6051 19.9755 29.9572 20.4639C28.9102 21.253 29.2489 20.9129 28.4593 21.9615C28.3796 22.0676 28.2551 22.13 28.1227 22.13ZM27.2425 20.1276C27.8585 20.5924 27.6577 20.3916 28.1226 21.0077C28.5874 20.3916 28.3866 20.5924 29.0028 20.1276C28.3866 19.6627 28.5874 19.8635 28.1226 19.2475C27.6577 19.8635 27.8585 19.6627 27.2425 20.1276Z" fill="#091E3E"/>
</g>
<defs>
<clipPath id="clip0_672_17773">
<rect width="36" height="36" fill="white"/>
</clipPath>
</defs>
</svg>
