<svg width="32" height="32" viewBox="0 0 32 32" fill="none" xmlns="http://www.w3.org/2000/svg">
<g clip-path="url(#clip0_576_48)">
<path d="M29.6399 0.519124C29.2943 0.279187 28.8527 0.223562 28.4585 0.370749L26.0361 1.27419L22.7254 0.0394993C22.5843 -0.0131257 22.4289 -0.0131257 22.2877 0.0394993L18.9776 1.27419L15.6673 0.0394993C15.5262 -0.0131257 15.3707 -0.0131257 15.2296 0.0394993L11.9196 1.27419L9.49775 0.370812C9.1035 0.223687 8.66187 0.279187 8.31631 0.519124C7.97075 0.759124 7.76437 1.1535 7.76437 1.57425V19.4406H3.06075C2.37019 19.4406 1.80831 20.0024 1.80831 20.693V28.3958C1.80831 30.3831 3.42519 32 5.41256 32H25.8929C28.2633 32 30.1917 30.0716 30.1917 27.7012V1.57419C30.1917 1.1535 29.9854 0.759062 29.6399 0.519124ZM3.06075 28.3958V20.693H7.76444V28.3958C7.76444 29.6926 6.70937 30.7476 5.41256 30.7476C4.11575 30.7476 3.06075 29.6925 3.06075 28.3958ZM28.9392 27.7012C28.9392 29.381 27.5727 30.7476 25.8929 30.7476H8.14037C8.68581 30.1158 9.01687 29.2939 9.01687 28.3958V1.57425C9.01687 1.56756 9.01687 1.5575 9.03062 1.54794C9.04431 1.5385 9.05381 1.54194 9.06006 1.54425L11.7007 2.52925C11.8419 2.58194 11.9973 2.58194 12.1385 2.52925L15.4486 1.29456L18.7588 2.52925C18.8999 2.58194 19.0553 2.58194 19.1965 2.52925L22.5066 1.29456L25.8172 2.52925C25.9584 2.58194 26.1138 2.58194 26.2549 2.52925L28.8962 1.54419C28.9025 1.542 28.9119 1.53837 28.9256 1.54794C28.9394 1.55744 28.9394 1.5675 28.9394 1.57419V27.7012H28.9392Z" fill="#091E3E"/>
<path d="M12.7653 6.93931H25.3287C25.6746 6.93931 25.9549 6.65894 25.9549 6.31306C25.9549 5.96719 25.6746 5.68681 25.3287 5.68681H12.7653C12.4194 5.68681 12.1391 5.96719 12.1391 6.31306C12.1391 6.65894 12.4194 6.93931 12.7653 6.93931Z" fill="#06A3DA"/>
<path d="M12.7653 9.82844H25.3287C25.6746 9.82844 25.9549 9.54806 25.9549 9.20219C25.9549 8.85637 25.6746 8.57594 25.3287 8.57594H12.7653C12.4194 8.57594 12.1391 8.85631 12.1391 9.20219C12.1391 9.54806 12.4194 9.82844 12.7653 9.82844Z" fill="#06A3DA"/>
<path d="M12.7653 12.7176H25.3287C25.6746 12.7176 25.9549 12.4372 25.9549 12.0913C25.9549 11.7455 25.6746 11.4651 25.3287 11.4651H12.7653C12.4194 11.4651 12.1391 11.7454 12.1391 12.0913C12.1391 12.4372 12.4194 12.7176 12.7653 12.7176Z" fill="#06A3DA"/>
<path d="M12.7653 15.6067H25.3287C25.6746 15.6067 25.9549 15.3263 25.9549 14.9804C25.9549 14.6346 25.6746 14.3542 25.3287 14.3542H12.7653C12.4194 14.3542 12.1391 14.6346 12.1391 14.9804C12.1391 15.3263 12.4194 15.6067 12.7653 15.6067Z" fill="#06A3DA"/>
<path d="M22.5202 17.2434H12.7653C12.4194 17.2434 12.1391 17.5238 12.1391 17.8696C12.1391 18.2155 12.4194 18.4959 12.7653 18.4959H22.5202C22.8661 18.4959 23.1465 18.2155 23.1465 17.8696C23.1465 17.5238 22.8661 17.2434 22.5202 17.2434Z" fill="#06A3DA"/>
<path d="M19.8733 23.5891C19.3176 23.3927 18.7032 23.1556 18.3591 22.8857C18.2538 22.8031 18.2085 22.6126 18.2463 22.4116C18.2652 22.3109 18.3539 21.9744 18.6974 21.8709C19.3861 21.6634 20.0031 22.1389 20.0232 22.1547C20.2896 22.372 20.6818 22.3338 20.9014 22.0685C21.1219 21.8021 21.0846 21.4073 20.8182 21.1868C20.7887 21.1624 20.324 20.7858 19.6357 20.6311V20.3766C19.6357 20.0308 19.3553 19.7504 19.0094 19.7504C18.6636 19.7504 18.3832 20.0308 18.3832 20.3766V20.6588C18.3675 20.6632 18.3519 20.6669 18.3361 20.6717C17.6583 20.8759 17.1523 21.4538 17.0155 22.1797C16.8896 22.8482 17.1082 23.4964 17.5862 23.8713C17.9784 24.1789 18.5201 24.4392 19.4559 24.77C20.0703 24.9872 20.0571 25.4842 20.0228 25.6877C19.9532 26.1017 19.605 26.5491 19.0049 26.5531C18.4127 26.5571 18.2284 26.5277 17.7741 26.2306C17.4847 26.0413 17.0966 26.1224 16.9072 26.4118C16.7179 26.7012 16.7991 27.0893 17.0885 27.2786C17.5796 27.5999 17.9428 27.7315 18.3832 27.7801V28.0513C18.3832 28.3971 18.6636 28.6775 19.0094 28.6775C19.3553 28.6775 19.6357 28.3971 19.6357 28.0513V27.7182C20.5449 27.461 21.1273 26.673 21.258 25.8954C21.4304 24.8696 20.874 23.9427 19.8733 23.5891Z" fill="#06A3DA"/>
<path d="M25.3288 18.4962C25.6747 18.4962 25.9551 18.2158 25.9551 17.8699C25.9551 17.5241 25.6747 17.2437 25.3288 17.2437C24.9829 17.2437 24.7026 17.5241 24.7026 17.8699C24.7026 18.2158 24.9829 18.4962 25.3288 18.4962Z" fill="#06A3DA"/>
</g>
<defs>
<clipPath id="clip0_576_48">
<rect width="32" height="32" fill="white"/>
</clipPath>
</defs>
</svg>
