<svg width="32" height="32" viewBox="0 0 32 32" fill="none" xmlns="http://www.w3.org/2000/svg">
<path fill-rule="evenodd" clip-rule="evenodd" d="M19.7824 20.8511H2.18343C2.01321 20.8511 1.87503 20.6781 1.87503 20.4649C1.87509 20.2509 2.01317 20.0787 2.18343 20.0787H19.7824C19.9526 20.0787 20.0907 20.2509 20.0907 20.4649C20.0907 20.6781 19.9526 20.8511 19.7824 20.8511Z" fill="#06A3DA"/>
<path fill-rule="evenodd" clip-rule="evenodd" d="M3.3727 6.77236C2.88697 6.77236 2.4918 7.26719 2.4918 7.87541L2.49182 23.1246C2.49182 23.4183 2.58367 23.695 2.75072 23.9042C2.91713 24.1126 3.13812 24.2276 3.37264 24.2276H28.6274C29.1131 24.2276 29.5082 23.7328 29.5082 23.1246L29.5083 21.559C28.4938 21.3715 27.7125 20.2741 27.7125 18.9515C27.7125 17.6296 28.4938 16.5322 29.5082 16.3448L29.5083 14.656C28.4938 14.4686 27.7125 13.3704 27.7125 12.0485C27.7125 10.7267 28.4938 9.62848 29.5082 9.44104L29.5083 7.87538C29.5083 7.26716 29.1131 6.77239 28.6274 6.77239L3.3727 6.77236ZM28.6275 25H3.3727C2.97371 25 2.5978 24.8045 2.31447 24.4497C2.03119 24.0957 1.875 23.6242 1.875 23.1246L1.87506 7.87538C1.87506 6.84155 2.54705 6.00002 3.37264 6.00002H28.6274C29.4536 6.00002 30.125 6.84158 30.125 7.87541L30.1251 9.79903C30.1251 10.0123 29.9869 10.1852 29.8167 10.1852C28.9962 10.1852 28.3293 11.0212 28.3293 12.0485C28.3293 13.0759 28.9962 13.9118 29.8167 13.9118C29.9869 13.9118 30.125 14.0848 30.125 14.298L30.1251 16.7028C30.1251 16.916 29.9869 17.089 29.8167 17.089C28.9962 17.089 28.3293 17.9249 28.3293 18.9515C28.3293 19.9789 28.9962 20.8148 29.8167 20.8148C29.9869 20.8148 30.125 20.9878 30.125 21.2009L30.1251 23.1246C30.1251 24.1592 29.4537 25 28.6275 25Z" fill="#091E3E"/>
<path fill-rule="evenodd" clip-rule="evenodd" d="M13.7552 16.216H8.21123C8.04092 16.216 7.90279 16.0431 7.90279 15.8299C7.90281 15.6167 8.04092 15.4437 8.21119 15.4437H13.7552C13.9255 15.4437 14.0636 15.6167 14.0636 15.8299C14.0636 16.0431 13.9254 16.216 13.7552 16.216ZM17.5369 16.216H16.1086C15.9384 16.216 15.8002 16.0431 15.8002 15.8299C15.8002 15.6167 15.9383 15.4437 16.1086 15.4437H17.2284V9.93341H4.73734V15.4437H5.85715C6.02808 15.4437 6.16551 15.6167 6.16551 15.8299C6.16557 16.0431 6.02803 16.216 5.85714 16.216H4.4289C4.25862 16.216 4.12049 16.0431 4.12049 15.8299V9.54723C4.12049 9.33402 4.25862 9.16107 4.42887 9.16107H17.5369C17.7072 9.16107 17.8452 9.33402 17.8452 9.54723L17.8453 15.8299C17.8453 16.0431 17.7071 16.216 17.5369 16.216Z" fill="#06A3DA"/>
<path fill-rule="evenodd" clip-rule="evenodd" d="M7.03422 14.7421C6.5555 14.7421 6.16616 15.2305 6.16616 15.8299C6.16622 16.4292 6.55548 16.9176 7.03416 16.9176C7.51286 16.9176 7.90279 16.4292 7.90279 15.8299C7.90281 15.2305 7.51281 14.7421 7.03422 14.7421ZM7.03422 17.69C6.21566 17.69 5.54874 16.8557 5.54874 15.8299C5.54874 14.8041 6.21562 13.9698 7.03416 13.9698C7.85337 13.9698 8.51959 14.8041 8.51959 15.8299C8.51964 16.8557 7.85333 17.69 7.03422 17.69Z" fill="#06A3DA"/>
<path fill-rule="evenodd" clip-rule="evenodd" d="M14.9316 14.7421C14.453 14.7421 14.0636 15.2305 14.0636 15.8299C14.0636 16.4292 14.4529 16.9176 14.9316 16.9176C15.4109 16.9176 15.8002 16.4292 15.8002 15.8299C15.8002 15.2305 15.4109 14.7421 14.9316 14.7421ZM14.9316 17.69C14.113 17.69 13.4468 16.8557 13.4468 15.8299C13.4468 14.8041 14.113 13.9698 14.9316 13.9698C15.7508 13.9698 16.417 14.8041 16.417 15.8299C16.417 16.8557 15.7507 17.69 14.9316 17.69Z" fill="#06A3DA"/>
<path fill-rule="evenodd" clip-rule="evenodd" d="M17.5369 12.6004H4.4289C4.25862 12.6004 4.12049 12.4275 4.12049 12.2143C4.12049 12.0003 4.25862 11.8281 4.42887 11.8281H17.5369C17.7072 11.8281 17.8452 12.0003 17.8452 12.2143C17.8453 12.4275 17.7071 12.6004 17.5369 12.6004Z" fill="#06A3DA"/>
<path fill-rule="evenodd" clip-rule="evenodd" d="M19.7824 25C19.6121 25 19.4739 24.827 19.4739 24.6138L19.474 6.38618C19.474 6.17298 19.6121 6 19.7824 6C19.9526 6 20.0907 6.17298 20.0907 6.38618V24.6138C20.0907 24.827 19.9526 25 19.7824 25Z" fill="#091E3E"/>
<path fill-rule="evenodd" clip-rule="evenodd" d="M26.0382 11.5819H21.7644C21.5942 11.5819 21.456 11.4089 21.456 11.1957C21.456 10.9817 21.5941 10.8096 21.7643 10.8096L26.0382 10.8095C26.2091 10.8095 26.3465 10.9817 26.3465 11.1957C26.3466 11.4089 26.2091 11.5819 26.0382 11.5819Z" fill="#091E3E"/>
<path fill-rule="evenodd" clip-rule="evenodd" d="M26.0382 14.4517H21.7644C21.5942 14.4517 21.456 14.2787 21.456 14.0655C21.456 13.8515 21.5941 13.6793 21.7643 13.6793H26.0382C26.2091 13.6793 26.3465 13.8515 26.3465 14.0655C26.3466 14.2787 26.2091 14.4517 26.0382 14.4517Z" fill="#091E3E"/>
<path fill-rule="evenodd" clip-rule="evenodd" d="M26.0382 17.3215H21.7644C21.5942 17.3215 21.456 17.1485 21.456 16.9353C21.456 16.7221 21.5941 16.5491 21.7643 16.5491H26.0382C26.2091 16.5491 26.3465 16.7221 26.3465 16.9353C26.3466 17.1485 26.2091 17.3215 26.0382 17.3215Z" fill="#091E3E"/>
<path fill-rule="evenodd" clip-rule="evenodd" d="M26.0382 20.1913H21.7644C21.5942 20.1913 21.456 20.0184 21.456 19.8052C21.456 19.5919 21.5941 19.419 21.7643 19.419H26.0382C26.2091 19.419 26.3465 19.5919 26.3465 19.8052C26.3466 20.0184 26.2091 20.1913 26.0382 20.1913Z" fill="#091E3E"/>
</svg>
