<svg width="32" height="32" viewBox="0 0 32 32" fill="none" xmlns="http://www.w3.org/2000/svg">
<g clip-path="url(#clip0_573_6)">
<path d="M31.9412 7.58815C31.831 7.17859 31.5623 6.82943 31.1947 6.61774C30.8268 6.40502 30.3894 6.34748 29.979 6.45762C29.5692 6.56801 29.22 6.83646 29.0083 7.2041L28.7417 7.66809C28.4884 7.52254 28.1647 7.6082 28.0166 7.86024L26.6621 10.169L26.1981 9.90234C26.0752 9.83126 25.9289 9.81199 25.792 9.84897C25.6547 9.8862 25.5381 9.97629 25.4675 10.0997C25.323 10.3546 25.411 10.6785 25.6649 10.8248L26.1289 11.0915L21.5963 18.9461L20.4765 21.9378L19.9432 22.9348C19.631 23.4779 19.6644 24.153 20.0286 24.6626L18.8288 26.1342L18.4929 25.2919C18.3414 24.9165 17.9907 24.6592 17.5874 24.6277C17.1838 24.5959 16.7971 24.7954 16.5891 25.1425L16.3972 25.4677L16.216 23.3347C16.1743 22.8301 15.7835 22.4244 15.281 22.3635C14.7782 22.3028 14.3022 22.6041 14.1416 23.0842L12.8298 27.0195C12.7382 27.2978 12.8882 27.5978 13.1657 27.6915C13.2178 27.7157 13.2738 27.7303 13.3311 27.7339C13.5602 27.7347 13.7643 27.5887 13.8377 27.3715L15.144 23.4362L15.3307 25.601C15.3693 26.0629 15.7012 26.4469 16.1527 26.5516C16.6042 26.6563 17.0713 26.4573 17.309 26.0597L17.5064 25.7343L17.8371 26.5716C17.9774 26.9244 18.2948 27.1762 18.6705 27.2322C19.0462 27.2882 19.4232 27.14 19.6607 26.8435L20.9032 25.2706C21.0407 25.3065 21.1823 25.3245 21.3245 25.3239C21.896 25.3284 22.4266 25.0274 22.7162 24.5345L23.2494 23.644L25.2811 21.1752L29.8616 13.2244L30.3256 13.4911C30.4492 13.5619 30.5393 13.6788 30.576 13.8165C30.613 13.9532 30.5937 14.099 30.5229 14.2217L28.39 17.9171C28.3095 18.0385 28.2822 18.1874 28.3144 18.3296C28.3467 18.4715 28.4355 18.5941 28.5605 18.6688C28.6834 18.7402 28.8297 18.7594 28.9667 18.7225C29.1039 18.6852 29.2205 18.5951 29.2911 18.4717L31.4241 14.7763C31.6368 14.4083 31.6943 13.9709 31.5839 13.5606C31.4735 13.1507 31.2051 12.8016 30.8375 12.5899L30.3735 12.3233L31.7066 10.0143C31.8521 9.76096 31.7665 9.43758 31.5147 9.28916L31.7813 8.82518C31.9998 8.45155 32.0576 8.00527 31.9412 7.58815ZM29.9308 7.73735C30.0014 7.61393 30.1186 7.52358 30.2563 7.48687C30.3933 7.45302 30.538 7.47203 30.6614 7.54024C30.7851 7.6108 30.8752 7.72797 30.9122 7.86545C30.946 8.0024 30.927 8.14717 30.8588 8.27059L30.5922 8.73457L29.6642 8.20133L29.9308 7.73735ZM22.6628 22.6257L22.3962 22.471L21.607 22.0123L22.3642 19.986L24.0438 20.9564L22.6628 22.6257ZM21.0631 24.1666C20.8379 24.0096 20.7686 23.7075 20.9032 23.468L21.1698 23.0043L22.0975 23.5375L21.8309 23.996C21.7562 24.1257 21.6307 24.2179 21.4846 24.2504C21.3385 24.2827 21.1857 24.2525 21.0631 24.1666ZM24.6518 20.0821L22.8068 19.0156L27.0727 11.6247L28.9177 12.6912L24.6518 20.0821ZM29.451 11.7687L27.606 10.7022L28.6725 8.85721L30.5175 9.92369L29.451 11.7687Z" fill="#06A3DA"/>
<path d="M8.41446 23.9L6.52702 25.7824L5.39648 24.6519C5.18844 24.4452 4.85256 24.4452 4.64453 24.6519C4.5435 24.7522 4.48674 24.8883 4.48674 25.0305C4.48674 25.1727 4.5435 25.3091 4.64453 25.4091L5.77506 26.5396C5.97503 26.738 6.24529 26.8492 6.52702 26.8489C6.8103 26.8505 7.08291 26.7393 7.28418 26.5396L9.16641 24.6519C9.34763 24.4402 9.33539 24.1249 9.13855 23.9281C8.94145 23.731 8.62614 23.7187 8.41446 23.9Z" fill="#06A3DA"/>
<path d="M2.13297 25.3343C2.13297 27.8378 4.16231 29.8669 6.66553 29.8669C9.16875 29.8669 11.1981 27.8378 11.1981 25.3343C11.1981 25.0399 10.9593 24.8011 10.6648 24.8011C10.3704 24.8011 10.1316 25.0399 10.1316 25.3343C10.1316 27.2486 8.57978 28.8004 6.66553 28.8004C4.75127 28.8004 3.19945 27.2486 3.19945 25.3343C3.19945 23.4201 4.75127 21.8683 6.66553 21.8683C7.41592 21.8662 8.14626 22.1096 8.74512 22.5616C8.98076 22.7384 9.31508 22.6905 9.49161 22.4549C9.6684 22.2193 9.62075 21.8852 9.38512 21.7084C8.01165 20.6784 6.17394 20.5128 4.63853 21.2803C3.10285 22.0482 2.13297 23.6177 2.13297 25.3343Z" fill="#06A3DA"/>
<path d="M19.1967 4.27127C19.4912 4.27127 19.73 4.03277 19.73 3.73803C19.73 3.44355 19.4912 3.20478 19.1967 3.20478H5.33242C5.03794 3.20478 4.79918 3.44355 4.79918 3.73803V5.871C4.79918 6.16574 5.03794 6.40424 5.33242 6.40424H19.1967C19.4912 6.40424 19.73 6.16574 19.73 5.871C19.73 5.57652 19.4912 5.33775 19.1967 5.33775H5.86566V4.27127H19.1967Z" fill="#091E3E"/>
<path d="M6.93215 7.47072C6.63767 7.47072 6.39891 7.70948 6.39891 8.00396C6.39891 8.29871 6.63767 8.53721 6.93215 8.53721H17.597C17.8915 8.53721 18.1302 8.29871 18.1302 8.00396C18.1302 7.70948 17.8915 7.47072 17.597 7.47072H6.93215Z" fill="#091E3E"/>
<path d="M20.7965 11.2034H9.06512C8.77064 11.2034 8.53188 11.4422 8.53188 11.7367C8.53188 12.0314 8.77064 12.2699 9.06512 12.2699H20.7965C21.0909 12.2699 21.3297 12.0314 21.3297 11.7367C21.3297 11.4422 21.0909 11.2034 20.7965 11.2034Z" fill="#091E3E"/>
<path d="M15.464 14.9361C15.464 14.6416 15.2253 14.4029 14.9308 14.4029H4.26594C3.97146 14.4029 3.7327 14.6416 3.7327 14.9361C3.7327 15.2309 3.97146 15.4694 4.26594 15.4694H14.9308C15.2253 15.4694 15.464 15.2309 15.464 14.9361Z" fill="#091E3E"/>
<path d="M20.7965 14.4029H17.0638C16.7693 14.4029 16.5305 14.6416 16.5305 14.9361C16.5305 15.2309 16.7693 15.4694 17.0638 15.4694H20.7965C21.0909 15.4694 21.3297 15.2309 21.3297 14.9361C21.3297 14.6416 21.0909 14.4029 20.7965 14.4029Z" fill="#091E3E"/>
<path d="M9.59836 18.1356C9.89285 18.1356 10.1316 17.8971 10.1316 17.6023C10.1316 17.3078 9.89285 17.0691 9.59836 17.0691H4.26594C3.97146 17.0691 3.7327 17.3078 3.7327 17.6023C3.7327 17.8971 3.97146 18.1356 4.26594 18.1356H9.59836Z" fill="#091E3E"/>
<path d="M11.7313 18.1356H15.464C15.7585 18.1356 15.9973 17.8971 15.9973 17.6023C15.9973 17.3078 15.7585 17.0691 15.464 17.0691H11.7313C11.4369 17.0691 11.1981 17.3078 11.1981 17.6023C11.1981 17.8971 11.4369 18.1356 11.7313 18.1356Z" fill="#091E3E"/>
<path d="M23.9959 24.5345C23.7014 24.5345 23.4627 24.7732 23.4627 25.0677V30.4002C23.4627 30.6949 23.2239 30.9334 22.9294 30.9334H1.59973C1.30525 30.9334 1.06649 30.6949 1.06649 30.4002V1.60506C1.06649 1.31058 1.30525 1.07181 1.59973 1.07181H22.9294C23.2239 1.07181 23.4627 1.31058 23.4627 1.60506V11.6195C23.4627 11.914 23.7014 12.1527 23.9959 12.1527C24.2904 12.1527 24.5292 11.914 24.5292 11.6195V1.60506C24.5292 0.721613 23.8129 0.00532913 22.9294 0.00532913H1.59973C0.716284 0.00532913 0 0.721613 0 1.60506V30.4002C0 31.2839 0.716284 31.9999 1.59973 31.9999H22.9294C23.8129 31.9999 24.5292 31.2839 24.5292 30.4002V25.0677C24.5292 24.7732 24.2904 24.5345 23.9959 24.5345Z" fill="#091E3E"/>
</g>
<defs>
<clipPath id="clip0_573_6">
<rect width="32" height="32" fill="white"/>
</clipPath>
</defs>
</svg>
