<?xml version="1.0" encoding="utf-8"?>
<!-- Generator: Adobe Illustrator 27.5.0, SVG Export Plug-In . SVG Version: 6.00 Build 0)  -->
<svg version="1.1" id="Layer_1" xmlns="http://www.w3.org/2000/svg" xmlns:xlink="http://www.w3.org/1999/xlink" x="0px" y="0px"
	 viewBox="0 0 2500 1666.3" style="enable-background:new 0 0 2500 1666.3;" xml:space="preserve">
<path style="fill:#FEFEFE;" d="M0,0h2500v1666.3H0V0z"/>
<path style="fill:#DD4E35;" d="M1547.1,176.4c5.8,2.9,3.5,9.4,7,13.2c2.8,3,12.2,6.6,16.1,8.6c-4.4,2.1-11.9,4.5-15.5,7.5
	c-1.2,1-4.1,10-5.5,12.2c-6.2,0.3-5.1-10.2-8.4-13.1c-1.6-1.4-6.2-2.5-8.4-3.6c-2.6-1.3-3.8-1.6-4.7-4.3c3.1-3,10.5-3.6,12.1-5.4
	C1543.3,187.3,1542.1,180.7,1547.1,176.4z"/>
<path style="fill:#344E91;" d="M2249.8,1482.5c7.3-2.2,18.4-0.8,26.1-0.8c3.6,0,8.9-0.6,12.3,0.4c2.4,0.7,4.1,3.3,5.4,5.3
	c-0.3,5.2-0.6,5.2-4.2,9c-3.7,1.7-8.6,1.2-12.7,1.2c-7.5,0.1-16.5,1-23.9,0c-3.6-0.5-4.8-3.2-6.7-5.9
	C2246.3,1486.4,2246.2,1486.3,2249.8,1482.5z"/>
<path style="fill:#075F7B;" d="M2127,1279.8c13,9.1,29.6,13.4,44.9,16.5c-8.3,4-16.8,7.8-26.1,8.7c-13.5,1.2-24-1.7-34.3-10.3
	L2127,1279.8z"/>
<path style="fill:#E26F6E;" d="M2251.6,974.7c3.4-0.5,3.4-0.8,6.5,1.2c1.6,2.3,2.1,3.9,2.2,6.8c0.1,2.3,0.2,3.7,1.1,5.8l7.3,0.2
	c3.6,0.7,4.2,2,6.1,4.9c-1.1,11.8-9.6,3.6-13.7,8.8c-2.1,2.7-0.3,8.7-3.9,12.6c-2.6,1-3.9,0.7-6.5,0c-3.2-4.1-2.5-6.5-2.5-11.6
	c-2.5-2.8-5.9-1.7-9.4-2.4c-3.5-0.7-4-1.7-5.8-4.4c1.7-11.8,9.4-3.1,14.2-7.9c1.6-1.6,0.8-8.7,1.6-11
	C2249.1,977,2250.9,975.4,2251.6,974.7z"/>
<path style="fill:#075F7B;" d="M2115.1,1238.2c3.1,9.5,1.8,22,6.6,30.7l5.3,10.9l-15.4,15l-15.1,14.8l-0.2-0.6
	c-0.9-3.9,0.2-6.9,2-10.4l3.1-0.3c2.6-2.7,2.8-3.7,3.7-7.4l-3.7-2.3c-0.7,0.4-1.6,0.5-2.4,0.7l1.4-9.9
	C2102.6,1264.8,2108.7,1251.2,2115.1,1238.2z"/>
<path style="fill:#057C8E;" d="M2101.5,1288.6c6.3-7.3,13-13.4,20.2-19.7l5.3,10.9l-15.4,15l-15.1,14.8l-0.2-0.6
	c-0.9-3.9,0.2-6.9,2-10.4l3.1-0.3c2.6-2.7,2.8-3.7,3.7-7.4L2101.5,1288.6z"/>
<path style="fill:#344E91;" d="M2199.8,355.8l4.2-0.5c5.5,3.7,5.6,7.7,6.9,13.9c3.2,1.2,6.8,1.3,10.2,1.8c3.4,2.6,3.6,2.6,4.4,6.8
	c-4.2,8.7-8.8,4.5-15.4,8.5c-0.6,4.7-1.2,8.3-4.1,12.2c-3.3,1-3.9,0.9-7.3,0c-3-4.8-0.9-9.4-3.3-13.6c-0.9-1.5-7.2-1.1-9.2-1.7
	c-3.4-1-4-2.5-5.5-5.4c1.1-7.9,2.9-7.2,9.8-7.9c0.4,0,3.4-0.4,3.6-0.6c1.1-1.2,1.2-8.4,2.2-10.4C2196.8,358,2199,356.5,2199.8,355.8
	z"/>
<path style="fill:#344E91;" d="M1988,320.2c8.7-1.7,18.1-3.8,27-2.5c7,6.6,6.1,15.9,6.4,25.2l-0.1,4.2l-15.6,3.3l-12.6,1.9
	C1988.6,349.5,1989.9,327.1,1988,320.2z"/>
<path style="fill:#344E91;" d="M1934.2,236c6.5-8,14-21.1,24.4-23.4c8.1,4,17.9,14.4,23.8,21.3l-23.4,24.3
	C1951.2,250.3,1943.2,242.7,1934.2,236z"/>
<path style="fill:#344E91;" d="M1750.4,247.7c-5.5-6.5-17.5-19.7-18.2-28c2.6-4.8,17.2-16,22.5-17.7c1.2,0.2,3.9,0.4,4.9,1
	c1.6,0.9,4.1,4.3,5.4,5.8l15.5,17.6C1769.8,232.5,1758.7,238.3,1750.4,247.7z"/>
<path style="fill:#075F7B;" d="M415.8,1070.4c21.1,30.2,35.3,71,28.7,108.1l-0.7,3.3c-3.8-1.8-6.8-5.8-9.8-8.8l-21.4-21.9
	L415.8,1070.4z"/>
<path style="fill:#075F7B;" d="M553.5,1165.8l60,12.3c8.6,1.7,27.1,2.8,33.8,7.8c-32.3,16.9-68.5,25-104.1,13.9
	c-7.6-2.4-15.4-5.5-22.2-9.5L553.5,1165.8z"/>
<path style="fill:#344E91;" d="M537.3,1480.7l4.4,0.7c4.4,0.9,5.4,2.4,7.7,5.9c-0.6,4.4-1.1,4.8-4.3,8c-4.9,2-11.7,1.2-17,1.2h-36.6
	l-154.3-0.1h-37.1c-5.7,0-13.1,0.8-18.7-0.2c-3.1-0.6-4.2-2.9-5.7-5.3c0-4.1,0-4.9,2.2-8.4c3.9-2.6,9.1-1.8,13.7-1.8l31,0.2
	l101.2,0.1c8.3,0.1,16.9,0.6,25.1-0.3l59.9,0.3C517.9,1481.1,528.2,1482,537.3,1480.7z"/>
<path style="fill:#076F85;" d="M366.5,1013.1c13.1,12.6,27.5,25.7,37.8,40.8c3.7,5.2,8.6,10.8,11.5,16.5l-3.2,80.7
	c-4.8-3.1-8.7-7.7-12.6-11.7l-28.3-28.5l-3.4-51.9C367.1,1044.5,364.1,1027.4,366.5,1013.1z"/>
<path style="fill:#0A9DA8;" d="M404.3,1053.9c3.7,5.2,8.6,10.8,11.5,16.5l-3.2,80.7c-4.8-3.1-8.7-7.7-12.6-11.7L404.3,1053.9z"/>
<path style="fill:#075F7B;" d="M597.9,1129.8c4.8-4.7,10-10.4,16.2-13.2l104.5,2.4c-3,4.1-6.1,9.4-9.6,12.9
	c-12.5,15.4-27.7,32.2-44.4,43.1c-5.6,3.9-11.1,8-17.2,11c-6.7-5-25.2-6.1-33.8-7.8l-60-12.3c4.5-4.6,10.2-8.5,15.2-12.6
	L597.9,1129.8z"/>
<path style="fill:#057C8E;" d="M553.5,1165.8c4.5-4.6,10.2-8.5,15.2-12.6c7.8,4.1,20.3,5.1,29.2,7l66.7,14.8
	c-5.6,3.9-11.1,8-17.2,11c-6.7-5-25.2-6.1-33.8-7.8L553.5,1165.8z"/>
<path style="fill:#0A9DA8;" d="M597.9,1129.8c4.8-4.7,10-10.4,16.2-13.2l104.5,2.4c-3,4.1-6.1,9.4-9.6,12.9
	c-10.4-1.5-22.1-0.6-32.6-0.8L597.9,1129.8z"/>
<path style="fill:#057C8E;" d="M326.3,893.6l54.7,31.6c13,7.8,26,17,39.9,23.2c2,6.5,4.3,13,5.2,19.7l16.5,50.7
	c-21.7,3.5-42.8-3.9-60.6-16.1c-31-21.4-46.4-55.9-52.9-92C327.1,906.4,327,898.5,326.3,893.6z"/>
<path style="fill:#13AFB9;" d="M326.3,893.6l54.7,31.6c13,7.8,26,17,39.9,23.2c2,6.5,4.3,13,5.2,19.7c-6.6-2-13.5-7.5-19.5-11.2
	l-58.7-36.3c-5.6-3.3-12.3-8.5-18.7-9.9C327.1,906.4,327,898.5,326.3,893.6z"/>
<path style="fill:#EB7A37;" d="M545.5,1323.2l4.6-0.2l57.7,0.5c-0.1,19.3-2.3,41.1,0.3,60.1c-1.5,30.6-16.4,56.1-38.6,76.3
	c-9.4,8.6-21,14.9-32.2,20.8c-9,1.3-19.4,0.4-28.6,0.4l-59.9-0.3c7.9-3.5,16.1-4.8,24.2-7.6c23.2-8.1,42-23.2,56-43.2
	c17.7-25.3,20.2-50.9,20.4-80.8c0.1-7.9,0.9-16.8-0.5-24.6L545.5,1323.2z"/>
<path style="fill:#2DD6D6;" d="M2237.7,1146.7c13.5-4.6,31.9-5.5,46.1-5.1l2.5,1.6l-1.5,7.8c-2,8.5-4.4,23.6-9.8,30.4l-0.3,1.9
	c-3.9,9.7-8.2,19.6-13.8,28.5l-3.3,4.8c-5.9,9.8-12.6,20-20.5,28.3c-8.2,9.8-18.5,22.1-29.3,28.8c-8.6,8.2-19.1,15.1-29.9,20l-6,2.5
	c-15.3-3.2-32-7.4-44.9-16.5l-5.3-10.9c-4.8-8.7-3.5-21.2-6.6-30.7l3.1-5.4c2.6-8.8,13.9-19.8,20.1-26.6l2.7-3.2
	c8.3-8.6,17.9-16.3,27.5-23.3l3.6-3.2c9.4-5.9,18.1-11.7,28.2-16.5l3.3-1.7l29.2-10.5L2237.7,1146.7z"/>
<path style="fill:#13AFB9;" d="M2275,1181.4c-11.7-1.7-25.6-0.2-37.6-0.6c7.5-4.6,15.5-8.9,22.7-13.9c8.3-5.8,14.8-12.9,24.7-15.9
	C2282.8,1159.4,2280.4,1174.6,2275,1181.4z"/>
<path style="fill:#057C8E;" d="M2237.7,1146.7c13.5-4.6,31.9-5.5,46.1-5.1c-3.3,3.5-8.5,5-12.6,7.6l-44.9,29.6L2237.7,1146.7z"/>
<path style="fill:#075F7B;" d="M2138.4,1206.2c3.1,13.5-0.2,32.7-0.8,46.8l-14.2,15.5l-5.1-35.7
	C2120.8,1224,2132.2,1213,2138.4,1206.2z"/>
<path style="fill:#076F85;" d="M2232.8,1147.8c1.3,6.9-9,28.3-13.3,35c-3.5,5.5-15.7,13.2-21.6,16.5l5.7-41L2232.8,1147.8z"/>
<path style="fill:#076F85;" d="M2141.1,1203c8.3-8.6,17.9-16.3,27.5-23.3c-0.8,8.9-3.4,17.5-4,26.4c-0.3,5.1,1.3,18.8-0.7,22.9
	c-0.6,1.3-4.6,4.1-5.8,5.2l-17.2,15.5C2141.3,1234.8,2143.5,1217.6,2141.1,1203z"/>
<path style="fill:#076F85;" d="M2172.1,1176.5c9.4-5.9,18.1-11.7,28.2-16.5l-4.4,31.8c-0.4,2.7-0.5,8.2-1.6,10.5
	c-0.6,1.3-5.3,4.4-6.6,5.5l-21.2,18.1L2172.1,1176.5z"/>
<path style="fill:#075F7B;" d="M2141,1264.6l16,4.7c4.1,0.9,8.8,1.2,12.7,2.5c3.8,1.3,9.4,0.5,13.5,0.6c1.9,0,2.9,1.2,4.7,1.3h20
	c-8.6,8.2-19.1,15.1-29.9,20c-17.7-3.2-33.6-8.6-50.1-15.5L2141,1264.6z"/>
<path style="fill:#13AFB9;" d="M2260.9,1211.8l-58.9-4.3l20.8-15.2c2.3-1.8,6-5.6,8.6-6.6c5.7-2.3,15.8-1.3,22-1.5l21.4-1
	C2270.8,1193,2266.5,1202.9,2260.9,1211.8z"/>
<path style="fill:#0A9DA8;" d="M2172.8,1235.2c5.2-8.9,17.7-17.8,25.5-24.6l59.4,6c-5.9,9.8-12.6,20-20.5,28.3
	c-3.3-0.3-4.7-0.8-7.5-1.7c-3.2-1-8.4,1-11.6,0c-3.8-1.2-7.7-1.4-11.6-2.4c-3.3-0.8-5.3,0.9-8.5-1.2c-1,0.1-2.7,0.3-3.7,0
	c-2.8-0.9-6.2-0.7-8.6-1.9c-1.9-0.9-3-0.2-4.8-0.7C2177.9,1236.2,2175.9,1235.6,2172.8,1235.2z"/>
<path style="fill:#088995;" d="M2172.8,1235.2c3.2,0.3,5.1,1,8,1.8c1.8,0.5,2.9-0.2,4.8,0.7c2.4,1.1,5.8,1,8.6,1.9
	c1,0.3,2.6,0.1,3.7,0c3.3,2.1,5.3,0.4,8.5,1.2c3.9,1,7.8,1.3,11.6,2.4c3.2,1,8.4-1,11.6,0c2.8,0.9,4.2,1.4,7.5,1.7
	c-8.2,9.8-18.5,22.1-29.3,28.8h-20c-1.8-0.1-2.8-1.2-4.7-1.3c-4.1-0.1-9.7,0.7-13.5-0.6c-3.9-1.3-8.6-1.6-12.7-2.5l-16-4.7
	c3.8-4.8,18.9-21.6,24.8-22.4l1.6-0.1C2168.4,1238.5,2169.8,1237.3,2172.8,1235.2z"/>
<path style="fill:#F2A341;" d="M344.2,1323.3h201.3l3.6,1.4c1.4,7.8,0.5,16.7,0.5,24.6c-0.2,29.9-2.7,55.5-20.4,80.8
	c-14,20-32.8,35.2-56,43.2c-8.1,2.8-16.4,4.1-24.2,7.6c-8.2,1-16.8,0.4-25.1,0.3c-5.9-3.6-12.7-5.9-18.9-9.1
	c-9.7-5.1-18.7-12.7-26.5-20.5c-17.9-17.8-30.2-41.5-33.4-66.7C342.5,1365.2,344.2,1343.2,344.2,1323.3z"/>
<path style="fill:#F2A341;" d="M468.5,1219l4.9,0.4l4.9-0.3l10.2,0.4l5.2-0.4l148.2-0.5l-0.2,78.7l-32.6-0.5l-0.3,57.6
	c0,9.4,1.1,20.2-0.7,29.3c-2.6-19-0.4-40.9-0.3-60.1l-57.7-0.5l-4.6,0.2H344.2v-26.9c-9.1,1-19.2,0.1-28.4,0l0.1-77l146.3-0.5
	L468.5,1219z"/>
<path style="fill:#D94A16;" d="M550.3,1296.3h57.8l-0.3,27.1l-57.7-0.5L550.3,1296.3z"/>
<path style="fill:#DD4E35;" d="M344.2,1296.3h206L550,1323l-4.6,0.2H344.1L344.2,1296.3z"/>
<path style="fill:#13AFB9;" d="M202.2,964.2l-0.3-0.2c-0.5-4.8-2.4-12.6-0.7-17l2.6,0.2c17.1,1.1,33.4,5.5,50,9.3l11.3,3.3l40,14.5
	l14.5,7.4l33.9,20.9l12.9,10.6c-2.5,14.3,0.5,31.3,1.8,45.8l3.4,51.9l28.3,28.5c3.9,4.1,7.8,8.7,12.6,11.7l21.5,22
	c3,3,6,6.9,9.8,8.8l-0.6,4.6l25.4,32.5h-6.2l-23.5-28l-2.7,0.2c-13.7,6.1-28.4,10.7-43.5,12.1c-37.7,3.7-67.2-5.8-95.9-29.7
	l-10.2-9.1c-11.6-11.9-21.1-24.3-30.3-38.1l-8.4-13l-18.3-36.8c-2.8-4.2-4.3-10.9-6-15.8l-11-35.4l-3-13.8L202.2,964.2z"/>
<path style="fill:#075F7B;" d="M203.8,947.1c17.1,1.1,33.4,5.5,50,9.3l3,40.5L204,949.4L203.8,947.1z"/>
<path style="fill:#075F7B;" d="M202.2,964.2c7.1,3.4,13.6,11.5,19.2,17l34.1,34.1l-45.8-3.7L202.2,964.2z"/>
<path style="fill:#076F85;" d="M265.2,959.8l40,14.5l2.6,74.1l-28.1-27.6c-1.8-1.8-7.1-5.9-8-7.9c-1.2-2.6-1.2-9.4-1.5-12.5
	L265.2,959.8z"/>
<path style="fill:#076F85;" d="M212.6,1025.3l41,3.7c4,0.3,12.7,0.1,16.3,1.9c2.4,1.2,6.2,5.9,8.3,7.9l27.5,28.2l-82-6.3
	L212.6,1025.3z"/>
<path style="fill:#076F85;" d="M353.6,1002.6l3.2,94.3l-35.2-35.3l-1.7-50.8c-0.4-7.8-3.1-22-0.2-29.1L353.6,1002.6z"/>
<path style="fill:#076F85;" d="M229.6,1076.6l92.1,4L352,1113l-104.1,0.5L229.6,1076.6z"/>
<path style="fill:#076F85;" d="M256.3,1126.3l77-0.2l26.8-0.9c1.2,0,5.5-0.6,6.2-0.2c2.1,1.2,5.3,5.3,7.2,7.1l21.2,21l-77.1,7.4
	c-9.9,1.1-21.4,1.2-30.9,3.9C275,1152.5,265.6,1140.1,256.3,1126.3z"/>
<path style="fill:#075F7B;" d="M394.7,1153c5.4,3.9,10.6,8.8,14.8,13.9l26.7,24.1c-13.7,6.1-28.4,10.7-43.5,12.1
	c-37.7,3.7-67.2-5.8-95.9-29.7l-10.2-9.1c9.5-2.8,21-2.9,30.9-3.9L394.7,1153z"/>
<path style="fill:#088995;" d="M394.7,1153c5.4,3.9,10.6,8.8,14.8,13.9l-75.2,4.3c-12.3,0.6-25.3,0.3-37.4,2.3l-10.2-9.1
	c9.5-2.8,21-2.9,30.9-3.9L394.7,1153z"/>
<path style="fill:#344E91;" d="M1917.2,1205.7c1.2,3.2,2.5,7.1,4.4,10l0.2,2.3c2.3,6.8,5.8,20.8,10.7,25.9c1,1.2,1.7,2.2,2.4,3.6
	c0.2,7.4,13.6,22.9,18.8,27.8c1.2,1.1,2,1.9,3.5,2.5l2.5,2.8c6.6,6.2,13,11.6,21.5,15.2c15.8,6.6,35.8,4.7,52.7,4.3l20.4-1.4
	c6,5,10.6,10.6,15.4,16.6l5,0.5l1.6-0.1h3.2l9.9,0.4l2.8-0.5c29,0.5,60.7-2.2,89.3,1.8l0.1,46.3c-8.1,0.1-16.6,0.7-24.6-0.1
	l-0.1,8.4v38.5c-0.1,23,0.1,42.9-17.4,60.4c-4.5,4.5-9.9,7.6-15.3,10.9h49.8c6,0,35.1-1.7,38.3,2c2.8,3.3,2.9,4.2,2.6,8.3
	c-2.1,3.1-2.7,4.1-6.6,5c-7,1.5-16.5,0.5-23.8,0.5l-51.5-0.1l-197.4-0.1l-757.3-0.6l-434.8-0.1l-118.6,0.1h-31.3
	c-4.8,0-11,0.7-15.7-0.1c-1.5-0.3-2.4-1-3.6-1.8c-2.2-3.6-2.5-4.3-2.6-8.5c2-2,3-3.6,5.8-4.2c7.8-1.7,18.6-0.3,26.9-0.3h68.2
	c5.5,0,14.4,1.3,19.4-0.6l1.4-0.6l-0.7-3.2c-1.8-3.3-0.8-11.1,0-14.7c1.7-7.7,5.2-22.4,12.2-26.7c6-7.5,10.3-27.3,11.6-37.1l67,9
	c-4,2.7-5.5,6.9-7.6,11c0.1,3.7-0.1,7.2-0.6,10.9c6.6,3.9,13.3,8,20.4,11l27.7,10.6c7.6,2.6,20.6,5.1,25.9,11.5
	c3.2,5.2,5.6,9.3,6.5,15.4l-0.1,1.4l1.5,1.5c11.6,1.3,24.1,0.3,35.8,0.2l66.9-0.3l1-4.2c-0.9-14.9,2.6-27.3,10.2-40.1
	c0.7-2,1-3.6,1.2-5.8c0.5-7.4,2-23.6-2.8-29.2l46.9,1.5c5.3,0.1,14.6-0.9,19.3,1.4l6.2-1.3c2.2-3.7,1.8-10.5,2.1-14.8l1.9-16.8
	c80.7,33.7,166.3,54,253.5,61.1c12.9,1,25.9,0,38.7,0.8c3.1-1.8,6.5-3.5,10.1-4c7.6-1,16.1-0.3,23.7-0.4h45.3l152.2,0.2h112.2
	l30.2-0.1c6.3,0,12.8-0.6,18.8,1.4c3.6-1,8-0.8,11.8-1.1c-4.1-10-6.5-20.5-9.3-30.9l-24.8-79.3c4.6-3.2,123.7-1.3,137.2-1.3
	c13.2,0.1,32.3,2.9,43.6-4.9c4.4-3.1,7.8-7.7,9.8-12.6c3.9-9.5,5-21.8,6.9-31.9L1917.2,1205.7z"/>
<path style="fill:#05104D;" d="M692.9,1477.3c0.7-0.5,2.2-1.8,2.9-2c3.9-1.1,12.7,0.2,17.1,0.3l63.7,1.2l50.8,0.3
	c9.3,0,19.4-0.5,28.6,1.1l-0.1,1.4l-0.8,4.2c-34.6,2.6-70.7,0.6-105.5,0.6h-33.2c-5.1,0-11.1,0.7-16.1-0.2c-2.5-0.4-4.9-2.2-6.9-3.7
	L692.9,1477.3z"/>
<path style="fill:#05104D;" d="M961.7,1476.9c10.1-3.1,24.1-1.5,34.9-1.6l130.5,1.7l-0.9,4.9c-6.2,2.9-152.7,3.1-163.6,0.6
	L961.7,1476.9z"/>
<path style="fill:#172969;" d="M716.7,1398.7l67,9c-4,2.7-5.5,6.9-7.6,11c0.1,3.7-0.1,7.2-0.6,10.9c6.6,3.9,13.3,8,20.4,11
	l27.7,10.6c7.6,2.6,20.6,5.1,25.9,11.5c3.2,5.2,5.6,9.3,6.5,15.4c-9.2-1.7-19.2-1.1-28.6-1.1l-50.8-0.3l-63.7-1.2
	c-4.5-0.1-13.3-1.4-17.1-0.3c-0.8,0.2-2.2,1.5-2.9,2c-1.8-3.3-0.8-11.1,0-14.7c1.7-7.7,5.2-22.4,12.2-26.7
	C711.1,1428.4,715.4,1408.6,716.7,1398.7z"/>
<path style="fill:#344E91;" d="M775.4,1429.7c6.6,3.9,13.3,8,20.4,11l27.7,10.6c7.6,2.6,20.6,5.1,25.9,11.5
	c-30.8,7.7-62.7-2.5-91.5-13.2C764,1443.6,770.8,1437,775.4,1429.7z"/>
<path style="fill:#EB766C;" d="M716.7,1398.7l67,9c-4,2.7-5.5,6.9-7.6,11c0.1,3.7-0.1,7.2-0.6,10.9c-4.6,7.3-11.4,13.8-17.5,19.9
	l-22.6-6.2l-30.2-7.5C711.1,1428.4,715.4,1408.6,716.7,1398.7z"/>
<path style="fill:#F49A79;" d="M735.3,1443.4c1.8-13,5.9-23.8,14.6-33.9c10.9,1.7,16.4,4.3,26.1,9.3c0.1,3.7-0.1,7.2-0.6,10.9
	c-4.6,7.3-11.4,13.8-17.5,19.9L735.3,1443.4z"/>
<path style="fill:#172969;" d="M969.5,1401.8l46.9,1.5c5.3,0.1,14.6-0.9,19.3,1.4l1.3,9.3c1.2,5.3,2.1,10.7,4.6,15.5l29.3,13.1
	l28.6,10.4c7.8,2.5,16,4.1,22.4,9.4c2.7,4.9,4.3,9.1,5.3,14.6l-130.5-1.7c-10.8,0.1-24.8-1.5-34.9,1.6l-0.7-0.1
	c-0.9-14.9,2.6-27.3,10.2-40.1c0.7-2,1-3.6,1.2-5.8C972.9,1423.6,974.4,1407.4,969.5,1401.8z"/>
<path style="fill:#344E91;" d="M1041.6,1429.5l29.3,13.1l28.6,10.4c7.8,2.5,16,4.1,22.4,9.4c-12.7,2-40.3,4.7-51-2.5
	c0.6-2.7,0.8-5.1,0.7-7.9c-2.8,0.8-4.4,5.4-6.5,7.8l-8.8-3c0.3-1.3,0.6-2.5,1-3.8l0.4-1.1l-4.3,1c-0.9,1.6-1.5,2.3-3.1,3.3
	l-24.9-8.2C1031.5,1442.5,1037.5,1436.5,1041.6,1429.5z"/>
<path style="fill:#EB766C;" d="M969.5,1401.8l46.9,1.5c5.3,0.1,14.6-0.9,19.3,1.4l1.3,9.3c1.2,5.3,2.1,10.7,4.6,15.5
	c-4.1,7.1-10.1,13-16,18.6l-16.1-3.3l-38.3-8c0.7-2,1-3.6,1.2-5.8C972.9,1423.6,974.4,1407.4,969.5,1401.8z"/>
<path style="fill:#F49A79;" d="M1037,1413.9c1.2,5.3,2.1,10.7,4.6,15.5c-4.1,7.1-10.1,13-16,18.6l-16.1-3.3l0.5-27.2
	c6.9-1,20.1,0.1,25.7-2.8L1037,1413.9z"/>
<path style="fill:#FEFEFE;" d="M1045.9,1371.7c80.7,33.7,166.3,54,253.5,61.1c12.9,1,25.9,0,38.7,0.8c-6.7,7.4-10.7,13.8-10.3,24.2
	c0.4,8.1,3.8,15,9.8,20.3l4.2,3.5l-215.5,0.2l0.9-4.9c-1-5.5-2.6-9.6-5.3-14.6c-6.4-5.3-14.7-6.9-22.4-9.4l-28.6-10.4l-29.3-13.1
	c-2.4-4.9-3.4-10.3-4.6-15.5l-1.3-9.3l6.2-1.3c2.2-3.7,1.8-10.5,2.1-14.8L1045.9,1371.7z"/>
<path style="fill:#5372BF;" d="M1569.4,1429.5h112.2l30.2-0.1c6.3,0,12.8-0.6,18.8,1.4c6.4,7.4,10.6,14.1,10,24.3
	c-0.7,11.6-5.8,17.9-14.2,25.6c-11.1,3.3-27.3,1-39.2,1l-88.6-0.1h-256.9l-4.2-3.5c-6-5.4-9.4-12.2-9.8-20.3
	c-0.5-10.4,3.6-16.8,10.3-24.2c3.1-1.8,6.5-3.5,10.1-4c7.6-1,16.1-0.3,23.7-0.4h45.3L1569.4,1429.5z"/>
<path style="fill:#E3EDF9;" d="M1917.2,1205.7c1.2,3.2,2.5,7.1,4.4,10l0.2,2.3c2.3,6.8,5.8,20.8,10.7,25.9c1,1.2,1.7,2.2,2.4,3.6
	c0.2,7.4,13.6,22.9,18.8,27.8c1.2,1.1,2,1.9,3.5,2.5l2.5,2.8c6.6,6.2,13,11.6,21.5,15.2c15.8,6.6,35.8,4.7,52.7,4.3l20.4-1.4
	c6,5,10.6,10.6,15.4,16.6l5,0.5l1.6-0.1h3.2l9.9,0.4l2.8-0.5c29,0.5,60.7-2.2,89.3,1.8l0.1,46.3c-8.1,0.1-16.6,0.7-24.6-0.1
	l-0.1,8.4v38.5c-0.1,23,0.1,42.9-17.4,60.4c-4.5,4.5-9.9,7.6-15.3,10.9h-73.4c-6.5,0.9-13.9,0.2-20.5,0.1l-198.5-0.4
	c-8.5,1.1-18,0.6-26.6,0.7h-50.3c-7.3,0-22,1.6-28.3-1.4c8.3-7.7,13.4-14,14.2-25.6c0.6-10.2-3.5-16.9-10-24.3c3.6-1,8-0.8,11.8-1.1
	c-4.1-10-6.5-20.5-9.3-30.9l-24.8-79.3c4.6-3.2,123.7-1.3,137.2-1.3c13.2,0.1,32.3,2.9,43.6-4.9c4.4-3.1,7.8-7.7,9.8-12.6
	c3.9-9.5,5-21.8,6.9-31.9L1917.2,1205.7z"/>
<path style="fill:#172969;" d="M1742.4,1429.8l54.9-0.4c10.1,0,23.7-1.8,33.1,2.2c7,3,12.3,7.7,15.2,14.9c2.9,7.2,2.6,14.5-0.6,21.7
	c-2.4,5.4-8.4,10.4-13.4,13.4c-8.5,1.1-18,0.6-26.6,0.7h-50.3c-7.3,0-22,1.6-28.3-1.4c8.3-7.7,13.4-14,14.2-25.6
	c0.6-10.2-3.5-16.9-10-24.3C1734.3,1429.8,1738.6,1430,1742.4,1429.8z"/>
<path style="fill:#F2A341;" d="M2069.6,1315.4l5,0.5l1.6-0.1h3.2l9.9,0.4l2.8-0.5c29,0.5,60.7-2.2,89.3,1.8l0.1,46.3
	c-8.1,0.1-16.6,0.7-24.6-0.1l-0.1,8.4v38.5c-0.1,23,0.1,42.9-17.4,60.4c-4.5,4.5-9.9,7.6-15.3,10.9h-73.4
	c-6.5,0.9-13.9,0.2-20.5,0.1c-7.8-4-15.9-8.1-22.3-14.2c-17.4-16.8-17.4-35.8-17.7-58.2l-0.3-36.2c-0.1-3.8,0.8-7-2-9.7l-14,0.4
	l0.3-48.8L2069.6,1315.4z"/>
<path style="fill:#D94A16;" d="M1990.6,1373.4c-0.1-3.6-0.5-7.1,0.9-10.5c15.2-1.6,31.9-0.2,47.3-0.1l95,0.6
	c7.5,0,15.8-0.6,23.2,0.3l-0.1,8.4l-1.3,2.2c-4.6,3.3-17.1,1.6-22.9,1.5l-110.6-0.4h-22c-1.6,0-5.9,0.5-7.3,0
	C1991.9,1374.9,1991.4,1374,1990.6,1373.4z"/>
<path style="fill:#DD4E35;" d="M2133.8,1363.4c7.5,0,15.8-0.6,23.2,0.3l-0.1,8.4l-1.3,2.2c-7,0.5-13.6,0.8-20.6,0.3
	C2132.7,1371.4,2133.7,1367.2,2133.8,1363.4z"/>
<path style="fill:#EB7A37;" d="M2155.6,1374.3l1.3-2.2v38.5c-0.1,23,0.1,42.9-17.4,60.4c-4.5,4.5-9.9,7.6-15.3,10.9h-73.4
	c3.7-2.2,8-2.5,12.1-3.5c14-3.6,25.6-9.4,36.3-19.4c24.2-22.9,32.8-50.5,33.7-83.1C2138.6,1375.8,2151,1377.6,2155.6,1374.3z"/>
<path style="fill:#E3EDF9;" d="M1840.6,175.7c0.1-2.5,0.5-3.6,1.8-5.7c6.5-3,21.6-1,28.8,0.7c4,1.3,4,1.5,6.3,5
	c0.1,11.2-1.6,22.5-3.3,33.5c22.8,5.6,41.1,12.5,60.1,26.8c9,6.7,17,14.3,24.8,22.2c13.7,20.1,22.2,38.7,29,62
	c1.9,6.8,0.6,29.3,5.1,32.1l12.6-1.9l0.9,0.5c7.8,4.6,16.5,7.3,24.6,11.3c19.6,9.9,38.4,20.4,57,32.2
	c66.7,42.4,122.5,102.3,157.8,173.1c6.5,13,14.4,28.2,17.9,42.4l0.4,1.5c5.9,22.6,12.2,44.4,15.6,67.6
	c13.2,90.7-8.9,180.6-52.2,260.4c-9.7,18-21.4,34.8-33,51.6c-8.8,12.8-18.4,27.1-29.4,38l5.4,24.6l0.5,3.8
	c0.7,7.6,2.5,16.3,1.5,23.8l0.4,2.4l-1.8,36.7l-0.9,2.6l-6.7,28.8l-1.3,2.2c-4.4,9.5-9.5,17.9-16.5,25.8l-3.4,2.6
	c-8.8,7.8-17.8,12.9-29.6,14.6l-2.8,0.3l-10.8,73.9l1.3,8l-1.4,9.9c0.7-0.2,1.7-0.3,2.4-0.7l3.7,2.3c-0.9,3.7-1.1,4.7-3.7,7.4
	l-3.1,0.3c-1.9,3.4-2.9,6.4-2,10.4l0.2,0.6l-4.3,6.1l-2.8,0.5l-9.9-0.4h-3.2l-1.6,0.1l-5-0.5c-4.8-6-9.4-11.6-15.4-16.6l-20.4,1.4
	c-16.9,0.5-36.9,2.4-52.7-4.3c-8.4-3.5-14.9-9-21.5-15.2l-2.5-2.8c-1.6-0.6-2.4-1.4-3.5-2.5c-5.1-4.9-18.6-20.5-18.8-27.8
	c-0.7-1.4-1.4-2.4-2.4-3.6c-4.9-5.1-8.3-19.1-10.7-25.9l-0.2-2.3c-1.9-2.9-3.2-6.8-4.4-10l-11.4,63.1c-1.9,10.2-3,22.4-6.9,31.9
	c-2.1,5-5.4,9.6-9.8,12.6c-11.2,7.8-30.3,5.1-43.6,4.9c-13.5-0.1-132.6-2-137.2,1.3l24.8,79.3c2.8,10.4,5.2,20.9,9.3,30.9
	c-3.8,0.2-8.1,0.1-11.8,1.1c-6-2-12.5-1.4-18.8-1.4l-30.2,0.1h-112.2l-152.2-0.2h-45.3c-7.6,0-16.1-0.7-23.7,0.4
	c-3.6,0.5-7,2.2-10.1,4c-12.9-0.9-25.8,0.2-38.7-0.8c-87.2-7.1-172.7-27.4-253.5-61.1l-1.9,16.8c-0.3,4.3,0.1,11.1-2.1,14.8
	l-6.2,1.3c-4.7-2.3-14-1.2-19.3-1.4l-46.9-1.5c4.9,5.6,3.3,21.8,2.8,29.2c-0.1,2.1-0.5,3.8-1.2,5.8c-7.6,12.8-11.1,25.1-10.2,40.1
	l-1,4.2l-66.9,0.3c-11.7,0-24.2,1-35.8-0.2l-1.5-1.5l0.1-1.4c-0.9-6-3.3-10.2-6.5-15.4c-5.3-6.4-18.2-8.9-25.9-11.5l-27.7-10.6
	c-7.1-3.1-13.8-7.2-20.4-11c0.5-3.7,0.8-7.2,0.6-10.9c2.1-4.2,3.7-8.4,7.6-11l-67-9c-1.7-0.6-3.2-1.5-4.7-2.4
	c-0.1-6.6,1.8-13.6,3.1-20.1l6.6-35.2l31.1-155.7l7-32.7c1.1-4.8,3.3-9.5,3.6-14.5c0.5-7.7-1.5-16.3-2.3-23.9l-7-63.3l-8.2,20.6
	c-2,4.5-3.8,9.5-6.3,13.6l-20.9,33.7l-104.5-2.4c-6.1,2.8-11.4,8.5-16.2,13.2l-29.2,23.4c-5,4.1-10.7,8-15.2,12.6l-32.7,24.7
	c-10.9,8.3-18.9,18-27.2,28.7l-5.2,0.4l-10.2-0.4l-4.9,0.3c0.9-68.6-3.8-135.6-24.4-201.6l-6.6,1L426,968.1
	c-0.9-6.7-3.3-13.3-5.2-19.7c-13.9-6.1-26.9-15.3-39.9-23.2l-54.7-31.6c-2.9-16.6-2.7-35.5-1.5-52.3l-0.3-7.6
	c-12.7-7.2-24.6-17-35-27.1c-48.6-47.3-76-107-76.9-175.4c-0.7-56.3,18.9-111.6,58.6-152.2c24-24.6,54.4-42.9,87.8-51.4
	c20.6-5.2,42.2-6.8,63.4-8.5c17.6-1.4,35-3.2,52.6-3.4l1.8-0.4c2.8-0.8,5.7-0.1,8.5-0.8c20.9-5.4,42.4-11.6,62.3-20.2
	c73.9-31.7,117.7-102.6,183-146.5C768.8,222,810,203.3,855.3,194c41.3-8.4,87.8-7.9,129.5-2.3c35.8,4.8,71,13.1,106.4,20
	c9.5-10.8,18.6-24.4,29.9-33.2c8.3-1.1,17-0.6,25.4-0.6l45.6-0.1h58.9c10.5,0,21.6-0.6,32,0.4c3,0.3,5,1.1,7.5,2.8
	c4.8,3.8,8.2,7.4,8.9,13.8l0.1,37.5c43.8,16.3,87.8,32.4,134.5,38.1c53.8,6.6,107.6-3,161.3-6.6c46.6-3.1,93.1-1.3,139.5,3.5
	l15.5-19.7c8.4-9.4,19.4-15.2,30.2-21.4c18.9-11.5,37.1-16.1,59-18.1c0-10.2-0.8-21.6,0.9-31.7L1840.6,175.7z"/>
<path style="fill:#0A9DA8;" d="M647,864.8c5.1-2.6,9.9-4.6,15.4-6.3l-3.6,14.2l-2.6,1.2c-4.9,1.7-9,0.1-13.3-2.1
	C645.2,869.5,646.3,868.1,647,864.8z"/>
<path style="fill:#075F7B;" d="M647,864.8c-0.7,3.3-1.8,4.7-4.2,7.1c-10.3,11.3-18.9,26.3-31.3,35c-0.7-1.1-1.1-2-1-3.3
	c0.3-6.3,0.3-10.8-1.3-16.9C621.5,878.7,633.5,870.4,647,864.8z"/>
<path style="fill:#075F7B;" d="M539.9,1007l32.8,0.5c-15.4,13.1-28.9,21.6-49.7,20.6C526.9,1020.5,534.6,1013.8,539.9,1007z"/>
<path style="fill:#A2CDF6;" d="M1150.2,941.7c5.1,3.6,5.3,10.3,9.7,14.9c3.8,0.8,6.6,1,9.3,4c-1.1,5.7-8.4,3.9-12,6.9
	c-1.5,1.2-2.9,9.5-5.6,12.4c-6.5-1.8-4.9-9.9-8.8-13.1c-2-1.6-8.1-1.1-10.1-2.8c-0.7-0.6-0.9-1.5-1.4-2.2c1.6-5.4,7.7-2.6,11.3-6.5
	C1146.7,951.2,1145.8,945.8,1150.2,941.7z"/>
<path style="fill:#344E91;" d="M384.9,566.9c-5.5-0.2-17.1,0.2-21.1-3.4c-3-2.6-4.5-5.9-4.5-9.9c0-5.5,2.2-8.6,6-12.2
	c7.9-2.5,17-1.1,25.2-0.7l-1.3,24.5L384.9,566.9z"/>
<path style="fill:#075F7B;" d="M2039.6,1150.5c5.9,11.2,18.1,30.8,14.1,43.5l-1.9,5c23.2,36.2,29.5,74.2,27.6,116.7h-3.2
	c4-29.6-1.7-64.6-13.9-91.8c-3.3-7.4-9.9-15.4-12.1-22.7l-0.4-1.4c-1.7-3.9-4.3-7.9-5.6-11.9l-3.4-8.9c-1.1-3.9-3.9-6.2-5.5-10
	c0.6-1.5,1-2.8,1.9-4.2c1.3-2.2,0-4.3,0.6-6.5C2038.8,1155.4,2039.4,1153.9,2039.6,1150.5z"/>
<path style="fill:#344E91;" d="M409,492.9c-6.9-4.5-17.7-9.9-22-16.9c-0.2-2.2-0.5-4.6,0.3-6.7c1.9-5.2,7-10.3,12-12.4
	c8.9,0.4,17.9,12.8,24,19.1L409,492.9z"/>
<path style="fill:#344E91;" d="M424.5,633.9c-6.9,5.5-15.3,14.6-24.1,15.5c-2.1-0.9-3.9-1.9-5.4-3.6c-4.2-4.7-7.8-9.7-7.4-16
	c2.8-6.5,13.4-12.6,18.9-17.4C411.7,620.2,417.7,627.3,424.5,633.9z"/>
<path style="fill:#344E91;" d="M476.7,415.4c4.9,0.4,10.2,0.3,13.9,3.9c3.8,6.5,2.9,17.7,4.5,25.3l-1.8,2.8l-21.8,3.2
	c-1.7-6.3-6.1-19.1-5-25.2c0.9-5,4.4-7.1,8.3-9.6L476.7,415.4z"/>
<path style="fill:#344E91;" d="M546.8,460.2c3.8-7.1,8.1-18.7,16-21.9c6.9,0.2,12.7,4.5,17,9.6c1.1,1.3,1.9,2.7,2.5,4.3
	c-1.3,8.2-9.6,17.1-14.7,23.7C561.8,471.4,550.4,466,546.8,460.2z"/>
<path style="fill:#4EE1ED;" d="M2101.6,1197.8l8.3-0.3l-10.8,73.9l1.3,8l-1.4,9.9c0.7-0.2,1.7-0.3,2.4-0.7l3.7,2.3
	c-0.9,3.7-1.1,4.7-3.7,7.4l-3.1,0.3c-1.9,3.4-2.9,6.4-2,10.4l0.2,0.6l-4.3,6.1l-2.8,0.5l3.8-45.9l4.1-39.1l4.1-24.6
	c0.2-1.1,1.2-5,0.9-5.9c-0.3-1-1.1-1.7-1.6-2.6L2101.6,1197.8z"/>
<path style="fill:#344E91;" d="M595.8,513.4c8.8-3.7,19.8-12.2,29.1-8.7c4.1,5,6.4,13.2,7.1,19.5c-5,8.4-20,11.4-29.2,14.5
	C601.6,530.2,598.5,521.6,595.8,513.4z"/>
<path style="fill:#7DB0EF;" d="M2036,950.3c3.7-0.8,7.6-1,11.2,0.4c3.9,1.6,7.4,4.7,8.9,8.7c1.6,4.1,1.6,10.2-0.4,14.2
	c-2.4,5-6.7,6.9-11.7,8.4c-2.8,0.6-6-0.1-8.8-0.9c-4.6-1.3-7.5-4.5-9.6-8.7c-1.9-3.7-2-8.2-0.5-12.1
	C2027,955.1,2031.1,952.3,2036,950.3z"/>
<path style="fill:#B8D6F7;" d="M752.3,321.6c2.3-0.3,4.8-0.8,7.1-0.3c4.2,0.9,8.1,4.1,10.3,7.7c2.7,4.4,3.2,9.4,1.6,14.3
	c-1.9,5.7-5.1,7.9-10.1,10.5c-3.3,0.7-7,0.7-10.3,0c-3.5-0.7-7.2-4.4-9-7.4c-2.3-3.8-3.1-8.7-1.7-12.9
	C742.2,327.4,746.7,324.2,752.3,321.6z"/>
<path style="fill:#5372BF;" d="M1364.1,747.7l3.1,0.6c3.7,3.4,4.3,6.9,6,11.6c1.3,1.1,2.2,1.6,3.9,2.1c2.2,0.6,4.1,1,6,2.4
	c2.7,2.1,3,2.5,3.5,5.8c-3.7,5.7-9.7,3.7-13.8,7.3c-2.8,2.5-1.2,9.5-6.2,12.9l-3.1-0.6c-4.5-3.3-4-10.4-7.9-12.7
	c-5.3-3.1-9-1.2-12.8-7.6c1.8-5.8,5-6.4,10.5-7.8c0.3-0.1,2.8-0.5,2.9-0.7C1360,757.3,1358.6,751.8,1364.1,747.7z"/>
<path style="fill:#344E91;" d="M599.4,585.3c8.2,2.4,23.2,4.5,28.6,11c1.6,6.1-2.6,15.8-5.7,21.2c-0.9,1.6-2.4,2.7-3.9,3.7
	c-8.5,0.7-21.4-9.6-28.6-14C593.7,603.5,597.4,590.7,599.4,585.3z"/>
<path style="fill:#344E91;" d="M535.5,656.5l27-16.7c3.8,7.2,13.1,20.5,11.4,28.5c-5.1,5.4-14.2,10.3-21.3,12.5
	C545.5,673.7,540.7,665,535.5,656.5z"/>
<path style="fill:#E26F6E;" d="M251.7,636.6l2.9-1c11.3,2.7,3,10.9,7.3,15.8c1.4,1.6,11.2,0.3,14.9,4.3c0.5,3.5,0.7,3.7-1.1,6.9
	c-3.4,2.8-6.4,2.1-10.6,2.5c-5.9,0.5-2.5,7.4-4.1,11.1c-0.5,1.1-2.1,2.7-2.9,3.6h-4.9c-4.5-3.3-4.2-4.5-4.7-10
	c0-0.6-0.1-3.5-0.3-3.8c-1.8-2.8-11.2-0.6-14.9-4.5c-0.8-3.8-0.8-3.8,1.1-7.2c3.9-3,6.5-1.9,10.8-2.6c4.6-0.7,2.4-8.3,3.7-11.6
	C249.5,639.1,250.9,637.6,251.7,636.6z"/>
<path style="fill:#344E91;" d="M465.6,658.6l26.3,4.8l1.4,3c-1.2,8-3.6,21.8-9,27.8c-3.3,1.3-5.3,0.9-8.7,0.1
	c-5-1.3-13.7-2.9-16.3-7.7C456.9,681.9,463.8,664.1,465.6,658.6z"/>
<path style="fill:#075F7B;" d="M527.7,969.8c4.6,8.5,6.8,21.8,7.2,31.5l-0.6,1.1c1.8,2.1,3,3.4,5.6,4.6c-5.3,6.8-13,13.4-16.9,21
	l-6.4-1.3l-2.6-1.4c-0.2-3.7-1.9-7.2-2.6-10.8C508.3,1000.5,520.4,981.4,527.7,969.8z"/>
<path style="fill:#057C8E;" d="M534.4,1002.5c1.8,2.1,3,3.4,5.6,4.6c-5.3,6.8-13,13.4-16.9,21l-6.4-1.3
	C521.7,1018,527.5,1010,534.4,1002.5z"/>
<path style="fill:#B8D6F7;" d="M577.7,744c2.6-0.3,5.4-0.4,8,0.2c4.2,1.1,8.2,4.1,10.4,7.8c2.4,3.9,2.9,9.8,1.6,14.2
	c-1.9,6.1-6.9,9.8-12.4,12.3c-3.6,0.1-7.1,0.3-10.5-1c-4.4-1.7-8-5.3-9.7-9.7c-1.7-4.4-1.3-9.5,0.7-13.7
	C568.3,748.6,572,746,577.7,744z"/>
<path style="fill:#075F7B;" d="M596.8,896.2l12.5-9.6c1.6,6.2,1.6,10.6,1.3,16.9c-0.1,1.3,0.3,2.2,1,3.3l-1.4,6.6
	c-2.8,3.5-6.6,7.2-8.1,11.5c2.4,0.2,4.9,0.3,7.2,0.9c-4.6,0.4-9,0.8-13.6,0.6l-8.6,11c-1.6,1.9-3.4,3.5-4.1,5.9l-0.7,0.5
	c-2.5-3.8-2-12-2.8-16.6c-0.8-4.6-2.3-9.1-3.7-13.5L596.8,896.2z"/>
<path style="fill:#057C8E;" d="M596.8,896.2l12.5-9.6c1.6,6.2,1.6,10.6,1.3,16.9c-0.1,1.3,0.3,2.2,1,3.3l-1.4,6.6
	c-2.8,3.5-6.6,7.2-8.1,11.5c2.4,0.2,4.9,0.3,7.2,0.9c-4.6,0.4-9,0.8-13.6,0.6C597.6,917,596.9,905.9,596.8,896.2z"/>
<path style="fill:#344E91;" d="M1734.4,424.4c-7.2,4.2-17.7,10.4-25.9,11.7c-1.4,0.2-3.1-0.9-4.2-1.8c-4.6-3.8-10.3-17.1-11.1-22.9
	c4.1-7.7,18.2-12.5,26.1-16.5c2.8,5.9,5.5,11.9,8.7,17.6C1730.1,416,1733.6,420.6,1734.4,424.4z"/>
<path style="fill:#076F85;" d="M555.2,982.8c14-1.5,28.8-1.3,42.8,0.6L586.6,995c-4.3,4.1-8.8,9.3-13.7,12.6l-32.8-0.5
	c-2.5-1.2-3.8-2.5-5.6-4.6l0.6-1.1l3.6-3.4c3.6-2.8,4.7-2.3,9-1.7l0.1-0.4l-1.2-1.6C548.7,990.2,552.3,986.4,555.2,982.8z"/>
<path style="fill:#13AFB9;" d="M547.5,996.2l39-1.2c-4.3,4.1-8.8,9.3-13.7,12.6l-32.8-0.5c-2.5-1.2-3.8-2.5-5.6-4.6l0.6-1.1l3.6-3.4
	C542.1,995.1,543.2,995.6,547.5,996.2z"/>
<path style="fill:#344E91;" d="M1776.1,463.7c8.8,4.6,22.7,8.4,30.1,14.4c-3.6,8.3-8,22.5-14.7,28.1c-7.9,1.5-21.7-8-28.1-12.3
	L1776.1,463.7z"/>
<path style="fill:#344E91;" d="M1973.5,412.3c8.3,7.5,18.6,14.4,25.8,22.7c-5.5,7-11.9,18.6-18.7,23.7c-7.7,0.2-20.8-13.3-27.3-17.9
	c1.6-0.8,3.6-3.9,4.8-5.3C1964.2,428.1,1968.4,420.3,1973.5,412.3z"/>
<path style="fill:#344E91;" d="M1710,336.5c-8.2-2-26.5-4.4-32.1-10.3c-0.6-2-0.7-3.7-0.4-5.8c0.9-5.8,2.3-17.1,7.4-20.7
	c8-2.2,24.3,3.5,32.8,5.4c-2.5,9.2-3.3,22.3-7.2,30.6L1710,336.5z"/>
<path style="fill:#076F85;" d="M577.5,957.1c13.8-0.2,28.9-2,42.5-0.9l-11.3,14.7l-10.8,12.5c-14-1.9-28.7-2.1-42.8-0.6v-3.2
	c1.8-2.3,3.3-4.5,4.7-7.1l0.4-0.8l4.9-0.1C570,968,574.6,962.4,577.5,957.1z"/>
<path style="fill:#13AFB9;" d="M565.1,971.6l43.6-0.7l-10.8,12.5c-14-1.9-28.7-2.1-42.8-0.6v-3.2c1.8-2.3,3.3-4.5,4.7-7.1l0.4-0.8
	L565.1,971.6z"/>
<path style="fill:#13AFB9;" d="M2067.4,1129.8l2.7,3.2c2.1,5.8,5.7,10.8,8.8,16c7.4,12.4,15.6,24.5,25.7,34.9
	c-0.8,4.4-1.3,9.8-3,13.9l-1,0.2l-5-1.4c-9.9-3.4-22.9-19.8-27.3-28.9C2062.4,1155.4,2063.1,1142.6,2067.4,1129.8z"/>
<path style="fill:#344E91;" d="M1870,486.9l0.7-3.1c10.3-3.7,21.1-4.7,31.5-9c2.5,9,8.5,24,5.3,32.7c-4.8,4.2-20.7,8.3-27,7.8
	c-2.4-0.2-3.2-1.7-4.9-3.3L1870,486.9z"/>
<path style="fill:#13AFB9;" d="M642.8,871.9c4.3,2.2,8.4,3.8,13.3,2.1l2.6-1.2l-3.6,11.9l-5,13.4l-3.7,9.3l-6.3,13.9l-30.8,4.7
	c-2.4-0.6-4.8-0.7-7.2-0.9c1.5-4.3,5.3-8,8.1-11.5l1.4-6.6C624,898.2,632.5,883.2,642.8,871.9z"/>
<path style="fill:#075F7B;" d="M650.2,898.1c-9.8,2.5-18.7,4.3-28.9,4.9l15.2-16.6c5.7-0.9,13.1-3.3,18.7-1.7L650.2,898.1z"/>
<path style="fill:#075F7B;" d="M610.2,913.5l36.3-6.2l-6.3,13.9l-30.8,4.7c-2.4-0.6-4.8-0.7-7.2-0.9
	C603.6,920.7,607.4,917,610.2,913.5z"/>
<path style="fill:#076F85;" d="M609.4,925.9l30.8-4.7l-4.8,9.9c-2.8,4.9-5.4,10.3-8.8,14.9l-6.6,10.3c-13.6-1.1-28.7,0.7-42.5,0.9
	l-2.7-0.9c1.9-4.7,4.4-8.2,7.4-12.2l0.7-0.5c0.8-2.4,2.5-4,4.1-5.9l8.6-11C600.4,926.7,604.8,926.4,609.4,925.9z"/>
<path style="fill:#13AFB9;" d="M609.4,925.9l30.8-4.7l-4.8,9.9c-14.6,1.3-34.6,1.3-48.2,6.5l8.6-11
	C600.4,926.7,604.8,926.4,609.4,925.9z"/>
<path style="fill:#13AFB9;" d="M583.1,943.5c0.7,0.6,2.1,2.1,2.9,2.3c2.1,0.7,7.2,0.2,9.7,0.3l31-0.2l-6.6,10.3
	c-13.6-1.1-28.7,0.7-42.5,0.9l-2.7-0.9c1.9-4.7,4.4-8.2,7.4-12.2L583.1,943.5z"/>
<path style="fill:#344E91;" d="M449.1,1017.8l3.9-2.1c9.1,29.4,15,58.5,19.5,89c1.3,8.6,3.6,18.3,3.6,27c0.7-0.5,1.5-0.8,2-1.5
	c0.7-1,0.9-4.3,1.2-5.7l4.1-18.1c5-20.7,11.5-40.7,19.9-60.2c3-7,5.9-14.9,10.6-20.8l2.6,1.4c-8.8,19.9-17,40.2-23.1,61.1
	c-5.1,17.8-8.4,35.9-12.6,53.8c-1.1,10.2-2.7,20.5-3.3,30.7c-0.8,15.3,0.4,31.2,0.7,46.6l-4.9,0.3
	C474.4,1150.7,469.7,1083.8,449.1,1017.8z"/>
<path style="fill:#7DB0EF;" d="M2068.1,841.4c4-2.7,19.3-1.2,24.9-1.2l86.4-0.2c10.2,0,23.9,1.7,33.6-0.3c1.4-0.3,3.7-2,4.6-3
	c1.9-2,3.1-4.7,3.5-7.4c1.1-9.6,0.3-20.3,0.3-30c0.1-18.7,0.5-37.5-0.7-56.2c3.8,3.5,7.8,6.7,8,12.3l0.2,45.6
	c0.1,11.7,0.9,24.2-0.1,35.7c-0.2,1.8-1,3.5-2.2,4.9c-3.9,4.4-6.2,4.3-11.8,4.4l-91.8,0.1c-15.1,0-31.8,1.6-46.7,0
	C2073.6,845.8,2070.4,843.1,2068.1,841.4z"/>
<path style="fill:#088995;" d="M568.5,920.6l7.3-6.8c1.4,4.4,2.9,8.9,3.7,13.5c0.8,4.7,0.3,12.9,2.8,16.6c-3,4-5.6,7.6-7.4,12.2
	l2.7,0.9c-2.9,5.3-7.5,10.9-12.4,14.5l-4.9,0.1l-0.4,0.8c-1.4,2.6-2.9,4.8-4.7,7.1v3.2c-2.9,3.6-6.5,7.5-8.8,11.4l1.2,1.6l-0.1,0.4
	c-4.3-0.7-5.4-1.1-9,1.7l-3.6,3.4c-0.4-9.7-2.6-23-7.2-31.5l6.8-10.4l11.8-14.7l5.6-6.9C557,931.5,562.6,926.1,568.5,920.6z"/>
<path style="fill:#075F7B;" d="M546.4,944.7c2.7,5,2.7,10.9,3.6,16.5c1.1,6.4,2.6,12.6,4.6,18.7L544,992.6
	c-2.6-10.8-4.8-23.1-9.4-33.2L546.4,944.7z"/>
<path style="fill:#075F7B;" d="M568.5,920.6l7.3-6.8c1.4,4.4,2.9,8.9,3.7,13.5c0.8,4.7,0.3,12.9,2.8,16.6c-3,4-5.6,7.6-7.4,12.2
	c-2.4,3.1-4.1,4.6-7.8,6c-2,2.6-4,5.9-6.5,8c-1.6-10.7-4.9-22.2-8.6-32.4C557,931.5,562.6,926.1,568.5,920.6z"/>
<path style="fill:#057C8E;" d="M568.5,920.6l7.3-6.8c1.4,4.4,2.9,8.9,3.7,13.5c0.8,4.7,0.3,12.9,2.8,16.6c-3,4-5.6,7.6-7.4,12.2
	c-2.4,3.1-4.1,4.6-7.8,6l5.9-10C572.1,942.4,572,929.8,568.5,920.6z"/>
<path style="fill:#344E91;" d="M1627.7,406.6l2-5.7l2.9-0.6c25.2,38.8,33.6,86.7,23.9,131.9c-9.7,45.3-35.9,86-75,111.2
	c-30.2,19.5-65.1,29.4-100.9,29.2l0.7-7.5c30,0.4,61.5-7.7,87.5-23c39.9-23.4,68-61,79.4-105.9
	C1659.6,491.2,1651.1,446.4,1627.7,406.6z"/>
<path style="fill:#B62931;" d="M2199.4,525.8c4.2,3.7,7.6,7.1,10.5,12c1.4,23.1,0.5,46.7,0.4,69.9c-0.1,13.7,1,29-0.8,42.5
	c-0.4,2.8-2.4,5.7-4.3,7.7c-2.2,2.3-5.2,4.4-8.3,5c-6.3,1.3-13.4,0.8-19.9,0.8l-32.6,0.1l-110.7,0.5l-22.3-0.1c-2,0-5.9-0.6-7.5-0.1
	c-2,0.7-5.8,4.4-7.6,5.7l-21.1,15.9c-5.2,4-11.2,9.9-17.1,12.7c-0.5-1.9-0.2-1.5,0.9-3.1c8.9-12.6,15.1-23.4,20.4-37.9
	c4.8-1.9,14.1-1.1,19.5-1.2c26.9-0.7,54.8,1.8,81.5-0.8l62.3,0.4c11.9,0,43.3,3,51.5-5.8c2.6-2.8,4.7-6.6,5.3-10.5
	c1.5-10.5,0.2-23.2,0.2-33.9L2199.4,525.8z"/>
<path style="fill:#05104D;" d="M985.5,824.9c15.2,1.2,32.4,0.8,47.2,3.7l3.3,0.1l-2.1,9.3l1.8,1.9l213.7-0.1c0.1,3.4-0.3,5.1-2.1,8
	c-0.9,0.5-2.6,2-3.5,2.2c-5.5,1.3-13.8,0.4-19.5,0.4l-40.8-0.2l-126.2,0.3c-22.4,0.1-45.4-0.9-67.7,0.4h-3.3c-8.9-0.7-23,2.2-31-0.8
	c-2-3.7-2.3-5.9-1.9-10.1c4.4-2.8,9.7-2.1,14.8-2.4c6.1-0.4,12.2-1.3,18.2-2.4L985.5,824.9z"/>
<path style="fill:#FEFEFE;" d="M985.5,824.9c15.2,1.2,32.4,0.8,47.2,3.7c-1.4,1.2-4,4-5.5,4.8c-2.1,1-7.8,0.8-10.3,0.9l-30.3,0.8
	L985.5,824.9z"/>
<path style="fill:#7DB0EF;" d="M495.2,444.6l1.7,3.2c17.2,1.6,31.1,4.5,46.3,13.3c-3.8,1.6-5.5,4.4-7.8,7.7
	c-0.6,0.9-0.8,2.5-1.9,2.7c-1,0.1-5.3-1.7-6.5-2.1c-5.8-1.8-11.8-3.9-17.9-4.7c-26.7-3.3-58,5.3-76.8,25.3
	c-9.4,10-16.3,23.5-21.4,36.1c-8.8,21.8-6.9,43,2.2,64.3c1.6,3.6,6.5,16.3,9.8,18c5.7,10.9,9.4,22.2,12.3,34.2l-10.7-8.6
	c-6.7-6.6-12.7-13.7-18-21.6c-3.5-5.9-7.5-12-9.8-18.4c-3.1-8.5-4.3-17.6-7.3-26.1L385,567l4.2-1.7l1.3-24.5
	c3.3-17.9,9.4-32.1,18.5-47.8l14.2-16.9c2.9-0.6,5.8-3.7,8.1-5.4c4.2-3.1,8.6-6,13.1-8.6c8.5-4.9,18-7.9,27.1-11.4l21.8-3.2
	L495.2,444.6z"/>
<path style="fill:#057C8E;" d="M1956.1,1104.4l-5.9-27.3c10,4.1,19.9,10.6,29.2,16.2c3.6,2.1,7.2,4,10.2,6.9
	c5.9,4,11.8,7.8,16.8,12.9c13.6,10.9,24.4,22,33.2,37.3c-0.2,3.3-0.8,4.9-1.6,7.9c-0.6,2.2,0.7,4.3-0.6,6.5
	c-0.8,1.4-1.3,2.7-1.9,4.2c1.6,3.8,4.4,6.2,5.5,10l3.4,8.9c1.3,4,3.9,8,5.6,11.9l-8.9-1.1c-8.6-0.6-26.5-5.2-32.9-11.1
	c-2.6,0.1-3.8-0.9-6-2.2c-7.7-8.2-13.5-17.1-19.6-26.4l-1.9-1.8l-18.9-37.4L1956.1,1104.4z"/>
<path style="fill:#088995;" d="M1956.1,1104.4c3.1,0.5,5.7,1,8.7,2.1l0.9,0.3c2.7,0.9,4.8,2.3,7,4c1.1,0.9,0.6,0.5,2.2,1.4
	c2.3,1.3,5.6,4.1,6.5,6.7l0.3,1.3l1.3,3.4c-1.1-0.7-2.2-1.3-3.4-1.9l-1.2-0.5c-4.3-2.3-11.6-1.3-16.5-1.2L1956.1,1104.4z"/>
<path style="fill:#076F85;" d="M1961.6,1120c5-0.1,12.2-1.1,16.5,1.2l1.2,0.5c1.2,0.5,2.3,1.2,3.4,1.9l3.9,5.5l-1.2,1.8
	c0.8,0.6,1.6,1.1,2.6,1.5c4.5,1.8,8.7,7.2,12.1,10.7c-2.2,0.1-4.1,0.4-6.1-0.6c-2.2-1-4.9-0.7-7.3-0.6l-1.2,1.2
	c1.5,1,1.4,1.2,3.2,1.1c1.4,0,1.5,0.1,2.8,0.7c2,1,4,0.7,6.2,0.6c1.5,1,2.9,2.1,4.6,2.7c2.8,1,7.8,7.2,10,9.5l-0.6,1.2
	c-3.2-1.3-6.3-1.9-9.5-3.1c-3.4-1.3-16-1.5-19.4-0.2c-0.7,0.3-1.7,1.1-2.3,1.5L1961.6,1120z"/>
<path style="fill:#076F85;" d="M1982.5,1159.1c6.1,0,17-1.6,22.5-0.1c1.7,0.5,10.7,7,12.2,8.5c3.4,3.5,8,8.8,10.1,13.1
	c1.7,1.5,5.2,3.9,5.9,6c0.8,2.3,3.1,3.4,4.1,6c0.7,1.8,2.3,4.9,3.6,6.2c-8.6-0.6-26.5-5.2-32.9-11.1c-2.6,0.1-3.8-0.9-6-2.2
	C1994.4,1177.4,1988.6,1168.4,1982.5,1159.1z"/>
<path style="fill:#076F85;" d="M1979.4,1093.4c3.6,2.1,7.2,4,10.2,6.9c5.9,4,11.8,7.8,16.8,12.9c13.6,10.9,24.4,22,33.2,37.3
	c-0.2,3.3-0.8,4.9-1.6,7.9c-0.6,2.2,0.7,4.3-0.6,6.5c-0.8,1.4-1.3,2.7-1.9,4.2c-2.2-1.6-3.9-2.9-5.5-5.1l-0.5-0.7
	c-1.9-2.5-2.9-5.3-4.9-7.7l-9.2-11.9c-1.2-2.3-1.9-3.4-3.8-5.3c-3-3-9.3-11-13.1-12.3c-1.4-0.5-1.8-1.5-2.7-2.8
	c-2.8-2.9-6.1-5.9-8.2-9.3l-0.9-1.4l-3.7-0.1l-3.7-4.9c2.2,0,2.1-0.2,3.6-1.8l-2.4-3c0-1.8,0-3.5-0.3-5.3L1979.4,1093.4z"/>
<linearGradient id="SVGID_1_" gradientUnits="userSpaceOnUse" x1="2032.8903" y1="1128.9569" x2="1609.1926" y2="1153.1824" gradientTransform="matrix(0.75 0 0 -0.75 97.75 1350.9)">
	<stop  offset="0" style="stop-color:#3A6DCF"/>
	<stop  offset="1" style="stop-color:#75AAF1"/>
</linearGradient>
<path style="fill:url(#SVGID_1_);" d="M1480.6,672.7l-33.1-3.4c-46.6-9-86.5-35.8-113-75c-25.7-38.1-37.4-86.3-28.4-131.8
	c8.9-44.6,35.4-86.2,73.4-111.4c41.7-27.7,90.1-37.5,139.1-27.5c46.5,9.5,87.8,37.1,113.9,76.8l-2.9,0.6l-2,5.7
	c-6.7-9.6-13.6-19.6-21.8-27.9c-24.9-25.1-58.4-42.7-93.2-48.9c-47.1-8.3-94.1,3.6-133.1,30.8c-37.9,26.5-59.3,65.7-67.2,110.7
	c-7.2,41.1,7,88.4,30.8,122c25.5,36.1,66.4,62.2,110.1,69.4l28,2.5L1480.6,672.7z"/>
<path style="fill:#13AFB9;" d="M485.5,854.6c15.4,32.9,27.1,76.5,14.3,112c-7.9,21.9-21.2,37.4-42.4,47.2l-4.4,1.9l-3.9,2.1l-6.6,1
	L426,968.1c4.8,1.4,8.7,0.8,13.4-0.2c4.4-3.5,6.1-8.8,8.2-13.8l11.8-30.8L485.5,854.6z"/>
<path style="fill:#5372BF;" d="M422.9,608.4c4.6,0.6,13.8,10.5,18.3,13.4c5.5,3.5,11.5,6.3,17.6,8.6c20.8,7.8,48.3,8.8,68.7-0.6
	c21.8-10,38.4-29.5,46.7-51.9c9.1-24.7,5-51.1-5.9-74.4c7,0.5,12.2-0.2,18.6-3.1l1.2-0.5l7.8,13.6c2.7,8.3,5.8,16.8,7,25.4
	c1.6,14.9,2.4,32.3-3.5,46.5c-1.9,5.4-5.6,18.2-9.6,21.9c-7.2,12.7-15.7,23.5-27.2,32.6l-27,16.7c-5.4,1.9-10.8,3.8-16.5,4.7
	l-18.2,2c-1,0.1-4.6,0-5.4,0.4c-0.6,0.3-1.7,2.2-2.1,2.8l-1.4-3l-26.3-4.8c-11.3-4.1-20.7-9-30.5-16
	C432.3,630.6,428.6,619.3,422.9,608.4z"/>
<path style="fill:#A2CDF6;" d="M1619.8,766.3c-3.1,2.8-4.8,7.2-6.7,10.8l9.6,15.6c-5.7,3.7-12.3,6.2-18.5,9c-2.7-2.8-5.6-6.5-9-8.5
	c-3.2-1.9-4.2-2.1-7.7-1c-7.9,2.3-10.4,6.7-14.1,13.5c-6-1-11.8-3-17.6-4.9l1.3-12.6l-9.2-10.7c-5,0.2-9.6,1.8-14.4,3.3
	c-3.1-5.2-4.5-12.8-6.4-18.6c1-2.4,8.1-5.5,10.4-7.8c2.9-2.8,3.9-5.3,4-9.2c-2.4-5.7-6.5-9-11.3-12.7l2.8-6.2
	c1.7-2.9,3.6-5.8,5.5-8.6c1-1.5,10.7,4.1,13.5,3.4c1.9-1.9,8-6.8,9-8.9c1-2.3,0.7-10.2,0.9-13.1c3-2.3,10.6-2.6,14.5-3.3l6,10.5
	c2.2,3.3,4.6,5.2,8.5,5.9c5.1,0.9,12.4-5.8,16.3-8.6l14.2,14.5l-7.4,11.3c-0.1,4,4.1,10.3,6.9,13.2c2.7,2.9,5.9,2,9.7,2.1
	c2.8,2.7,3.1,4.7,3.8,8.4l-0.8,4.6l-13,7.6C1620.1,765.8,1620.4,765.6,1619.8,766.3z"/>
<path style="fill:#FEFEFE;" d="M1573.5,731.3c3.2-0.1,6.3,0,9.4,0.7c6.2,1.4,11.7,5.9,14.7,11.4c2.1,3.9,2.3,10.6,0.9,14.7
	c-2.7,7.7-8.3,11-15.3,14.3c-3.3,0.2-6.7,0.2-9.9-0.6c-5.1-1.2-9.4-5.4-11.9-9.8c-2.9-5.1-4.1-11.8-2.2-17.5
	C1561.4,738.1,1567.6,733.9,1573.5,731.3z"/>
<path style="fill:#A2CDF6;" d="M1049.4,476.7l5.3-0.4c12.5-0.6,115.9-1.8,120.2,0.3c1,0.5,2.4,2.2,3.3,3c0.6,1.8,0.9,3.1,0.9,5.1
	l-0.2,79.5c-0.1,5.2,1.1,16.6-0.6,21.1c-0.3,0.7-1,1.1-1.6,1.6l-2.4-1.6l-17.7-22.4l-106.2-0.1c-3.3-0.4-4.2-1.9-6-4.3l0.2-43.8
	c-0.1-9.4-2.1-23.1-0.1-32.1C1045.4,478.6,1046.1,478.7,1049.4,476.7z"/>
<path style="fill:#FEFEFE;" d="M1074,519.4l5.1-0.6c3.1,2.3,3.3,3,4.7,6.7c-1,3.3-1.6,3.8-4,6l-4.3,0.7c-2.5-1.7-3.8-2.8-5.1-5.5
	C1070.8,522.4,1070.9,522.4,1074,519.4z"/>
<path style="fill:#FEFEFE;" d="M1103.5,512.1l4.3-1.1l2.8,1.9l0.3,2.9c-3,6.2-7.7,12.5-12.8,17.1l-2.1-0.1c-3-2.2-3.2-2.5-4.3-6
	C1096.1,522.2,1099.2,516.8,1103.5,512.1z"/>
<path style="fill:#2DD6D6;" d="M2147,1014.8c3.4-2.3,6.5-4.6,10.5-5.5l1.9,2.7l5.7,17.2l5.4,24.6l0.5,3.8c0.7,7.6,2.5,16.3,1.5,23.8
	l0.4,2.4l-1.8,36.7l-0.9,2.6l-6.7,28.8l-1.3,2.2c-4.4,9.5-9.5,17.9-16.5,25.8l-3.4,2.6c-8.8,7.8-17.8,12.9-29.6,14.6l-2.8,0.3
	l-8.3,0.3c1.7-4.1,2.2-9.4,3-13.9c-10.1-10.4-18.3-22.5-25.7-34.9c-3.1-5.2-6.8-10.3-8.8-16l-2.7-3.2c-0.2-8.9,5.5-20.9,9.1-28.9
	l1-1.6c0.7-7.4,8.5-19.1,12.5-25.4l2.2-3.7l14.4-19l1.4-2.3C2121.4,1037.7,2132.4,1024.7,2147,1014.8z"/>
<path style="fill:#088995;" d="M2112.8,1197.1c-0.5-0.9-0.6-1-0.8-2.2c-0.3-2.7,0.8-5.4,2.2-7.6c9.8-0.6,18.5-3.7,28.1-4.9
	C2133.6,1190.3,2124.6,1195.4,2112.8,1197.1z"/>
<path style="fill:#13AFB9;" d="M2171.2,1057.6c0.7,7.6,2.5,16.3,1.5,23.8l-40,24.7l5.4-18.9c0.3-1,0.8-4.2,1.4-4.9
	c2-2.5,6.8-5.2,9.3-7.2L2171.2,1057.6z"/>
<path style="fill:#088995;" d="M2145.8,1179.9l-32.3,4.2l6.5-23.9c4.1-1.9,12.1-1.3,16.8-1.8c8.5-0.9,17.1-2.6,25.5-4.2
	C2157.9,1163.7,2152.8,1172,2145.8,1179.9z"/>
<path style="fill:#13AFB9;" d="M2159.5,1012l5.7,17.2l5.4,24.6c-8.8,8.8-20,16.1-30.3,23.2C2142.9,1066.7,2153.3,1016.7,2159.5,1012
	z"/>
<path style="fill:#0A9DA8;" d="M2163.6,1151.9l-42.7,3.6l3.5-15.6l45.9-16.8L2163.6,1151.9z"/>
<path style="fill:#13AFB9;" d="M2106.6,1051.3l17,30.4c1,1.9,4.7,7,4.9,8.9c0.2,1.4-1.4,5.5-1.8,7l-5.3,19.9
	c-0.4,1.2-0.2,0.8-0.9,1.8c-9.6-15.3-21.6-32.2-28.3-48.9L2106.6,1051.3z"/>
<path style="fill:#13AFB9;" d="M2147,1014.8c1.4,5-14.1,61.7-16.4,71.8l-22.7-37.6C2121.4,1037.7,2132.4,1024.7,2147,1014.8z"/>
<path style="fill:#13AFB9;" d="M2173.1,1083.8l-1.8,36.7l-45.4,14.7l0.5-3.7c1.1-5.7,2.4-14.2,5.2-19.3c1-1.9,5.6-4.6,7.4-5.9
	L2173.1,1083.8z"/>
<path style="fill:#13AFB9;" d="M2077.5,1099.3c0.7-7.4,8.5-19.1,12.5-25.4l0.4,0.9c5.9,13.2,14.7,26.3,22.5,38.5
	c1.3,2,6.6,8.1,6.9,10c0.2,1.2-1.4,5.3-1.7,6.6c-1.9,7.3-3.4,14.7-5.8,21.9l-23.5-37.1C2085.3,1109.6,2082.1,1103.2,2077.5,1099.3z"
	/>
<linearGradient id="SVGID_00000041263819337076867980000001820422032857883014_" gradientUnits="userSpaceOnUse" x1="2684.7278" y1="241.6054" x2="2628.3477" y2="319.4797" gradientTransform="matrix(0.75 0 0 -0.75 97.75 1350.9)">
	<stop  offset="0" style="stop-color:#0CA2AA"/>
	<stop  offset="1" style="stop-color:#16CACD"/>
</linearGradient>
<path style="fill:url(#SVGID_00000041263819337076867980000001820422032857883014_);" d="M2067.4,1129.8c-0.2-8.9,5.5-20.9,9.1-28.9
	c8.3,15.4,18.3,29.8,27.7,44.6c1.5,2.4,6.7,9,7.1,11.5c0.1,1.1-1,4.2-1.3,5.4l-4.3,17l-0.6,1.8l-21.2-29.4
	c-3.3-5-8.4-16.5-13.8-18.7L2067.4,1129.8z"/>
<path style="fill:#13AFB9;" d="M1914.2,1184.2c-1-11.6-3.7-25.9-2-37.3c3.6-0.8,6.3,0.7,9.8,1.8l0.4-0.8l27.7,9.4l2.4,1.7
	c7.2,3.1,16.9,7.2,23,12.3l3.9,2.3l21.7,13.1l3,2.4l4.6,2.9c6.1,4.3,12,9.3,16.8,15.1l3.7,4.1c17,24.3,26,51.9,25.2,81.7
	c3.3,9,15.4,14.8,20.3,23.1l-5-0.5c-4.8-6-9.4-11.6-15.4-16.6l-20.4,1.4c-16.9,0.5-36.9,2.4-52.7-4.3c-8.4-3.5-14.9-9-21.5-15.2
	l-2.5-2.8c-1.6-0.6-2.4-1.4-3.5-2.5c-5.1-4.9-18.6-20.5-18.8-27.8c-0.7-1.4-1.4-2.4-2.4-3.6c-4.9-5.1-8.3-19.1-10.7-25.9l-0.2-2.3
	c-1.9-2.9-3.2-6.8-4.4-10c-1.1-1.3-1.7-10.7-2-12.9v-1.7C1914.5,1189.2,1914.5,1186.2,1914.2,1184.2z"/>
<path style="fill:#076F85;" d="M2008.6,1191.8c6.1,4.3,12,9.3,16.8,15.1c-0.5,18.8-6.9,37.4-8.8,56.3c-2-2.1-17.9-17.4-18-18.6
	c-0.1-1.5,2.3-6.8,2.8-8.4c2.5-8,5.4-16.3,6.9-24.5C2009.6,1205,2009.1,1198.4,2008.6,1191.8z"/>
<path style="fill:#076F85;" d="M1979.4,1173.5l21.7,13.1l3,2.4c1,19-1.5,35.1-8.2,53c-5-5.3-11.2-11.5-13.8-18.4l0.4-1.4
	C1987.6,1208.5,1981.5,1187.3,1979.4,1173.5z"/>
<path style="fill:#076F85;" d="M1921.8,1218l51,7.2c5.3,5.9,9.6,12.4,14.4,18.6c2.5,3.2,5.9,6.3,7.8,9.9l-62.6-9.8
	C1927.6,1238.8,1924.1,1224.8,1921.8,1218z"/>
<path style="fill:#076F85;" d="M1934.9,1247.5c17.4,1.4,33.8,5.7,50.7,9.4c4.6,1,12,1.4,16,3.5c5.5,2.8,10.4,8.6,15.8,12
	c-3.3,1.6-7.2,1.5-10.8,1.8l-49.5,3.7c-1.6-0.6-2.4-1.4-3.5-2.5C1948.5,1270.4,1935,1254.9,1934.9,1247.5z"/>
<path style="fill:#076F85;" d="M2029.2,1211c17,24.3,26,51.9,25.2,81.7l-35.3-27.9L2029.2,1211z"/>
<path style="fill:#076F85;" d="M1957.2,1277.9l49.5-3.7c3.8,0.4,8.6,0.1,11.7,2.3l-0.4,1.6c11.3,2.6,28.1,12.5,36.3,20.7l-20.4,1.4
	c-16.9,0.5-36.9,2.4-52.7-4.3c-8.4-3.5-14.9-9-21.5-15.2L1957.2,1277.9z"/>
<path style="fill:#2DD6D6;" d="M1957.2,1277.9l49.5-3.7c3.8,0.4,8.6,0.1,11.7,2.3l-0.4,1.6l-58.3,2.7L1957.2,1277.9z"/>
<path style="fill:#2DD6D6;" d="M1914.2,1184.2c-1-11.6-3.7-25.9-2-37.3c3.6-0.8,6.3,0.7,9.8,1.8l0.4-0.8l27.7,9.4l2.4,1.7
	c7.2,3.1,16.9,7.2,23,12.3l3.9,2.3c2.1,13.8,8.2,35,3,48.6l-0.8,0.5c-1.1,0.7-1.9,1.5-2.9,2.4l-5.9,0.3l-51-7.2l-0.2-2.3
	c-1.9-2.9-3.2-6.8-4.4-10c-1.1-1.3-1.7-10.7-2-12.9v-1.7C1914.5,1189.2,1914.5,1186.2,1914.2,1184.2z"/>
<path style="fill:#076F85;" d="M1915.2,1192.8l1,0.6c8.8,5.7,20.2,7.9,30.4,9.8c2.3,0.4,7.3,0.6,9.1,1.6
	c3.9,2.1,12.5,13.7,15.8,17.3l-50-6.5c-1.9-2.9-3.2-6.8-4.4-10C1916.1,1204.4,1915.5,1195,1915.2,1192.8z"/>
<path style="fill:#076F85;" d="M1952.5,1158.9c7.2,3.1,16.9,7.2,23,12.3c2.8,16.9,4.9,32.1,3.4,49.3l-15.3-16.9
	c-1.5-1.6-5.4-4.9-6.2-6.8c-1.3-3-1-11.4-1.3-14.9C1955.3,1174.1,1953.9,1166.6,1952.5,1158.9z"/>
<path style="fill:#13AFB9;" d="M1914.2,1184.2c-1-11.6-3.7-25.9-2-37.3c3.6-0.8,6.3,0.7,9.8,1.8l0.4-0.8l27.7,9.4
	c1.2,10.8,3.2,22.2,3,33l-0.2,2.7c2.4,2.4,2.1,3.1,2.6,6.3c-1.9-0.8-2.2-1.8-3.3-3.5l-1,1.1l0.3,2.3c-10.5,3.1-25.2-5.4-35.4-7.9
	l-0.9-0.2C1914.5,1189.2,1914.5,1186.2,1914.2,1184.2z"/>
<path style="fill:#076F85;" d="M1922.4,1147.9l27.7,9.4c1.2,10.8,3.2,22.2,3,33l-31.1-41.6L1922.4,1147.9z"/>
<path style="fill:#076F85;" d="M1914.2,1184.2l1-1.1c3.6-3.7,8.2-12.3,12-14.5c7.7,9.2,15.2,20.2,24,28.4l0.3,2.3
	c-10.5,3.1-25.2-5.4-35.4-7.9l-0.9-0.2C1914.5,1189.2,1914.5,1186.2,1914.2,1184.2z"/>
<path style="fill:#DD4E35;" d="M2091.6,523.3l67.4,0.2c11.5,0,28.5-2.4,39.2,1.9l1.2,0.4l0.3,80c0,10.7,1.3,23.4-0.2,33.9
	c-0.5,3.8-2.6,7.6-5.3,10.5c-8.2,8.7-39.6,5.7-51.5,5.8l-62.3-0.4l5.6-5.2c2.5-2.7,3.9-5.5,4.6-9.1c2.4-12.8,0.2-29.6,0.3-42.9
	L2091.6,523.3z"/>
<path style="fill:#FEFEFE;" d="M2124.1,581.6c1.7,0.8,4,6.5,5.3,8.5l8.6,0.7l0.6,1.7l-5.4,5c-2,3,0.5,8.1,1.4,11.5l-1.6,1l-9.5-6.2
	c-2.9,2.3-5.6,4.5-8.9,6.2l-1-1.7c1.5-3,2.4-5.2,2.9-8.5l-6.8-6.9l0.6-2l8.6-1.1C2121.5,587.4,2122.7,584.7,2124.1,581.6z"/>
<path style="fill:#A2CDF6;" d="M2068.1,841.4c-0.8-0.6-1.7-1.1-2.4-1.9c-0.6-0.7-2.6-3.1-2.8-4c-1.5-6-0.1-15.9-0.1-22.5l0.2-67.9
	c2.4-2.4,3.4-3.7,6.9-4.2c6.5-1,14.3-0.2,21-0.2h42.2h53.4c9.1,0,18.8-0.7,27.8,0.2c2.4,0.2,4.6,0.8,6.6,2.2
	c1.2,18.7,0.7,37.5,0.7,56.2c0,9.7,0.8,20.5-0.3,30c-0.3,2.7-1.6,5.5-3.5,7.4c-0.9,1-3.3,2.7-4.6,3c-9.8,2-23.4,0.3-33.6,0.3
	l-86.4,0.2C2087.4,840.2,2072.2,838.7,2068.1,841.4z"/>
<path style="fill:#FEFEFE;" d="M2089.8,807.5c25.8-2.2,53.1-0.4,79.1-0.4c7.9,0,23.4-2,30.3,0.6c2.3,0.9,2.3,1.9,3,4l-1.8,2.5
	c-12.1,0.3-107.8,1.7-112.6-1.3l-0.2-3.6L2089.8,807.5z"/>
<path style="fill:#FEFEFE;" d="M2087.4,789.2c9.1-1.9,21.7-0.5,31.2-0.5l80.5,0.2l1.8,2.1l-0.6,4.3c-12.2,2.2-26.7,0.6-39.3,0.7
	c-24.4,0-49.3,1.1-73.5-0.4l-1.2-2.1L2087.4,789.2z"/>
<path style="fill:#FEFEFE;" d="M2087.8,770.8c0.9-0.3,1.7-0.6,2.7-0.7c9.5-0.8,19.6-0.1,29.2-0.1l58.5,0.1c4.6,0,17.7-1.4,21.5,0.2
	c0.7,0.3,1.2,1,1.8,1.6l-0.4,3.8l-2.7,1.9l-84.3,0.1c-6.6,0-21.7,1.7-26.7-2L2087.8,770.8z"/>
<path style="fill:#B8D6F7;" d="M1634.7,753.2c0.8,1.7,1.2,2.6,2.9,3.6c1.3-1.1,2.3-2,3.4-3.4c3.4-4.4,5.3-8,4.6-13.7
	c-3.1-5.3-8.6-7.9-13.8-10.9l16.9-20c5.8,2.7,10.7,7.5,15.5,11.6c4.3-1.4,9.4-3.5,13.1-6.3c5.2-3.9,4.8-12.3,5.4-18.2
	c8.5-1.9,17.1-1.7,25.7-1.7l4.4,17.4c6.1,1.7,11.2,4,16.7,7.1c5.8-2.9,10.2-7.8,16-10.9c5.1,5.7,10.1,11.6,16.2,16.4l1.1,0.9
	l1.8,8.4c-3.4,1.2-5.2,5.6-7.2,8.6c2.8,5.6,4.9,12.2,11.2,14.3c4.4,1.5,9.5,1.6,13.6,3.7c1.4,5.9,5.2,16.5,3,21.8
	c-5.1,3.7-16,4.6-19.7,8.3c-1.9,2-4.3,8.8-4.8,11.6s0.9,5.4,2.6,7.6l8.7,10.9c-6.6,8.3-14.3,14.9-22.3,21.8l-13.1-12l-18.7,6.3
	l-4.9,20.5h-25.7c-2.5-4.6-3.4-12.8-4-18l-0.1-1.5c-4.9-3.9-10.8-6.8-16.2-9.9l-16,10.5l-18.8-19.6c3.6-4.1,13.9-13.1,14.8-17.9
	c-1.2-3.3-3-10.8-5.1-13.2c-2.1-2.5-13.1-2.3-16.8-6c-4-4-3-8-3.2-13.4l-2.3-1.6c0.7-0.7,0.4-0.5,1.2-0.9l13-7.6L1634.7,753.2z"/>
<path style="fill:#FEFEFE;" d="M1698.8,742.4c7.1-0.2,12.5-0.3,19,2.8c7.3,3.5,13.2,10.8,15.8,18.4c2.9,8.6,1.7,19.5-2.6,27.4
	c-4.8,8.9-13.1,12.2-22.3,14.7c-7.1,0.2-12.6,0.4-19.2-2.9c-7.2-3.6-13.2-10.9-15.7-18.6c-2.8-8.6-2.6-17.7,1.8-25.8
	C1680.7,749.1,1689,745,1698.8,742.4z"/>
<path style="fill:#EB766C;" d="M1941.7,643.6c1.9-7.8,0.9-19,0.9-27.2l0.2-56.1c0-10.3-2.6-26.2,5.6-33.7c2.4-2.2,5.1-3.1,8.2-3.5
	c13.6-1.7,29.3-0.2,43.1-0.2l91.9,0.4l-0.8,75c0,13.3,2.1,30-0.3,42.9c-0.7,3.6-2.1,6.5-4.6,9.1l-5.6,5.2
	c-26.7,2.6-54.6,0.1-81.5,0.8c-5.4,0.1-14.7-0.7-19.5,1.2c-3.7,0.3-10.4-0.1-13.3,2.1c-3.6,0.3-8.4,0.4-11.7-1.3
	C1947.8,655.2,1944.2,650.3,1941.7,643.6z"/>
<path style="fill:#FEFEFE;" d="M2068,582.9l1.5,0.1l4.9,7.2l14.7,0.4l-13.1,9c1.9,3.3,4.1,6.5,4.7,10.2l-7.5-3.5
	c-6.8-2.3-7.2,2.4-13.5,2.2c4.8-16.5-4-8.1-6.3-17.3c2.8-0.1,6.3,0.1,9-0.7C2065.1,589.6,2066.6,585.3,2068,582.9z"/>
<path style="fill:#FEFEFE;" d="M2015.4,580.4l1.8,0.3c0.7,2.4,1.4,5.3,3,7.3c2.5,3.2,7.3,2.6,11.1,3l0.3,1.1l-7.8,8.1l3.5,9.8
	c-3.4-0.4-5.9-2-8.7-3.7c-4.3-0.3-6.4,0.9-9.8,3.1l-1.2,0.8l-1.9-0.5c1.1-2.7,2.6-5.6,2.4-8.5c-0.3-3-5.6-6.4-7.9-8.5l0.7-1.8
	c2.7-0.1,6.4,0.2,9-0.7C2012.4,589.2,2014.2,583.1,2015.4,580.4z"/>
<path style="fill:#172969;" d="M829.9,461.2c-18.5-15.7-30.7-38.4-33.5-62.6c-0.9-7.6-0.7-14.5,4.4-20.7c5.5-6.6,14.8-8.7,23-9.4
	c2.3-0.2,9.5-13.7,12.9-16.8c21.2-19,57.9-8,83.8-6.6c14.8,0.8,30.1,0.2,41.6-10.3l1-1l1.4,0.6c0.2,9.2-1.7,16.5-4.9,25l0.9,1.6
	c8.1-0.9,12.2-3.6,18.4-8.6c0.1,14.7-1.9,29.6-10.2,42.1c-8.7,13.1-20.5,18.4-35.4,21.5c-3.2,25.8-6,57.7-27.9,74.8
	c-9.1-1.5-16.9-3.7-25.5-6.9c-1.4,4.1-3.1,8.3-4,12.5l0.7,12.1c0.8,2.5,1.4,5.4,3,7.5c1.7,4.3,2.3,10.1,0.4,14.6
	c-2.1,4.9-8,8.3-12.9,9.8c-8.4,2.5-18.7,1-26.4-3.3c-5.1-2.8-9.9-7-11.6-12.7c-0.8-2.6-0.8-5.4-0.9-8.1c1.3-4.9,0.8-11.6,1-16.8
	L829.9,461.2z"/>
<path style="fill:#F49A79;" d="M834.2,445.4c-3.2-1.8-6.8-3.8-8.9-7c-2.7-4.2-2.3-9.8-0.9-14.4c0.9-3.1,3.2-6,6.2-7.3
	c4.3-1.9,8.9-1.2,13.1,0.5c6.1,5.6,7.7,13.6,10.3,21.3c3.5-10.8,3.5-23.9,6.1-35.3c24.2,11.2,46.7,15.6,73.4,13
	c-3.2,25.8-6,57.7-27.9,74.8c-9.1-1.5-16.9-3.7-25.5-6.9c-1.4,4.1-3.1,8.3-4,12.5l0.7,12.1c0.8,2.5,1.4,5.4,3,7.5
	c1.7,4.3,2.3,10.1,0.4,14.6c-2.1,4.9-8,8.3-12.9,9.8c-8.4,2.5-18.7,1-26.4-3.3c-5.1-2.8-9.9-7-11.6-12.7c-0.8-2.6-0.8-5.4-0.9-8.1
	c1.3-4.9,0.8-11.6,1-16.8l0.5-38.6C831.9,456.2,832.9,450.6,834.2,445.4z"/>
<path style="fill:#EB766C;" d="M838.7,472.4l0.7,0.6c3,2.7,5,5.9,7.8,8.6c7.6,7,18.9,12.5,28.9,15l0.7,12.1
	c-6.2-2.9-13.4-5.7-19-9.7C849.8,493.1,840.3,482.6,838.7,472.4z"/>
<path style="fill:#172969;" d="M847.1,449.7c7.2,14.6,17.2,28.3,33,34.3c-1.4,4.1-3.1,8.3-4,12.5c-10-2.6-21.3-8-28.9-15
	c-2.9-2.6-4.9-5.9-7.8-8.6l-0.7-0.6C837.2,467.7,844.8,454.7,847.1,449.7z"/>
<path style="fill:#4588E7;" d="M546.8,460.2c3.7,5.8,15.1,11.1,20.8,15.7c7.9,6.9,14.6,15.2,20.4,23.9l-1.2,0.5
	c-6.4,2.9-11.6,3.6-18.6,3.1c10.9,23.3,15,49.7,5.9,74.4c-8.2,22.4-24.8,41.9-46.7,51.9c-20.5,9.3-47.9,8.4-68.7,0.6
	c-6.1-2.3-12.1-5.1-17.6-8.6c-4.6-2.9-13.8-12.8-18.3-13.4c-3.2-1.8-8.2-14.4-9.8-18c-9.1-21.3-11-42.5-2.2-64.3
	c5.1-12.6,12-26.1,21.4-36.1c18.8-20,50.1-28.6,76.8-25.3c6.1,0.7,12.1,2.9,17.9,4.7c1.2,0.4,5.5,2.2,6.5,2.1
	c1.1-0.1,1.2-1.8,1.9-2.7c2.3-3.2,4-6.1,7.8-7.7L546.8,460.2z"/>
<path style="fill:#E3EDF9;" d="M487.5,490.9c14.8-1.3,27.9,0.2,41.1,7.6c15.3,8.6,25.9,22.1,30.6,39c4.6,16.6,2.2,33.3-6.4,48.1
	c-10.8,18.5-26.1,27.9-46.3,33.1c-16.1,1.7-30.7-1-44.7-9.5c-14.3-8.7-23.7-23.5-27.6-39.6c-4.1-16.7,0.1-34.8,9-49.2
	C453.4,504.1,469.2,495,487.5,490.9z"/>
<path style="fill:#2DD6D6;" d="M357.3,722.4c0.7-1.6,1.4-1.6,2.8-2.4l4.2,1.7c18.8,9.1,34.5,21,50.5,34.3l10.2,9.7l22.7,25.5
	l10.6,14.4c6.9,10.3,14.8,21.3,19.4,32.9l7.9,16.1l-26.1,68.6L447.7,954c-2.1,5-3.8,10.3-8.2,13.8c-4.7,1-8.7,1.7-13.4,0.2
	c-0.9-6.7-3.3-13.3-5.2-19.7C407,942.2,394,933,381,925.1l-54.7-31.6c-2.9-16.6-2.7-35.5-1.5-52.3l-0.3-7.6l1.3-6.1
	c0.5-13.4,3.2-27.3,5.7-40.5l3.8-15.4C341,754.7,347.5,737.6,357.3,722.4z"/>
<path style="fill:#057C8E;" d="M357.3,722.4c5.2,12.3,6.8,29.1,10,42.3l13.1,47.9l-1.8,0.9c-13.3-13.5-27.9-31.1-43.3-41.8
	C341,754.7,347.5,737.6,357.3,722.4z"/>
<path style="fill:#13AFB9;" d="M364.3,721.7c18.8,9.1,34.5,21,50.5,34.3l-20.5,54L364.3,721.7z"/>
<path style="fill:#13AFB9;" d="M447.7,791.1c-2.2,9.3-6.7,18.7-10.1,27.6l-21.2,52.4c-2.2-2.3-3.4-6.8-4.6-9.9c-4-10.2-7-21-10-31.5
	l14.9-42.5c2.5-7.2,4.4-14.9,8.3-21.5L447.7,791.1z"/>
<path style="fill:#13AFB9;" d="M458.3,805.6c6.9,10.3,14.8,21.3,19.4,32.9l-42.1,107.3l-10.2-38c-0.8-2.6-4.4-9.6-4.2-11.8
	c0.2-2.8,5.2-10.3,6.6-13.6L458.3,805.6z"/>
<path style="fill:#057C8E;" d="M335.2,771.7c15.5,10.7,30,28.3,43.3,41.8l1.8-0.9c3.4,8.9,6.6,18.2,8.3,27.6l0.2,0.9l12.3,41.3
	c-8.6-3.6-17.5-11.6-25-17.2c-16.6-12.5-33.2-26.1-50.5-37.6c0.5-13.4,3.2-27.3,5.7-40.5L335.2,771.7z"/>
<path style="fill:#13AFB9;" d="M335.2,771.7c15.5,10.7,30,28.3,43.3,41.8l1.8-0.9c3.4,8.9,6.6,18.2,8.3,27.6l0.2,0.9l-34.5-33.5
	c-6.9-6.9-14.1-16.3-23-20.5L335.2,771.7z"/>
<path style="fill:#057C8E;" d="M325.7,827.6c17.3,11.5,33.8,25.1,50.5,37.6c7.5,5.6,16.4,13.6,25,17.2l6.6,22.3l13,43.6
	c-13.9-6.1-26.9-15.3-39.9-23.2l-54.7-31.6c-2.9-16.6-2.7-35.5-1.5-52.3l-0.3-7.6L325.7,827.6z"/>
<path style="fill:#13AFB9;" d="M325.7,827.6c17.3,11.5,33.8,25.1,50.5,37.6c7.5,5.6,16.4,13.6,25,17.2l6.6,22.3
	c-17.1-9.5-33.3-24-48.9-36.1c-11.5-8.9-23.8-17.2-34.2-27.3l-0.3-7.6L325.7,827.6z"/>
<path style="fill:#EB766C;" d="M1091.2,211.7c9.5-10.8,18.6-24.4,29.9-33.2c8.3-1.1,17-0.6,25.4-0.6l45.6-0.1h58.9
	c10.5,0,21.6-0.6,32,0.4c3,0.3,5,1.1,7.5,2.8c4.8,3.8,8.2,7.4,8.9,13.8l0.1,37.5v36c0,5.2,0.8,11.5-0.3,16.5
	c-0.6,2.6-2.3,4.7-4.2,6.5c-2.2,2.1-4.9,4.1-7.9,4.7c-8.9,1.7-20.4,0.4-29.6,0.4h-69.3c-5.2,0-13.2-1.1-18.2,0
	c-1.8,0.4-8.2,7.2-9.9,8.8l-23.9,24.8c-3.6,3.7-7.3,8.6-11.4,11.6c-1,0.8-1.9,1-3.1,1.3l-2.5-2.5c-1.4-3.6-0.7-7.9-0.4-11.6
	c0.9-9,4.9-25.5,2.7-34l-9.3-1.2c-12.2-8.7-23-20.2-34.3-30.1c-4.1-3.6-12.8-9.5-15.3-14.1c-0.4-0.8-0.4-1.9-0.6-2.8
	c2.2-5.3,6.6-9.4,10.3-13.7L1091.2,211.7z"/>
<path style="fill:#FEFEFE;" d="M1196.4,235l0.9-0.4c3.9-1.3,7-0.6,10.6,1.2c2,2.2,3.4,4.6,3.1,7.7c-0.4,4.5-2.5,5.9-5.5,8.8
	c-3.3,1.2-5.2,0.9-8.5,0.2c-2.8-2.8-5.3-4.7-5.4-9C1191.5,239.4,1193.7,237.6,1196.4,235z"/>
<path style="fill:#FEFEFE;" d="M1238.9,233.7c3.6,0,6.4-0.3,9.2,2.4c3.1,3,2.8,5.8,2.8,9.8c-1.6,3.6-3,4.9-6.4,6.8
	c-0.7,0.1-1,0.2-1.8,0.2c-3.4,0-6-0.3-8.3-2.9c-2.8-3.2-2.4-5.6-2.3-9.5C1234,237.1,1235.5,235.6,1238.9,233.7z"/>
<path style="fill:#FEFEFE;" d="M1159.9,233.7c1.3,0.1,2.4,0.3,3.6,0.8c2.5,1.2,4.5,3.6,5.4,6.3c0.8,2.4,0.7,5.3-0.6,7.5
	c-2.1,3.6-4.3,4-8,5.2c-4.2-0.4-6.9-1.7-9.5-5.2c-2-2.7-1.1-5.8-0.5-8.8C1153.8,236,1154.9,235.1,1159.9,233.7z"/>
<linearGradient id="SVGID_00000153677103408804425720000001710846906823350703_" gradientUnits="userSpaceOnUse" x1="1464.6726" y1="1329.9963" x2="1540.8752" y2="1568.9351" gradientTransform="matrix(0.75 0 0 -0.75 97.75 1350.9)">
	<stop  offset="0" style="stop-color:#B72133"/>
	<stop  offset="1" style="stop-color:#D74744"/>
</linearGradient>
<path style="fill:url(#SVGID_00000153677103408804425720000001710846906823350703_);" d="M1119.3,340.4l0.7-2.5
	c5.2-4.7,44-47.7,44.6-48c4.1-1.6,15.3-0.3,20.2-0.3l69.5-0.1c6.3,0,20.4,1.6,25.3-2.1l1-0.8c4.7-3.2,7.2-5.6,10.7-10.2
	c2.3-13.3,3.3-81.5-1.1-92c-0.6-1.4,0-2,0.4-3.4c4.8,3.8,8.2,7.4,8.9,13.8l0.1,37.5v36c0,5.2,0.8,11.5-0.3,16.5
	c-0.6,2.6-2.3,4.7-4.2,6.5c-2.2,2.1-4.9,4.1-7.9,4.7c-8.9,1.7-20.4,0.4-29.6,0.4h-69.3c-5.2,0-13.2-1.1-18.2,0
	c-1.8,0.4-8.2,7.2-9.9,8.8l-24,24.8c-3.6,3.7-7.3,8.6-11.4,11.6c-1,0.8-1.9,1-3.1,1.3L1119.3,340.4z"/>
<path style="fill:#13AFB9;" d="M744.7,951.9l2.1,26.9l1.7,17.7l2.5,30.5l1.5,13.2l1.6,11l-8.2,20.6c-2,4.5-3.8,9.5-6.3,13.6
	l-20.9,33.7l-104.5-2.4c-6.1,2.8-11.4,8.5-16.2,13.2l-29.2,23.4c-5,4.1-10.7,8-15.2,12.6l-32.6,24.4c-10.9,8.3-18.9,18-27.2,28.7
	l-5.2,0.4c7.3-11.7,16.7-21.5,26.6-31.1l-0.8-7.2c-2.1-10-3.3-19.5-3.1-29.7c0.7-42.6,27.4-80.8,57.2-109.3l12.2-11.7l40.5-31.6
	c0.7-1.6,10.2-7.1,12.2-8.6l39.9-21.5l10.5-4.2l40.1-10.8l11.8-1.5L744.7,951.9z"/>
<path style="fill:#076F85;" d="M744.7,951.9l2.1,26.9c-5.4,1.7-10.2,7.7-14.3,11.6l3.1-38.1L744.7,951.9z"/>
<path style="fill:#075F7B;" d="M751,1026.9c-9.7-2.2-20.3-2.9-30.3-3.9l27.8-26.6L751,1026.9z"/>
<path style="fill:#076F85;" d="M745.8,1071.6l-78.3-1.3l25.4-21.6c3.7-3.3,9.2-9.6,13.5-11.5c3.1-1.4,16,0.9,19.9,1.2
	c7.7,0.6,17,2.6,24.6,1.8l1.6-0.2l1.6,11L745.8,1071.6z"/>
<path style="fill:#076F85;" d="M683.7,964.6l40.1-10.8l-6.1,40.4c-0.5,3.5-0.5,10.2-1.9,12.9c-2.3,4.6-9.3,9.6-13.2,13l-25.3,22.7
	L683.7,964.6z"/>
<path style="fill:#076F85;" d="M633.4,990.2l39.9-21.5l-9.4,67.9c-0.7,5.4-0.5,16.8-2.6,21.5c-0.6,1.4-4.8,4.5-6.1,5.6l-25.4,21.8
	L633.4,990.2z"/>
<path style="fill:#076F85;" d="M614.1,1116.6l38.1-32.1c5.1-1.1,11-0.4,16.2-0.3l30.3,0.6c12.7,0.1,28.5-2.1,40.9,0.5l-20.9,33.7
	L614.1,1116.6z"/>
<path style="fill:#076F85;" d="M621.2,998.8c1.5,4.7,0.4,9.9-0.1,14.7l-2.6,27c-1.6,18.4-1.2,38.8-4.8,56.7l-39.1,32.2l5.2-69.9
	c0.5-9.1,2-20.1,0.9-29.2L621.2,998.8z"/>
<path style="fill:#076F85;" d="M568.5,1042.1c0.4,9.8-1.7,19.9-2.6,29.7l-7.1,70.8l-44.4,38.6c-2.1-10-3.3-19.5-3.1-29.7
	C512,1108.8,538.7,1070.6,568.5,1042.1z"/>
<linearGradient id="SVGID_00000182515413296144241450000008971277612893749669_" gradientUnits="userSpaceOnUse" x1="1435.6563" y1="683.4204" x2="1432.3279" y2="931.783" gradientTransform="matrix(0.75 0 0 -0.75 97.75 1350.9)">
	<stop  offset="0" style="stop-color:#224182"/>
	<stop  offset="1" style="stop-color:#4565A5"/>
</linearGradient>
<path style="fill:url(#SVGID_00000182515413296144241450000008971277612893749669_);" d="M1063.4,701.2l11.4-32.9
	c2-5.9,4-14.6,8.6-18.9c2.7-2.6,6-3.8,9.7-4.2c7.6-0.9,15.9-0.3,23.6-0.3l45.1,0.1l138.4-0.4c5,0,6.5,1.2,9.8,4.5
	c2.1,2.8,3,5.4,2.5,8.9c-2,13.4-9.9,29.1-14.5,42l-37.2,105.9c-3.6,10.1-10.2,23.3-11.4,33.7l-213.7,0.1l-1.8-1.9l2.1-9.3l1.2,1
	c8.2-0.4,15.5-6.9,21.1-12.8c6.5-6.9,16.3-18.8,15.7-28.9c-0.2-3.3-1.1-3.4-3.5-5.4c-6.6-1.7-13.4-0.6-20,0.2l-13.9,1.8
	c0.1-3.7,2.8-9.3,4.2-13c3.3-19.3,12.9-39.4,18.6-58.4L1063.4,701.2z"/>
<path style="fill:#FEFEFE;" d="M1175,730.6c2.4-0.5,5-0.2,7.3,0.5c3.3,1.1,6.4,4.1,7.6,7.4c1.7,4.8,0.6,10.7-2,15
	c-2.9,4.8-6.7,7.4-12.1,8.8c-2.5,0.1-4.9-0.5-7.4-1c-3.3-2.2-5.4-4.3-6.7-8.1c-1.4-4.3-0.5-9.3,1.5-13.3
	C1165.8,734.6,1169.6,732.5,1175,730.6z"/>
<path style="fill:#172969;" d="M1063.4,701.2l11.4-32.9c2-5.9,4-14.6,8.6-18.9c2.7-2.6,6-3.8,9.7-4.2c7.6-0.9,15.9-0.3,23.6-0.3
	l45.1,0.1l138.4-0.4c5,0,6.5,1.2,9.8,4.5c-8.1,4.2-149.5,1.5-170.7,1.5c-12.2,0-26.7-1.5-38.7,0.4c-2.4,0.4-5.4,2.1-7,3.8
	c-5.5,5.8-9.2,23.4-12,31.4l-27.1,78.9c-1.8,5.5-3.7,11.7-4.1,17.5l-13.9,1.8c0.1-3.7,2.8-9.3,4.2-13c3.3-19.3,12.9-39.4,18.6-58.4
	L1063.4,701.2z"/>
<path style="fill:#A2CDF6;" d="M1775.1,661.5c-0.2-1-0.4-2.2-1.2-3c-1.4-1.6-4.3-2.6-6.3-2.9c-4.5-0.8-8.3,0.9-11.6,3.9
	c-3.8,3.5-3.1,14.2-3.3,19.3c-7.4,2.4-16,3.3-23.8,3.7l-7.5-15.4c-1.8-3.1-10.4-4.6-13.8-5.6l-14,11.9c-8.2-5-16.7-11.7-23.8-18.3
	c2.4-5.7,7.2-11.2,7.5-17.4c-1.5-3.5-1.6-7.2-2.9-10.4c-1.9-4.6-14-2.4-18-4.3c-6.1-2.9-2.4-12.8-4.7-17.8l-0.5-1
	c3-5.2,5.7-3.5,10.6-5.8c1.3-0.6,7.8-5.7,8.1-7c0.4-1.5-1.2-3.2-0.3-5.8c0.9-2.3,1.8-3.8,1.7-6.4c-0.2-4.8-0.8-5.3-4.4-8.6
	c1.9-3.8,3.8-1.3,7.3-4.3c0.4-3.3,0.8-6.1,2.2-9.2c0.9,1.7,0.9,3.2,1,5.1l2.5-1.5c0.1-3.7-0.7-4.3-2.6-7.3
	c2.1-8.9,10.7-14.5,17.8-20l10.2,8.5c3.1,2.1,6,2,9.5,1.1c7-1.7,10.9-10.3,14.4-16l23.5,1.6l2.4,15.6c1.2,4.3,6.5,6.5,10.1,8.6
	l16.1-6.4c5.9,6.8,9.8,14.2,13.7,22.2c-3.3,3.1-7,6.3-8.3,10.7c-1,3.4-0.8,7.1,0.9,10.2c2.8,4.9,12.5,6.9,17.4,8.4l-2.8,25.8
	c-4.2,0.8-9.6,1.1-13.6,2.6c-2.5,1-4.1,3.3-5.2,5.7c-2,4.5-1.8,9.6,0.2,14.1l0.4,0.9l7.3-9.4l22.6,7.8c5.3-2.7,17.8-8.5,19.6-14.3
	l4.5-23.3l30.5-5.9c4.4,7.8,8.3,17.4,13.8,24.3l15.2,3l14.2-14.2c8.9,4.9,20.7,6.1,23.8,16.7l3.5,14.2l2.8-2.9
	c2.4,6.7,6.1,11.6,12.6,14.8c3.3,1.6,8.1,1.5,11.7,1.3c2.9-2.3,9.6-1.9,13.3-2.1c-5.3,14.5-11.5,25.3-20.4,37.9
	c-1.1,1.5-1.4,1.2-0.9,3.1c5.9-2.7,11.9-8.7,17.1-12.7l4.3,18.2c-6.3,2.9-12.5,5.7-19.2,7.5c-1.2,7.4-2.4,14.7-2.3,22.3
	c4,4.3,12.9,10.2,15.4,15l-15.3,30.7l-24.4-4.8c-5.9,4.8-11.1,9.5-16.2,15.2l2.8,20.1c-12,5.2-23.6,7.9-36.2,11.1l-12.1-23.5
	l-24.3-3.5c-6.4,4.8-11.5,11.4-17.5,16.6c-8.1-4.9-25.5-12.3-30.4-19.7l7.6-23.6l-12.8-16.7c-7.7-0.1-18.2,1.1-25.5-1.2
	c-2.1-5.3-3.5-10.2-4.5-15.9l-1.8-8.4l-1.4-9.2c2.2-5.6,18.4-11,24.1-14.3c0.6-4.6,3.2-12.4,2.9-16.7c-0.3-4.7-11.8-12.1-13-17.7
	C1775,665.6,1775.1,663.3,1775.1,661.5z"/>
<path style="fill:#FEFEFE;" d="M1938.9,646.5l2.8-2.9c2.4,6.7,6.1,11.6,12.6,14.8c3.3,1.6,8.1,1.5,11.7,1.3l-8.9,16.7
	c-1.5-0.6-4.5-1.8-5.5-3.2c-1.9-2.8-2.6-8.9-4.2-12.3C1945.3,655.9,1941.5,651.5,1938.9,646.5z"/>
<path style="fill:#E26F6E;" d="M1966.1,659.7c2.9-2.3,9.6-1.9,13.3-2.1c-5.3,14.5-11.5,25.3-20.4,37.9c-1.1,1.5-1.4,1.2-0.9,3.1
	c-0.5,0.4-1.2,1-1.9,1.2c-3,1-4-0.4-6.3-1.9c-1.9-7.8,3.6-14.8,7.3-21.4L1966.1,659.7z"/>
<path style="fill:#FEFEFE;" d="M1721.5,569c6.7-0.3,12.4-0.8,18.6,1.8c8.5,3.6,15.4,11.1,18.6,19.7c2.9,7.9,2.2,16.8-1.4,24.3
	c-5,10.3-12.7,14.8-23.1,18.5c-5.8,0.3-11.7,0.9-17.1-1.6l-6.8-3.5c-6.8-4.2-12.1-11.6-13.7-19.5l-0.3-1.5
	c-1.2-6.4-0.5-12.8,2.1-18.7C1703.2,578,1711.3,573.1,1721.5,569z"/>
<path style="fill:#FEFEFE;" d="M1866.1,670.3c8.7-0.7,16.5-0.5,24.5,3.1c10.1,4.4,18.6,13.1,22.5,23.5c3.7,10.2,3.6,22.4-1,32.3
	c-6.1,13-16.4,19.8-29.5,24.5c-11.3,1.2-21.5,1.1-31.4-5.2c-9-5.7-16.5-15.5-18.7-26c-2.4-11.4-0.3-23.1,6.1-32.8
	C1845.6,679.2,1854.4,674,1866.1,670.3z"/>
<path style="fill:#5372BF;" d="M1840.6,175.7c0.1-2.5,0.5-3.6,1.8-5.7c6.5-3,21.6-1,28.8,0.7c4,1.3,4,1.5,6.3,5
	c0.1,11.2-1.6,22.5-3.3,33.5c22.8,5.6,41.1,12.5,60.1,26.8c9,6.7,17,14.3,24.8,22.2c13.7,20.1,22.2,38.7,29,62
	c1.9,6.8,0.6,29.3,5.1,32.1l-3,1.8c-2.1,20.9-6.7,39.4-16.7,58.1c-5.2,8-9.3,15.8-15.5,23.2c-1.2,1.4-3.2,4.5-4.8,5.3
	c-15.2,14.6-31.5,26.2-51.2,34c-10.4,4.3-21.1,5.3-31.5,9l-0.7,3.1c-2.6-3.8-8-2.2-12.5-2.2c-18.2,0.2-33.6-2.7-51.3-6.6
	c-7.3-6-21.3-9.9-30.1-14.4c-10.4-7-21.4-15.3-29.7-24.8c-4.2-4.7-7.3-10.3-12-14.6c-0.8-3.8-4.4-8.4-6.3-11.9
	c-3.2-5.7-5.9-11.7-8.7-17.6c-2.9-10.2-6.7-21.3-7.6-31.9c-0.6-7.8,1.3-19.5-1.8-26.4l0.4-0.9c3.9-8.2,4.7-21.3,7.2-30.6
	c2.9-13.4,10-26.1,17.3-37.6l15.5-19.7c8.4-9.4,19.4-15.2,30.2-21.4c18.9-11.5,37.1-16.1,59-18.1c0-10.2-0.8-21.6,0.9-31.7
	L1840.6,175.7z"/>
<path style="fill:#344E91;" d="M1871.2,170.7c4,1.3,4,1.5,6.3,5c0.1,11.2-1.6,22.5-3.3,33.5l-14.2-3.4c0.9-10.9,1-23.9,4.1-34.4
	L1871.2,170.7z"/>
<path style="fill:#FEFEFE;" d="M1770.2,322.4c8.7-21.8,22.9-39.7,45-49.3c20.3-8.8,43-9.7,63.6-1.4c20.6,8.3,35.7,24.7,44.3,45
	c2.6,6.2,4.2,13.2,5,19.9c-15.8-3.1-32.1-3.8-48.1-5.5L1770.2,322.4z"/>
<path style="fill:#E3EDF9;" d="M1770.2,322.4l109.8,8.7c16,1.6,32.3,2.3,48.1,5.5c0.7,9.7,0.5,18.3-1.7,27.9
	c-4.7,20.1-18.1,38-35.8,48.8c-19.4,11.8-42.4,15-64.4,9.6c-19.5-4.8-37.6-18.1-48-35.4C1765.6,366.4,1764.4,345.8,1770.2,322.4z"/>
<path style="fill:#FEFEFE;" d="M1481.3,665.3l-28-2.5c-43.7-7.2-84.5-33.3-110.1-69.4c-23.8-33.6-38-80.9-30.8-122
	c7.9-45,29.3-84.3,67.2-110.7c38.9-27.2,86-39.1,133.1-30.8c34.8,6.1,68.3,23.8,93.2,48.9c8.3,8.3,15.2,18.3,21.8,27.9
	c23.4,39.7,32,84.6,20.5,129.7c-11.4,44.9-39.5,82.5-79.4,105.9C1542.8,657.5,1511.3,665.7,1481.3,665.3z"/>
<path style="fill:#344E91;" d="M1493.5,499l127.8-0.2c-2.3,25.8-8.6,47.9-22,70.4l-17.8,22.8c-5.4-2.8-12.7-13.7-17.2-18.5
	L1493.5,499z"/>
<path style="fill:#5372BF;" d="M1487.2,358.4c29.4,1.6,56.7,11.9,80.2,29.7c32.3,24.6,48.1,58.4,53.6,98.1l-133.4-0.4L1487.2,358.4z
	"/>
<path style="fill:#7DB0EF;" d="M1467.2,359.3c3.4-0.4,4.8-1.1,7.7,0.8l-0.2,121.8c-3.3,2.8-5.2,5-7.2,8.8c0.1,5.3,0,7.5,4.1,11.4
	c3.1,2.9,5.8,3.3,9.8,3.2c2,0,82.7,85.6,92.4,94.8l-4.7,3.6c-32.8,23.8-71.2,33.2-111.2,26.9c-20.4-3.5-39.5-11.1-56.4-23.1
	c-31.4-22.4-51.2-55.2-57.5-93.1c-5.7-34.3,4.2-71.6,24.5-99.6C1392,382.4,1428.5,365.3,1467.2,359.3z"/>
<path style="fill:#13AFB9;" d="M879.8,516.2c22.7,1.8,50.1,2.9,70.6,13.3c14.4,7.3,27,20,37.4,32.2c13.9,16.4,25.3,34.6,35.5,53.4
	c3.2,5.9,7.5,12.6,9.3,19l-4.3,5.8c10.7,20.8,21.3,42.3,35,61.3l-4,12.1c-5.7,18.9-15.3,39.1-18.6,58.4c-1.3,3.6-4.1,9.2-4.2,13
	l13.9-1.8c6.7-0.7,13.4-1.9,20-0.2c2.4,2.1,3.3,2.1,3.5,5.4c0.6,10.2-9.1,22.1-15.7,28.9c-5.6,5.8-12.9,12.4-21.1,12.8l-1.2-1
	l-3.3-0.1c-14.8-2.9-32-2.6-47.2-3.7l1,10.2c-6,1.1-12.1,2-18.2,2.4c-5.2,0.3-10.4-0.5-14.8,2.4c-0.4,4.2-0.2,6.4,1.9,10.1
	c8.1,3.1,22.1,0.1,31,0.8h3.3l0.9,25.9l-0.8,0.7c-15.5,3.5-30.8,7.8-46.5,10.4c-53.4,8.9-108.3,9.1-162.1,3l-26.6-4.4
	c-4.7-1-10.3-3-14.9-1.5l-1.2-1.1c-0.5-0.5-2-1.9-2.2-2.4c-1.1-2.1-1.3-172.2-1.4-184.6c-2.5-7-7.4-14.3-10.9-21
	c-9.6-18.6-17.6-40.2-20-61c-2.1-18,2.3-33.6,13.7-47.7c25.1-31.3,72.4-46.1,110.8-50.5c0,2.7,0.1,5.5,0.9,8.1
	c1.7,5.7,6.5,9.9,11.6,12.7c7.7,4.2,18,5.8,26.4,3.3c4.9-1.5,10.8-4.9,12.9-9.8C882.1,526.3,881.5,520.5,879.8,516.2z"/>
<path style="fill:#088995;" d="M771,563.4c3.4-1.5,5-2.6,8.7-1.3c22.7,7.8,37.7,52.2,46.3,72.4l22.8,56.9c2.4,6.2,6,11.9,6.2,18.7
	c-12-13-20.8-28.6-29.9-43.8l-26-59.4C791.4,590.3,785.1,576,771,563.4z"/>
<path style="fill:#057C8E;" d="M978.8,670.7l-4.3-79.7c-1.3-13.3-3.8-26.4-6.5-39.6l54.1,93.9l-5.6,4.2L978.8,670.7z"/>
<path style="fill:#2DD6D6;" d="M777.9,694.1l-1.3-1.8c-5.3-7.9-9.5-16.7-14.1-25c-9.8-17.7-18.7-35.3-25.6-54.4
	c-4.2-11.6-8-24.5-5.8-36.8c0.7-3.8,1.7-7.7,3.9-11c2.9-4.5,8.4-6.8,13.4-7.9c8.8-1.9,15.4,1.6,22.7,6.2
	c14.1,12.6,20.4,26.9,28.1,43.6l26,59.4L777.9,694.1z"/>
<path style="fill:#EB7A37;" d="M1028.3,639.9c10.7,20.8,21.3,42.3,35,61.3l-4,12.1c-5.7,18.9-15.3,39.1-18.6,58.4l-8.3-3
	c-5.4,0.8-11.4,1.4-16.6,3.1c-4.9,1.7-9.6,4.8-14.7,5.9c-5.4,1.2-11.7,0.4-17.1,0l-3.7-61.4c-2-14.9-1.3-30.6-1.5-45.6l37.8-21.1
	l5.6-4.2L1028.3,639.9z"/>
<path style="fill:#F49A79;" d="M1028.3,639.9c10.7,20.8,21.3,42.3,35,61.3l-4,12.1c-17.5-19.7-29.9-40.8-42.8-63.7l5.6-4.2
	L1028.3,639.9z"/>
<path style="fill:#FEFEFE;" d="M980.3,716.3c15.6,19.8,32.5,36.5,52.1,52.3c-5.4,0.8-11.4,1.4-16.6,3.1c-4.9,1.7-9.6,4.8-14.7,5.9
	c-5.4,1.2-11.7,0.4-17.1,0L980.3,716.3z"/>
<path style="fill:#F49A79;" d="M825.2,666.4c9.1,15.1,17.8,30.7,29.8,43.7c11.2,11.7,22.7,22.7,36.1,32
	c28.1,19.5,59.7,28.9,92.9,35.6c5.5,0.4,11.7,1.2,17.1,0c5.1-1.1,9.8-4.2,14.7-5.9c5.1-1.8,11.2-2.3,16.6-3.1l8.3,3
	c-1.3,3.6-4.1,9.2-4.2,13l13.9-1.8c6.7-0.7,13.4-1.9,20-0.2c2.4,2.1,3.3,2.1,3.5,5.4c0.6,10.2-9.1,22.1-15.7,28.9
	c-5.6,5.8-12.9,12.4-21.1,12.8l-1.2-1l-3.3-0.1c-14.8-2.9-32-2.6-47.2-3.7c-60.6-3.2-122.9-10.9-172.6-48.9c-0.3-4.1-3.8-7-6.3-10.3
	c-5.2-6.8-10.4-13.9-14.7-21.2c-8.6-14.6-14.5-30.6-22-45.7l8.2-4.6L825.2,666.4z"/>
<path style="fill:#088995;" d="M735,696.8l11.5,15.6c1.5-0.7,2.9-1.4,4.3-2.3l19-11.2c7.5,15.1,13.5,31.1,22,45.7
	c4.3,7.4,9.6,14.5,14.7,21.2c2.5,3.3,6,6.1,6.3,10.3c49.8,38,112.1,45.7,172.6,48.9l1,10.2c-6,1.1-12.1,2-18.2,2.4
	c-5.2,0.3-10.4-0.5-14.8,2.4c-0.4,4.2-0.2,6.4,1.9,10.1c8.1,3.1,22.1,0.1,31,0.8h3.3l0.9,25.9l-0.8,0.7
	c-15.5,3.5-30.8,7.8-46.5,10.4c-53.4,8.9-108.3,9.1-162.1,3l-26.6-4.4c-4.7-1-10.3-3-14.9-1.5l-1.2-1.1c-0.5-0.5-2-1.9-2.2-2.4
	C735.3,879.3,735,709.1,735,696.8z"/>
<path style="fill:#EB7A37;" d="M750.7,710l19-11.2c7.5,15.1,13.5,31.1,22,45.7c4.3,7.4,9.6,14.5,14.7,21.2c2.5,3.3,6,6.1,6.3,10.3
	C787.4,759.6,766.2,735.9,750.7,710z"/>
<path style="fill:#13AFB9;" d="M781.3,890.7c-2.1-9.4,0.3-23.6,0.5-33.4l0.6-54.6c5.2,5.4,10.7,10.1,16.8,14.6
	c39.1,29,87.6,46.5,136.5,43.2c13.1-0.9,26-3.7,39-5.5c5-0.7,7.6-1.5,11.7-4.2h3.3l0.9,25.9l-0.8,0.7c-15.5,3.5-30.8,7.8-46.5,10.4
	C890,896.6,835,896.8,781.3,890.7z"/>
<path style="fill:#05104D;" d="M781.3,890.7c53.7,6.1,108.7,5.9,162.1-3c15.7-2.6,31-6.9,46.5-10.4c1,5.7,2.7,10.5,4.9,15.8
	l48.9,152.7c6.2,19.9,15.6,42.1,18.7,62.6c1,6.4-0.2,14-0.5,20.5l-2.5,44.4l-13.5,198.2l-1.9,16.8c-0.3,4.3,0.1,11.1-2.1,14.8
	l-6.2,1.3c-4.7-2.3-14-1.2-19.3-1.4l-46.9-1.5c4.9,5.6,3.3,21.8,2.8,29.2c-0.1,2.1-0.5,3.8-1.2,5.8c-7.6,12.8-11.1,25.1-10.2,40.1
	l-1,4.2l-66.9,0.3c-11.7,0-24.2,1-35.8-0.2l-1.5-1.5l0.1-1.4c-0.9-6-3.3-10.2-6.5-15.4c-5.3-6.4-18.2-8.9-25.9-11.5l-27.7-10.6
	c-7.1-3.1-13.8-7.2-20.4-11c0.5-3.7,0.8-7.2,0.6-10.9c2.1-4.2,3.7-8.4,7.6-11l-67-9c-1.7-0.6-3.2-1.5-4.7-2.4
	c-0.1-6.6,1.8-13.6,3.1-20.1l6.6-35.2l31.1-155.7l7-32.7c1.1-4.8,3.3-9.5,3.6-14.5c0.5-7.7-1.5-16.3-2.3-23.9l-7-63.3l-1.6-11
	l-1.5-13.2l-2.5-30.5l-1.7-17.7l-2.1-26.9l-5-67.1c4.6-1.5,10.2,0.5,14.9,1.5L781.3,890.7z"/>
<path style="fill:#172969;" d="M994.8,893.2l48.9,152.7c6.2,19.9,15.6,42.1,18.7,62.6c1,6.4-0.2,14-0.5,20.5l-2.5,44.4l-13.5,198.2
	l-1.9,16.8c-0.4-2.7-0.3-5.2-0.1-7.9c-3-1.9-18.3,0.7-22.7,0.9c-5.7,0.2-12.4,1.5-16.8-2.8c-18.3-18.1-20.5-209.4-20.2-241.7
	c11.8-1.8,31.3-4.2,40.6-11.9c-0.5-2.4-0.6-2.6-2.4-4.3l-10.2,4c-9.4,2.9-24.4,5-33.3,0.2c2.8-4,3.1-5.2,1.4-9.9l-14.2-37.9
	c-17.6-52.6-32.1-111.8-33.9-167.5C953.7,906,974.1,900.3,994.8,893.2z"/>
<path style="fill:#FEFEFE;" d="M901.5,1059.3l26.1,51.8c3.3,6.7,8.7,14.8,10.6,22c1.4,5.4,1.4,11.7,2,17.3l3.8,33.1l18.1,156.6
	l4.4,39.4c0.7,7,0.5,15.8,3.1,22.2c4.9,5.6,3.3,21.8,2.8,29.2c-0.1,2.1-0.5,3.8-1.2,5.8c-7.6,12.8-11.1,25.1-10.2,40.1l-1,4.2
	l-66.9,0.3c-11.7,0-24.2,1-35.8-0.2l-1.5-1.5l0.1-1.4c-0.9-6-3.3-10.2-6.5-15.4c-5.3-6.4-18.2-8.9-25.9-11.5l-27.7-10.6
	c-7.1-3.1-13.8-7.2-20.4-11c0.5-3.7,0.8-7.2,0.6-10.9c2.1-4.2,3.7-8.4,7.6-11c4.6-2.3,8.7-16.1,10.8-21.2c1.9-3.1,3-7.3,4.3-10.8
	c4.6-5.1,8-16.9,10.9-23.3l38.7-89.4c14.8-37,32.4-74.5,41.4-113.5C896.6,1119.9,898.5,1089.6,901.5,1059.3z"/>
<path style="fill:#344E91;" d="M797.1,916.1c26.2,1.9,52.6,1.8,78.9,0.1l24-2.2c2.4-0.2,6.2-1.2,8.3-0.1l-3.8,92.3
	c-1,17.1-4.2,36.3-2.9,53.2c-3,30.3-4.9,60.6-11.7,90.3c-9,39-26.6,76.4-41.4,113.5l-38.7,89.4c-2.9,6.5-6.3,18.2-10.9,23.3
	c-1.3,3.5-2.4,7.6-4.3,10.8c-1.1-0.6-2-1-3.3-1c-8.9-0.3-28.1-0.4-35-6.4c-7.4-6.4-2.3-33.2-1.1-42.3l22.8-130.8
	c4-19.3,11.3-39.3,12.6-58.9c0.7-10.1-0.7-20.7-1.3-30.8l-4.9-60.3L774,914.4C778.5,912.7,791.9,915.6,797.1,916.1z"/>
<path style="fill:#172969;" d="M794.5,1386.6c-1.1-0.6-2-1-3.3-1c-8.9-0.3-28.1-0.4-35-6.4c-7.4-6.4-2.3-33.2-1.1-42.3l22.9-130.7
	c4-19.3,11.3-39.3,12.6-58.9c0.7-10.1-0.7-20.7-1.3-30.8l-4.9-60.3L774,914.4c4.5-1.7,17.9,1.2,23.1,1.7l7.3,138.4l1.7,44.6
	c0.4,7.6,0.3,16.2,2.1,23.6c1.7,7,5.8,11.3,11.1,15.9c6.4,5.6,14.6,7.7,20.8,12.8c3.9,0.4,8.3,0.3,11.9,1.6l-0.1,4.1
	c-2.9,3.5-4.8,3.3-9.3,3.8l-32.4,1.7c-14.6,39-22.7,79.9-32.2,120.3c-5.5,23.3-13.8,49.5-14.7,73.3c-0.1,3.3,0.5,6.7,1.9,9.8
	c2.1,4.5,7.6,8.5,12.1,10.2l5.7,1.5c2.3,0.5,0-0.1,2.4,0.8c3.3,1.1,6-0.6,9.2,1.6l3.1-5l1.1,0.9
	C797.5,1379.3,796.4,1383.5,794.5,1386.6z"/>
<path style="fill:#05104D;" d="M851.9,1157c-6.6,0.4-13.5-0.2-20.1-1.3c-8.2-1.3-16.3-3.9-21.4-10.8l0.8-1.2
	c9.3,3.8,17.2,7,27.4,7.5l1.5,0.1c3.9,0.4,8.3,0.3,11.9,1.6L851.9,1157z"/>
<path style="fill:#5372BF;" d="M1540.2,1318.3l-236-0.5l-65-0.1c-10.2,0-21.8,1-31.8-0.6c-4.6-0.7-9.6-3.5-13.1-6.5
	c-4.4-3.9-7.3-9.6-7.5-15.6c-0.4-10.9,3.6-23.6,5.5-34.3l18.7-102l32.8-180.4c5.7-32.4,9.7-66,17.1-98c1.3-5.7,3.2-10.3,7.4-14.5
	c4.3-4.3,10.5-7.9,16.6-8.8c12.6-1.8,27-0.3,39.8-0.3l78.1,0.1l284.8,0.1h25.7c24.5,0,227.7-2.1,232.9,1.4
	c8.4,5.8,18.5,12.2,24.6,20.4l-48.2,269.1l-0.4,0.8c-3.5-1.1-6.2-2.7-9.8-1.8c-1.7,11.4,1.1,25.8,2,37.3c0.2,2.1,0.3,5,0.9,7v1.7
	c0.3,2.2,1,11.5,2,12.9l-11.4,63.1c-1.9,10.2-3,22.4-6.9,31.9c-2.1,5-5.4,9.6-9.8,12.6c-11.2,7.8-30.3,5.1-43.6,4.9
	c-13.5-0.1-132.6-2-137.2,1.3l24.8,79.3c2.8,10.4,5.2,20.9,9.3,30.9c-3.8,0.2-8.1,0.1-11.8,1.1c-6-2-12.5-1.4-18.8-1.4l-30.2,0.1
	h-112.2l-26.9-101.3L1540.2,1318.3z"/>
<path style="fill:#172969;" d="M1946.1,858.4c8.4,5.8,18.5,12.2,24.6,20.4l-48.2,269.1l-0.4,0.8c-3.5-1.1-6.2-2.7-9.8-1.8
	c-1.7,11.4,1.1,25.8,2,37.3c0.2,2.1,0.3,5,0.9,7v1.7c0.3,2.2,1,11.5,2,12.9l-11.4,63.1c-1.9,10.2-3,22.4-6.9,31.9
	c-2.1,5-5.4,9.6-9.8,12.6c-11.2,7.8-30.3,5.1-43.6,4.9l6-3.5c6.3-4.1,10.1-9,12.4-16.2c4.6-14.8,6.7-30.8,9.5-46l16.1-89.9
	L1946.1,858.4z"/>
<path style="fill:#344E91;" d="M1540.2,1318.3l124.3-0.1h30.6c4.4,0,9.4-0.8,13.2,1.3l24.8,79.3c2.8,10.4,5.2,20.9,9.3,30.9
	c-3.8,0.2-8.1,0.1-11.8,1.1c-6-2-12.5-1.4-18.8-1.4l-30.2,0.1h-112.2l-26.9-101.3L1540.2,1318.3z"/>
<path style="fill:#05104D;" d="M1540.2,1318.3l124.3-0.1h30.6c4.4,0,9.4-0.8,13.2,1.3l24.8,79.3c-1.8,0.8-3.3,0.6-5.2,0
	c-14.2-4.2-28.6-11.3-42.4-16.8l-89.7-34.9c-17.5-6.7-35-14.3-53.1-19L1540.2,1318.3z"/>
<path style="fill:#A2CDF6;" d="M1296.8,881.5c12.3-1.3,25.3-0.7,37.7-0.7l60.7,0.1l193.2,0.3l200.5,0.6l74.1-0.2
	c15.3,0,30.9-0.6,46.2,0.9c2.2,1.7,3.7,2.2,4,5.2c0.8,7.6-3.2,20.1-4.7,27.9l-10.1,54.8l-47.1,255.6c-2.2,11.6-9.4,59.4-14,65.5
	l-5.8,0.2l-618.2,0.6c-0.9-3.6,1.2-9.9,1.8-13.7l6-34.5l25.8-152.4l23.7-144c3-16.9,4.2-35.7,9.4-51.9
	C1282.2,888.5,1290.3,884.8,1296.8,881.5z"/>
<path style="fill:#344E91;" d="M1447.9,1150.5c6-2.7,21.7-1,28.8-1l-3.5,18.6c-6.5,0.1-23.4,1.9-28.5-1
	C1443.1,1161.6,1445.5,1155.4,1447.9,1150.5z"/>
<path style="fill:#5372BF;" d="M1317,1149.5h31.1c-0.2,6.1-1.5,12-2.6,18c-6.9,0.1-25.3,2.3-30.7-1.1
	C1314,1160.6,1315.7,1155,1317,1149.5z"/>
<path style="fill:#5372BF;" d="M1276,1149.3l7.3-0.3c5.6-0.2,17.4-1.4,21.3,2.3l0.1,6.2c-0.2,4.6-1.9,7.1-5.2,10
	c-6.9,0.2-22.6,2.1-27.6-2.2c-0.2-1.5-0.4-2.7-0.3-4.3C1271.9,1156.7,1272.8,1152.1,1276,1149.3z"/>
<path style="fill:#344E91;" d="M1359.3,1149.5l32.5,0.1l-2.9,17.6l-33.1-0.1L1359.3,1149.5z"/>
<path style="fill:#5372BF;" d="M1404.6,1150.5c7.9-2.8,22-1.1,30.6-1.1c-0.5,5.7-0.3,13.8-3.9,18.4c-7,0-25.6,2-30.8-1.4
	C1400.5,1160.6,1401.1,1155.3,1404.6,1150.5z"/>
<path style="fill:#FEFEFE;" d="M1531.2,1221.3c13.7-1.6,29.4-0.3,43.3-0.3c5.9,0,13.9-1,19.2,1.4c0.2,1.4,0.5,3,0.2,4.4
	c-0.6,3.1-2.6,5.4-5.2,7.2l-60.3-0.2c-2.7-2.5-2.9-2.7-3.6-6.3C1527,1223.6,1527.3,1223.2,1531.2,1221.3z"/>
<path style="fill:#FEFEFE;" d="M1536.9,1192l0.7-0.2c7.7-1.5,54.9-1.6,59.6,1.3c0.3,1.6,0.6,3.3,0.4,5c-0.5,4.3-3,6.4-6.3,8.5
	c-8.9,0.8-18.3,0.2-27.3,0.2c-9.8,0-19.9,0.7-29.6-0.7c-2.8-2.6-2.8-3-3.5-6.8C1532.6,1195,1533.1,1194.6,1536.9,1192z"/>
<path style="fill:#FEFEFE;" d="M1706.5,1192l45.6-0.3c4.2,0,11.9-1,15.5,1.1c1.4,0.8,2.3,1.8,2.5,3.5c0.5,3.9-0.3,5.7-2.2,8.8
	c-0.8,0.5-2.5,1.7-3.3,1.9c-7.1,1.3-17.3-0.1-24.6-0.1l-66.9-0.3l-42.6,0.2c-6,0-14.2,1.1-19.7-1.1c-0.5-1.2-1.1-2.4-1.2-3.7
	c-0.3-4.3,0.8-5.9,3.4-8.9L1706.5,1192z"/>
<path style="fill:#FEFEFE;" d="M1605.8,1221.3c9.5-1.8,21.8-0.5,31.6-0.5l70.9-0.3l37.1-0.1c5,0,11.9-0.8,16.6,0.3
	c3.1,0.7,3.8,3,5.2,5.5c-0.5,3.3-1,4.9-3.3,7.3c-1.2,0.8-2.2,1.5-3.7,1.7c-14.3,2-31.4,0.1-46.2,0l-109.5-1.3l-1.8-2.3
	C1602.9,1226.8,1603,1225.5,1605.8,1221.3z"/>
<path style="fill:#E26F6E;" d="M1323.7,1201.5c6.6-0.2,13.6,0.5,19.2,4.3c4.9,3.3,8.7,8.8,9.9,14.6c1.7,8.2-1.5,17.4-6.1,24.1
	c-6.3,9.2-14.9,12.7-25.5,14.7c-6.5-0.3-12.2-0.5-18-3.8c-5.3-3-9.2-7.2-10.8-13.2c-2.3-8.5-0.3-16.6,4.2-23.9
	C1302.9,1208.4,1312.7,1204.2,1323.7,1201.5z"/>
<path style="fill:#FEFEFE;" d="M1326.1,1211.5c2.6-0.7,4.3-0.3,6.9,0.3c1.2,1.1,3.5,2.6,3.6,4.3c0.3,6.2-3.2,12.9-7.2,17.4
	c-0.7,0.4-0.9,0.6-1.7,0.9c-3.2,1.2-4.4,0.1-7.1-1.3c-1.4-2.2-1.6-3.5-1.4-6C1319.6,1220.1,1320.9,1216.2,1326.1,1211.5z"/>
<path style="fill:#F2A341;" d="M1420.3,1201.4c6.3-0.2,13.2-0.8,19.2,1.5c6.5,2.5,11.8,7,14.5,13.5c2.5,6,1.5,14.5-1.1,20.4
	c-5,11.3-13.1,16.9-24.3,21.4c-7.4,1.6-13.9,1.7-20.8-1.7c-6.3-3.1-10.8-9-12.9-15.6c-2.3-7.1-1.2-16.3,2.3-22.8
	C1402,1208.6,1410.5,1204.3,1420.3,1201.4z"/>
<path style="fill:#FEFEFE;" d="M1422.2,1212.3c3.8-0.2,7.8-0.2,11.5,1.1c3.6,1.3,6.2,4.6,7.7,8c1.7,4,1.3,7.8-0.3,11.8
	c-2.6,6.4-7.8,8.9-13.6,11.5c-3.6-0.1-7.6-0.1-11-1c-3.8-1-7.1-3.7-8.8-7.2c-1.8-3.7-1.5-7.1-0.1-10.9
	C1410.1,1218.5,1415.9,1215.3,1422.2,1212.3z"/>
<path style="fill:#FEFEFE;" d="M1282.7,1116.3l226.7,1c2.3,2.2,3.2,2.5,3.8,5.7c-2.4,3.6-2.8,4.3-6.8,6l-161.6,0.3l-46.5-0.1
	c-6.6,0-15.8,1-22-1.3c-2.3-3.2-2.2-3.3-1.9-7.3C1277.3,1117.1,1278.5,1117.2,1282.7,1116.3z"/>
<path style="fill:#FEFEFE;" d="M1525.5,1249.4c7.5-2.1,18.1-0.7,26-0.7l72.8,1.1c30.9,0.3,63-1.8,93.7,0.3c1.7,0.1,3.3,0.7,4.9,1.4
	c2.9,3.6,2.7,4.1,2.9,8.8c-2.5,3.5-3,3.8-7,5.4l-189.7,1.9c-2.9,0.1-5.4,0.3-7.6-2c-2.5-2.6-3.3-4.8-3-8.4
	C1519,1253.5,1522.7,1251.3,1525.5,1249.4z"/>
<path style="fill:#FEFEFE;" d="M1571.5,908.8l1.1-0.2c12-1.6,25.6-0.3,37.9-0.3h81.2l123.6-0.3c19.3,0,39-0.9,58.2,0.2
	c3.9,0.2,7.2,0.9,10.3,3.3c0.7,1.2,2,2.8,1.8,4.2c-0.6,5.5-1.4,7.8-5.8,11.4c-4.3,2-12.1,1.1-16.9,1.1l-40.6-0.1l-173.7-0.3
	l-53.3-0.1c-9.9,0-20.5,0.8-30.3-1C1565.7,918.5,1565.1,914.5,1571.5,908.8z"/>
<path style="fill:#FEFEFE;" d="M1461.1,972.8l56.7,0.1l-23.3,114.9c-17.2,0.1-37.8,2.2-54.7-0.2l-0.8-4.7l-5.6-3.6l6.2-29.9l6.2-1
	l6.7-36.7C1457.6,1000.2,1457,985,1461.1,972.8z"/>
<path style="fill:#7DB0EF;" d="M1439.7,1049.3l6.2-1l-6.8,34.5l-5.6-3.6L1439.7,1049.3z"/>
<path style="fill:#E26F6E;" d="M1787.3,1019c5.9,13.9,9.7,25.6,9.6,40.9c-0.2,25-12.4,49.7-30,67c-17.1,16.8-41.4,27.9-65.6,27.5
	c-25.5-0.4-49.2-10.9-66.7-29.6c-18.5-19.7-26.8-46.6-25.6-73.2c1-23.5,13.3-47.3,30.5-63c18.4-16.9,42.4-25.4,67.4-24.2
	c29.1,1.4,48.7,14,67.9,34.8l20.2-20.5c4.2,4.6,14.5,13.4,16.2,19.1L1787.3,1019z"/>
<path style="fill:#FEFEFE;" d="M1774.6,999.3l20.2-20.5c4.2,4.6,14.5,13.4,16.2,19.1l-23.7,21.1c-8.3,6.6-15.9,14.9-23.6,22.2
	l-46.2,44.6c-6.9,6.7-19.2,22.3-27.9,25.4c-3.1,1.1-4.9,0.7-7.7-0.8c-7.3-4-44.8-41.8-46.8-49c0.1-2.9,0.1-5.4,2.1-7.7
	c3.2-3.7,6.8-3.5,11.2-3.8c6,2.5,10.2,8.1,14.6,12.6l23.5,23.7L1774.6,999.3z"/>
<path style="fill:#4588E7;" d="M1308.4,1085c-0.6,1.3-1,2-2,3.1c-1.5,1.6-20.9,0.7-24.3,0.7c-0.4-1,29.3-162.5,33.6-174.4l155.4-0.1
	l37.1-0.1c4.2,0,11.3-0.8,15.2,0.4c0.9,0.3,2.6,1.8,3.4,2.4c0.9,4.4-0.5,9.4-1.3,13.8l-5.2,29.1c-0.4,2.4-1,9.8-2.3,11.6
	c-0.8,1.1-50.4-1.3-56.8,1.3c-4.2,12.1-3.5,27.4-8.6,38.8l-6.7,36.7l-6.2,1l-6.2,29.9l-1.7,7.7c-4.1,2.4-11.9,1.2-16.7,1.2
	l-44.1-0.4c-1.7-1.4-1.7-1.5-2.2-3.7l-0.8,3c-2,0.1-3.9,0.1-5.8,0.5c-16.3,1.8-35,0.3-51.5,0.4L1308.4,1085z"/>
<path style="fill:#FEFEFE;" d="M1308.4,1085l8.8-45l55,1l-4.7,19.9l4.4,3.6l-3.2,19.6l-0.8,3c-2,0.1-3.9,0.1-5.8,0.5
	c-16.3,1.8-35,0.3-51.5,0.4L1308.4,1085z"/>
<path style="fill:#7DB0EF;" d="M1362,1087.6l5.5-26.7l4.4,3.6l-3.2,19.6l-0.8,3C1365.8,1087.2,1363.9,1087.3,1362,1087.6z"/>
<path style="fill:#FEFEFE;" d="M1371.9,1064.6l10.6-52.5l42.3-0.1c7.2,0,15.7-0.9,22.6,1l-7.6,36.3l-6.2,29.9l-1.7,7.7
	c-4.1,2.4-11.9,1.2-16.7,1.2l-44.1-0.4c-1.7-1.4-1.7-1.5-2.2-3.7L1371.9,1064.6z"/>
</svg>
