<svg width="40" height="40" viewBox="0 0 40 40" fill="none" xmlns="http://www.w3.org/2000/svg">
<g clip-path="url(#clip0_672_535)">
<path d="M39.9966 36.0045C39.9503 34.9354 39.4542 33.9271 38.6352 33.2383L31.9446 27.6119C32.6583 26.2321 33.0619 24.6671 33.0619 23.0095C33.0619 18.6583 30.2827 14.9445 26.4065 13.5485V2.92969C26.4065 1.31422 25.0923 0 23.4768 0H2.92993C1.31446 0 0.000244141 1.31422 0.000244141 2.92969V37.0703C0.000244141 38.6858 1.31446 40 2.92993 40H23.4768C25.0923 40 26.4065 38.6858 26.4065 37.0703V32.4695C26.8215 32.32 27.2243 32.1449 27.6121 31.9444L33.2386 38.635C33.9274 39.4539 34.9357 39.9501 36.0048 39.9963C37.0697 40.0423 38.1221 39.6353 38.8787 38.8782C39.6353 38.1212 40.0428 37.0738 39.9966 36.0045ZM25.2346 37.0703C25.2346 38.0395 24.446 38.8281 23.4768 38.8281H2.92993C1.96071 38.8281 1.17212 38.0395 1.17212 37.0703V2.92969C1.17212 1.96047 1.96071 1.17188 2.92993 1.17188H23.4768C24.446 1.17188 25.2346 1.96047 25.2346 2.92969V13.2059C24.5187 13.0434 23.7741 12.9573 23.0097 12.9573C17.467 12.9573 12.9575 17.4667 12.9575 23.0095C12.9575 28.5522 17.467 33.0616 23.0097 33.0616C23.7742 33.0616 24.5186 32.9747 25.2346 32.8122V37.0703ZM23.0097 31.8897C18.1131 31.8897 14.1294 27.906 14.1294 23.0095C14.1294 18.1128 18.1131 14.1291 23.0097 14.1291C27.7853 14.1291 31.89 18.018 31.89 23.0095C31.89 27.9386 27.8894 31.8897 23.0097 31.8897ZM38.0501 38.0496C37.5169 38.5824 36.8084 38.8584 36.0554 38.8255C35.3024 38.793 34.6206 38.4574 34.1355 37.8807L28.6331 31.3377C29.6975 30.6166 30.617 29.6972 31.338 28.6328L37.881 34.1351C38.4577 34.6202 38.7934 35.3021 38.8259 36.0551C38.8584 36.8083 38.5827 37.5166 38.0501 38.0496Z" fill="black"/>
<path d="M6.82422 9.62148C6.82422 9.63138 6.72897 9.67591 6.53848 9.75508C6.35046 9.83177 6.11172 9.90475 5.82227 9.97402C5.53281 10.0408 5.22109 10.0742 4.88711 10.0742C4.11771 10.0742 3.52025 9.84909 3.09473 9.39883C2.66921 8.94857 2.45645 8.30039 2.45645 7.4543C2.45645 6.87786 2.56035 6.37565 2.76816 5.94766C2.97598 5.51719 3.27038 5.18568 3.65137 4.95313C4.03483 4.72057 4.48509 4.6043 5.00215 4.6043C5.24954 4.6043 5.49941 4.63275 5.75176 4.68965C6.00658 4.74408 6.23047 4.80592 6.42344 4.8752C6.61641 4.94199 6.71289 4.97786 6.71289 4.98281L6.67578 6.23711H6.17852L5.95215 5.40215C5.92741 5.39225 5.86803 5.37617 5.77402 5.35391C5.68001 5.32917 5.55632 5.30566 5.40293 5.2834C5.25202 5.26113 5.09245 5.25 4.92422 5.25C4.41211 5.25 4.01751 5.43678 3.74043 5.81035C3.46582 6.18145 3.32852 6.71706 3.32852 7.41719C3.32852 8.08021 3.47943 8.58118 3.78125 8.92012C4.08307 9.25905 4.49004 9.42852 5.00215 9.42852C5.15801 9.42852 5.31387 9.41491 5.46973 9.3877C5.62806 9.36048 5.76042 9.33203 5.8668 9.30234C5.97318 9.27018 6.03997 9.24915 6.06719 9.23926V7.99238L5.42148 7.84023V7.42461L7.3957 7.38379V7.84023L6.82422 7.99238V9.62148ZM8.99141 9.23926C9.0112 9.24915 9.05697 9.27018 9.12871 9.30234C9.20046 9.33203 9.29818 9.36048 9.42187 9.3877C9.54557 9.41491 9.6804 9.42852 9.82637 9.42852C10.1307 9.42852 10.4003 9.35677 10.6354 9.21328C10.8729 9.06979 10.9916 8.87064 10.9916 8.61582C10.9916 8.45254 10.9409 8.31647 10.8395 8.20762C10.738 8.09629 10.6118 8.00599 10.4609 7.93672C10.3125 7.86745 10.1072 7.78457 9.84492 7.68809C9.50104 7.56686 9.22272 7.45306 9.00996 7.34668C8.79967 7.2403 8.61908 7.08691 8.46816 6.88652C8.31973 6.68613 8.24551 6.42884 8.24551 6.11465C8.24551 5.61243 8.41621 5.23516 8.75762 4.98281C9.1015 4.73047 9.53197 4.6043 10.049 4.6043C10.2618 4.6043 10.4869 4.6278 10.7244 4.6748C10.9619 4.71934 11.1648 4.76634 11.333 4.81582C11.5012 4.86283 11.6076 4.89375 11.6521 4.90859L11.615 6.2H11.1215L10.8617 5.3873C10.8419 5.38236 10.7937 5.36875 10.717 5.34648C10.6403 5.32174 10.5413 5.29948 10.4201 5.27969C10.2989 5.2599 10.1777 5.25 10.0564 5.25C9.73236 5.25 9.48249 5.32298 9.30684 5.46895C9.13118 5.61243 9.04336 5.78561 9.04336 5.98848C9.04336 6.15176 9.09408 6.28906 9.19551 6.40039C9.29694 6.50924 9.42311 6.59954 9.57402 6.67129C9.72741 6.74303 9.94141 6.82715 10.216 6.92363C10.5451 7.03991 10.8147 7.15 11.025 7.25391C11.2353 7.35781 11.4134 7.50501 11.5594 7.69551C11.7078 7.88353 11.782 8.12227 11.782 8.41172C11.782 8.77539 11.693 9.0834 11.5148 9.33574C11.3367 9.58561 11.0967 9.77116 10.7949 9.89238C10.4956 10.0136 10.1628 10.0742 9.79668 10.0742C9.55918 10.0742 9.32539 10.052 9.09531 10.0074C8.86523 9.96289 8.6735 9.91712 8.52012 9.87012C8.36921 9.82064 8.27272 9.78848 8.23066 9.77363V8.44141H8.83926L8.99141 9.23926ZM13.2219 9.54355L13.9826 9.39141V5.28711H12.9955L12.8063 6.04785H12.309V4.67852H16.4541V6.04785H15.9605L15.7676 5.28711H14.7805V9.39141L15.5412 9.54355V10H13.2219V9.54355ZM16.8734 5.97363C16.8734 5.54811 16.9897 5.21413 17.2223 4.97168C17.4573 4.72676 17.7591 4.6043 18.1277 4.6043C18.4815 4.6043 18.766 4.71439 18.9812 4.93457C19.199 5.15475 19.3078 5.47513 19.3078 5.8957C19.3078 6.33607 19.1915 6.675 18.959 6.9125C18.7289 7.14753 18.4271 7.26504 18.0535 7.26504C17.6948 7.26504 17.4078 7.15866 17.1926 6.9459C16.9798 6.73314 16.8734 6.40905 16.8734 5.97363ZM18.3949 10H17.7084L20.7885 4.67852H21.4713L18.3949 10ZM17.4449 5.93281C17.4449 6.49193 17.6602 6.77148 18.0906 6.77148C18.5211 6.77148 18.7363 6.49193 18.7363 5.93281C18.7363 5.67552 18.6831 5.47266 18.5768 5.32422C18.4704 5.17331 18.3083 5.09785 18.0906 5.09785C17.8729 5.09785 17.7109 5.17331 17.6045 5.32422C17.4981 5.47266 17.4449 5.67552 17.4449 5.93281ZM19.8756 8.78281C19.8756 8.35729 19.9919 8.02331 20.2244 7.78086C20.4594 7.53841 20.7613 7.41719 21.1299 7.41719C21.4837 7.41719 21.7682 7.52728 21.9834 7.74746C22.1986 7.96764 22.3062 8.28802 22.3062 8.70859C22.3062 9.14896 22.1912 9.48665 21.9611 9.72168C21.7311 9.95671 21.4292 10.0742 21.0557 10.0742C20.6969 10.0742 20.41 9.96784 20.1947 9.75508C19.982 9.54232 19.8756 9.21823 19.8756 8.78281ZM20.4471 8.7457C20.4471 9.30234 20.6623 9.58066 21.0928 9.58066C21.5232 9.58066 21.7385 9.30234 21.7385 8.7457C21.7385 8.48841 21.6853 8.28555 21.5789 8.13711C21.4725 7.9862 21.3105 7.91074 21.0928 7.91074C20.8751 7.91074 20.713 7.9862 20.6066 8.13711C20.5003 8.28555 20.4471 8.48841 20.4471 8.7457Z" fill="#06A3DA"/>
<path d="M5.92178 15.2597H6.18711V16H4.34463V15.7718L4.66748 15.6957V13.6436L4.34463 13.5675V13.3597L5.38926 13.3393V13.5675L5.06641 13.6436V15.6957H5.8457L5.92178 15.2597ZM8.01289 14.4618V14.7643H7.13896V15.6957H8.01289L8.08896 15.3153H8.33574V16H6.41533V15.7718L6.73818 15.6957V13.6436L6.41533 13.5675V13.3597L7.13896 13.3393H8.29678V13.9868H8.05L7.95537 13.6436H7.13896V14.4618H8.01289ZM9.57148 13.3597L9.95186 13.3393L10.7961 15.6994L11.1115 15.7718V16H10.0094V15.7718L10.3619 15.6994L10.2172 15.2782H9.23008L9.08164 15.6994L9.43789 15.7718V16H8.39326V15.7718L8.70498 15.6994L9.57148 13.3597ZM9.73105 13.831L9.33213 14.9739H10.1151L9.73105 13.831ZM11.5067 13.6436L11.1839 13.5675V13.3597L11.9057 13.3393H12.3807C12.7555 13.3393 13.0486 13.4518 13.2602 13.677C13.4717 13.9008 13.5774 14.2194 13.5774 14.6325C13.5774 14.9084 13.5261 15.1496 13.4234 15.3562C13.322 15.5627 13.176 15.7217 12.9855 15.833C12.7951 15.9443 12.5749 16 12.325 16H11.1839V15.7718L11.5067 15.6957V13.6436ZM12.3436 15.6957C12.5922 15.6957 12.787 15.6091 12.928 15.4359C13.0703 15.2628 13.1414 15.0011 13.1414 14.6511C13.1414 14.3097 13.0728 14.0567 12.9354 13.8922C12.7994 13.7264 12.6083 13.6436 12.3621 13.6436H11.9057V15.6957H12.3436Z" fill="#091E3E"/>
<g clip-path="url(#clip1_672_535)">
<path d="M25.364 18.3251C25.0835 18.1825 24.7405 18.2943 24.5979 18.5748L20.3607 26.9088C20.2181 27.1893 20.3298 27.5322 20.6103 27.6749C20.6931 27.7169 20.7812 27.7369 20.8681 27.7369C21.0757 27.7369 21.2758 27.623 21.3764 27.4252L25.6136 19.0912C25.7562 18.8107 25.6445 18.4678 25.364 18.3251Z" fill="#06A3DA"/>
<path d="M22.3215 21.0696C22.3215 19.8781 21.3521 18.9088 20.1607 18.9088C18.9693 18.9088 18 19.8781 18 21.0696C18 22.261 18.9693 23.2303 20.1607 23.2303C21.3522 23.2303 22.3215 22.261 22.3215 21.0696ZM20.1607 22.0909C19.5976 22.0909 19.1394 21.6327 19.1394 21.0696C19.1394 20.5064 19.5976 20.0483 20.1607 20.0483C20.7239 20.0483 21.1821 20.5064 21.1821 21.0696C21.182 21.6327 20.7239 22.0909 20.1607 22.0909Z" fill="#06A3DA"/>
<path d="M25.8393 22.7697C24.6478 22.7697 23.6785 23.739 23.6785 24.9305C23.6785 26.1219 24.6478 27.0912 25.8393 27.0912C27.0307 27.0912 28 26.1219 28 24.9305C28 23.739 27.0307 22.7697 25.8393 22.7697ZM25.8393 25.9517C25.2761 25.9517 24.8179 25.4935 24.8179 24.9304C24.8179 24.3673 25.2761 23.9091 25.8393 23.9091C26.4024 23.9091 26.8606 24.3673 26.8606 24.9304C26.8606 25.4935 26.4024 25.9517 25.8393 25.9517Z" fill="#06A3DA"/>
</g>
<path d="M3 24H10.875" stroke="#091E3E" stroke-miterlimit="10" stroke-linecap="round" stroke-linejoin="round"/>
<path d="M3 28H10.875" stroke="#091E3E" stroke-miterlimit="10" stroke-linecap="round" stroke-linejoin="round"/>
<path d="M3 32H10.875" stroke="#091E3E" stroke-miterlimit="10" stroke-linecap="round" stroke-linejoin="round"/>
<path d="M3 36H18" stroke="#091E3E" stroke-miterlimit="10" stroke-linecap="round" stroke-linejoin="round"/>
</g>
<defs>
<clipPath id="clip0_672_535">
<rect width="40" height="40" fill="white"/>
</clipPath>
<clipPath id="clip1_672_535">
<rect width="10" height="10" fill="white" transform="translate(18 18)"/>
</clipPath>
</defs>
</svg>
