<svg width="40" height="40" viewBox="0 0 40 40" fill="none" xmlns="http://www.w3.org/2000/svg">
<path d="M34.812 32.9906L36 31.8344V9.6875L25.11 0H5.6136C4.91801 0.00658732 4.25328 0.272885 3.76388 0.741014C3.27448 1.20914 2.99997 1.84127 3 2.5V37.5C2.99997 38.1587 3.27448 38.7909 3.76388 39.259C4.25328 39.7271 4.91801 39.9934 5.6136 40H33.3864C34.082 39.9934 34.7467 39.7271 35.2361 39.259C35.7255 38.7909 36 38.1587 36 37.5V37.1625C35.6689 37.3813 35.2751 37.4991 34.8714 37.5C34.8087 37.5 34.746 37.5 34.68 37.4844V37.5C34.6801 37.8272 34.5446 38.1414 34.3028 38.3752C34.0609 38.6089 33.7319 38.7435 33.3864 38.75H5.6136C5.26811 38.7435 4.93911 38.6089 4.69724 38.3752C4.45537 38.1414 4.31993 37.8272 4.32 37.5V2.5C4.31993 2.17277 4.45537 1.85855 4.69724 1.62484C4.93911 1.39112 5.26811 1.25654 5.6136 1.25H24.12V7.40313C24.1103 8.24691 24.4543 9.05991 25.0767 9.66387C25.699 10.2678 26.5488 10.6135 27.4398 10.625H34.68V32.8688L34.812 32.9906ZM27.4398 9.375C26.8989 9.36351 26.3848 9.14959 26.01 8.78004C25.6352 8.4105 25.4303 7.91541 25.44 7.40313V2.00937L33.7197 9.375H27.4398Z" fill="#091E3E"/>
<path d="M38.8648 31.1466C38.8235 31.1001 38.7744 31.0632 38.7203 31.0381C38.6663 31.0129 38.6083 31 38.5498 31C38.4913 31 38.4333 31.0129 38.3793 31.0381C38.3252 31.0632 38.2761 31.1001 38.2348 31.1466L34.2272 35.7889L31.738 33.1579C31.6514 33.0731 31.539 33.0292 31.4242 33.0353C31.3095 33.0414 31.2012 33.097 31.1222 33.1906C31.0431 33.2842 30.9993 33.4084 31 33.5373C31.0007 33.6663 31.0457 33.79 31.1258 33.8825L33.9266 36.8633C34.0117 36.9536 34.1251 37.0027 34.2422 36.9999C34.3593 36.9971 34.4707 36.9426 34.5522 36.8483L38.876 31.8512C38.9575 31.7559 39.002 31.6283 38.9999 31.4963C38.9978 31.3643 38.9493 31.2385 38.8648 31.1466Z" fill="#06A3DA"/>
<path d="M13.0781 17.6016C13.0781 17.612 12.9779 17.6589 12.7773 17.7422C12.5794 17.8229 12.3281 17.8997 12.0234 17.9727C11.7188 18.043 11.3906 18.0781 11.0391 18.0781C10.2292 18.0781 9.60026 17.8411 9.15234 17.3672C8.70443 16.8932 8.48047 16.2109 8.48047 15.3203C8.48047 14.7135 8.58984 14.1849 8.80859 13.7344C9.02734 13.2812 9.33724 12.9323 9.73828 12.6875C10.1419 12.4427 10.6159 12.3203 11.1602 12.3203C11.4206 12.3203 11.6836 12.3503 11.9492 12.4102C12.2174 12.4674 12.4531 12.5326 12.6562 12.6055C12.8594 12.6758 12.9609 12.7135 12.9609 12.7188L12.9219 14.0391H12.3984L12.1602 13.1602C12.1341 13.1497 12.0716 13.1328 11.9727 13.1094C11.8737 13.0833 11.7435 13.0586 11.582 13.0352C11.4232 13.0117 11.2552 13 11.0781 13C10.5391 13 10.1237 13.1966 9.83203 13.5898C9.54297 13.9805 9.39844 14.5443 9.39844 15.2812C9.39844 15.9792 9.55729 16.5065 9.875 16.8633C10.1927 17.2201 10.6211 17.3984 11.1602 17.3984C11.3242 17.3984 11.4883 17.3841 11.6523 17.3555C11.819 17.3268 11.9583 17.2969 12.0703 17.2656C12.1823 17.2318 12.2526 17.2096 12.2812 17.1992V15.8867L11.6016 15.7266V15.2891L13.6797 15.2461V15.7266L13.0781 15.8867V17.6016ZM15.3594 17.1992C15.3802 17.2096 15.4284 17.2318 15.5039 17.2656C15.5794 17.2969 15.6823 17.3268 15.8125 17.3555C15.9427 17.3841 16.0846 17.3984 16.2383 17.3984C16.5586 17.3984 16.8424 17.3229 17.0898 17.1719C17.3398 17.0208 17.4648 16.8112 17.4648 16.543C17.4648 16.3711 17.4115 16.2279 17.3047 16.1133C17.1979 15.9961 17.0651 15.901 16.9062 15.8281C16.75 15.7552 16.5339 15.668 16.2578 15.5664C15.8958 15.4388 15.6029 15.319 15.3789 15.207C15.1576 15.0951 14.9674 14.9336 14.8086 14.7227C14.6523 14.5117 14.5742 14.2409 14.5742 13.9102C14.5742 13.3815 14.7539 12.9844 15.1133 12.7188C15.4753 12.4531 15.9284 12.3203 16.4727 12.3203C16.6966 12.3203 16.9336 12.3451 17.1836 12.3945C17.4336 12.4414 17.6471 12.4909 17.8242 12.543C18.0013 12.5924 18.1133 12.625 18.1602 12.6406L18.1211 14H17.6016L17.3281 13.1445C17.3073 13.1393 17.2565 13.125 17.1758 13.1016C17.0951 13.0755 16.9909 13.0521 16.8633 13.0312C16.7357 13.0104 16.6081 13 16.4805 13C16.1393 13 15.8763 13.0768 15.6914 13.2305C15.5065 13.3815 15.4141 13.5638 15.4141 13.7773C15.4141 13.9492 15.4674 14.0938 15.5742 14.2109C15.681 14.3255 15.8138 14.4206 15.9727 14.4961C16.1341 14.5716 16.3594 14.6602 16.6484 14.7617C16.9948 14.8841 17.2786 15 17.5 15.1094C17.7214 15.2188 17.9089 15.3737 18.0625 15.5742C18.2188 15.7721 18.2969 16.0234 18.2969 16.3281C18.2969 16.7109 18.2031 17.0352 18.0156 17.3008C17.8281 17.5638 17.5755 17.7591 17.2578 17.8867C16.9427 18.0143 16.5924 18.0781 16.207 18.0781C15.957 18.0781 15.7109 18.0547 15.4688 18.0078C15.2266 17.9609 15.0247 17.9128 14.8633 17.8633C14.7044 17.8112 14.6029 17.7773 14.5586 17.7617V16.3594H15.1992L15.3594 17.1992ZM19.8125 17.5195L20.6133 17.3594V13.0391H19.5742L19.375 13.8398H18.8516V12.3984H23.2148V13.8398H22.6953L22.4922 13.0391H21.4531V17.3594L22.2539 17.5195V18H19.8125V17.5195ZM23.6562 13.7617C23.6562 13.3138 23.7786 12.9622 24.0234 12.707C24.2708 12.4492 24.5885 12.3203 24.9766 12.3203C25.349 12.3203 25.6484 12.4362 25.875 12.668C26.1042 12.8997 26.2188 13.237 26.2188 13.6797C26.2188 14.1432 26.0964 14.5 25.8516 14.75C25.6094 14.9974 25.2917 15.1211 24.8984 15.1211C24.5208 15.1211 24.2188 15.0091 23.9922 14.7852C23.7682 14.5612 23.6562 14.2201 23.6562 13.7617ZM25.2578 18H24.5352L27.7773 12.3984H28.4961L25.2578 18ZM24.2578 13.7188C24.2578 14.3073 24.4844 14.6016 24.9375 14.6016C25.3906 14.6016 25.6172 14.3073 25.6172 13.7188C25.6172 13.4479 25.5612 13.2344 25.4492 13.0781C25.3372 12.9193 25.1667 12.8398 24.9375 12.8398C24.7083 12.8398 24.5378 12.9193 24.4258 13.0781C24.3138 13.2344 24.2578 13.4479 24.2578 13.7188ZM26.8164 16.7188C26.8164 16.2708 26.9388 15.9193 27.1836 15.6641C27.431 15.4089 27.7487 15.2812 28.1367 15.2812C28.5091 15.2812 28.8086 15.3971 29.0352 15.6289C29.2617 15.8607 29.375 16.1979 29.375 16.6406C29.375 17.1042 29.2539 17.4596 29.0117 17.707C28.7695 17.9544 28.4518 18.0781 28.0586 18.0781C27.681 18.0781 27.3789 17.9661 27.1523 17.7422C26.9284 17.5182 26.8164 17.1771 26.8164 16.7188ZM27.418 16.6797C27.418 17.2656 27.6445 17.5586 28.0977 17.5586C28.5508 17.5586 28.7773 17.2656 28.7773 16.6797C28.7773 16.4089 28.7214 16.1953 28.6094 16.0391C28.4974 15.8802 28.3268 15.8008 28.0977 15.8008C27.8685 15.8008 27.6979 15.8802 27.5859 16.0391C27.474 16.1953 27.418 16.4089 27.418 16.6797Z" fill="#06A3DA"/>
<path d="M10.877 22.5195L10.5371 22.4395V22.2207L11.2969 22.1992H11.7363C12.0189 22.1992 12.2396 22.2637 12.3984 22.3926C12.5573 22.5202 12.6367 22.696 12.6367 22.9199C12.6367 23.3118 12.4635 23.5716 12.1172 23.6992C12.181 23.7552 12.2611 23.8757 12.3574 24.0605L12.6738 24.6953L12.957 24.7598V25H12.3574L12.0176 24.2598C11.9538 24.1217 11.8978 24.0202 11.8496 23.9551C11.8014 23.8887 11.75 23.8431 11.6953 23.8184C11.6406 23.7923 11.5677 23.7793 11.4766 23.7793H11.2969V24.6797L11.6367 24.7598V25H10.5371V24.7598L10.877 24.6797V22.5195ZM11.5977 23.4805C11.7917 23.4805 11.9434 23.4368 12.0527 23.3496C12.1621 23.2611 12.2168 23.138 12.2168 22.9805C12.2168 22.8477 12.1699 22.7376 12.0762 22.6504C11.9837 22.5632 11.8639 22.5195 11.7168 22.5195H11.2969V23.4805H11.5977ZM14.8594 23.3809V23.6992H13.9395V24.6797H14.8594L14.9395 24.2793H15.1992V25H13.1777V24.7598L13.5176 24.6797V22.5195L13.1777 22.4395V22.2207L13.9395 22.1992H15.1582V22.8809H14.8984L14.7988 22.5195H13.9395V23.3809H14.8594ZM15.959 24.7598L16.3594 24.6797V22.5195H15.8398L15.7402 22.9199H15.4785V22.1992H17.6602V22.9199H17.4004L17.2988 22.5195H16.7793V24.6797L17.1797 24.7598V25H15.959V24.7598ZM20.3613 23.8594C20.3613 24.2513 20.2786 24.5462 20.1133 24.7441C19.9479 24.9408 19.6641 25.0391 19.2617 25.0391C18.8802 25.0391 18.6081 24.9479 18.4453 24.7656C18.2826 24.5833 18.2012 24.3014 18.2012 23.9199V22.5195L17.8613 22.4395V22.2207L19.002 22.1992V22.4395L18.6211 22.5195V23.9199C18.6211 24.1204 18.6439 24.2767 18.6895 24.3887C18.735 24.5007 18.8053 24.5807 18.9004 24.6289C18.9967 24.6758 19.1237 24.6992 19.2812 24.6992C19.4492 24.6992 19.5801 24.6725 19.6738 24.6191C19.7689 24.5658 19.8372 24.4785 19.8789 24.3574C19.9206 24.2363 19.9414 24.0703 19.9414 23.8594V22.5195L19.5605 22.4395V22.2207L20.7012 22.1992V22.4395L20.3613 22.5195V23.8594ZM21.3613 22.5195L21.0215 22.4395V22.2207L21.7812 22.1992H22.2207C22.5033 22.1992 22.724 22.2637 22.8828 22.3926C23.0417 22.5202 23.1211 22.696 23.1211 22.9199C23.1211 23.3118 22.9479 23.5716 22.6016 23.6992C22.6654 23.7552 22.7454 23.8757 22.8418 24.0605L23.1582 24.6953L23.4414 24.7598V25H22.8418L22.502 24.2598C22.4382 24.1217 22.3822 24.0202 22.334 23.9551C22.2858 23.8887 22.2344 23.8431 22.1797 23.8184C22.125 23.7923 22.0521 23.7793 21.9609 23.7793H21.7812V24.6797L22.1211 24.7598V25H21.0215V24.7598L21.3613 24.6797V22.5195ZM22.082 23.4805C22.276 23.4805 22.4277 23.4368 22.5371 23.3496C22.6465 23.2611 22.7012 23.138 22.7012 22.9805C22.7012 22.8477 22.6543 22.7376 22.5605 22.6504C22.4681 22.5632 22.3483 22.5195 22.2012 22.5195H21.7812V23.4805H22.082ZM24.7031 24.7598V25H23.623V24.7598L23.9629 24.6797V22.5195L23.623 22.4395V22.2207L24.4629 22.1992L25.7832 24.4355V22.5195L25.4434 22.4395V22.2207L26.4824 22.1992V22.4395L26.1426 22.5195V25H25.6426L24.3223 22.7969V24.6797L24.7031 24.7598ZM13.5977 29.4199V29.7402H12.6777V30.6797L13.0781 30.7598V31H11.918V30.7598L12.2578 30.6797V28.5195L11.918 28.4395V28.2207L12.6777 28.1992H13.8984V28.8594H13.6387L13.5371 28.5195H12.6777V29.4199H13.5977ZM14.2188 30.7598L14.5586 30.6797V28.5195L14.2188 28.4395V28.2207L15.3184 28.1992V28.4395L14.9785 28.5195V30.6797L15.3184 30.7598V31H14.2188V30.7598ZM17.3008 30.2207H17.5801V31H15.6406V30.7598L15.9805 30.6797V28.5195L15.6406 28.4395V28.2207L16.7402 28.1992V28.4395L16.4004 28.5195V30.6797H17.2207L17.3008 30.2207ZM17.8008 30.7598L18.1406 30.6797V28.5195L17.8008 28.4395V28.2207L18.9004 28.1992V28.4395L18.5605 28.5195V30.6797L18.9004 30.7598V31H17.8008V30.7598ZM20.3223 30.7598V31H19.2422V30.7598L19.582 30.6797V28.5195L19.2422 28.4395V28.2207L20.082 28.1992L21.4023 30.4355V28.5195L21.0625 28.4395V28.2207L22.1016 28.1992V28.4395L21.7617 28.5195V31H21.2617L19.9414 28.7969V30.6797L20.3223 30.7598ZM24.7812 30.8008C24.7812 30.806 24.7311 30.8294 24.6309 30.8711C24.5319 30.9115 24.4062 30.9499 24.2539 30.9863C24.1016 31.0215 23.9375 31.0391 23.7617 31.0391C23.3568 31.0391 23.0423 30.9206 22.8184 30.6836C22.5944 30.4466 22.4824 30.1055 22.4824 29.6602C22.4824 29.3568 22.5371 29.0924 22.6465 28.8672C22.7559 28.6406 22.9108 28.4661 23.1113 28.3438C23.3132 28.2214 23.5501 28.1602 23.8223 28.1602C23.9525 28.1602 24.084 28.1751 24.2168 28.2051C24.3509 28.2337 24.4688 28.2663 24.5703 28.3027C24.6719 28.3379 24.7227 28.3568 24.7227 28.3594L24.7031 29.0195H24.4414L24.3223 28.5801C24.3092 28.5749 24.278 28.5664 24.2285 28.5547C24.179 28.5417 24.1139 28.5293 24.0332 28.5176C23.9538 28.5059 23.8698 28.5 23.7812 28.5C23.5117 28.5 23.304 28.5983 23.1582 28.7949C23.0137 28.9902 22.9414 29.2721 22.9414 29.6406C22.9414 29.9896 23.0208 30.2533 23.1797 30.4316C23.3385 30.61 23.5527 30.6992 23.8223 30.6992C23.9043 30.6992 23.9863 30.6921 24.0684 30.6777C24.1517 30.6634 24.2214 30.6484 24.2773 30.6328C24.3333 30.6159 24.3685 30.6048 24.3828 30.5996V29.9434L24.043 29.8633V29.6445L25.082 29.623V29.8633L24.7812 29.9434V30.8008Z" fill="#091E3E"/>
</svg>
