<svg width="40" height="40" viewBox="0 0 40 40" fill="none" xmlns="http://www.w3.org/2000/svg">
<g clip-path="url(#clip0_650_1880)">
<path d="M25.5 0.625H2.98933C2.32349 0.625 1.76184 1.78872 1.76184 2.43641V38.4886C1.76184 39.1484 2.29451 39.675 2.9543 39.675H27.733" stroke="#091E3E" stroke-width="0.968494" stroke-miterlimit="10" stroke-linecap="round" stroke-linejoin="round"/>
<path d="M31 28V8" stroke="#091E3E" stroke-miterlimit="10" stroke-linecap="round" stroke-linejoin="round"/>
<path d="M25.8571 1L25 7.43529C25 7.74706 25.2163 8 25.4828 8H31L25.8571 1Z" stroke="#091E3E" stroke-miterlimit="10" stroke-linecap="round" stroke-linejoin="round"/>
<path d="M4.9375 31.6187H9.58125V36.2437H4.9375V31.6187Z" stroke="#091E3E" stroke-miterlimit="10" stroke-linecap="round" stroke-linejoin="round"/>
<path d="M11.475 32.8813H19.35" stroke="#091E3E" stroke-miterlimit="10" stroke-linecap="round" stroke-linejoin="round"/>
<path d="M11.475 35.3563H19.35" stroke="#091E3E" stroke-miterlimit="10" stroke-linecap="round" stroke-linejoin="round"/>
<path d="M26.6341 28.341L25.9433 28.5255C25.5695 28.6249 25.2809 28.923 25.1957 29.3015L25.0017 30.1674C24.9592 30.3614 24.8598 30.5412 24.7131 30.6831L24.1075 31.2698C23.8425 31.5301 23.7337 31.9086 23.8236 32.2635L24.0649 33.2334C24.1075 33.4038 24.1075 33.5788 24.0602 33.7492L23.8236 34.6481C23.729 35.003 23.8331 35.3768 24.0838 35.637L24.5712 36.1386C24.6942 36.2663 24.7841 36.4225 24.8314 36.5975L25.12 37.6669C25.2147 38.0123 25.4749 38.2867 25.8203 38.3908L26.9133 38.7267C27.0742 38.7788 27.2208 38.8639 27.3439 38.9822L28.0583 39.692C28.3706 39.9995 28.839 40.0847 29.2365 39.9002L29.7333 39.6683C30.0124 39.5406 30.3342 39.5406 30.6134 39.6683L31.1102 39.9002C31.5076 40.0847 31.976 40.0042 32.2883 39.692L33.069 38.916C33.1968 38.7882 33.3576 38.6983 33.528 38.651L34.4412 38.4003C34.8386 38.2914 35.1367 37.9555 35.1935 37.5486L35.307 36.7915C35.3449 36.5502 35.4632 36.3278 35.6477 36.1622L36.2344 35.6465C36.5467 35.3721 36.665 34.9368 36.5325 34.5441L36.2533 33.6971C36.1776 33.4653 36.1871 33.2098 36.277 32.9826L36.4805 32.4764C36.6413 32.0789 36.542 31.6294 36.2297 31.3313L35.4774 30.6216C35.2976 30.4513 35.184 30.2289 35.1604 29.9829L35.0847 29.2968C35.0326 28.8142 34.6494 28.4356 34.1667 28.3789L33.5895 28.3126C33.3576 28.2842 33.1447 28.1849 32.9791 28.0193L32.2978 27.3474C32.0092 27.0635 31.5786 26.9736 31.2001 27.1155L30.6559 27.319C30.4477 27.3994 30.2159 27.4042 30.003 27.3427L28.9526 27.0398C28.6024 26.9405 28.2287 27.0304 27.959 27.2717L27.06 28.095C26.9464 28.218 26.795 28.2984 26.6341 28.341Z" stroke="#091E3E" stroke-width="0.757046" stroke-miterlimit="10" stroke-linecap="round" stroke-linejoin="round"/>
<path d="M30.0892 32.0591C30.0892 33.5133 29.3252 34.2354 28.4333 34.2354C27.5738 34.2354 26.8305 33.5452 26.8201 32.1546C26.8201 30.7748 27.5738 30 28.4864 30C29.4523 30 30.0892 30.7433 30.0892 32.0591ZM27.563 32.1231C27.5418 33.0038 27.8711 33.6727 28.4549 33.6727C29.0703 33.6727 29.3464 33.0146 29.3464 32.1019C29.3464 31.2631 29.1022 30.5626 28.4549 30.5626C27.8711 30.5626 27.563 31.2528 27.563 32.1231ZM28.3698 37.1328L32.4245 30H33.0187L28.964 37.1328H28.3698ZM34.5791 34.9147C34.5791 36.3688 33.8151 37.0905 32.934 37.0905C32.074 37.0905 31.3312 36.4004 31.3204 35.0205C31.3204 33.6304 32.074 32.8551 32.9871 32.8551C33.953 32.8551 34.5791 33.5984 34.5791 34.9147ZM32.0529 34.9782C32.0425 35.8593 32.3821 36.5278 32.9552 36.5278C33.5709 36.5278 33.8467 35.8697 33.8467 34.957C33.8467 34.1182 33.6025 33.4178 32.9552 33.4178C32.3713 33.4178 32.0529 34.1079 32.0529 34.9782Z" fill="#06A3DA"/>
<path d="M10.0781 15.6016C10.0781 15.612 9.97786 15.6589 9.77734 15.7422C9.57943 15.8229 9.32812 15.8997 9.02344 15.9727C8.71875 16.043 8.39062 16.0781 8.03906 16.0781C7.22917 16.0781 6.60026 15.8411 6.15234 15.3672C5.70443 14.8932 5.48047 14.2109 5.48047 13.3203C5.48047 12.7135 5.58984 12.1849 5.80859 11.7344C6.02734 11.2812 6.33724 10.9323 6.73828 10.6875C7.14193 10.4427 7.61589 10.3203 8.16016 10.3203C8.42057 10.3203 8.68359 10.3503 8.94922 10.4102C9.21745 10.4674 9.45312 10.5326 9.65625 10.6055C9.85938 10.6758 9.96094 10.7135 9.96094 10.7188L9.92188 12.0391H9.39844L9.16016 11.1602C9.13411 11.1497 9.07161 11.1328 8.97266 11.1094C8.8737 11.0833 8.74349 11.0586 8.58203 11.0352C8.42318 11.0117 8.25521 11 8.07812 11C7.53906 11 7.1237 11.1966 6.83203 11.5898C6.54297 11.9805 6.39844 12.5443 6.39844 13.2812C6.39844 13.9792 6.55729 14.5065 6.875 14.8633C7.19271 15.2201 7.62109 15.3984 8.16016 15.3984C8.32422 15.3984 8.48828 15.3841 8.65234 15.3555C8.81901 15.3268 8.95833 15.2969 9.07031 15.2656C9.18229 15.2318 9.2526 15.2096 9.28125 15.1992V13.8867L8.60156 13.7266V13.2891L10.6797 13.2461V13.7266L10.0781 13.8867V15.6016ZM12.3594 15.1992C12.3802 15.2096 12.4284 15.2318 12.5039 15.2656C12.5794 15.2969 12.6823 15.3268 12.8125 15.3555C12.9427 15.3841 13.0846 15.3984 13.2383 15.3984C13.5586 15.3984 13.8424 15.3229 14.0898 15.1719C14.3398 15.0208 14.4648 14.8112 14.4648 14.543C14.4648 14.3711 14.4115 14.2279 14.3047 14.1133C14.1979 13.9961 14.0651 13.901 13.9062 13.8281C13.75 13.7552 13.5339 13.668 13.2578 13.5664C12.8958 13.4388 12.6029 13.319 12.3789 13.207C12.1576 13.0951 11.9674 12.9336 11.8086 12.7227C11.6523 12.5117 11.5742 12.2409 11.5742 11.9102C11.5742 11.3815 11.7539 10.9844 12.1133 10.7188C12.4753 10.4531 12.9284 10.3203 13.4727 10.3203C13.6966 10.3203 13.9336 10.3451 14.1836 10.3945C14.4336 10.4414 14.6471 10.4909 14.8242 10.543C15.0013 10.5924 15.1133 10.625 15.1602 10.6406L15.1211 12H14.6016L14.3281 11.1445C14.3073 11.1393 14.2565 11.125 14.1758 11.1016C14.0951 11.0755 13.9909 11.0521 13.8633 11.0312C13.7357 11.0104 13.6081 11 13.4805 11C13.1393 11 12.8763 11.0768 12.6914 11.2305C12.5065 11.3815 12.4141 11.5638 12.4141 11.7773C12.4141 11.9492 12.4674 12.0938 12.5742 12.2109C12.681 12.3255 12.8138 12.4206 12.9727 12.4961C13.1341 12.5716 13.3594 12.6602 13.6484 12.7617C13.9948 12.8841 14.2786 13 14.5 13.1094C14.7214 13.2188 14.9089 13.3737 15.0625 13.5742C15.2188 13.7721 15.2969 14.0234 15.2969 14.3281C15.2969 14.7109 15.2031 15.0352 15.0156 15.3008C14.8281 15.5638 14.5755 15.7591 14.2578 15.8867C13.9427 16.0143 13.5924 16.0781 13.207 16.0781C12.957 16.0781 12.7109 16.0547 12.4688 16.0078C12.2266 15.9609 12.0247 15.9128 11.8633 15.8633C11.7044 15.8112 11.6029 15.7773 11.5586 15.7617V14.3594H12.1992L12.3594 15.1992ZM16.8125 15.5195L17.6133 15.3594V11.0391H16.5742L16.375 11.8398H15.8516V10.3984H20.2148V11.8398H19.6953L19.4922 11.0391H18.4531V15.3594L19.2539 15.5195V16H16.8125V15.5195ZM20.6562 11.7617C20.6562 11.3138 20.7786 10.9622 21.0234 10.707C21.2708 10.4492 21.5885 10.3203 21.9766 10.3203C22.349 10.3203 22.6484 10.4362 22.875 10.668C23.1042 10.8997 23.2188 11.237 23.2188 11.6797C23.2188 12.1432 23.0964 12.5 22.8516 12.75C22.6094 12.9974 22.2917 13.1211 21.8984 13.1211C21.5208 13.1211 21.2188 13.0091 20.9922 12.7852C20.7682 12.5612 20.6562 12.2201 20.6562 11.7617ZM22.2578 16H21.5352L24.7773 10.3984H25.4961L22.2578 16ZM21.2578 11.7188C21.2578 12.3073 21.4844 12.6016 21.9375 12.6016C22.3906 12.6016 22.6172 12.3073 22.6172 11.7188C22.6172 11.4479 22.5612 11.2344 22.4492 11.0781C22.3372 10.9193 22.1667 10.8398 21.9375 10.8398C21.7083 10.8398 21.5378 10.9193 21.4258 11.0781C21.3138 11.2344 21.2578 11.4479 21.2578 11.7188ZM23.8164 14.7188C23.8164 14.2708 23.9388 13.9193 24.1836 13.6641C24.431 13.4089 24.7487 13.2812 25.1367 13.2812C25.5091 13.2812 25.8086 13.3971 26.0352 13.6289C26.2617 13.8607 26.375 14.1979 26.375 14.6406C26.375 15.1042 26.2539 15.4596 26.0117 15.707C25.7695 15.9544 25.4518 16.0781 25.0586 16.0781C24.681 16.0781 24.3789 15.9661 24.1523 15.7422C23.9284 15.5182 23.8164 15.1771 23.8164 14.7188ZM24.418 14.6797C24.418 15.2656 24.6445 15.5586 25.0977 15.5586C25.5508 15.5586 25.7773 15.2656 25.7773 14.6797C25.7773 14.4089 25.7214 14.1953 25.6094 14.0391C25.4974 13.8802 25.3268 13.8008 25.0977 13.8008C24.8685 13.8008 24.6979 13.8802 24.5859 14.0391C24.474 14.1953 24.418 14.4089 24.418 14.6797Z" fill="#06A3DA"/>
<path d="M4.75215 21.3597L5.13252 21.3393L5.97676 23.6994L6.29219 23.7718V24H5.19004V23.7718L5.54258 23.6994L5.39785 23.2782H4.41074L4.2623 23.6994L4.61855 23.7718V24H3.57393V23.7718L3.88564 23.6994L4.75215 21.3597ZM4.91172 21.831L4.51279 22.9739H5.2958L4.91172 21.831ZM8.70244 21.7957L8.5874 22.0814L7.99922 23.2782L7.69492 23.2968L7.10674 22.0629L7.01025 21.7957V23.6957L7.37207 23.7718V24H6.346V23.7718L6.66885 23.6957V21.6436L6.346 21.5675V21.3597L7.20137 21.3393L7.88789 22.8607L8.60596 21.3597L9.40566 21.3393V21.5675L9.08096 21.6436V23.6957L9.40566 23.7718V24H8.34063V23.7718L8.70244 23.6957V21.7957ZM11.3428 22.4618V22.7643H10.4688V23.6957H11.3428L11.4188 23.3153H11.6656V24H9.74522V23.7718L10.0681 23.6957V21.6436L9.74522 21.5675V21.3597L10.4688 21.3393H11.6267V21.9868H11.3799L11.2853 21.6436H10.4688V22.4618H11.3428ZM13.0721 23.7718V24H12.046V23.7718L12.3688 23.6957V21.6436L12.046 21.5675V21.3597L12.8438 21.3393L14.0981 23.4638V21.6436L13.7753 21.5675V21.3597L14.7624 21.3393V21.5675L14.4396 21.6436V24H13.9646L12.7103 21.907V23.6957L13.0721 23.7718ZM15.3896 21.6436L15.0667 21.5675V21.3597L15.7885 21.3393H16.2635C16.6383 21.3393 16.9314 21.4518 17.143 21.677C17.3545 21.9008 17.4603 22.2194 17.4603 22.6325C17.4603 22.9084 17.4089 23.1496 17.3062 23.3562C17.2048 23.5627 17.0589 23.7217 16.8684 23.833C16.6779 23.9443 16.4577 24 16.2078 24H15.0667V23.7718L15.3896 23.6957V21.6436ZM16.2264 23.6957C16.475 23.6957 16.6698 23.6091 16.8108 23.4359C16.9531 23.2628 17.0242 23.0011 17.0242 22.6511C17.0242 22.3097 16.9556 22.0567 16.8183 21.8922C16.6822 21.7264 16.4911 21.6436 16.2449 21.6436H15.7885V23.6957H16.2264ZM20.1804 21.7957L20.0653 22.0814L19.4771 23.2782L19.1729 23.2968L18.5847 22.0629L18.4882 21.7957V23.6957L18.85 23.7718V24H17.8239V23.7718L18.1468 23.6957V21.6436L17.8239 21.5675V21.3597L18.6793 21.3393L19.3658 22.8607L20.0839 21.3597L20.8836 21.3393V21.5675L20.5589 21.6436V23.6957L20.8836 23.7718V24H19.8186V23.7718L20.1804 23.6957V21.7957ZM22.8207 22.4618V22.7643H21.9468V23.6957H22.8207L22.8968 23.3153H23.1436V24H21.2231V23.7718L21.546 23.6957V21.6436L21.2231 21.5675V21.3597L21.9468 21.3393H23.1046V21.9868H22.8578L22.7632 21.6436H21.9468V22.4618H22.8207ZM24.55 23.7718V24H23.5239V23.7718L23.8468 23.6957V21.6436L23.5239 21.5675V21.3597L24.3218 21.3393L25.5761 23.4638V21.6436L25.2532 21.5675V21.3597L26.2403 21.3393V21.5675L25.9175 21.6436V24H25.4425L24.1882 21.907V23.6957L24.55 23.7718ZM26.7896 23.7718L27.1699 23.6957V21.6436H26.6764L26.5817 22.0239H26.3331V21.3393H28.4057V22.0239H28.1589L28.0624 21.6436H27.5688V23.6957L27.9492 23.7718V24H26.7896V23.7718Z" fill="#091E3E"/>
</g>
<defs>
<clipPath id="clip0_650_1880">
<rect width="40" height="40" fill="white"/>
</clipPath>
</defs>
</svg>
