<svg width="44" height="40" viewBox="0 0 44 40" fill="none" xmlns="http://www.w3.org/2000/svg">
<g clip-path="url(#clip0_650_1904)">
<path d="M39.3955 32.1752H36.4955V3.91242C36.4955 1.75155 34.8189 0 32.7708 0H4.6136C2.56548 0 0.888916 1.75155 0.888916 3.91242C0.888916 6.0733 2.56548 7.82485 4.6136 7.82485H7.5136V36.0876C7.5136 38.2485 9.19017 40 11.2383 40H39.3864C41.4436 40 43.1111 38.2389 43.1111 36.0876C43.1202 33.9362 41.4436 32.1752 39.3955 32.1752ZM4.6136 6.95859C3.0186 6.95859 1.7136 5.59733 1.7136 3.91242C1.7136 2.22751 3.00954 0.866254 4.6136 0.866254C6.07267 0.866254 7.26892 2.00857 7.46829 3.47454H4.6136C4.38704 3.47454 4.19673 3.66492 4.19673 3.91242C4.19673 4.15992 4.37798 4.35031 4.6136 4.35031C5.30235 4.35031 5.85517 4.93099 5.85517 5.65445C5.85517 6.37792 5.30235 6.95859 4.6136 6.95859ZM7.5136 4.9405V6.95859H6.26298C6.52579 6.59686 6.68892 6.14945 6.68892 5.65445C6.68892 5.15945 6.52579 4.71204 6.26298 4.35031H7.5136V4.9405ZM11.2383 39.1337C9.64329 39.1337 8.33829 37.7725 8.33829 36.0876V3.91242C8.33829 2.67492 7.77642 1.58972 6.92454 0.866254H32.7617C34.3567 0.866254 35.6617 2.22751 35.6617 3.91242V32.1752H10.4136C10.187 32.1752 9.99673 32.3655 9.99673 32.613C9.99673 32.8605 10.178 33.0509 10.4136 33.0509H11.2383C12.3892 33.0509 13.377 33.7649 13.8483 34.793H10.3592C10.1327 34.793 9.94235 34.9833 9.94235 35.2308C9.94235 35.4688 10.1236 35.6687 10.3592 35.6687H14.093C14.1111 35.8115 14.1383 35.9543 14.1383 36.1066C14.1383 37.7725 12.8424 39.1337 11.2383 39.1337ZM39.3955 39.1337H13.5492C14.4011 38.4198 14.963 37.3251 14.963 36.0876C14.963 34.8501 14.4011 33.7649 13.5492 33.0414H39.3864C40.9814 33.0414 42.2864 34.4027 42.2864 36.0876C42.2864 37.7725 40.9905 39.1337 39.3955 39.1337Z" fill="#091E3E" stroke="#091E3E" stroke-width="0.464"/>
<path d="M16.0781 16.6016C16.0781 16.612 15.9779 16.6589 15.7773 16.7422C15.5794 16.8229 15.3281 16.8997 15.0234 16.9727C14.7188 17.043 14.3906 17.0781 14.0391 17.0781C13.2292 17.0781 12.6003 16.8411 12.1523 16.3672C11.7044 15.8932 11.4805 15.2109 11.4805 14.3203C11.4805 13.7135 11.5898 13.1849 11.8086 12.7344C12.0273 12.2812 12.3372 11.9323 12.7383 11.6875C13.1419 11.4427 13.6159 11.3203 14.1602 11.3203C14.4206 11.3203 14.6836 11.3503 14.9492 11.4102C15.2174 11.4674 15.4531 11.5326 15.6562 11.6055C15.8594 11.6758 15.9609 11.7135 15.9609 11.7188L15.9219 13.0391H15.3984L15.1602 12.1602C15.1341 12.1497 15.0716 12.1328 14.9727 12.1094C14.8737 12.0833 14.7435 12.0586 14.582 12.0352C14.4232 12.0117 14.2552 12 14.0781 12C13.5391 12 13.1237 12.1966 12.832 12.5898C12.543 12.9805 12.3984 13.5443 12.3984 14.2812C12.3984 14.9792 12.5573 15.5065 12.875 15.8633C13.1927 16.2201 13.6211 16.3984 14.1602 16.3984C14.3242 16.3984 14.4883 16.3841 14.6523 16.3555C14.819 16.3268 14.9583 16.2969 15.0703 16.2656C15.1823 16.2318 15.2526 16.2096 15.2812 16.1992V14.8867L14.6016 14.7266V14.2891L16.6797 14.2461V14.7266L16.0781 14.8867V16.6016ZM18.3594 16.1992C18.3802 16.2096 18.4284 16.2318 18.5039 16.2656C18.5794 16.2969 18.6823 16.3268 18.8125 16.3555C18.9427 16.3841 19.0846 16.3984 19.2383 16.3984C19.5586 16.3984 19.8424 16.3229 20.0898 16.1719C20.3398 16.0208 20.4648 15.8112 20.4648 15.543C20.4648 15.3711 20.4115 15.2279 20.3047 15.1133C20.1979 14.9961 20.0651 14.901 19.9062 14.8281C19.75 14.7552 19.5339 14.668 19.2578 14.5664C18.8958 14.4388 18.6029 14.319 18.3789 14.207C18.1576 14.0951 17.9674 13.9336 17.8086 13.7227C17.6523 13.5117 17.5742 13.2409 17.5742 12.9102C17.5742 12.3815 17.7539 11.9844 18.1133 11.7188C18.4753 11.4531 18.9284 11.3203 19.4727 11.3203C19.6966 11.3203 19.9336 11.3451 20.1836 11.3945C20.4336 11.4414 20.6471 11.4909 20.8242 11.543C21.0013 11.5924 21.1133 11.625 21.1602 11.6406L21.1211 13H20.6016L20.3281 12.1445C20.3073 12.1393 20.2565 12.125 20.1758 12.1016C20.0951 12.0755 19.9909 12.0521 19.8633 12.0312C19.7357 12.0104 19.6081 12 19.4805 12C19.1393 12 18.8763 12.0768 18.6914 12.2305C18.5065 12.3815 18.4141 12.5638 18.4141 12.7773C18.4141 12.9492 18.4674 13.0938 18.5742 13.2109C18.681 13.3255 18.8138 13.4206 18.9727 13.4961C19.1341 13.5716 19.3594 13.6602 19.6484 13.7617C19.9948 13.8841 20.2786 14 20.5 14.1094C20.7214 14.2188 20.9089 14.3737 21.0625 14.5742C21.2188 14.7721 21.2969 15.0234 21.2969 15.3281C21.2969 15.7109 21.2031 16.0352 21.0156 16.3008C20.8281 16.5638 20.5755 16.7591 20.2578 16.8867C19.9427 17.0143 19.5924 17.0781 19.207 17.0781C18.957 17.0781 18.7109 17.0547 18.4688 17.0078C18.2266 16.9609 18.0247 16.9128 17.8633 16.8633C17.7044 16.8112 17.6029 16.7773 17.5586 16.7617V15.3594H18.1992L18.3594 16.1992ZM22.8125 16.5195L23.6133 16.3594V12.0391H22.5742L22.375 12.8398H21.8516V11.3984H26.2148V12.8398H25.6953L25.4922 12.0391H24.4531V16.3594L25.2539 16.5195V17H22.8125V16.5195ZM26.6562 12.7617C26.6562 12.3138 26.7786 11.9622 27.0234 11.707C27.2708 11.4492 27.5885 11.3203 27.9766 11.3203C28.349 11.3203 28.6484 11.4362 28.875 11.668C29.1042 11.8997 29.2188 12.237 29.2188 12.6797C29.2188 13.1432 29.0964 13.5 28.8516 13.75C28.6094 13.9974 28.2917 14.1211 27.8984 14.1211C27.5208 14.1211 27.2188 14.0091 26.9922 13.7852C26.7682 13.5612 26.6562 13.2201 26.6562 12.7617ZM28.2578 17H27.5352L30.7773 11.3984H31.4961L28.2578 17ZM27.2578 12.7188C27.2578 13.3073 27.4844 13.6016 27.9375 13.6016C28.3906 13.6016 28.6172 13.3073 28.6172 12.7188C28.6172 12.4479 28.5612 12.2344 28.4492 12.0781C28.3372 11.9193 28.1667 11.8398 27.9375 11.8398C27.7083 11.8398 27.5378 11.9193 27.4258 12.0781C27.3138 12.2344 27.2578 12.4479 27.2578 12.7188ZM29.8164 15.7188C29.8164 15.2708 29.9388 14.9193 30.1836 14.6641C30.431 14.4089 30.7487 14.2812 31.1367 14.2812C31.5091 14.2812 31.8086 14.3971 32.0352 14.6289C32.2617 14.8607 32.375 15.1979 32.375 15.6406C32.375 16.1042 32.2539 16.4596 32.0117 16.707C31.7695 16.9544 31.4518 17.0781 31.0586 17.0781C30.681 17.0781 30.3789 16.9661 30.1523 16.7422C29.9284 16.5182 29.8164 16.1771 29.8164 15.7188ZM30.418 15.6797C30.418 16.2656 30.6445 16.5586 31.0977 16.5586C31.5508 16.5586 31.7773 16.2656 31.7773 15.6797C31.7773 15.4089 31.7214 15.1953 31.6094 15.0391C31.4974 14.8802 31.3268 14.8008 31.0977 14.8008C30.8685 14.8008 30.6979 14.8802 30.5859 15.0391C30.474 15.1953 30.418 15.4089 30.418 15.6797Z" fill="#06A3DA"/>
<path d="M11.6518 23.6396C11.6611 23.6443 11.6828 23.6543 11.7168 23.6695C11.7508 23.6836 11.7971 23.6971 11.8557 23.71C11.9143 23.7229 11.9781 23.7293 12.0473 23.7293C12.1914 23.7293 12.3191 23.6953 12.4305 23.6273C12.543 23.5594 12.5992 23.465 12.5992 23.3443C12.5992 23.267 12.5752 23.2025 12.5271 23.151C12.4791 23.0982 12.4193 23.0555 12.3479 23.0227C12.2775 22.9898 12.1803 22.9506 12.0561 22.9049C11.8932 22.8475 11.7613 22.7936 11.6605 22.7432C11.5609 22.6928 11.4754 22.6201 11.4039 22.5252C11.3336 22.4303 11.2984 22.3084 11.2984 22.1596C11.2984 21.9217 11.3793 21.743 11.541 21.6234C11.7039 21.5039 11.9078 21.4441 12.1527 21.4441C12.2535 21.4441 12.3602 21.4553 12.4727 21.4775C12.5852 21.4986 12.6812 21.5209 12.7609 21.5443C12.8406 21.5666 12.891 21.5813 12.9121 21.5883L12.8945 22.2H12.6607L12.5377 21.815C12.5283 21.8127 12.5055 21.8063 12.4691 21.7957C12.4328 21.784 12.3859 21.7734 12.3285 21.7641C12.2711 21.7547 12.2137 21.75 12.1562 21.75C12.0027 21.75 11.8844 21.7846 11.8012 21.8537C11.718 21.9217 11.6764 22.0037 11.6764 22.0998C11.6764 22.1771 11.7004 22.2422 11.7484 22.2949C11.7965 22.3465 11.8562 22.3893 11.9277 22.4232C12.0004 22.4572 12.1018 22.4971 12.2318 22.5428C12.3877 22.5979 12.5154 22.65 12.615 22.6992C12.7146 22.7484 12.799 22.8182 12.8682 22.9084C12.9385 22.9975 12.9736 23.1105 12.9736 23.2477C12.9736 23.4199 12.9314 23.5658 12.8471 23.6854C12.7627 23.8037 12.649 23.8916 12.5061 23.949C12.3643 24.0064 12.2066 24.0352 12.0332 24.0352C11.9207 24.0352 11.81 24.0246 11.701 24.0035C11.592 23.9824 11.5012 23.9607 11.4285 23.9385C11.357 23.915 11.3113 23.8998 11.2914 23.8928V23.2617H11.5797L11.6518 23.6396ZM15.5822 22.9734C15.5822 23.3262 15.5078 23.5916 15.359 23.7697C15.2102 23.9467 14.9547 24.0352 14.5926 24.0352C14.2492 24.0352 14.0043 23.9531 13.8578 23.7891C13.7113 23.625 13.6381 23.3713 13.6381 23.0279V21.7676L13.3322 21.6955V21.4986L14.3588 21.4793V21.6955L14.016 21.7676V23.0279C14.016 23.2084 14.0365 23.349 14.0775 23.4498C14.1186 23.5506 14.1818 23.6227 14.2674 23.666C14.3541 23.7082 14.4684 23.7293 14.6102 23.7293C14.7613 23.7293 14.8791 23.7053 14.9635 23.6572C15.049 23.6092 15.1105 23.5307 15.148 23.4217C15.1855 23.3127 15.2043 23.1633 15.2043 22.9734V21.7676L14.8615 21.6955V21.4986L15.8881 21.4793V21.6955L15.5822 21.7676V22.9734ZM16.4822 21.7676L16.1764 21.6955V21.4986L16.8602 21.4793H17.2557C17.51 21.4793 17.7086 21.5373 17.8516 21.6533C17.9945 21.7682 18.066 21.9264 18.066 22.1279C18.066 22.4807 17.9102 22.7145 17.5984 22.8293C17.6559 22.8797 17.7279 22.9881 17.8146 23.1545L18.0994 23.7258L18.3543 23.7838V24H17.8146L17.5088 23.3338C17.4514 23.2096 17.401 23.1182 17.3576 23.0596C17.3143 22.9998 17.268 22.9588 17.2187 22.9365C17.1695 22.9131 17.1039 22.9014 17.0219 22.9014H16.8602V23.7117L17.166 23.7838V24H16.1764V23.7838L16.4822 23.7117V21.7676ZM17.1309 22.6324C17.3055 22.6324 17.442 22.5932 17.5404 22.5146C17.6389 22.435 17.6881 22.3242 17.6881 22.1824C17.6881 22.0629 17.6459 21.9639 17.5615 21.8854C17.4783 21.8068 17.3705 21.7676 17.2381 21.7676H16.8602V22.6324H17.1309ZM18.8236 21.7676L18.5178 21.6955V21.4986L19.2016 21.4793H19.5971C19.8514 21.4793 20.05 21.5373 20.193 21.6533C20.3359 21.7682 20.4074 21.9264 20.4074 22.1279C20.4074 22.4807 20.2516 22.7145 19.9398 22.8293C19.9973 22.8797 20.0693 22.9881 20.1561 23.1545L20.4408 23.7258L20.6957 23.7838V24H20.1561L19.8502 23.3338C19.7928 23.2096 19.7424 23.1182 19.699 23.0596C19.6557 22.9998 19.6094 22.9588 19.5602 22.9365C19.5109 22.9131 19.4453 22.9014 19.3633 22.9014H19.2016V23.7117L19.5074 23.7838V24H18.5178V23.7838L18.8236 23.7117V21.7676ZM19.4723 22.6324C19.6469 22.6324 19.7834 22.5932 19.8818 22.5146C19.9803 22.435 20.0295 22.3242 20.0295 22.1824C20.0295 22.0629 19.9873 21.9639 19.9029 21.8854C19.8197 21.8068 19.7119 21.7676 19.5795 21.7676H19.2016V22.6324H19.4723ZM22.4078 22.5428V22.8293H21.5799V23.7117H22.4078L22.4799 23.3514H22.7137V24H20.8943V23.7838L21.2002 23.7117V21.7676L20.8943 21.6955V21.4986L21.5799 21.4793H22.6768V22.0928H22.443L22.3533 21.7676H21.5799V22.5428H22.4078ZM24.0461 23.7838V24H23.074V23.7838L23.3799 23.7117V21.7676L23.074 21.6955V21.4986L23.8299 21.4793L25.0182 23.492V21.7676L24.7123 21.6955V21.4986L25.6475 21.4793V21.6955L25.3416 21.7676V24H24.8916L23.7033 22.0172V23.7117L24.0461 23.7838ZM26.2416 21.7676L25.9357 21.6955V21.4986L26.6195 21.4793H27.0695C27.4246 21.4793 27.7023 21.5859 27.9027 21.7992C28.1031 22.0113 28.2033 22.3131 28.2033 22.7045C28.2033 22.9658 28.1547 23.1943 28.0574 23.39C27.9613 23.5857 27.823 23.7363 27.6426 23.8418C27.4621 23.9473 27.2535 24 27.0168 24H25.9357V23.7838L26.2416 23.7117V21.7676ZM27.0344 23.7117C27.2699 23.7117 27.4545 23.6297 27.5881 23.4656C27.7229 23.3016 27.7902 23.0537 27.7902 22.7221C27.7902 22.3986 27.7252 22.159 27.5951 22.0031C27.4662 21.8461 27.2852 21.7676 27.052 21.7676H26.6195V23.7117H27.0344ZM30.0965 22.5428V22.8293H29.2686V23.7117H30.0965L30.1686 23.3514H30.4023V24H28.583V23.7838L28.8889 23.7117V21.7676L28.583 21.6955V21.4986L29.2686 21.4793H30.3654V22.0928H30.1316L30.042 21.7676H29.2686V22.5428H30.0965ZM31.0686 21.7676L30.7627 21.6955V21.4986L31.4465 21.4793H31.842C32.0963 21.4793 32.2949 21.5373 32.4379 21.6533C32.5809 21.7682 32.6523 21.9264 32.6523 22.1279C32.6523 22.4807 32.4965 22.7145 32.1848 22.8293C32.2422 22.8797 32.3143 22.9881 32.401 23.1545L32.6857 23.7258L32.9406 23.7838V24H32.401L32.0951 23.3338C32.0377 23.2096 31.9873 23.1182 31.9439 23.0596C31.9006 22.9998 31.8543 22.9588 31.8051 22.9365C31.7559 22.9131 31.6902 22.9014 31.6082 22.9014H31.4465V23.7117L31.7523 23.7838V24H30.7627V23.7838L31.0686 23.7117V21.7676ZM31.7172 22.6324C31.8918 22.6324 32.0283 22.5932 32.1268 22.5146C32.2252 22.435 32.2744 22.3242 32.2744 22.1824C32.2744 22.0629 32.2322 21.9639 32.1478 21.8854C32.0646 21.8068 31.9568 21.7676 31.8244 21.7676H31.4465V22.6324H31.7172Z" fill="#091E3E"/>
</g>
<defs>
<clipPath id="clip0_650_1904">
<rect width="44" height="40" fill="white"/>
</clipPath>
</defs>
</svg>
