<svg width="40" height="40" viewBox="0 0 40 40" fill="none" xmlns="http://www.w3.org/2000/svg">
<g clip-path="url(#clip0_650_1924)">
<path d="M26.9439 39.5H4.95175C2.49693 39.5 0.5 37.499 0.5 35.0397V4.95987C0.5 2.50058 2.49693 0.5 4.95175 0.5H35.0316C35.2616 0.5 35.4476 0.686082 35.4476 0.916043C35.4476 1.146 35.2616 1.33209 35.0316 1.33209C34.0695 1.33209 33.1606 1.71156 32.472 2.40023C31.7833 3.08889 31.4038 3.99777 31.4038 4.95987V23.6152C31.4038 23.8451 31.2177 24.0312 30.9878 24.0312C30.7578 24.0312 30.5717 23.8451 30.5717 23.6152V4.95987C30.5717 3.77553 31.0377 2.65741 31.8836 1.81192C32.0604 1.63518 32.2489 1.4747 32.4476 1.33209H4.95175C2.95604 1.33209 1.33209 2.95969 1.33209 4.95987V35.0397C1.33209 37.0403 2.95604 38.6679 4.95175 38.6679H26.9439C27.464 38.6679 27.9682 38.5574 28.4428 38.3396C28.6532 38.2442 28.8986 38.336 28.9945 38.5444C29.0904 38.7532 28.9986 39.0003 28.7897 39.0961C28.2055 39.3639 27.5843 39.5 26.9439 39.5Z" fill="#091E3E" stroke="#091E3E" stroke-width="0.4"/>
<path d="M35.0292 16.0427H30.9902C30.7602 16.0427 30.5742 15.8566 30.5742 15.6267V4.95785C30.5742 3.77026 31.0381 2.65215 31.8808 1.8095C32.723 0.967251 33.8412 0.503265 35.0292 0.503265C37.4901 0.503265 39.4919 2.50141 39.4919 4.95785V11.5881C39.4919 14.0446 37.4901 16.0427 35.0292 16.0427ZM31.4062 15.2106H35.0292C37.031 15.2106 38.6598 13.5855 38.6598 11.5881V4.95785C38.6598 2.96052 37.031 1.33535 35.0292 1.33535C34.0634 1.33535 33.1541 1.7128 32.4691 2.39781C31.7837 3.08322 31.4062 3.9925 31.4062 4.95785V15.2106Z" fill="#091E3E" stroke="#091E3E" stroke-width="0.4"/>
<path d="M23.1995 31.7711H20.8076C20.5777 31.7711 20.3916 31.585 20.3916 31.355C20.3916 31.1251 20.5777 30.939 20.8076 30.939H23.1995C23.4294 30.939 23.6155 31.1251 23.6155 31.355C23.6155 31.585 23.4294 31.7711 23.1995 31.7711Z" fill="#091E3E"/>
<path d="M19.5157 31.7711H4.09646C3.8665 31.7711 3.68042 31.585 3.68042 31.3551C3.68042 31.1251 3.8665 30.939 4.09646 30.939H19.5157C19.7456 30.939 19.9317 31.1251 19.9317 31.3551C19.9317 31.585 19.7456 31.7711 19.5157 31.7711Z" fill="#091E3E"/>
<path d="M6.44768 36.3138H4.09646C3.8665 36.3138 3.68042 36.1278 3.68042 35.8978C3.68042 35.6678 3.8665 35.4818 4.09646 35.4818H6.44768C6.67764 35.4818 6.86372 35.6678 6.86372 35.8978C6.86372 36.1278 6.67764 36.3138 6.44768 36.3138Z" fill="#091E3E"/>
<path d="M17.9733 36.3138H7.8392C7.60924 36.3138 7.42316 36.1278 7.42316 35.8978C7.42316 35.6678 7.60924 35.4818 7.8392 35.4818H17.9733C18.2033 35.4818 18.3894 35.6678 18.3894 35.8978C18.3894 36.1278 18.2033 36.3138 17.9733 36.3138Z" fill="#091E3E"/>
<path d="M30.9211 39.4833C26.434 39.4833 22.7835 35.8328 22.7835 31.3453C22.7835 26.8533 26.434 23.1991 30.9211 23.1991C31.2986 23.1991 31.6768 23.2259 32.0453 23.2784C36.0429 23.8264 39.0592 27.2946 39.0592 31.3453C39.0592 35.3911 36.0429 38.856 32.0429 39.4045C31.6768 39.4565 31.2986 39.4833 30.9211 39.4833ZM30.9211 24.0312C26.8927 24.0312 23.6156 27.3124 23.6156 31.3453C23.6156 35.3737 26.8927 38.6512 30.9211 38.6512C31.2592 38.6512 31.598 38.6273 31.9275 38.5801C35.52 38.0877 38.2271 34.9775 38.2271 31.3453C38.2271 27.7086 35.52 24.5947 31.93 24.1027C31.598 24.0552 31.2592 24.0312 30.9211 24.0312Z" fill="#091E3E" stroke="#091E3E" stroke-width="0.4"/>
<path d="M30.9207 37.5421C27.5021 37.5421 24.7211 34.761 24.7211 31.3428C24.7207 29.6868 25.3654 28.1299 26.5364 26.9589C27.7073 25.7876 29.2642 25.1428 30.9203 25.1428C34.3384 25.1428 37.1199 27.9239 37.1203 31.3424C37.1203 34.761 34.3392 37.5421 30.9207 37.5421ZM30.9203 25.9749C29.4865 25.9749 28.1388 26.5332 27.1247 27.5473C26.111 28.561 25.5532 29.909 25.5532 31.3428C25.5532 34.3023 27.9608 36.71 30.9207 36.71C33.8805 36.71 36.2882 34.3023 36.2882 31.3424C36.2878 28.3826 33.8797 25.9749 30.9203 25.9749Z" fill="#06A3DA"/>
<path d="M30.3466 29.9254C30.3466 31.2925 29.6283 31.9715 28.7897 31.9715C27.9816 31.9715 27.2828 31.3226 27.273 30.0152C27.273 28.7179 27.9816 27.9894 28.8397 27.9894C29.7477 27.9894 30.3466 28.6882 30.3466 29.9254ZM27.9714 29.9855C27.9515 30.8135 28.2611 31.4425 28.81 31.4425C29.3886 31.4425 29.6482 30.8237 29.6482 29.9656C29.6482 29.177 29.4186 28.5184 28.81 28.5184C28.2611 28.5184 27.9714 29.1672 27.9714 29.9855ZM28.73 34.6956L32.5422 27.9894H33.1009L29.2886 34.6956H28.73ZM34.568 32.6101C34.568 33.9773 33.8497 34.6558 33.0212 34.6558C32.2127 34.6558 31.5143 34.007 31.5041 32.7097C31.5041 31.4026 32.2127 30.6738 33.0712 30.6738C33.9793 30.6738 34.568 31.3726 34.568 32.6101ZM32.1928 32.6699C32.1831 33.4983 32.5024 34.1268 33.0411 34.1268C33.6201 34.1268 33.8793 33.508 33.8793 32.65C33.8793 31.8613 33.6498 31.2027 33.0411 31.2027C32.4922 31.2027 32.1928 31.8516 32.1928 32.6699Z" fill="#06A3DA"/>
<path d="M9.07812 14.6016C9.07812 14.612 8.97786 14.6589 8.77734 14.7422C8.57943 14.8229 8.32812 14.8997 8.02344 14.9727C7.71875 15.043 7.39062 15.0781 7.03906 15.0781C6.22917 15.0781 5.60026 14.8411 5.15234 14.3672C4.70443 13.8932 4.48047 13.2109 4.48047 12.3203C4.48047 11.7135 4.58984 11.1849 4.80859 10.7344C5.02734 10.2812 5.33724 9.93229 5.73828 9.6875C6.14193 9.44271 6.61589 9.32031 7.16016 9.32031C7.42057 9.32031 7.68359 9.35026 7.94922 9.41016C8.21745 9.46745 8.45312 9.53255 8.65625 9.60547C8.85938 9.67578 8.96094 9.71354 8.96094 9.71875L8.92188 11.0391H8.39844L8.16016 10.1602C8.13411 10.1497 8.07161 10.1328 7.97266 10.1094C7.8737 10.0833 7.74349 10.0586 7.58203 10.0352C7.42318 10.0117 7.25521 10 7.07812 10C6.53906 10 6.1237 10.1966 5.83203 10.5898C5.54297 10.9805 5.39844 11.5443 5.39844 12.2812C5.39844 12.9792 5.55729 13.5065 5.875 13.8633C6.19271 14.2201 6.62109 14.3984 7.16016 14.3984C7.32422 14.3984 7.48828 14.3841 7.65234 14.3555C7.81901 14.3268 7.95833 14.2969 8.07031 14.2656C8.18229 14.2318 8.2526 14.2096 8.28125 14.1992V12.8867L7.60156 12.7266V12.2891L9.67969 12.2461V12.7266L9.07812 12.8867V14.6016ZM11.3594 14.1992C11.3802 14.2096 11.4284 14.2318 11.5039 14.2656C11.5794 14.2969 11.6823 14.3268 11.8125 14.3555C11.9427 14.3841 12.0846 14.3984 12.2383 14.3984C12.5586 14.3984 12.8424 14.3229 13.0898 14.1719C13.3398 14.0208 13.4648 13.8112 13.4648 13.543C13.4648 13.3711 13.4115 13.2279 13.3047 13.1133C13.1979 12.9961 13.0651 12.901 12.9062 12.8281C12.75 12.7552 12.5339 12.668 12.2578 12.5664C11.8958 12.4388 11.6029 12.319 11.3789 12.207C11.1576 12.0951 10.9674 11.9336 10.8086 11.7227C10.6523 11.5117 10.5742 11.2409 10.5742 10.9102C10.5742 10.3815 10.7539 9.98438 11.1133 9.71875C11.4753 9.45312 11.9284 9.32031 12.4727 9.32031C12.6966 9.32031 12.9336 9.34505 13.1836 9.39453C13.4336 9.44141 13.6471 9.49089 13.8242 9.54297C14.0013 9.59245 14.1133 9.625 14.1602 9.64062L14.1211 11H13.6016L13.3281 10.1445C13.3073 10.1393 13.2565 10.125 13.1758 10.1016C13.0951 10.0755 12.9909 10.0521 12.8633 10.0312C12.7357 10.0104 12.6081 10 12.4805 10C12.1393 10 11.8763 10.0768 11.6914 10.2305C11.5065 10.3815 11.4141 10.5638 11.4141 10.7773C11.4141 10.9492 11.4674 11.0938 11.5742 11.2109C11.681 11.3255 11.8138 11.4206 11.9727 11.4961C12.1341 11.5716 12.3594 11.6602 12.6484 11.7617C12.9948 11.8841 13.2786 12 13.5 12.1094C13.7214 12.2188 13.9089 12.3737 14.0625 12.5742C14.2188 12.7721 14.2969 13.0234 14.2969 13.3281C14.2969 13.7109 14.2031 14.0352 14.0156 14.3008C13.8281 14.5638 13.5755 14.7591 13.2578 14.8867C12.9427 15.0143 12.5924 15.0781 12.207 15.0781C11.957 15.0781 11.7109 15.0547 11.4688 15.0078C11.2266 14.9609 11.0247 14.9128 10.8633 14.8633C10.7044 14.8112 10.6029 14.7773 10.5586 14.7617V13.3594H11.1992L11.3594 14.1992ZM15.8125 14.5195L16.6133 14.3594V10.0391H15.5742L15.375 10.8398H14.8516V9.39844H19.2148V10.8398H18.6953L18.4922 10.0391H17.4531V14.3594L18.2539 14.5195V15H15.8125V14.5195ZM19.6562 10.7617C19.6562 10.3138 19.7786 9.96224 20.0234 9.70703C20.2708 9.44922 20.5885 9.32031 20.9766 9.32031C21.349 9.32031 21.6484 9.4362 21.875 9.66797C22.1042 9.89974 22.2188 10.237 22.2188 10.6797C22.2188 11.1432 22.0964 11.5 21.8516 11.75C21.6094 11.9974 21.2917 12.1211 20.8984 12.1211C20.5208 12.1211 20.2188 12.0091 19.9922 11.7852C19.7682 11.5612 19.6562 11.2201 19.6562 10.7617ZM21.2578 15H20.5352L23.7773 9.39844H24.4961L21.2578 15ZM20.2578 10.7188C20.2578 11.3073 20.4844 11.6016 20.9375 11.6016C21.3906 11.6016 21.6172 11.3073 21.6172 10.7188C21.6172 10.4479 21.5612 10.2344 21.4492 10.0781C21.3372 9.91927 21.1667 9.83984 20.9375 9.83984C20.7083 9.83984 20.5378 9.91927 20.4258 10.0781C20.3138 10.2344 20.2578 10.4479 20.2578 10.7188ZM22.8164 13.7188C22.8164 13.2708 22.9388 12.9193 23.1836 12.6641C23.431 12.4089 23.7487 12.2812 24.1367 12.2812C24.5091 12.2812 24.8086 12.3971 25.0352 12.6289C25.2617 12.8607 25.375 13.1979 25.375 13.6406C25.375 14.1042 25.2539 14.4596 25.0117 14.707C24.7695 14.9544 24.4518 15.0781 24.0586 15.0781C23.681 15.0781 23.3789 14.9661 23.1523 14.7422C22.9284 14.5182 22.8164 14.1771 22.8164 13.7188ZM23.418 13.6797C23.418 14.2656 23.6445 14.5586 24.0977 14.5586C24.5508 14.5586 24.7773 14.2656 24.7773 13.6797C24.7773 13.4089 24.7214 13.1953 24.6094 13.0391C24.4974 12.8802 24.3268 12.8008 24.0977 12.8008C23.8685 12.8008 23.6979 12.8802 23.5859 13.0391C23.474 13.1953 23.418 13.4089 23.418 13.6797Z" fill="#06A3DA"/>
<path d="M2.9375 20.3296L2.64014 20.2595V20.0681L3.30493 20.0493H3.68945C3.93669 20.0493 4.1298 20.1057 4.2688 20.2185C4.4078 20.3302 4.47729 20.484 4.47729 20.6799C4.47729 21.0229 4.32576 21.2502 4.02271 21.3618C4.07853 21.4108 4.1486 21.5162 4.23291 21.678L4.50977 22.2334L4.75757 22.2898V22.5H4.23291L3.93555 21.8523C3.87972 21.7315 3.83073 21.6427 3.78857 21.5857C3.74642 21.5276 3.70142 21.4877 3.65356 21.4661C3.60571 21.4433 3.54191 21.4319 3.46216 21.4319H3.30493V22.2197L3.60229 22.2898V22.5H2.64014V22.2898L2.9375 22.2197V20.3296ZM3.56812 21.1704C3.73787 21.1704 3.87061 21.1322 3.96631 21.0559C4.06201 20.9784 4.10986 20.8708 4.10986 20.7329C4.10986 20.6167 4.06885 20.5204 3.98682 20.4441C3.90592 20.3678 3.80111 20.3296 3.67236 20.3296H3.30493V21.1704H3.56812ZM6.42212 21.0833V21.3618H5.61719V22.2197H6.42212L6.49219 21.8694H6.71948V22.5H4.95068V22.2898L5.24805 22.2197V20.3296L4.95068 20.2595V20.0681L5.61719 20.0493H6.68359V20.6458H6.4563L6.36914 20.3296H5.61719V21.0833H6.42212ZM9.15137 22.3257C9.15137 22.3302 9.1075 22.3507 9.01978 22.3872C8.93319 22.4225 8.82324 22.4561 8.68994 22.488C8.55664 22.5188 8.41309 22.5342 8.25928 22.5342C7.90495 22.5342 7.6298 22.4305 7.43384 22.2231C7.23787 22.0158 7.13989 21.7173 7.13989 21.3276C7.13989 21.0622 7.18774 20.8309 7.28345 20.6338C7.37915 20.4355 7.51473 20.2829 7.69019 20.1758C7.86678 20.0687 8.07414 20.0151 8.31226 20.0151C8.42619 20.0151 8.54126 20.0282 8.65747 20.0544C8.77482 20.0795 8.87793 20.108 8.9668 20.1399C9.05566 20.1707 9.1001 20.1872 9.1001 20.1895L9.08301 20.7671H8.854L8.74976 20.3826C8.73836 20.378 8.71102 20.3706 8.66772 20.3604C8.62443 20.349 8.56746 20.3381 8.49683 20.3279C8.42733 20.3176 8.35384 20.3125 8.27637 20.3125C8.04053 20.3125 7.85881 20.3985 7.7312 20.5706C7.60474 20.7415 7.5415 20.9881 7.5415 21.3105C7.5415 21.6159 7.611 21.8466 7.75 22.0027C7.889 22.1588 8.07642 22.2368 8.31226 22.2368C8.38403 22.2368 8.45581 22.2306 8.52759 22.218C8.6005 22.2055 8.66146 22.1924 8.71045 22.1787C8.75944 22.1639 8.7902 22.1542 8.80273 22.1497V21.5754L8.50537 21.5054V21.314L9.41455 21.2952V21.5054L9.15137 21.5754V22.3257ZM9.71191 22.2898L10.0093 22.2197V20.3296L9.71191 20.2595V20.0681L10.6741 20.0493V20.2595L10.3767 20.3296V22.2197L10.6741 22.2898V22.5H9.71191V22.2898ZM11.4277 22.1497C11.4368 22.1542 11.4579 22.1639 11.491 22.1787C11.524 22.1924 11.569 22.2055 11.626 22.218C11.6829 22.2306 11.745 22.2368 11.8123 22.2368C11.9524 22.2368 12.0766 22.2038 12.1848 22.1377C12.2942 22.0716 12.3489 21.9799 12.3489 21.8625C12.3489 21.7874 12.3255 21.7247 12.2788 21.6746C12.2321 21.6233 12.174 21.5817 12.1045 21.5498C12.0361 21.5179 11.9416 21.4797 11.8208 21.4353C11.6624 21.3795 11.5343 21.3271 11.4363 21.2781C11.3394 21.2291 11.2563 21.1584 11.1868 21.0662C11.1184 20.9739 11.0842 20.8554 11.0842 20.7107C11.0842 20.4794 11.1628 20.3057 11.3201 20.1895C11.4784 20.0732 11.6767 20.0151 11.9148 20.0151C12.0128 20.0151 12.1165 20.026 12.2258 20.0476C12.3352 20.0681 12.4286 20.0898 12.5061 20.1125C12.5836 20.1342 12.6326 20.1484 12.6531 20.1553L12.636 20.75H12.4087L12.2891 20.3757C12.2799 20.3735 12.2577 20.3672 12.2224 20.3569C12.1871 20.3455 12.1415 20.3353 12.0857 20.3262C12.0299 20.3171 11.974 20.3125 11.9182 20.3125C11.769 20.3125 11.6539 20.3461 11.573 20.4133C11.4921 20.4794 11.4517 20.5592 11.4517 20.6526C11.4517 20.7278 11.475 20.791 11.5217 20.8423C11.5684 20.8924 11.6265 20.934 11.696 20.967C11.7667 21.0001 11.8652 21.0388 11.9917 21.0833C12.1432 21.1368 12.2674 21.1875 12.3643 21.2354C12.4611 21.2832 12.5431 21.351 12.6104 21.4387C12.6787 21.5253 12.7129 21.6353 12.7129 21.7686C12.7129 21.936 12.6719 22.0779 12.5898 22.1941C12.5078 22.3092 12.3973 22.3946 12.2583 22.4504C12.1204 22.5063 11.9672 22.5342 11.7986 22.5342C11.6892 22.5342 11.5815 22.5239 11.4756 22.5034C11.3696 22.4829 11.2813 22.4618 11.2107 22.4402C11.1412 22.4174 11.0968 22.4026 11.0774 22.3958V21.7822H11.3577L11.4277 22.1497ZM13.376 22.2898L13.7263 22.2197V20.3296H13.2717L13.1846 20.6799H12.9556V20.0493H14.8645V20.6799H14.6372L14.5483 20.3296H14.0938V22.2197L14.4441 22.2898V22.5H13.376V22.2898ZM15.3379 20.3296L15.0405 20.2595V20.0681L15.7053 20.0493H16.0898C16.3371 20.0493 16.5302 20.1057 16.6692 20.2185C16.8082 20.3302 16.8777 20.484 16.8777 20.6799C16.8777 21.0229 16.7262 21.2502 16.4231 21.3618C16.4789 21.4108 16.549 21.5162 16.6333 21.678L16.9102 22.2334L17.158 22.2898V22.5H16.6333L16.3359 21.8523C16.2801 21.7315 16.2311 21.6427 16.189 21.5857C16.1468 21.5276 16.1018 21.4877 16.054 21.4661C16.0061 21.4433 15.9423 21.4319 15.8625 21.4319H15.7053V22.2197L16.0027 22.2898V22.5H15.0405V22.2898L15.3379 22.2197V20.3296ZM15.9685 21.1704C16.1383 21.1704 16.271 21.1322 16.3667 21.0559C16.4624 20.9784 16.5103 20.8708 16.5103 20.7329C16.5103 20.6167 16.4692 20.5204 16.3872 20.4441C16.3063 20.3678 16.2015 20.3296 16.0728 20.3296H15.7053V21.1704H15.9685ZM18.2791 20.0681L18.6294 20.0493L19.407 22.2231L19.6975 22.2898V22.5H18.6824V22.2898L19.0071 22.2231L18.8738 21.8352H17.9646L17.8279 22.2231L18.156 22.2898V22.5H17.1938V22.2898L17.481 22.2231L18.2791 20.0681ZM18.426 20.5022L18.0586 21.5549H18.7798L18.426 20.5022ZM19.8872 22.2898L20.2375 22.2197V20.3296H19.783L19.6958 20.6799H19.4668V20.0493H21.3757V20.6799H21.1484L21.0596 20.3296H20.605V22.2197L20.9553 22.2898V22.5H19.8872V22.2898ZM21.5688 22.2898L21.8662 22.2197V20.3296L21.5688 20.2595V20.0681L22.531 20.0493V20.2595L22.2336 20.3296V22.2197L22.531 22.2898V22.5H21.5688V22.2898ZM24.0366 20.0151C24.2611 20.0151 24.4548 20.0647 24.6177 20.1638C24.7817 20.2629 24.9065 20.4048 24.9919 20.5894C25.0785 20.7739 25.1218 20.991 25.1218 21.2405C25.1218 21.4945 25.0734 21.7196 24.9766 21.9155C24.8797 22.1115 24.7436 22.2636 24.5681 22.3718C24.3938 22.4801 24.1938 22.5342 23.9683 22.5342C23.6253 22.5342 23.3616 22.4277 23.177 22.2146C22.9924 22.0015 22.9001 21.6939 22.9001 21.2917C22.9001 21.0377 22.9463 20.8138 23.0386 20.6201C23.1309 20.4264 23.2625 20.2772 23.4333 20.1724C23.6054 20.0675 23.8065 20.0151 24.0366 20.0151ZM24.0195 20.3125C23.786 20.3125 23.6077 20.3911 23.4846 20.5483C23.3627 20.7056 23.3018 20.9477 23.3018 21.2747C23.3018 21.5925 23.3587 21.8324 23.4727 21.9941C23.5877 22.1559 23.7586 22.2368 23.9854 22.2368C24.2189 22.2368 24.3995 22.1548 24.5271 21.9907C24.6558 21.8267 24.7202 21.5823 24.7202 21.2576C24.7202 20.9454 24.6604 20.7101 24.5408 20.5518C24.4223 20.3923 24.2485 20.3125 24.0195 20.3125ZM26.4172 22.2898V22.5H25.4722V22.2898L25.7695 22.2197V20.3296L25.4722 20.2595V20.0681L26.207 20.0493L27.3623 22.0061V20.3296L27.0649 20.2595V20.0681L27.9741 20.0493V20.2595L27.6768 20.3296V22.5H27.2393L26.084 20.5723V22.2197L26.4172 22.2898Z" fill="#091E3E"/>
</g>
<defs>
<clipPath id="clip0_650_1924">
<rect width="40" height="40" fill="white"/>
</clipPath>
</defs>
</svg>
