<svg width="33" height="33" viewBox="0 0 33 33" fill="none" xmlns="http://www.w3.org/2000/svg">
<path fill-rule="evenodd" clip-rule="evenodd" d="M10.5778 30.4645C3.2256 28.5132 2.11207 24.0765 6.25112 19.3793L3.92643 15.8958C-3.10533 23.1475 1.15259 30.178 10.5778 30.4645ZM31.1009 16.8451C33.0874 24.1878 29.8017 27.3705 23.6644 26.1347L21.8101 29.8898C31.6059 32.3534 35.5655 25.1508 31.1009 16.8451ZM8.99675 5.89807C14.3625 0.506652 18.7618 1.7606 20.76 7.69373L24.9393 7.42208C22.175 -2.29318 13.9574 -2.12106 8.99675 5.89807Z" fill="#2E3092"/>
<path d="M10.5778 30.4645C3.2256 28.5132 2.11207 24.0765 6.25112 19.3793L3.92643 15.8958C-3.10533 23.1475 1.15259 30.178 10.5778 30.4645ZM31.101 16.8451C33.0874 24.1878 29.8017 27.3705 23.6644 26.1347L21.8101 29.8898C31.6059 32.3534 35.5655 25.1508 31.101 16.8451ZM8.99675 5.89807C14.3625 0.506652 18.7618 1.7606 20.76 7.69373L24.9393 7.42208C22.175 -2.29318 13.9574 -2.12106 8.99675 5.89807Z" stroke="#231F20" stroke-width="0.0175274" stroke-miterlimit="2.6131"/>
<path fill-rule="evenodd" clip-rule="evenodd" d="M19.5879 32.9994C19.5866 32.9984 19.5853 32.9975 19.584 32.9968C19.5831 32.9978 19.5821 32.999 19.5815 33C19.398 32.8811 19.2164 32.7613 19.035 32.6409C15.3759 30.2382 12.203 27.452 9.51061 24.2867C6.49682 20.7873 4.15026 16.9098 2.44018 12.6709C2.41387 12.6068 2.38756 12.5428 2.36157 12.4785C2.36189 12.4781 2.36221 12.4781 2.36252 12.4778C2.36221 12.4772 2.36221 12.4765 2.36189 12.4759C2.36284 12.4756 2.36379 12.475 2.36443 12.4743C2.36411 12.4737 2.36379 12.4731 2.36347 12.4721C2.48202 12.4116 2.60057 12.3517 2.71912 12.2921C6.59033 10.3189 10.5493 8.94768 14.5942 8.17109C19.3181 7.23443 24.0356 7.12983 28.7471 7.81766C28.7468 7.81925 28.7468 7.82083 28.7468 7.82242C28.7481 7.82242 28.7497 7.82273 28.7509 7.82273C28.7398 8.04113 28.7269 8.25857 28.7132 8.47538C28.4682 12.7362 27.6764 16.7792 26.3442 20.6063C24.7938 25.1498 22.5303 29.274 19.5879 32.9994ZM21.7816 29.8908C21.7804 29.8902 21.7791 29.8898 21.7778 29.8892C21.7775 29.8902 21.7769 29.8914 21.7762 29.8924C21.6035 29.8261 21.432 29.7589 21.2612 29.6908C17.8096 28.3417 14.6935 26.5898 11.9095 24.4398C8.80027 22.0698 6.17762 19.2693 4.01871 16.0584C3.98575 16.0099 3.95278 15.961 3.92013 15.9122C3.92045 15.9122 3.92045 15.9119 3.92077 15.9119C3.92045 15.9113 3.92013 15.911 3.91982 15.9103C3.92045 15.91 3.92109 15.9094 3.92172 15.9087C3.9214 15.9081 3.92109 15.9075 3.92045 15.9072C4.00825 15.8362 4.09574 15.7655 4.18354 15.6954C7.04423 13.3831 10.0827 11.5542 13.2965 10.2026C17.0451 8.59932 20.9337 7.68612 24.9564 7.43064C24.9564 7.4319 24.9568 7.43317 24.9571 7.43444C24.958 7.43444 24.9593 7.43444 24.9606 7.43412C24.9897 7.61702 25.017 7.79928 25.0433 7.98154C25.5869 11.5532 25.6395 15.0402 25.2065 18.4433C24.7184 22.4777 23.5662 26.29 21.7816 29.8908Z" fill="#D1D3D4"/>
<path fill-rule="evenodd" clip-rule="evenodd" d="M12.3431 12.2401H16.5189C17.6609 12.5228 18.3504 13.1216 18.655 13.8177C18.8185 14.1911 18.8753 14.5968 18.8347 14.9984C18.7938 15.4051 18.6515 15.8086 18.4182 16.1715C17.918 16.9491 16.994 17.5285 15.7372 17.5504C15.0025 17.4229 14.6323 18.2062 15.2548 18.8068L19.4389 22.6879H12.3431C12.1304 22.6879 11.9564 22.5139 11.9564 22.3008V12.6271C11.9564 12.4141 12.1304 12.2401 12.3431 12.2401ZM19.3406 12.2401H22.2491C22.4622 12.2401 22.6362 12.4141 22.6362 12.6271V22.3008C22.6362 22.5139 22.4622 22.6879 22.2491 22.6879H21.5696L17.3161 18.7425C18.3393 18.3992 19.1285 17.7459 19.6376 16.9544C19.9936 16.401 20.2113 15.7769 20.2757 15.1401C20.3403 14.4985 20.2478 13.8452 19.9825 13.2389C19.8271 12.8842 19.6138 12.5472 19.3406 12.2401Z" fill="#2E3092"/>
<path d="M12.3431 12.2401H16.5189C17.6609 12.5228 18.3504 13.1216 18.655 13.8177C18.8185 14.1911 18.8753 14.5968 18.8347 14.9984C18.7938 15.4051 18.6515 15.8086 18.4182 16.1715C17.918 16.9491 16.994 17.5285 15.7372 17.5504C15.0025 17.4229 14.6323 18.2062 15.2548 18.8068L19.4389 22.6879H12.3431C12.1304 22.6879 11.9564 22.5139 11.9564 22.3009V12.6271C11.9564 12.4141 12.1304 12.2401 12.3431 12.2401ZM19.3406 12.2401H22.2491C22.4622 12.2401 22.6362 12.4141 22.6362 12.6271V22.3009C22.6362 22.5139 22.4622 22.6879 22.2491 22.6879H21.5696L17.3161 18.7425C18.3393 18.3992 19.1285 17.7459 19.6376 16.9544C19.9936 16.401 20.2113 15.7769 20.2757 15.1401C20.3403 14.4985 20.2478 13.8452 19.9825 13.2389C19.8271 12.8842 19.6138 12.5472 19.3406 12.2401Z" stroke="#231F20" stroke-width="0.0175274" stroke-miterlimit="2.6131"/>
</svg>
