<svg id="visual" viewBox="0 0 900 450" width="900" height="450" xmlns="http://www.w3.org/2000/svg" xmlns:xlink="http://www.w3.org/1999/xlink" version="1.1"><rect x="0" y="0" width="900" height="450" fill="#ffffff"></rect><path d="M421 450L439.3 439.3C457.7 428.7 494.3 407.3 508 385.8C521.7 364.3 512.3 342.7 495.5 321.2C478.7 299.7 454.3 278.3 457.3 257C460.3 235.7 490.7 214.3 516.7 193C542.7 171.7 564.3 150.3 556.2 128.8C548 107.3 510 85.7 504.5 64.2C499 42.7 526 21.3 539.5 10.7L553 0L900 0L900 10.7C900 21.3 900 42.7 900 64.2C900 85.7 900 107.3 900 128.8C900 150.3 900 171.7 900 193C900 214.3 900 235.7 900 257C900 278.3 900 299.7 900 321.2C900 342.7 900 364.3 900 385.8C900 407.3 900 428.7 900 439.3L900 450Z" fill="#3adcfe"></path><path d="M479 450L482.8 439.3C486.7 428.7 494.3 407.3 501.2 385.8C508 364.3 514 342.7 536.5 321.2C559 299.7 598 278.3 606 257C614 235.7 591 214.3 578.3 193C565.7 171.7 563.3 150.3 567.7 128.8C572 107.3 583 85.7 580.5 64.2C578 42.7 562 21.3 554 10.7L546 0L900 0L900 10.7C900 21.3 900 42.7 900 64.2C900 85.7 900 107.3 900 128.8C900 150.3 900 171.7 900 193C900 214.3 900 235.7 900 257C900 278.3 900 299.7 900 321.2C900 342.7 900 364.3 900 385.8C900 407.3 900 428.7 900 439.3L900 450Z" fill="#26c9f5"></path><path d="M584 450L588.8 439.3C593.7 428.7 603.3 407.3 615 385.8C626.7 364.3 640.3 342.7 636.7 321.2C633 299.7 612 278.3 621 257C630 235.7 669 214.3 679.8 193C690.7 171.7 673.3 150.3 663.5 128.8C653.7 107.3 651.3 85.7 637.5 64.2C623.7 42.7 598.3 21.3 585.7 10.7L573 0L900 0L900 10.7C900 21.3 900 42.7 900 64.2C900 85.7 900 107.3 900 128.8C900 150.3 900 171.7 900 193C900 214.3 900 235.7 900 257C900 278.3 900 299.7 900 321.2C900 342.7 900 364.3 900 385.8C900 407.3 900 428.7 900 439.3L900 450Z" fill="#1bb6ea"></path><path d="M654 450L670.5 439.3C687 428.7 720 407.3 719.8 385.8C719.7 364.3 686.3 342.7 673.5 321.2C660.7 299.7 668.3 278.3 671 257C673.7 235.7 671.3 214.3 675.3 193C679.3 171.7 689.7 150.3 695.3 128.8C701 107.3 702 85.7 704 64.2C706 42.7 709 21.3 710.5 10.7L712 0L900 0L900 10.7C900 21.3 900 42.7 900 64.2C900 85.7 900 107.3 900 128.8C900 150.3 900 171.7 900 193C900 214.3 900 235.7 900 257C900 278.3 900 299.7 900 321.2C900 342.7 900 364.3 900 385.8C900 407.3 900 428.7 900 439.3L900 450Z" fill="#1ea2dd"></path><path d="M821 450L810.5 439.3C800 428.7 779 407.3 781.5 385.8C784 364.3 810 342.7 818.8 321.2C827.7 299.7 819.3 278.3 821 257C822.7 235.7 834.3 214.3 829.2 193C824 171.7 802 150.3 795 128.8C788 107.3 796 85.7 794.2 64.2C792.3 42.7 780.7 21.3 774.8 10.7L769 0L900 0L900 10.7C900 21.3 900 42.7 900 64.2C900 85.7 900 107.3 900 128.8C900 150.3 900 171.7 900 193C900 214.3 900 235.7 900 257C900 278.3 900 299.7 900 321.2C900 342.7 900 364.3 900 385.8C900 407.3 900 428.7 900 439.3L900 450Z" fill="#288fcf"></path></svg>