<svg width="32" height="32" viewBox="0 0 32 32" fill="none" xmlns="http://www.w3.org/2000/svg">
<g clip-path="url(#clip0_672_17810)">
<path d="M0.482065 10C0.218272 10 0.00244141 10.2066 0.00244141 10.459V21.3547C0.00244141 21.6073 0.218272 21.8141 0.482065 21.8141H12.4183V10H0.482065Z" fill="#1D4E9E"/>
<path d="M31.5182 10H12.8444V21.8141H31.5182C31.7816 21.8141 31.9974 21.6073 31.9974 21.3547V10.459C31.9975 10.2066 31.7816 10 31.5182 10Z" fill="#FBC707"/>
<path d="M6.87202 19.6395L6.86664 19.6482L6.86765 19.6535L6.87123 19.6558H6.87392L6.87796 19.6544L6.87986 19.6512L6.88065 19.6479L6.8784 19.6437L6.87202 19.6395Z" fill="white"/>
<path d="M14.9637 11.4132H16.5043V19.0845H19.7377V20.4004H14.9637V11.4132ZM21.4107 20.4007H22.96V11.4135H21.4107V20.4007ZM28.3379 17.2228L29.8786 17.2217C29.8786 18.2673 29.679 19.091 29.2805 19.6918C28.8813 20.2925 28.4144 20.5931 27.4417 20.5931C26.2941 20.5931 25.7458 20.3079 25.2981 19.7377C24.8545 19.1641 24.633 18.2168 24.633 16.8967V14.9931C24.633 13.5755 24.8644 12.5931 25.3285 12.0465C25.7957 11.496 26.2874 11.2207 27.3001 11.2207C28.2518 11.2207 28.7934 11.465 29.2161 11.9531C29.6393 12.4413 29.851 13.1975 29.851 14.2206L28.271 14.2217C28.271 13.6683 28.2121 13.2572 28.0947 12.9882C27.9772 12.7193 27.7545 12.5846 27.4266 12.5846C26.6043 12.5846 26.1935 13.2085 26.1935 14.4564V17.3689C26.1935 18.0397 26.2986 18.5175 26.5092 18.8016C26.7241 19.0867 27.0338 19.2288 27.4388 19.2288C27.7465 19.2288 27.9733 19.079 28.1195 18.7796C28.2648 18.4764 28.3379 17.9577 28.3379 17.2228Z" fill="#1D4E9E"/>
<path d="M6.6981 15.5609C7.05917 15.3621 7.31209 14.9899 7.31209 14.7738C7.31209 14.6181 7.05917 14.4882 6.6981 14.4277V14.4882C6.987 14.5402 7.1858 14.6353 7.1858 14.7133C7.1858 14.7825 7.01401 14.8517 6.77027 14.8864H6.76108C6.74315 14.8864 6.71592 14.8864 6.6981 14.8951V15.5609ZM6.27373 14.3933C6.30073 14.3068 6.33671 14.2115 6.37301 14.099C6.49034 13.7963 6.32785 13.4416 6.28269 13.3464C6.22857 13.2425 6.10205 12.9398 6.10205 12.9398C6.03907 13.407 5.82201 13.6145 5.74984 13.8395C5.71353 13.9607 5.76799 14.0989 5.82201 14.2114C5.85832 14.2719 5.90314 14.3412 5.93967 14.4018C5.85153 14.4111 5.76401 14.4255 5.67756 14.445V14.497C5.76788 14.4794 5.86717 14.4623 5.97564 14.4537C5.98461 14.4707 6.00276 14.4793 6.01162 14.497C6.06597 14.5749 6.11113 14.6441 6.11113 14.7477C6.11113 14.9036 5.84016 14.9036 5.67756 14.8862V15.5175C5.84016 15.6217 6.02977 15.682 6.22857 15.682C6.39267 15.6809 6.55397 15.6393 6.6981 15.5608V14.8951C6.52631 14.8951 6.29155 14.8863 6.22857 14.7391C6.20122 14.6871 6.2196 14.5835 6.25569 14.445C6.41829 14.445 6.57159 14.4623 6.69822 14.4881V14.4276C6.57148 14.4105 6.42714 14.3933 6.27373 14.3933ZM5.67756 14.445C5.35247 14.5053 5.13574 14.6353 5.13574 14.7738C5.13574 14.9642 5.35247 15.3103 5.67756 15.5177V14.8864C5.41578 14.8517 5.24399 14.7825 5.24399 14.7133C5.24399 14.6354 5.41578 14.5488 5.67756 14.4971V14.445Z" fill="white"/>
<path d="M3.80827 13.1474C3.80827 13.1474 3.86228 12.9398 3.86228 12.8967C3.86228 12.8447 3.82609 12.6889 3.99777 12.7842C4.16922 12.8794 4.12406 13.009 4.08809 13.0867C4.05189 13.1646 3.96146 13.433 3.9163 13.528L3.72669 14.03C3.72669 14.03 3.70876 14.0733 3.69957 14.0906C3.69061 14.0989 3.61844 14.3586 3.64556 14.6442L3.68153 14.9728C3.68153 14.9728 3.69072 14.9985 3.71784 14.9728C3.71784 14.9728 3.75403 14.9556 3.7268 14.7911C3.7268 14.7911 3.7268 14.4538 3.73599 14.3845C3.74496 14.3154 3.78115 14.0989 3.79897 14.0647C3.81712 14.0211 3.82598 14.0127 3.86217 13.9176C3.89848 13.8137 4.01581 13.5196 4.01581 13.5196C4.01581 13.5196 4.17841 13.1997 4.19623 13.1131C4.19623 13.1131 4.26873 12.9399 4.25954 12.7063C4.25954 12.7063 4.24139 12.6457 4.26873 12.6198C4.3047 12.5941 4.42214 12.6198 4.46719 12.6544C4.51235 12.6891 4.59382 12.7669 4.58463 12.8795C4.57567 12.9834 4.52165 13.1735 4.44915 13.3552C4.44915 13.3552 4.38595 13.4937 4.34986 13.5368C4.32286 13.5714 4.16026 13.9349 4.16026 13.952C4.15107 13.9692 4.1421 13.9956 4.12395 14.0128C4.12395 14.0128 4.04281 14.2462 4.03385 14.3241C4.0157 14.4106 3.98869 14.4973 3.97065 14.6787C3.96135 14.8518 4.02466 15.0942 4.02466 15.0942C4.02466 15.0942 4.03385 15.1372 4.06097 15.1372C4.08798 15.1372 4.08798 15.0422 4.08798 15.0336C4.08798 15.0163 4.07901 14.9297 4.06982 14.8864C4.06086 14.8518 4.06982 14.5578 4.06982 14.5578C4.06982 14.5578 4.09683 14.3414 4.16014 14.1946C4.18715 14.1426 4.2053 14.0558 4.24128 13.9782C4.29563 13.8569 4.34975 13.7444 4.34975 13.7444C4.34975 13.7444 4.54855 13.3292 4.55751 13.3032C4.56648 13.2774 4.66599 13.0264 4.67484 12.8967C4.67484 12.7755 4.70185 12.6889 4.70185 12.6889C4.70185 12.6889 4.68369 12.5939 4.81032 12.6455C4.92765 12.6975 5.00879 12.8014 5.01809 12.8966C5.01809 12.8966 5.03624 12.9918 4.99993 13.0004C4.95477 13.0175 4.93662 12.9918 4.90961 13.0175C4.90961 13.0175 4.88249 13.035 4.88249 13.0783C4.87353 13.113 4.84652 13.2252 4.83733 13.2511C4.83733 13.2859 4.83733 13.3204 4.81032 13.4243C4.77402 13.5195 4.66588 13.8308 4.65669 13.8481C4.65669 13.8481 4.58441 14.0556 4.57556 14.0732C4.57556 14.0905 4.5574 14.1165 4.54844 14.1337C4.54844 14.1424 4.44893 14.4794 4.43996 14.5575C4.43077 14.6352 4.40377 14.7737 4.41295 14.86C4.41295 14.9467 4.43996 15.0504 4.45811 15.1284C4.45811 15.1284 4.46708 15.1545 4.50328 15.1456C4.53028 15.137 4.47593 15.0334 4.49409 14.8775C4.51224 14.7217 4.53925 14.5053 4.5574 14.4537C4.56637 14.3931 4.67473 14.0988 4.67473 14.0815C4.68369 14.0646 4.78321 13.7702 4.81021 13.7183C4.82837 13.6663 4.91869 13.3896 4.92754 13.3378C4.93651 13.2859 4.93651 13.1474 5.08118 13.13C5.23459 13.1732 5.22562 13.4329 5.20747 13.5279C5.20747 13.5279 5.18046 13.7963 5.08118 14.004C4.99086 14.2028 4.99971 14.2028 4.99971 14.2115C4.99971 14.2288 5.02672 14.4279 5.01786 14.5054C5.01786 14.5837 5.02683 14.6613 4.98167 14.8257C4.92754 14.9899 4.96351 15.0075 4.9727 15.0335C4.99086 15.0679 5.08118 15.189 5.10818 15.2583C5.12634 15.3275 5.15312 15.466 5.16231 15.4919C5.17127 15.5093 5.27964 15.6128 5.32491 15.6907C5.36111 15.76 5.47832 15.9417 5.48751 15.9591C5.49648 15.985 5.86673 16.4349 5.96624 16.608C6.06553 16.7808 6.15585 16.9367 6.14666 17.0924C6.13769 17.2133 6.08368 17.3431 6.01118 17.4467C5.97265 17.494 5.92702 17.5349 5.87592 17.5682C5.84891 17.5854 5.7856 17.6112 5.76744 17.6545L5.69516 17.9661H4.27781L4.58486 17.4467C4.58486 17.4467 4.68414 17.3864 4.46742 17.1268C4.2508 16.8761 3.88055 16.2445 3.88055 16.2445C3.88055 16.2445 3.54627 15.6908 3.48318 15.5783C3.38389 15.4314 3.40171 14.6873 3.40171 14.4625C3.40171 14.4625 3.36574 14.1945 3.51904 13.8396C3.67279 13.4849 3.80827 13.1474 3.80827 13.1474ZM8.63073 13.1474C8.63073 13.1474 8.58557 12.9398 8.57638 12.8967C8.57638 12.8447 8.61268 12.6889 8.44112 12.7842C8.27852 12.8794 8.32368 13.009 8.3508 13.0867C8.38699 13.1646 8.47709 13.433 8.53144 13.528L8.72105 14.03C8.72105 14.03 8.7392 14.0733 8.7392 14.0906C8.74817 14.0989 8.82034 14.3586 8.79333 14.6442L8.75702 14.9728C8.75702 14.9728 8.74806 14.9985 8.72105 14.9728C8.72105 14.9728 8.68508 14.9556 8.71208 14.7911C8.71208 14.7911 8.71208 14.4538 8.70289 14.3845C8.69371 14.3154 8.66659 14.0989 8.63958 14.0647C8.62176 14.0211 8.61257 14.0127 8.57626 13.9176C8.54926 13.8137 8.42285 13.5196 8.42285 13.5196C8.42285 13.5196 8.26025 13.1997 8.24221 13.1131C8.24221 13.1131 8.16993 12.9399 8.17901 12.7063C8.17901 12.7063 8.20635 12.6457 8.17004 12.6198C8.13407 12.5941 8.02559 12.6198 7.98043 12.6544C7.93527 12.6891 7.84495 12.7669 7.85392 12.8795C7.87229 12.9834 7.91712 13.1735 7.98962 13.3552C7.98962 13.3552 8.0526 13.4937 8.08891 13.5368C8.11603 13.5714 8.27852 13.9349 8.28748 13.952C8.28748 13.9692 8.30564 13.9956 8.31449 14.0128C8.31449 14.0128 8.39596 14.2462 8.40481 14.3241C8.42296 14.4106 8.45894 14.4973 8.46813 14.6787C8.47709 14.8518 8.414 15.0942 8.414 15.0942C8.414 15.0942 8.40481 15.1372 8.3778 15.1372C8.3508 15.1372 8.3508 15.0422 8.3508 15.0336C8.3508 15.0163 8.35976 14.9297 8.36895 14.8864C8.37792 14.8518 8.36895 14.5578 8.36895 14.5578C8.36895 14.5578 8.34161 14.3414 8.27863 14.1946C8.26048 14.1426 8.23347 14.0558 8.19716 13.9782C8.152 13.8569 8.08891 13.7444 8.08891 13.7444C8.08891 13.7444 7.8993 13.3292 7.89011 13.3032C7.88115 13.2774 7.77278 13.0264 7.76359 12.8967C7.76359 12.7755 7.73681 12.6889 7.73681 12.6889C7.73681 12.6889 7.76359 12.5939 7.6373 12.6455C7.51078 12.6975 7.42954 12.8014 7.42069 12.8966C7.42069 12.8966 7.40253 12.9918 7.44769 13.0004C7.48366 13.0175 7.51067 12.9918 7.52883 13.0175C7.52883 13.0175 7.55617 13.035 7.56502 13.0783C7.56502 13.113 7.59214 13.2252 7.60133 13.2511C7.61029 13.2859 7.60133 13.3204 7.62834 13.4243C7.66431 13.5195 7.77278 13.8308 7.78175 13.8481C7.78175 13.8481 7.85403 14.0556 7.86322 14.0732C7.87241 14.0905 7.88137 14.1165 7.89022 14.1337C7.89941 14.1424 7.98973 14.4794 7.9987 14.5575C8.00766 14.6352 8.03467 14.7737 8.03467 14.86C8.02571 14.9467 8.00755 15.0504 7.98973 15.1284C7.98973 15.1284 7.97158 15.1545 7.94435 15.1456C7.90838 15.137 7.9625 15.0334 7.94435 14.8775C7.93538 14.7217 7.89941 14.5053 7.88137 14.4537C7.87241 14.3931 7.7729 14.0988 7.76371 14.0815C7.76371 14.0646 7.65546 13.7702 7.62845 13.7183C7.61029 13.6663 7.52894 13.3896 7.51078 13.3378C7.50204 13.2859 7.50204 13.1474 7.35737 13.13C7.20396 13.1732 7.21292 13.4329 7.23108 13.5279C7.23108 13.5279 7.2582 13.7963 7.35737 14.004C7.45688 14.2028 7.43884 14.2028 7.43884 14.2115C7.43884 14.2288 7.4115 14.4279 7.42069 14.5054C7.42069 14.5837 7.41139 14.6613 7.45688 14.8257C7.51067 14.9899 7.4747 15.0075 7.46585 15.0335C7.45688 15.0679 7.35737 15.189 7.33036 15.2583C7.31221 15.3275 7.29439 15.466 7.27635 15.4919C7.26739 15.5093 7.15891 15.6128 7.11375 15.6907C7.07744 15.76 6.96011 15.9417 6.95092 15.9591C6.94196 15.985 6.57171 16.4349 6.47242 16.608C6.37313 16.7808 6.29178 16.9367 6.30097 17.0924C6.30097 17.2133 6.35509 17.3431 6.43623 17.4467C6.47242 17.4903 6.50873 17.5336 6.56274 17.5682C6.59905 17.5854 6.65306 17.6112 6.67122 17.6545L6.74339 17.9661H8.17015L7.86322 17.4467C7.86322 17.4467 7.75474 17.3864 7.97169 17.1268C8.18842 16.8761 8.55867 16.2445 8.55867 16.2445C8.55867 16.2445 8.90192 15.6908 8.96489 15.5783C9.05522 15.4314 9.04636 14.6873 9.0374 14.4625C9.0374 14.4625 9.07337 14.1945 8.91996 13.8396C8.82525 13.6081 8.72884 13.3774 8.63073 13.1474Z" fill="white"/>
<path d="M6.22825 20.7948C6.36373 20.7861 6.49036 20.7861 6.49036 20.7861C7.42024 20.7861 8.3145 20.3796 9.0188 19.6442C9.62394 19.0129 10.0032 18.2083 10.0032 17.5509V14.1944C10.0032 13.5972 9.61508 12.8013 9.00076 12.1701C8.2783 11.4256 7.36623 11.0194 6.42715 11.0194H6.22836V11.123H6.42715C7.91724 11.123 9.04603 12.1871 9.56992 13.1734C9.75953 13.5452 9.69622 13.9087 9.69622 14.1944V17.5508C9.69622 17.914 9.74138 18.3292 9.52465 18.7271C9.37101 19.0214 9.1814 19.3155 8.93767 19.5748C8.25118 20.2842 7.38427 20.6735 6.49036 20.6735C6.49036 20.6735 6.36384 20.6825 6.22825 20.6825V20.7948ZM6.22836 11.0194H5.99348C5.06325 11.0194 4.14222 11.4256 3.41987 12.1701C2.80555 12.8014 2.41714 13.5972 2.41714 14.2288V17.5766C2.41714 18.2082 2.79659 19.0128 3.40149 19.6441C4.10614 20.3795 5.00005 20.786 5.93027 20.786C5.93027 20.786 6.07495 20.7947 6.21043 20.7947H6.22825V20.6825C6.0838 20.6825 5.93016 20.6735 5.93016 20.6735C5.03614 20.6735 4.16934 20.2842 3.48285 19.5748C3.23912 19.3155 3.03135 19.0298 2.87772 18.7444C2.72408 18.4245 2.75142 17.9226 2.75142 17.5508V14.1944C2.75142 13.8395 2.68811 13.381 2.96804 12.9312C3.53686 12.0142 4.62969 11.123 5.99348 11.123H6.22836V11.0194Z" fill="white"/>
<path d="M5.74985 18.6926C5.74985 18.7272 5.72273 18.7529 5.68653 18.7529C5.65056 18.7529 5.62322 18.7272 5.62322 18.6926C5.62322 18.6666 5.65056 18.6406 5.68653 18.6406C5.72273 18.6406 5.74985 18.6666 5.74985 18.6926ZM5.81316 18.857C5.81316 18.857 5.65953 18.8484 5.52393 18.8311V18.935C5.55127 18.935 5.57828 18.9436 5.59644 18.9436L5.58725 19.1338H5.52393V19.2897L5.56909 19.2983L5.56013 19.5147L5.69561 19.5317L5.74974 18.961H5.80375L5.81316 18.857ZM5.52393 18.8311C5.49692 18.8311 5.46981 18.8224 5.4428 18.8224C5.37948 18.8138 5.30732 18.7965 5.23504 18.7794L5.14472 18.632L4.99108 18.5974L5.08174 18.7444C5.04543 18.7361 5.02739 18.7361 5.02739 18.7361L5.00038 18.831C5.00038 18.831 5.01853 18.8396 5.04554 18.8396L5.02739 18.9262L4.90109 18.9003C4.94625 18.8656 4.97326 18.8224 4.97326 18.7705C4.97326 18.684 4.90109 18.6148 4.81077 18.6148V18.7361C4.83778 18.7361 4.84674 18.753 4.84674 18.7705C4.84674 18.7878 4.83778 18.7964 4.82893 18.8051H4.81077V18.9955L5.00038 19.0472L4.91891 19.428L5.06369 19.4538L5.18999 18.8739C5.23515 18.8829 5.28031 18.9002 5.32547 18.9002L5.29835 19.1077C5.29835 19.1077 5.22607 19.0907 5.20803 19.1682C5.19906 19.2375 5.28031 19.3067 5.31651 19.3413C5.37948 19.4106 5.42465 19.2981 5.42465 19.2981V19.2808L5.52393 19.2895V19.1338L5.4428 19.1254L5.47877 18.9264C5.49692 18.935 5.50611 18.935 5.52393 18.935V18.8311ZM4.81066 19.3934V19.1338C4.82881 19.1254 4.84663 19.1254 4.84663 19.1254L4.90995 19.2031C4.89179 19.2289 4.86479 19.2463 4.83767 19.2636C4.8287 19.2636 4.8287 19.3934 4.8287 19.3934H4.81066ZM4.81066 18.615C4.71137 18.615 4.63887 18.684 4.63887 18.7706C4.63887 18.8052 4.64806 18.8398 4.67507 18.8659C4.63887 18.8742 4.61175 18.8917 4.60279 18.9005C4.56659 18.9351 4.47627 19.013 4.5035 19.1167C4.52165 19.2292 4.63876 19.2812 4.67495 19.2984H4.69311C4.70207 19.2984 4.70207 19.3677 4.70207 19.3677L4.81055 19.3936V19.1338C4.79239 19.1428 4.76539 19.1514 4.7562 19.1514C4.72023 19.1597 4.68392 19.1428 4.65691 19.1164C4.61175 19.0472 4.71126 18.9523 4.79239 18.9869L4.81055 18.9955V18.8051C4.79239 18.8051 4.77424 18.7879 4.77424 18.7705C4.77424 18.7531 4.79239 18.7361 4.81055 18.7361V18.615M4.59404 18.7359L4.63002 18.6406C4.63002 18.6406 4.35928 18.5454 4.08831 18.4156L4.04304 18.2254L3.91674 18.1648L3.95294 18.355C3.79012 18.2687 3.64567 18.1818 3.55535 18.1302V18.3895C3.59165 18.3465 3.60051 18.303 3.60051 18.2773C3.63648 18.2942 3.68164 18.3206 3.71784 18.3465L3.59154 18.5453C3.59154 18.5453 3.58235 18.5625 3.55523 18.5711V18.9086L3.85332 18.4155C3.88032 18.4327 3.90744 18.4414 3.93479 18.4587L3.64556 18.9864L3.77185 19.0471L4.06097 18.5194L4.16944 18.5713C4.22346 18.7444 4.14232 18.796 4.14232 18.796C4.12417 18.7528 4.052 18.7444 4.052 18.7444C4.052 18.7444 3.94353 18.7616 3.97053 18.8653C3.98869 18.9695 4.08797 19.0384 4.2053 18.9346C4.30459 18.848 4.32274 18.6925 4.32274 18.6319C4.34975 18.6405 4.38595 18.6578 4.41307 18.6665L4.19634 19.2202L4.33182 19.2721L4.53925 18.7182C4.57589 18.727 4.59404 18.7359 4.59404 18.7359ZM3.55535 18.1302C3.50133 18.0869 3.46502 18.0697 3.46502 18.0697L3.39275 18.1475C3.39275 18.1475 3.42905 18.1648 3.47421 18.1995C3.47421 18.2168 3.49214 18.3377 3.33873 18.3118H3.28461C3.28461 18.3118 3.18509 18.4852 3.29357 18.632C3.36585 18.7183 3.51949 18.7012 3.51949 18.7012L3.4202 18.8568L3.54649 18.926L3.55546 18.9088V18.5714C3.52845 18.58 3.48329 18.58 3.43813 18.5541C3.36585 18.4936 3.41112 18.4416 3.41112 18.4416C3.4834 18.4416 3.52845 18.4246 3.55557 18.3896V18.1303M9.22667 18.6147L9.32596 18.5282L8.95593 18.0522C9.00075 18.0178 9.02787 18.0005 9.02787 18.0005L8.97375 17.9484C8.97375 17.9484 8.92858 17.9832 8.84745 18.0349V18.1647L8.96489 18.303L8.86561 18.3807L8.84745 18.3638V18.5973H8.90158C8.97386 18.5973 8.95593 18.502 8.95593 18.502L9.06407 18.4241L9.22667 18.6147ZM8.84734 18.035C8.6667 18.1562 8.31449 18.3723 7.90793 18.5368V18.6494L8.00744 18.8482C8.0164 18.9 7.99825 18.9779 7.91712 18.9952L7.90793 19.0039V19.1423C7.98021 19.1423 8.05271 19.1251 8.10673 19.0471L8.18786 19.1942L8.31438 19.1422L8.0526 18.5798C8.16074 18.5365 8.26036 18.4845 8.35068 18.4414L8.3685 18.4673C8.3685 18.4673 8.32334 18.502 8.26922 18.5365C8.21509 18.5711 8.18775 18.6144 8.19694 18.6834C8.19694 18.7613 8.32323 18.8133 8.32323 18.8133C8.32323 18.8133 8.30541 18.8911 8.35057 18.9863C8.4317 19.1334 8.66647 19.0727 8.66647 19.0727L8.63947 18.9691L8.58534 18.9777C8.46768 18.9691 8.46768 18.8824 8.46768 18.8566C8.47686 18.8307 8.50387 18.7356 8.59419 18.7441C8.68463 18.7527 8.64832 18.8652 8.64832 18.8652L8.73864 18.9086C8.76576 18.8826 8.7838 18.8479 8.7838 18.8479C8.80196 18.6404 8.69348 18.6228 8.60316 18.6059C8.51284 18.5799 8.4317 18.6578 8.4317 18.6578C8.4317 18.6578 8.38654 18.6834 8.37758 18.6662C8.36839 18.6491 8.38654 18.6318 8.38654 18.6318L8.57615 18.502L8.48583 18.3549C8.53099 18.3376 8.5673 18.3116 8.59431 18.2942C8.63061 18.3292 8.7206 18.4674 8.7206 18.4674C8.7206 18.4846 8.69359 18.4934 8.70278 18.5366C8.7206 18.5883 8.78391 18.5973 8.84723 18.5973V18.3639L8.7299 18.2077C8.76587 18.1905 8.80218 18.1647 8.82919 18.1472L8.84745 18.1647L8.84734 18.035ZM7.90804 18.5367L7.6373 18.6406C7.10445 18.8048 6.51747 18.8568 6.22835 18.8654V18.9519H6.29167V19.0125C6.27351 19.0212 6.25547 19.0212 6.2465 19.0212H6.22835V19.1509H6.2465C6.26466 19.1509 6.29167 19.1509 6.30982 19.1594L6.31878 19.3064C6.29619 19.3172 6.27156 19.3231 6.2465 19.3237H6.22835V19.4535H6.2465C6.27362 19.4535 6.30982 19.4449 6.33694 19.4363L6.3459 19.5488L6.49057 19.5401L6.44541 18.9432C6.55355 18.9346 6.67099 18.9259 6.79729 18.9086L6.81566 18.9604C6.81566 18.9604 6.74339 18.9691 6.68018 18.9777C6.61687 18.995 6.58986 19.0211 6.56252 19.0903C6.53551 19.1592 6.63502 19.2547 6.63502 19.2547C6.63502 19.2547 6.5809 19.3237 6.59883 19.4276C6.61698 19.592 6.8606 19.618 6.8606 19.618L6.87898 19.5141L6.81566 19.4968C6.70719 19.4449 6.74338 19.367 6.75235 19.3499C6.77028 19.3237 6.83359 19.2458 6.91495 19.2804C6.99608 19.3237 6.91495 19.4101 6.91495 19.4101L6.98723 19.488C7.02354 19.4708 7.05055 19.4448 7.05055 19.4448C7.14983 19.2546 7.05055 19.2024 6.96908 19.1507C6.8968 19.1075 6.79729 19.1507 6.79729 19.1507C6.79729 19.1507 6.7435 19.1591 6.73431 19.1421C6.73431 19.1248 6.76143 19.1075 6.76143 19.1075L6.97838 19.0641L6.95104 18.891C6.97838 18.8823 7.01435 18.8823 7.04136 18.8737L7.20396 19.4534L7.34841 19.4275L7.19499 18.8478C7.24015 18.8394 7.27613 18.8306 7.32129 18.8219C7.33944 18.8738 7.40276 19.047 7.40276 19.047L7.34841 19.0816C7.34841 19.0816 7.29428 19.1422 7.37541 19.1856C7.45688 19.2372 7.51089 19.2459 7.52905 19.2547C7.53824 19.2547 7.59236 19.2372 7.59236 19.1592L7.68268 19.1248L7.59236 18.995L7.53824 19.0123L7.46573 18.7872C7.52008 18.7703 7.57421 18.7613 7.61937 18.7439C7.64638 18.7526 7.7005 18.7789 7.7005 18.8304C7.69154 18.917 7.61937 18.917 7.61937 18.917L7.5834 18.9602C7.5834 18.9602 7.6735 19.1074 7.80898 19.1331C7.84529 19.1331 7.87229 19.142 7.90826 19.142V19.0036C7.82713 19.0122 7.80013 18.943 7.80013 18.943C7.80013 18.943 7.85425 18.9083 7.86344 18.8304C7.86344 18.7702 7.82713 18.7009 7.81828 18.6833C7.8454 18.6661 7.87241 18.6577 7.90838 18.6489V18.5367H7.90804ZM6.22835 18.8654C6.11102 18.874 6.03863 18.874 6.03863 18.874L6.04782 18.9606C6.04782 18.9606 6.11091 18.9606 6.22835 18.9519V18.8654ZM6.22824 19.0213C6.09276 19.0299 5.9845 19.1252 5.9845 19.2375C5.9845 19.3502 6.09276 19.4452 6.22824 19.4538V19.3241C6.17422 19.3153 6.12895 19.2807 6.12895 19.2376C6.12895 19.1945 6.17411 19.1597 6.22824 19.1512V19.0213ZM9.28998 18.6147L9.42547 18.5368C9.42547 18.5368 9.45259 18.5196 9.4704 18.5368C9.48878 18.5627 9.46144 18.5715 9.46144 18.5715C9.46144 18.5715 9.36215 18.6665 9.33514 18.6665C9.3078 18.6751 9.29895 18.6665 9.28998 18.6665C9.28998 18.6664 9.27183 18.632 9.28998 18.6147Z" fill="white"/>
</g>
<defs>
<clipPath id="clip0_672_17810">
<rect width="32" height="11.8144" fill="white" transform="translate(0 10)"/>
</clipPath>
</defs>
</svg>
