<svg width="32" height="32" viewBox="0 0 32 32" fill="none" xmlns="http://www.w3.org/2000/svg">
<g clip-path="url(#clip0_545_83)">
<path d="M22.8132 1.6072H20.4184V0.5C20.4184 0.3303 20.3325 0.17235 20.1902 0.0802998C20.0478 -0.0115002 19.8686 -0.0256502 19.7136 0.0438998L18.6121 0.53875L17.5105 0.0439498C17.3801 -0.0146502 17.2312 -0.0146502 17.1008 0.0439498L15.9993 0.5388L14.8994 0.0439498C14.7693 -0.0146502 14.6201 -0.0146502 14.4895 0.0439498L13.388 0.5388L12.2864 0.0439498C12.1314 -0.0263502 11.9522 -0.0117002 11.8099 0.0803498C11.6676 0.1724 11.5815 0.3303 11.5815 0.5V1.6072H9.18673C7.88473 1.6072 6.82538 2.74125 6.82538 4.1353V23.8176C6.82538 25.2117 7.88473 26.3458 9.18673 26.3458H10.018V30.5382C10.018 31.3443 10.624 32 11.3689 32H20.6755C21.4204 32 22.0264 31.3443 22.0264 30.5382V26.3458H22.8132C24.1152 26.3458 25.1746 25.2117 25.1746 23.8176V4.13525C25.1745 2.7412 24.1152 1.6072 22.8132 1.6072ZM12.5815 1.2727L13.1831 1.54295C13.3134 1.60155 13.4624 1.60155 13.5927 1.54295L14.694 1.0481L15.7939 1.54295C15.924 1.60155 16.0732 1.60155 16.2038 1.54295L17.3056 1.0481L18.4071 1.54295C18.5375 1.60155 18.6864 1.60155 18.8168 1.54295L19.4183 1.2727V4.7739H12.5815V1.2727ZM11.018 30.5381V26.3457H12.372V31H11.3689C11.1819 31 11.018 30.7842 11.018 30.5381ZM13.372 26.3457H14.3115V31H13.372V26.3457ZM21.0263 30.5381C21.0263 30.7842 20.8625 31 20.6755 31H15.3115V26.3457H16.8498V27.8418C16.8498 28.1179 17.0737 28.3418 17.3498 28.3418C17.6259 28.3418 17.8498 28.1179 17.8498 27.8418V26.3457H18.8069V27.8418C18.8069 28.1179 19.0308 28.3418 19.3069 28.3418C19.583 28.3418 19.8069 28.1179 19.8069 27.8418V26.3457H21.0264L21.0263 30.5381ZM24.1745 23.8176C24.1745 24.6602 23.5639 25.3458 22.8132 25.3458H9.18673C8.43598 25.3458 7.82538 24.6602 7.82538 23.8176V4.13525C7.82538 3.2927 8.43598 2.60715 9.18673 2.60715H11.5815V4.7739H11.259C10.9829 4.7739 10.759 4.9978 10.759 5.2739C10.759 5.55 10.9829 5.7739 11.259 5.7739H19.9184H20.7409C21.017 5.7739 21.2409 5.55 21.2409 5.2739C21.2409 4.9978 21.017 4.7739 20.7409 4.7739H20.4184V2.6072H22.8132C23.564 2.6072 24.1746 3.29275 24.1746 4.1353L24.1745 23.8176Z" fill="#091E3E"/>
<path d="M16.9475 12.5739H17.6726C17.9487 12.5739 18.1726 12.35 18.1726 12.0739C18.1726 11.7978 17.9487 11.5739 17.6726 11.5739H16.9475C16.6714 11.5739 16.4475 11.7978 16.4475 12.0739C16.4475 12.35 16.6714 12.5739 16.9475 12.5739Z" fill="#091E3E"/>
<path d="M19.5656 12.5739H20.2907C20.5668 12.5739 20.7907 12.35 20.7907 12.0739C20.7907 11.7978 20.5668 11.5739 20.2907 11.5739H19.5656C19.2895 11.5739 19.0656 11.7978 19.0656 12.0739C19.0656 12.35 19.2895 12.5739 19.5656 12.5739Z" fill="#091E3E"/>
<path d="M14.3274 12.5739H15.0525C15.3286 12.5739 15.5525 12.35 15.5525 12.0739C15.5525 11.7978 15.3286 11.5739 15.0525 11.5739H14.3274C14.0513 11.5739 13.8274 11.7978 13.8274 12.0739C13.8274 12.35 14.0512 12.5739 14.3274 12.5739Z" fill="#091E3E"/>
<path d="M11.7092 12.5739H12.4343C12.7104 12.5739 12.9343 12.35 12.9343 12.0739C12.9343 11.7978 12.7104 11.5739 12.4343 11.5739H11.7092C11.4331 11.5739 11.2092 11.7978 11.2092 12.0739C11.2092 12.35 11.4331 12.5739 11.7092 12.5739Z" fill="#091E3E"/>
<path d="M21.9021 6.8938H10.0979C9.57985 6.8938 9.1582 7.31395 9.1582 7.83055V23.1511C9.1582 23.6677 9.57985 24.0878 10.0979 24.0878H21.9021C22.4192 24.0878 22.8401 23.6677 22.8401 23.1511V7.83055C22.8401 7.31395 22.4192 6.8938 21.9021 6.8938ZM15.499 15.0705V17.0761H13.3296V15.0705H15.499ZM18.6704 15.0705V17.0761H16.499V15.0705H18.6704ZM21.8401 15.0705V17.0761H19.6704V15.0705H21.8401ZM12.3296 17.0761H10.1582V15.0705H12.3296V17.0761ZM10.1582 18.0761H12.3296V20.082H10.1582V18.0761ZM13.3296 18.0761H15.4991V20.082H13.3296V18.0761ZM15.499 21.082V23.0879H13.3296V21.082H15.499ZM16.499 21.082H18.6704V23.0879H16.499V21.082ZM16.499 20.082V18.0762H18.6704V20.082H16.499ZM19.6704 18.0761H21.8401V20.082H19.6704V18.0761ZM21.8401 7.8938V14.0705H10.1582V7.8938H21.8401ZM10.1582 21.082H12.3296V23.0879H10.1582V21.082ZM19.6704 23.0879V21.082H21.8401V23.0879H19.6704Z" fill="#06A3DA"/>
</g>
<defs>
<clipPath id="clip0_545_83">
<rect width="32" height="32" fill="white"/>
</clipPath>
</defs>
</svg>
