<svg width="32" height="32" viewBox="0 0 32 32" fill="none" xmlns="http://www.w3.org/2000/svg">
<g clip-path="url(#clip0_543_3)">
<path d="M27.1709 0.375007C26.9463 0.180823 26.6705 0.0557074 26.3764 0.0147339C26.0824 -0.0262396 25.7829 0.0186775 25.5138 0.144073C25.2136 0.287909 24.9613 0.515456 24.7874 0.799321C24.6135 1.08319 24.5253 1.41127 24.5335 1.74407V2.66674H9.06793C8.64359 2.66674 8.23662 2.83531 7.93656 3.13537C7.6365 3.43543 7.46793 3.84239 7.46793 4.26674V6.40007C7.46793 6.82442 7.6365 7.23139 7.93656 7.53144C8.23662 7.8315 8.64359 8.00007 9.06793 8.00007H10.7063C9.38344 8.87374 8.29786 10.0618 7.54677 11.458C6.79568 12.8541 6.40254 14.4147 6.40254 16.0001C6.40254 17.5854 6.79568 19.146 7.54677 20.5422C8.29786 21.9383 9.38344 23.1264 10.7063 24.0001H7.46793V23.0774C7.47614 22.7446 7.38798 22.4165 7.21407 22.1327C7.04015 21.8488 6.78789 21.6212 6.48767 21.4774C6.21822 21.3519 5.91819 21.3071 5.62384 21.3485C5.32949 21.3898 5.05342 21.5156 4.829 21.7105L0.615666 25.2993C0.422137 25.4703 0.267169 25.6806 0.161029 25.916C0.0548886 26.1515 0 26.4069 0 26.6651C0 26.9234 0.0548886 27.1788 0.161029 27.4142C0.267169 27.6497 0.422137 27.86 0.615666 28.031L4.829 31.6225C5.11046 31.8626 5.46809 31.9949 5.83807 31.9958C6.06204 31.9956 6.28323 31.9462 6.48607 31.8513C6.78629 31.7074 7.03855 31.4799 7.21247 31.196C7.38638 30.9122 7.47454 30.5841 7.46633 30.2513V29.3286H22.9346C23.3589 29.3286 23.7659 29.16 24.066 28.86C24.366 28.5599 24.5346 28.153 24.5346 27.7286V25.5953C24.5346 25.1709 24.366 24.764 24.066 24.4639C23.7659 24.1638 23.3589 23.9953 22.9346 23.9953H21.2962C22.6191 23.1216 23.7047 21.9335 24.4558 20.5374C25.2069 19.1412 25.6 17.5806 25.6 15.9953C25.6 14.4099 25.2069 12.8493 24.4558 11.4532C23.7047 10.057 22.6191 8.86894 21.2962 7.99527H24.5346V8.91794C24.5264 9.25074 24.6146 9.57883 24.7885 9.86269C24.9624 10.1466 25.2146 10.3741 25.5149 10.5179C25.7175 10.6129 25.9385 10.6622 26.1623 10.6625C26.5343 10.6614 26.8937 10.5275 27.1757 10.2849L31.389 6.69607C31.5825 6.52502 31.7375 6.31479 31.8436 6.07931C31.9498 5.84384 32.0047 5.5885 32.0047 5.33021C32.0047 5.07192 31.9498 4.81658 31.8436 4.5811C31.7375 4.34563 31.5825 4.1354 31.389 3.96434L27.1709 0.375007ZM22.9346 25.0673C23.076 25.0673 23.2117 25.1235 23.3117 25.2235C23.4117 25.3235 23.4679 25.4592 23.4679 25.6006V27.7339C23.4679 27.8754 23.4117 28.011 23.3117 28.1111C23.2117 28.2111 23.076 28.2673 22.9346 28.2673H6.9346C6.79315 28.2673 6.6575 28.3235 6.55748 28.4235C6.45746 28.5235 6.40127 28.6592 6.40127 28.8006V30.2566C6.40795 30.3856 6.37729 30.5138 6.31297 30.6258C6.24864 30.7378 6.15338 30.8288 6.0386 30.8881C5.95446 30.9285 5.86012 30.9428 5.76778 30.929C5.67545 30.9152 5.58938 30.874 5.52073 30.8107L1.3074 27.2209C1.23154 27.1499 1.17106 27.0641 1.12972 26.9688C1.08837 26.8734 1.06704 26.7706 1.06704 26.6667C1.06704 26.5628 1.08837 26.4601 1.12972 26.3647C1.17106 26.2694 1.23154 26.1836 1.3074 26.1126L5.52073 22.5249C5.58929 22.4609 5.6756 22.4192 5.76832 22.4052C5.86104 22.3912 5.95582 22.4056 6.0402 22.4465C6.15477 22.5058 6.24978 22.597 6.31382 22.709C6.37787 22.821 6.40823 22.9491 6.40127 23.0779V24.5339C6.40127 24.6754 6.45746 24.811 6.55748 24.9111C6.6575 25.0111 6.79315 25.0673 6.9346 25.0673H12.8743C14.8983 25.7784 17.1042 25.7784 19.1282 25.0673H22.9346ZM24.5346 16.0006C24.5346 17.6883 24.0341 19.3382 23.0965 20.7415C22.1588 22.1448 20.8261 23.2385 19.2668 23.8844C17.7076 24.5302 15.9918 24.6992 14.3365 24.37C12.6812 24.0407 11.1607 23.228 9.96729 22.0346C8.77388 20.8412 7.96116 19.3207 7.6319 17.6654C7.30264 16.0101 7.47163 14.2943 8.11749 12.735C8.76336 11.1758 9.8571 9.84305 11.2604 8.9054C12.6637 7.96774 14.3135 7.46727 16.0013 7.46727C18.2635 7.46996 20.4324 8.36979 22.0321 9.9694C23.6318 11.569 24.5318 13.7383 24.5346 16.0006ZM30.6941 5.88647L26.4807 9.47421C26.4119 9.53772 26.3256 9.57914 26.233 9.59312C26.1404 9.60709 26.0458 9.59298 25.9613 9.55261C25.847 9.49315 25.7523 9.40202 25.6884 9.29012C25.6246 9.17823 25.5943 9.05031 25.6013 8.92167V7.46567C25.6013 7.32422 25.5451 7.18857 25.4451 7.08855C25.345 6.98853 25.2094 6.93234 25.0679 6.93234H19.1282C17.1042 6.22121 14.8983 6.22121 12.8743 6.93234H9.06793C8.92649 6.93234 8.79083 6.87615 8.69081 6.77613C8.59079 6.67611 8.5346 6.54046 8.5346 6.39901V4.26567C8.5346 4.12422 8.59079 3.98857 8.69081 3.88855C8.79083 3.78853 8.92649 3.73234 9.06793 3.73234H25.0679C25.2094 3.73234 25.345 3.67615 25.4451 3.57613C25.5451 3.47611 25.6013 3.34046 25.6013 3.19901V1.74247C25.5946 1.61349 25.6252 1.48531 25.6896 1.37331C25.7539 1.26131 25.8492 1.17023 25.9639 1.11101C26.0481 1.0707 26.1424 1.05653 26.2347 1.07031C26.327 1.08409 26.4131 1.1252 26.4818 1.18834L30.6951 4.77821C30.771 4.8492 30.8315 4.93501 30.8728 5.03033C30.9142 5.12565 30.9355 5.22844 30.9355 5.33234C30.9355 5.43624 30.9142 5.53903 30.8728 5.63435C30.8315 5.72967 30.771 5.81548 30.6951 5.88647H30.6941Z" fill="#091E3E"/>
<path d="M18.6534 13.6686L18.3636 14.6572H12.8409L13.1307 13.6686H18.6534ZM16.0625 20.3333L12.9432 16.5152L12.9261 15.7992H14.4773C14.8807 15.7992 15.2244 15.7424 15.5085 15.6288C15.7926 15.5123 16.0099 15.339 16.1605 15.1089C16.3111 14.8759 16.3864 14.5833 16.3864 14.2311C16.3864 13.7112 16.2301 13.3035 15.9176 13.008C15.6051 12.7098 15.125 12.5606 14.4773 12.5606H12.8409L13.1307 11.6061H14.4773C15.1705 11.6061 15.7386 11.7211 16.1818 11.9512C16.6278 12.1785 16.9574 12.491 17.1705 12.8887C17.3864 13.2836 17.4943 13.7311 17.4943 14.2311C17.4943 14.6828 17.3949 15.099 17.196 15.4796C17 15.8575 16.6847 16.1615 16.25 16.3916C15.8182 16.6217 15.2472 16.7367 14.5369 16.7367H14.5114L17.392 20.2652V20.3333H16.0625ZM18.6534 11.6061L18.3636 12.5947L14.017 12.5606L14.3068 11.6061H18.6534Z" fill="#06A3DA"/>
</g>
<defs>
<clipPath id="clip0_543_3">
<rect width="32" height="32" fill="white"/>
</clipPath>
</defs>
</svg>
