<svg width="32" height="32" viewBox="0 0 32 32" fill="none" xmlns="http://www.w3.org/2000/svg">
<path d="M31.3412 7.15294L23.0588 0.564707C22.8706 0.42353 22.6353 0.42353 22.4941 0.564707L14.2118 7.15294C14.0706 7.29412 13.9765 7.48235 14.0706 7.67059C14.1177 7.85882 14.3059 8 14.4941 8H15.4353V14.4471H14.8235C14.5412 14.4471 14.353 14.6353 14.353 14.9176V16.9412C14.353 17.2235 14.5412 17.4118 14.8235 17.4118H30.7294C31.0118 17.4118 31.2 17.2235 31.2 16.9412V14.9176C31.2 14.6353 31.0118 14.4471 30.7294 14.4471H30.1177V8H31.0588C31.2471 8 31.4353 7.85882 31.4824 7.67059C31.5765 7.48235 31.5294 7.29412 31.3412 7.15294ZM22.7765 1.55294L29.6941 7.05882H29.6471C26.8235 7.05882 18.7294 7.05882 15.8588 7.05882L22.7765 1.55294ZM24.3294 14.4471V8H27.0118V14.4471H24.3294ZM18.5412 14.4471V8H21.2235V14.4471H18.5412ZM22.1647 8H23.3882V14.4471H22.1647V8ZM16.3765 8H17.6V14.4471H16.3765V8ZM30.2588 16.4706H15.2941V15.3882H30.2588V16.4706ZM29.1765 14.4471H27.953V8H29.1765V14.4471Z" fill="#091E3E"/>
<path d="M16.9886 22.9222V21.21C16.9889 21.0208 16.9519 20.8335 16.8796 20.6587C16.8074 20.4839 16.7013 20.3251 16.5676 20.1914C16.4338 20.0576 16.275 19.9516 16.1002 19.8793C15.9254 19.8071 15.7381 19.77 15.549 19.7703H14.6125L6.95994 16.5835C6.82983 16.5285 6.69003 16.5001 6.54878 16.5C6.40753 16.4999 6.26768 16.528 6.13745 16.5827C6.00723 16.6374 5.88925 16.7175 5.79046 16.8185C5.69167 16.9195 5.61407 17.0391 5.56222 17.1705L4.52091 19.7703H3.75216C3.56302 19.77 3.37569 19.8071 3.2009 19.8793C3.02611 19.9516 2.86729 20.0576 2.73355 20.1914C2.59981 20.3251 2.49378 20.4839 2.42153 20.6587C2.34927 20.8335 2.31223 21.0208 2.3125 21.21V29.5125C2.31223 29.7016 2.34927 29.8889 2.42153 30.0637C2.49378 30.2385 2.59981 30.3973 2.73355 30.5311C2.86729 30.6648 3.02611 30.7708 3.2009 30.8431C3.37569 30.9153 3.56302 30.9524 3.75216 30.9521H15.549C15.7381 30.9524 15.9254 30.9153 16.1002 30.8431C16.275 30.7708 16.4338 30.6648 16.5676 30.5311C16.7013 30.3973 16.8074 30.2385 16.8796 30.0637C16.9519 29.8889 16.9889 29.7016 16.9886 29.5125V27.8002C17.1755 27.7937 17.3527 27.7152 17.483 27.581C17.6132 27.4468 17.6865 27.2674 17.6875 27.0804V23.642C17.6865 23.455 17.6132 23.2756 17.483 23.1414C17.3527 23.0072 17.1755 22.9287 16.9886 22.9222ZM6.21216 17.4291C6.22893 17.3836 6.25498 17.3421 6.28867 17.3072C6.32236 17.2723 6.36295 17.2448 6.40784 17.2264C6.49776 17.1916 6.59747 17.1916 6.68739 17.2264L12.7955 19.7703H11.1042L6.96693 18.3935C6.88158 18.3638 6.78804 18.3683 6.70594 18.4061C6.62384 18.4439 6.55958 18.512 6.52665 18.5962L6.07239 19.7703H5.27568L6.21216 17.4291ZM8.8958 19.7703H6.82716L7.05779 19.1623L8.8958 19.7703ZM16.2898 29.5125C16.2896 29.7089 16.2115 29.8972 16.0726 30.0361C15.9337 30.175 15.7454 30.2531 15.549 30.2533H3.75216C3.55575 30.2531 3.36743 30.175 3.22854 30.0361C3.08966 29.8972 3.01155 29.7089 3.01137 29.5125V21.21C3.01265 21.0139 3.09111 20.8262 3.22976 20.6876C3.36841 20.5489 3.55609 20.4704 3.75216 20.4692H15.549C15.7451 20.4704 15.9327 20.5489 16.0714 20.6876C16.21 20.8262 16.2885 21.0139 16.2898 21.21V22.9152H13.1449C12.4962 22.9152 11.874 23.1729 11.4153 23.6316C10.9566 24.0903 10.6989 24.7125 10.6989 25.3612C10.6989 26.0099 10.9566 26.6321 11.4153 27.0908C11.874 27.5495 12.4962 27.8072 13.1449 27.8072H16.2898V29.5125ZM16.9886 27.0804C16.9881 27.0877 16.985 27.0945 16.9799 27.0996C16.9748 27.1048 16.9679 27.1079 16.9607 27.1084H13.1449C12.6815 27.1084 12.2371 26.9243 11.9095 26.5966C11.5818 26.269 11.3977 25.8246 11.3977 25.3612C11.3977 24.8978 11.5818 24.4534 11.9095 24.1258C12.2371 23.7981 12.6815 23.6141 13.1449 23.6141L16.9886 23.642V27.0804Z" fill="#06A3DA" stroke="#06A3DA" stroke-width="0.2"/>
<path d="M13.1449 24.3129C12.9376 24.3129 12.7349 24.3744 12.5625 24.4896C12.3901 24.6048 12.2558 24.7685 12.1764 24.96C12.0971 25.1516 12.0763 25.3624 12.1168 25.5657C12.1572 25.7691 12.2571 25.9559 12.4037 26.1025C12.5503 26.2491 12.7371 26.3489 12.9404 26.3894C13.1438 26.4298 13.3545 26.409 13.5461 26.3297C13.7376 26.2504 13.9014 26.116 14.0165 25.9436C14.1317 25.7712 14.1932 25.5685 14.1932 25.3612C14.1932 25.0832 14.0828 24.8165 13.8862 24.62C13.6896 24.4234 13.4229 24.3129 13.1449 24.3129ZM13.1449 25.7106C13.0758 25.7106 13.0082 25.6901 12.9508 25.6517C12.8933 25.6134 12.8485 25.5588 12.8221 25.4949C12.7956 25.4311 12.7887 25.3608 12.8022 25.293C12.8157 25.2253 12.849 25.163 12.8978 25.1141C12.9467 25.0653 13.009 25.032 13.0767 25.0185C13.1445 25.005 13.2148 25.0119 13.2786 25.0384C13.3425 25.0648 13.3971 25.1096 13.4355 25.1671C13.4739 25.2245 13.4943 25.2921 13.4943 25.3612C13.4943 25.4539 13.4575 25.5428 13.392 25.6083C13.3265 25.6738 13.2376 25.7106 13.1449 25.7106Z" fill="#091E3E"/>
<path d="M6.50568 22.2163C6.50568 22.309 6.46886 22.3979 6.40333 22.4634C6.3378 22.5289 6.24892 22.5658 6.15625 22.5658H4.75852C4.66584 22.5658 4.57697 22.5289 4.51143 22.4634C4.4459 22.3979 4.40909 22.309 4.40909 22.2163C4.40909 22.1237 4.4459 22.0348 4.51143 21.9692C4.57697 21.9037 4.66584 21.8669 4.75852 21.8669H6.15625C6.24892 21.8669 6.3378 21.9037 6.40333 21.9692C6.46886 22.0348 6.50568 22.1237 6.50568 22.2163Z" fill="#091E3E"/>
<path d="M7.90341 23.614C7.90341 23.7067 7.86659 23.7956 7.80106 23.8611C7.73553 23.9267 7.64665 23.9635 7.55397 23.9635H4.75852C4.66584 23.9635 4.57697 23.9267 4.51143 23.8611C4.4459 23.7956 4.40909 23.7067 4.40909 23.614C4.40909 23.5214 4.4459 23.4325 4.51143 23.367C4.57697 23.3014 4.66584 23.2646 4.75852 23.2646H7.55397C7.64665 23.2646 7.73553 23.3014 7.80106 23.367C7.86659 23.4325 7.90341 23.5214 7.90341 23.614Z" fill="#091E3E"/>
<path d="M27.0588 18.5412C26.9647 18.4471 26.8235 18.3529 26.6824 18.3529C26.5412 18.3529 26.4471 18.4 26.353 18.4941L23.6235 21.5529C23.4353 21.7412 23.4824 22.0235 23.6706 22.2118C23.8588 22.4 24.1412 22.3529 24.3294 22.1647L26.2118 20V29.5059H19.3412C19.0588 29.5059 18.8706 29.6941 18.8706 29.9765C18.8706 30.2588 19.0588 30.4471 19.3412 30.4471H26.7294C27.0118 30.4471 27.2 30.2588 27.2 29.9765V20.0941L29.0824 22.2588C29.2706 22.4471 29.553 22.4941 29.7412 22.3059C29.9294 22.1177 29.9765 21.8353 29.7883 21.6471L27.0588 18.5412Z" fill="#091E3E"/>
<path d="M4.04707 16.5176C4.32942 16.5176 4.51765 16.3294 4.51765 16.0471V4.94117H12.6118L10.4471 6.82353C10.2588 7.01176 10.2118 7.29411 10.4 7.48235C10.5882 7.67058 10.8706 7.71764 11.0588 7.52941C11.0588 7.52941 14.1177 4.8 14.1647 4.8C14.2588 4.70588 14.3059 4.5647 14.3059 4.47058C14.3059 4.32941 14.2118 4.18823 14.1647 4.14117L11.0588 1.41176C10.8706 1.22353 10.5882 1.27059 10.4 1.45882C10.2118 1.64706 10.2588 1.92941 10.4471 2.11764L12.6118 4H4.04707C3.76471 4 3.57648 4.18823 3.57648 4.47058V16.0941C3.57648 16.3294 3.76471 16.5176 4.04707 16.5176Z" fill="#091E3E"/>
<path d="M22.7765 6.35294C23.7176 6.35294 24.4235 5.6 24.4235 4.70588C24.4235 3.7647 23.6706 3.05882 22.7765 3.05882C21.8823 3.05882 21.0823 3.7647 21.0823 4.65882C21.0823 5.6 21.8353 6.35294 22.7765 6.35294ZM22.7765 3.95294C23.1529 3.95294 23.4823 4.28235 23.4823 4.65882C23.4823 5.03529 23.1529 5.3647 22.7765 5.3647C22.4 5.3647 22.0706 5.03529 22.0706 4.65882C22.0706 4.28235 22.3529 3.95294 22.7765 3.95294Z" fill="#06A3DA"/>
</svg>
