<svg width="32" height="32" viewBox="0 0 32 32" fill="none" xmlns="http://www.w3.org/2000/svg">
<g clip-path="url(#clip0_540_112)">
<path d="M8.10645 15.8723L5.94067 18.0381L5.26147 17.3586C5.01733 17.1147 4.62183 17.1147 4.37744 17.3586C4.13354 17.6028 4.13354 17.9985 4.37744 18.2427L5.49878 19.3638C5.61597 19.481 5.7749 19.5469 5.94067 19.5469C6.10645 19.5469 6.26538 19.481 6.38257 19.3638L8.99023 16.7561C9.23438 16.5122 9.23438 16.1165 8.99023 15.8723C8.74609 15.6282 8.35059 15.6282 8.10645 15.8723Z" fill="#06A3DA"/>
<path d="M11.7246 19.5381H14.6694C15.0146 19.5381 15.2944 19.2583 15.2944 18.9131C15.2944 18.5681 15.0146 18.2881 14.6694 18.2881H11.7246C11.3794 18.2881 11.0996 18.5681 11.0996 18.9131C11.0996 19.2583 11.3794 19.5381 11.7246 19.5381Z" fill="#091E3E"/>
<path d="M8.10645 22.6887L5.94067 24.8545L5.26147 24.175C5.01733 23.9309 4.62183 23.9309 4.37744 24.175C4.13354 24.4192 4.13354 24.8149 4.37744 25.0588L5.49878 26.1802C5.61597 26.2974 5.7749 26.3633 5.94067 26.3633C6.10645 26.3633 6.26538 26.2974 6.38257 26.1802L8.99023 23.5725C9.23438 23.3286 9.23438 22.9329 8.99023 22.6887C8.74609 22.4446 8.35059 22.4446 8.10645 22.6887Z" fill="#06A3DA"/>
<path d="M16.6331 25.7295C16.6331 25.3843 16.353 25.1045 16.0081 25.1045H11.7246C11.3794 25.1045 11.0996 25.3843 11.0996 25.7295C11.0996 26.0747 11.3794 26.3545 11.7246 26.3545H16.0081C16.353 26.3545 16.6331 26.0747 16.6331 25.7295Z" fill="#091E3E"/>
<path d="M11.7246 23.6133H17.3464C17.6917 23.6133 17.9714 23.3335 17.9714 22.9883C17.9714 22.6431 17.6917 22.3633 17.3464 22.3633H11.7246C11.3794 22.3633 11.0996 22.6431 11.0996 22.9883C11.0996 23.3335 11.3794 23.6133 11.7246 23.6133Z" fill="#091E3E"/>
<path d="M8.10645 9.05981L5.94067 11.2256L5.26147 10.5461C5.01733 10.3022 4.62183 10.3022 4.37744 10.5461C4.13354 10.7903 4.13354 11.186 4.37744 11.4302L5.49878 12.5513C5.61597 12.6685 5.7749 12.7344 5.94067 12.7344C6.10645 12.7344 6.26538 12.6685 6.38257 12.5513L8.99023 9.9436C9.23438 9.69971 9.23438 9.30396 8.99023 9.05981C8.74609 8.81567 8.35059 8.81567 8.10645 9.05981Z" fill="#06A3DA"/>
<path d="M11.7246 12.7256H14.5356C14.8806 12.7256 15.1606 12.4458 15.1606 12.1006C15.1606 11.7556 14.8806 11.4756 14.5356 11.4756H11.7246C11.3794 11.4756 11.0996 11.7556 11.0996 12.1006C11.0996 12.4458 11.3794 12.7256 11.7246 12.7256Z" fill="#091E3E"/>
<path d="M9.88818 30.75C9.72314 30.75 9.5625 30.8169 9.44556 30.9331C9.32935 31.0493 9.26245 31.2107 9.26245 31.375C9.26245 31.5393 9.32935 31.7007 9.44556 31.8169C9.5625 31.9331 9.72314 32 9.88818 32C10.0525 32 10.2131 31.9331 10.3293 31.8169C10.4463 31.7007 10.5125 31.5393 10.5125 31.375C10.5125 31.2107 10.4463 31.0493 10.3293 30.9331C10.2131 30.8169 10.0525 30.75 9.88818 30.75Z" fill="black"/>
<path d="M24.1887 9.77246L19.6887 11.1775C19.4277 11.259 19.25 11.5005 19.25 11.7739V15.781C19.25 18.8103 21.2896 21.4861 24.2095 22.2878C24.2637 22.3027 24.3193 22.3101 24.375 22.3101C24.4307 22.3101 24.4863 22.3027 24.5405 22.2878C27.4604 21.4861 29.5 18.8103 29.5 15.7812V11.7742C29.5 11.5007 29.3223 11.259 29.0613 11.1775L24.5613 9.77246C24.4399 9.73462 24.3101 9.73462 24.1887 9.77246ZM28.25 12.2336V15.781C28.25 18.1914 26.665 20.3271 24.375 21.0342C22.085 20.3271 20.5 18.1914 20.5 15.781V12.2336L24.375 11.0239L28.25 12.2336Z" fill="#06A3DA"/>
<path d="M31.5613 9.33887L24.5762 7.1582C24.5122 7.13647 24.4446 7.12476 24.3755 7.12476C24.3752 7.12476 24.3748 7.12476 24.3745 7.12476C24.3057 7.12476 24.2378 7.13647 24.1741 7.15796L23.5 7.36841V3.37109C23.5 2.33716 22.6589 1.49609 21.625 1.49609H17.073V0.625C17.073 0.279785 16.793 0 16.448 0H7.052C6.70703 0 6.427 0.279785 6.427 0.625V1.49609H1.875C0.841064 1.49609 0 2.33716 0 3.37109V30.125C0 31.1589 0.841064 32 1.875 32H7.0752C7.42041 32 7.7002 31.7202 7.7002 31.375C7.7002 31.0298 7.42041 30.75 7.0752 30.75H1.875C1.53027 30.75 1.25 30.4697 1.25 30.125V3.37109C1.25 3.02661 1.53027 2.74609 1.875 2.74609H6.427V3.40112C6.427 4.14478 7.03223 4.75 7.77612 4.75H15.7239C16.4678 4.75 17.073 4.14478 17.073 3.40112V2.74609H21.625C21.9697 2.74609 22.25 3.02661 22.25 3.37109V7.75879L19.125 8.73438H11.7246C11.3794 8.73438 11.0996 9.01416 11.0996 9.35938C11.0996 9.70459 11.3794 9.98438 11.7246 9.98438H16.75V15.5469H11.7246C11.3794 15.5469 11.0996 15.8267 11.0996 16.1719C11.0996 16.5171 11.3794 16.7969 11.7246 16.7969H16.8059C17.1687 20.085 19.272 22.9133 22.25 24.2351V26.8125H20.1875C19.1536 26.8125 18.3125 27.6536 18.3125 28.6875V30.75H12.7007C12.3555 30.75 12.0757 31.0298 12.0757 31.375C12.0757 31.7202 12.3555 32 12.7007 32H18.9375C19.1033 32 19.2622 31.9341 19.3794 31.8169L23.3169 27.8794C23.4341 27.7622 23.5 27.6033 23.5 27.4375V24.6851C23.748 24.7546 24.0005 24.8147 24.2573 24.8638C24.2961 24.8713 24.3357 24.875 24.375 24.875C24.4143 24.875 24.4539 24.8713 24.4927 24.8638C28.8428 24.0303 32 20.2104 32 15.7812V9.93555C32 9.66211 31.8223 9.42041 31.5613 9.33887ZM15.823 3.40112C15.823 3.45557 15.7786 3.5 15.7239 3.5H7.77612C7.72144 3.5 7.677 3.45557 7.677 3.40112V1.25H15.823V3.40112ZM20.1875 28.0625H21.3662L19.5625 29.8662V28.6875C19.5625 28.3428 19.8428 28.0625 20.1875 28.0625ZM30.75 15.7812C30.75 19.5718 28.0764 22.8462 24.375 23.6128C20.6736 22.8462 18 19.5718 18 15.7812V10.3953L22.9851 8.83887C23.0376 8.82959 23.0874 8.81372 23.1345 8.79224L24.375 8.40479L30.75 10.395V15.7812Z" fill="#091E3E"/>
<path d="M23.8149 17.905C23.655 17.905 23.4951 17.844 23.373 17.7219L21.9331 16.282C21.689 16.0378 21.689 15.6421 21.9331 15.3979C22.1772 15.1541 22.5728 15.1541 22.8169 15.3979L23.8149 16.396L25.9331 14.2781C26.1772 14.0339 26.5728 14.0339 26.8171 14.2781C27.061 14.522 27.061 14.9177 26.8171 15.1619L24.2571 17.7219C24.1348 17.844 23.9751 17.905 23.8149 17.905Z" fill="#06A3DA"/>
</g>
<defs>
<clipPath id="clip0_540_112">
<rect width="32" height="32" fill="white"/>
</clipPath>
</defs>
</svg>
