<svg width="32" height="32" viewBox="0 0 32 32" fill="none" xmlns="http://www.w3.org/2000/svg">
<g clip-path="url(#clip0_672_389)">
<path d="M27.9013 10.2178C28.2634 10.082 28.6255 9.90099 29.0328 9.76521C26.9055 13.6124 24.7782 17.4144 22.6509 21.2617C22.2888 21.8501 22.0173 22.4837 21.6099 23.0721C21.2478 23.0721 20.8405 23.0721 20.4784 23.0721C22.832 18.8628 25.1856 14.6535 27.5392 10.4441C27.6297 10.3083 27.7655 10.2178 27.9013 10.2178ZM15.0017 14.7892C16.1785 14.2008 17.3101 13.5219 18.4869 12.9335C18.4869 16.2829 18.4869 19.6323 18.4869 22.9816C12.3313 22.9816 6.1757 22.9816 0.0201111 22.9816C1.01587 22.3932 2.05688 21.8501 3.05264 21.3069C3.73157 21.8953 4.68206 22.0764 5.49677 21.7143C5.90413 21.5332 6.22096 21.2617 6.49253 20.9448C6.49253 21.2164 6.49253 21.488 6.49253 21.7595C6.99041 21.8048 7.44302 21.8048 7.9409 21.8048C7.9409 20.7638 7.9409 19.7228 7.9409 18.6818C8.5293 18.3649 9.07244 18.0481 9.66084 17.7765C9.66084 18.6818 9.66084 19.587 9.66084 20.5375C9.61558 21.0354 9.84189 21.488 10.2492 21.7595C10.9282 22.0311 11.6976 22.0311 12.3765 21.7595C12.3313 21.3522 12.286 20.9448 12.2408 20.5375C11.9692 20.628 11.6976 20.6733 11.426 20.628C11.1997 20.5375 11.1997 20.2659 11.1997 20.0849C11.1997 19.1344 11.1997 18.1839 11.1997 17.1881C11.5618 17.1881 11.9239 17.1881 12.2408 17.1881C12.2408 16.8713 12.2408 16.5997 12.2408 16.2829C13.0102 15.9661 13.6891 15.4682 14.4586 15.1513H14.9112L14.9565 14.8345M13.3723 15.9661C13.3723 17.9123 13.3723 19.8586 13.3723 21.8048C13.9154 21.8048 14.4133 21.8048 14.9112 21.8048V15.9208C14.3681 15.9208 13.8702 15.9208 13.3723 15.9208M4.59154 20.4922C5.17994 20.1754 5.76834 19.8586 6.35674 19.5417C6.35674 19.7228 6.31148 19.9038 6.31148 20.0849C5.94939 20.6733 5.17994 20.8996 4.59154 20.4922C4.54628 20.4922 4.54628 20.4922 4.50101 20.4922H4.59154Z" fill="#3A388C"/>
<path d="M30.7075 8.31683C31.1149 8.18105 31.5675 8.09052 31.9748 8C29.4402 12.5262 26.9055 17.0976 24.4162 21.6238C24.1446 22.0764 23.9183 22.5743 23.6467 23.0269H22.5604C22.6509 22.7553 22.7867 22.4837 22.9225 22.2574C24.9593 18.5912 26.9961 14.925 29.0781 11.3041C29.6212 10.2631 30.1644 9.31259 30.7075 8.31683ZM24.5067 12.2999C24.9593 12.1188 25.4119 11.983 25.8645 11.8472C23.7825 15.5587 21.7005 19.2702 19.6637 22.9816C19.3016 22.9816 18.9395 22.9816 18.5774 22.9816C18.5774 22.8911 18.6227 22.7553 18.6679 22.6648C20.6594 19.2249 22.6057 15.785 24.5067 12.2999ZM0.0653773 12.9335C6.22096 12.9335 12.4218 12.9335 18.5774 12.9335C27.8108 12.9335 18.5321 12.9335 18.5321 12.9335C17.3553 13.5219 16.2238 14.2008 15.047 14.7892C15.047 14.4272 15.0017 14.0651 15.0017 13.703C14.5038 13.703 14.006 13.703 13.5081 13.703C13.4628 14.1556 13.4628 14.6535 13.5081 15.1061C13.8702 15.1061 14.187 15.1061 14.5491 15.1061C13.7797 15.4229 13.1007 15.9208 12.3313 16.2376C12.3313 16.1471 12.3313 16.0113 12.3313 15.8755H11.2903C11.2903 15.1966 11.2903 14.4724 11.2903 13.7935C10.7471 14.1103 10.2493 14.3819 9.70611 14.6987C9.70611 15.1061 9.70611 15.4682 9.70611 15.8755H8.98192C8.98192 16.2829 8.98192 16.6902 8.98192 17.0976H9.66085C9.66085 17.2786 9.66085 17.4597 9.66085 17.686C9.07245 18.0028 8.52931 18.3197 7.94091 18.5912C7.94091 17.686 7.94091 16.7808 7.94091 15.8755H6.40201C6.40201 17.0071 6.40201 18.1386 6.40201 19.3154C6.40201 19.5417 6.35675 19.8133 6.31149 20.0396C6.31149 19.8586 6.31149 19.6775 6.35675 19.4965C5.76835 19.8133 5.17994 20.1754 4.59154 20.4922H4.50102C4.36523 20.3564 4.27471 20.2207 4.27471 20.0396C4.22945 19.5417 4.18419 18.9986 4.18419 18.5007C4.18419 17.6407 4.18419 16.7808 4.18419 15.9208C3.64105 15.9208 3.14317 15.9208 2.60003 15.9208C2.60003 17.0976 2.60003 18.3197 2.60003 19.4965C2.55477 20.1301 2.69055 20.7638 3.05265 21.3069C2.05689 21.8501 1.01587 22.3932 0.0201163 22.9816C-0.0251454 19.6322 0.0201163 16.2829 0.0201163 12.8883L0.0653773 12.9335Z" fill="#F57B16"/>
</g>
<defs>
<clipPath id="clip0_672_389">
<rect width="32" height="32" fill="white"/>
</clipPath>
</defs>
</svg>
