<svg width="32" height="32" viewBox="0 0 32 32" fill="none" xmlns="http://www.w3.org/2000/svg">
<g clip-path="url(#clip0_576_75)">
<path d="M27.625 2.9625L25.375 2.61875C25.2563 2.0875 24.7813 1.6875 24.2125 1.6875H19.225L8.1875 0.0125026C7.875 -0.0374974 7.55625 0.0437526 7.30625 0.231253C7.05625 0.418753 6.88125 0.693753 6.8375 1.0125L6.73125 1.69375H4.55C3.89375 1.69375 3.3625 2.225 3.3625 2.88125V30.8125C3.3625 31.4688 3.89375 32 4.55 32H24.2125C24.8688 32 25.4 31.4688 25.4 30.8125V25.4438L28.625 4.31875C28.725 3.66875 28.275 3.0625 27.625 2.9625ZM7.325 1.0875C7.35 0.906253 7.45 0.743753 7.6 0.637503C7.75 0.531253 7.93125 0.481253 8.1125 0.512503L15.8938 1.69375H7.2375L7.325 1.0875ZM24.9 30.8125C24.9 31.1938 24.5938 31.5 24.2125 31.5H4.55C4.16875 31.5 3.8625 31.1938 3.8625 30.8125V2.88125C3.8625 2.5 4.16875 2.19375 4.55 2.19375H24.2125C24.5938 2.19375 24.9 2.5 24.9 2.88125V30.8125ZM28.1313 4.24375L25.4063 22.125V3.13125L27.5563 3.45625C27.925 3.5125 28.1875 3.86875 28.1313 4.24375Z" fill="#091E3E" stroke="#091E3E" stroke-width="0.5"/>
<path d="M14.3813 18.6625C17.8313 18.6625 20.6438 15.8563 20.6438 12.4C20.6438 8.94375 17.8375 6.1375 14.3813 6.1375C10.925 6.1375 8.11876 8.94375 8.11876 12.4C8.11876 15.8563 10.9313 18.6625 14.3813 18.6625ZM9.78751 15.8688H12.0688C12.4563 16.7125 12.9938 17.4688 13.6625 18.1125C12.0875 17.9188 10.7063 17.0813 9.78751 15.8688ZM14.3875 6.71875C15.2 7.39375 15.8313 8.2125 16.2563 9.14375H12.55C12.9313 8.31875 13.5188 7.48125 14.3875 6.71875ZM16.4563 9.64375C16.7563 10.475 16.9188 11.3875 16.9188 12.3625H11.8375C11.8438 11.575 11.9563 10.625 12.325 9.64375H16.4563ZM20.1438 12.3625H17.425C17.4188 11.4 17.2688 10.4875 16.9813 9.64375H19.4375C19.8813 10.4563 20.1375 11.3813 20.1438 12.3625ZM14.375 18.0813C13.625 17.4563 13.0313 16.7125 12.6125 15.8688H16.1125C15.7313 16.625 15.1688 17.3813 14.375 18.0813ZM12.3875 15.3688C12.0813 14.6 11.9 13.7625 11.85 12.8625H16.9063C16.8625 13.6125 16.7125 14.4813 16.3438 15.3688H12.3875ZM17.4125 12.8625H20.125C20.05 13.775 19.7688 14.625 19.3188 15.3688H16.8875C17.2313 14.4813 17.3688 13.6188 17.4125 12.8625ZM11.3438 12.3625H8.62501C8.63126 11.3813 8.88751 10.45 9.32501 9.64375H11.8C11.45 10.6313 11.3438 11.575 11.3438 12.3625ZM11.35 12.8625C11.3938 13.75 11.5688 14.5875 11.8563 15.3688H9.44376C8.99376 14.625 8.71251 13.775 8.63751 12.8625H11.35ZM15.075 18.1188C15.8063 17.4 16.3188 16.6313 16.675 15.8688H18.9813C18.0563 17.0875 16.6625 17.9313 15.075 18.1188ZM19.1313 9.14375H16.7875C16.3938 8.2125 15.825 7.38125 15.1 6.68125C16.7688 6.89375 18.2188 7.81875 19.1313 9.14375ZM13.6938 6.68125C12.8938 7.46875 12.3563 8.31251 11.9938 9.14375H9.63126C10.55 7.81251 12.0125 6.88125 13.6938 6.68125Z" fill="#06A3DA"/>
<path d="M6.24376 22.2937H5.36876C5.23126 22.2937 5.11876 22.4062 5.11876 22.5437V25.05C5.11876 25.1875 5.23126 25.3 5.36876 25.3C5.50626 25.3 5.61876 25.1875 5.61876 25.05V24.05H6.24376C6.72501 24.05 7.11876 23.6562 7.11876 23.175C7.11876 22.6937 6.72501 22.2937 6.24376 22.2937ZM6.24376 23.5437H5.61876V22.7937H6.24376C6.45001 22.7937 6.61876 22.9625 6.61876 23.1687C6.61876 23.375 6.45001 23.5437 6.24376 23.5437Z" fill="#091E3E"/>
<path d="M15.2563 22.2312H14.3813C14.2438 22.2312 14.1313 22.3437 14.1313 22.4812V24.9875C14.1313 25.125 14.2438 25.2375 14.3813 25.2375C14.5188 25.2375 14.6313 25.125 14.6313 24.9875V23.9875H15.2563C15.7375 23.9875 16.1313 23.5937 16.1313 23.1125C16.1375 22.625 15.7438 22.2312 15.2563 22.2312ZM15.2563 23.4812H14.6313V22.7312H15.2563C15.4625 22.7312 15.6313 22.9 15.6313 23.1062C15.6375 23.3125 15.4688 23.4812 15.2563 23.4812Z" fill="#091E3E"/>
<path d="M21.3938 23.1062C21.3938 22.625 21 22.2312 20.5188 22.2312H19.6438C19.5063 22.2312 19.3938 22.3437 19.3938 22.4812V24.9875C19.3938 25.125 19.5063 25.2375 19.6438 25.2375C19.7813 25.2375 19.8938 25.125 19.8938 24.9875V23.9875H20.3625L20.9188 25.1C20.9625 25.1875 21.05 25.2375 21.1438 25.2375C21.1813 25.2375 21.2188 25.2312 21.2563 25.2125C21.3813 25.15 21.4313 25 21.3688 24.875L20.8813 23.9062C21.1875 23.7625 21.3938 23.4625 21.3938 23.1062ZM20.5188 23.4812H19.8938V22.7312H20.5188C20.725 22.7312 20.8938 22.9 20.8938 23.1062C20.8938 23.3125 20.725 23.4812 20.5188 23.4812Z" fill="#091E3E"/>
<path d="M23.9 22.2312H21.8938C21.7563 22.2312 21.6438 22.3437 21.6438 22.4812C21.6438 22.6187 21.7563 22.7312 21.8938 22.7312H22.6438V24.9875C22.6438 25.125 22.7563 25.2375 22.8938 25.2375C23.0313 25.2375 23.1438 25.125 23.1438 24.9875V22.7312H23.8938C24.0313 22.7312 24.1438 22.6187 24.1438 22.4812C24.15 22.3437 24.0375 22.2312 23.9 22.2312Z" fill="#091E3E"/>
<path d="M17.7625 22.2312C17 22.2312 16.3875 22.9062 16.3875 23.7312C16.3875 24.5625 17.0062 25.2312 17.7625 25.2312C18.525 25.2312 19.1375 24.5562 19.1375 23.7312C19.1437 22.9062 18.525 22.2312 17.7625 22.2312ZM17.7625 24.7375C17.2812 24.7375 16.8875 24.2875 16.8875 23.7375C16.8875 23.1875 17.2812 22.7375 17.7625 22.7375C18.2437 22.7375 18.6375 23.1875 18.6375 23.7375C18.6375 24.2875 18.25 24.7375 17.7625 24.7375Z" fill="#091E3E"/>
<path d="M10.8438 23.6L10.3438 23.4C10.2125 23.35 10.125 23.2188 10.125 23.075C10.125 22.8813 10.2813 22.725 10.475 22.725H10.6313C10.725 22.725 10.8125 22.7625 10.875 22.825L10.95 22.9C11.05 23 11.2063 23 11.3063 22.9C11.4063 22.8 11.4063 22.6438 11.3063 22.5438L11.2313 22.4688C11.0688 22.3063 10.8563 22.2188 10.6313 22.2188H10.475C10.0063 22.2188 9.62501 22.6 9.62501 23.0688C9.62501 23.4188 9.83126 23.725 10.1563 23.8563L10.6563 24.0562C10.7875 24.1062 10.875 24.2375 10.875 24.3813C10.875 24.575 10.7188 24.7313 10.525 24.7313H10.3688C10.275 24.7313 10.1875 24.6938 10.125 24.6313L10.05 24.5562C9.95001 24.4562 9.79376 24.4562 9.69376 24.5562C9.59376 24.6562 9.59376 24.8125 9.69376 24.9125L9.76876 24.9875C9.93126 25.15 10.1438 25.2375 10.3688 25.2375H10.525C10.9938 25.2375 11.375 24.8563 11.375 24.3875C11.375 24.0375 11.1688 23.7313 10.8438 23.6Z" fill="#091E3E"/>
<path d="M13.1 23.6L12.6 23.4C12.4688 23.35 12.3813 23.2188 12.3813 23.075C12.3813 22.8813 12.5375 22.725 12.7312 22.725H12.8875C12.9813 22.725 13.0688 22.7625 13.1313 22.825L13.2063 22.9C13.3063 23 13.4625 23 13.5625 22.9C13.6625 22.8 13.6625 22.6438 13.5625 22.5438L13.4875 22.4688C13.325 22.3063 13.1125 22.2188 12.8875 22.2188H12.7312C12.2625 22.2188 11.8813 22.6 11.8813 23.0688C11.8813 23.4188 12.0875 23.725 12.4125 23.8563L12.9125 24.0562C13.0438 24.1062 13.1313 24.2375 13.1313 24.3813C13.1313 24.575 12.975 24.7313 12.7813 24.7313H12.625C12.5313 24.7313 12.4438 24.6938 12.3813 24.6313L12.3062 24.5562C12.2062 24.4562 12.05 24.4562 11.95 24.5562C11.85 24.6562 11.85 24.8125 11.95 24.9125L12.025 24.9875C12.1875 25.15 12.4 25.2375 12.625 25.2375H12.7813C13.25 25.2375 13.6313 24.8563 13.6313 24.3875C13.6313 24.0375 13.4188 23.7313 13.1 23.6Z" fill="#091E3E"/>
<path d="M9.35 24.8875L8.3 22.3813C8.2625 22.2875 8.16875 22.225 8.06875 22.225C8.06875 22.225 8.06875 22.225 8.0625 22.225C7.9625 22.225 7.86875 22.2938 7.83125 22.3875L6.88125 24.8938C6.83125 25.025 6.9 25.1688 7.025 25.2188C7.15625 25.2688 7.3 25.2 7.35 25.075L7.66875 24.2375H8.53125L8.8875 25.0875C8.94375 25.2125 9.0875 25.275 9.2125 25.2188C9.34375 25.1625 9.40625 25.0188 9.35 24.8875ZM7.8625 23.7313L8.08125 23.1563L8.325 23.7313H7.8625Z" fill="#091E3E"/>
</g>
<defs>
<clipPath id="clip0_576_75">
<rect width="32" height="32" fill="white"/>
</clipPath>
</defs>
</svg>
