<svg width="32" height="32" viewBox="0 0 32 32" fill="none" xmlns="http://www.w3.org/2000/svg">
<g clip-path="url(#clip0_536_61)">
<path d="M0.0794677 31.7472C0.127296 31.8245 0.194102 31.8884 0.273539 31.9326C0.352976 31.9768 0.442406 32 0.533334 32H31.4667C31.5578 32.0005 31.6476 31.9776 31.7274 31.9336C31.8072 31.8895 31.8743 31.8258 31.9225 31.7484C31.9706 31.671 31.9981 31.5825 32.0023 31.4915C32.0066 31.4004 31.9874 31.3098 31.9467 31.2283L30.4629 28.2667L31.9467 25.3051C31.9874 25.2235 32.0066 25.1329 32.0023 25.0419C31.9981 24.9508 31.9706 24.8624 31.9225 24.785C31.8743 24.7076 31.8072 24.6438 31.7274 24.5998C31.6476 24.5557 31.5578 24.5328 31.4667 24.5333H28.8V19.7333C28.8 19.309 28.6314 18.902 28.3314 18.602C28.0313 18.3019 27.6243 18.1333 27.2 18.1333H26.6667V6.93333C26.6667 6.50899 26.4981 6.10202 26.198 5.80196C25.898 5.5019 25.491 5.33333 25.0667 5.33333H21.3333C21.3333 3.91885 20.7714 2.56229 19.7712 1.5621C18.771 0.561903 17.4145 0 16 0C14.5855 0 13.229 0.561903 12.2288 1.5621C11.2286 2.56229 10.6667 3.91885 10.6667 5.33333H6.93333C6.50899 5.33333 6.10202 5.5019 5.80196 5.80196C5.50191 6.10202 5.33333 6.50899 5.33333 6.93333V18.1333H4.8C4.37565 18.1333 3.96869 18.3019 3.66863 18.602C3.36857 18.902 3.2 19.309 3.2 19.7333V24.5333H0.533334C0.442414 24.5333 0.352992 24.5565 0.273562 24.6007C0.194132 24.645 0.127331 24.7088 0.0795042 24.7861C0.0316772 24.8634 0.00441212 24.9517 0.000298562 25.0425C-0.00381499 25.1334 0.0153595 25.2237 0.056001 25.3051L1.53707 28.2667L0.056001 31.2283C0.0153571 31.3096 -0.00382199 31.4 0.000285161 31.4908C0.00439232 31.5816 0.0316494 31.6699 0.0794677 31.7472ZM24.5333 30.9333H6.93333C6.79189 30.9333 6.65623 30.8771 6.55621 30.7771C6.45619 30.6771 6.4 30.5415 6.4 30.4V27.7333H25.6V30.4C25.6 30.5415 25.5438 30.6771 25.4438 30.7771C25.3438 30.8771 25.2081 30.9333 25.0667 30.9333H24.5333ZM30.6037 25.6L29.3893 28.0283C29.3523 28.1023 29.3331 28.1839 29.3331 28.2667C29.3331 28.3494 29.3523 28.431 29.3893 28.5051L30.6037 30.9333H26.5685C26.6317 30.7625 26.6649 30.5821 26.6667 30.4V27.7333H27.2C27.6243 27.7333 28.0313 27.5648 28.3314 27.2647C28.6314 26.9646 28.8 26.5577 28.8 26.1333V25.6H30.6037ZM16 1.06667C17.1312 1.06794 18.2157 1.51787 19.0156 2.31775C19.8155 3.11763 20.2654 4.20213 20.2667 5.33333H11.7333C11.7346 4.20213 12.1845 3.11763 12.9844 2.31775C13.7843 1.51787 14.8688 1.06794 16 1.06667ZM20.8 8.53333C20.9055 8.53333 21.0086 8.56461 21.0963 8.62322C21.184 8.68182 21.2524 8.76512 21.2927 8.86257C21.3331 8.96002 21.3437 9.06726 21.3231 9.17072C21.3025 9.27417 21.2517 9.3692 21.1771 9.44379C21.1025 9.51838 21.0075 9.56917 20.9041 9.58975C20.8006 9.61033 20.6934 9.59977 20.5959 9.5594C20.4985 9.51904 20.4152 9.45068 20.3566 9.36297C20.2979 9.27527 20.2667 9.17215 20.2667 9.06667C20.2667 8.92522 20.3229 8.78956 20.4229 8.68954C20.5229 8.58952 20.6586 8.53333 20.8 8.53333ZM11.2 8.53333C11.3055 8.53333 11.4086 8.56461 11.4963 8.62322C11.584 8.68182 11.6524 8.76512 11.6927 8.86257C11.7331 8.96002 11.7437 9.06726 11.7231 9.17072C11.7025 9.27417 11.6517 9.3692 11.5771 9.44379C11.5025 9.51838 11.4075 9.56917 11.3041 9.58975C11.2006 9.61033 11.0934 9.59977 10.9959 9.5594C10.8984 9.51904 10.8152 9.45068 10.7566 9.36297C10.6979 9.27527 10.6667 9.17215 10.6667 9.06667C10.6667 8.92522 10.7229 8.78956 10.8229 8.68954C10.9229 8.58952 11.0586 8.53333 11.2 8.53333ZM6.4 6.93333C6.4 6.79188 6.45619 6.65623 6.55621 6.55621C6.65623 6.45619 6.79189 6.4 6.93333 6.4H10.6667V7.5648C10.3108 7.69061 10.0109 7.93817 9.81993 8.26372C9.62896 8.58928 9.55922 8.97186 9.62304 9.34386C9.68687 9.71586 9.88015 10.0533 10.1687 10.2966C10.4573 10.5399 10.8226 10.6733 11.2 10.6733C11.5774 10.6733 11.9427 10.5399 12.2313 10.2966C12.5199 10.0533 12.7131 9.71586 12.777 9.34386C12.8408 8.97186 12.771 8.58928 12.5801 8.26372C12.3891 7.93817 12.0892 7.69061 11.7333 7.5648V6.4H20.2667V7.5648C19.9108 7.69061 19.6109 7.93817 19.4199 8.26372C19.229 8.58928 19.1592 8.97186 19.223 9.34386C19.2869 9.71586 19.4801 10.0533 19.7687 10.2966C20.0573 10.5399 20.4226 10.6733 20.8 10.6733C21.1774 10.6733 21.5427 10.5399 21.8313 10.2966C22.1199 10.0533 22.3131 9.71586 22.377 9.34386C22.4408 8.97186 22.371 8.58928 22.1801 8.26372C21.9891 7.93817 21.6892 7.69061 21.3333 7.5648V6.4H25.0667C25.2081 6.4 25.3438 6.45619 25.4438 6.55621C25.5438 6.65623 25.6 6.79188 25.6 6.93333V18.1333H6.4V6.93333ZM4.26667 19.7333C4.26667 19.5919 4.32286 19.4562 4.42288 19.3562C4.5229 19.2562 4.65855 19.2 4.8 19.2H27.2C27.3415 19.2 27.4771 19.2562 27.5771 19.3562C27.6771 19.4562 27.7333 19.5919 27.7333 19.7333V26.1333C27.7333 26.2748 27.6771 26.4104 27.5771 26.5105C27.4771 26.6105 27.3415 26.6667 27.2 26.6667H4.8C4.65855 26.6667 4.5229 26.6105 4.42288 26.5105C4.32286 26.4104 4.26667 26.2748 4.26667 26.1333V19.7333ZM2.61067 28.5051C2.64766 28.431 2.66692 28.3494 2.66692 28.2667C2.66692 28.1839 2.64766 28.1023 2.61067 28.0283L1.39627 25.6H3.2V26.1333C3.2 26.5577 3.36857 26.9646 3.66863 27.2647C3.96869 27.5648 4.37565 27.7333 4.8 27.7333H5.33333V30.4C5.3351 30.5821 5.3683 30.7625 5.43147 30.9333H1.39627L2.61067 28.5051Z" fill="#091E3E"/>
<path d="M8.26666 25.0667C8.05449 25.0667 7.85101 24.9824 7.70098 24.8324C7.55095 24.6823 7.46666 24.4788 7.46666 24.2667C7.46666 24.1252 7.41047 23.9896 7.31045 23.8895C7.21043 23.7895 7.07478 23.7333 6.93333 23.7333C6.79188 23.7333 6.65622 23.7895 6.5562 23.8895C6.45619 23.9896 6.39999 24.1252 6.39999 24.2667C6.39999 24.6359 6.50947 24.9968 6.71458 25.3037C6.9197 25.6107 7.21123 25.85 7.55232 25.9912C7.89341 26.1325 8.26873 26.1695 8.63083 26.0975C8.99293 26.0254 9.32554 25.8477 9.58659 25.5866C9.84765 25.3255 10.0254 24.9929 10.0975 24.6308C10.1695 24.2687 10.1325 23.8934 9.99124 23.5523C9.84995 23.2112 9.6107 22.9197 9.30373 22.7146C8.99675 22.5095 8.63585 22.4 8.26666 22.4C8.10844 22.4 7.95377 22.3531 7.82221 22.2652C7.69065 22.1773 7.58811 22.0523 7.52756 21.9061C7.46701 21.76 7.45117 21.5991 7.48203 21.4439C7.5129 21.2887 7.58909 21.1462 7.70098 21.0343C7.81286 20.9224 7.9554 20.8462 8.11059 20.8154C8.26577 20.7845 8.42663 20.8003 8.57281 20.8609C8.71899 20.9214 8.84393 21.024 8.93184 21.1555C9.01974 21.2871 9.06666 21.4418 9.06666 21.6C9.06666 21.7414 9.12285 21.8771 9.22287 21.9771C9.32289 22.0771 9.45855 22.1333 9.6 22.1333C9.74144 22.1333 9.8771 22.0771 9.97712 21.9771C10.0771 21.8771 10.1333 21.7414 10.1333 21.6C10.1333 21.2308 10.0238 20.8699 9.81874 20.5629C9.61363 20.256 9.32209 20.0167 8.981 19.8754C8.63992 19.7341 8.26459 19.6972 7.90249 19.7692C7.5404 19.8412 7.20779 20.019 6.94673 20.2801C6.68567 20.5411 6.50789 20.8737 6.43586 21.2358C6.36384 21.5979 6.4008 21.9733 6.54209 22.3143C6.68337 22.6554 6.92263 22.947 7.2296 23.1521C7.53657 23.3572 7.89747 23.4667 8.26666 23.4667C8.47883 23.4667 8.68232 23.551 8.83235 23.701C8.98238 23.851 9.06666 24.0545 9.06666 24.2667C9.06666 24.4788 8.98238 24.6823 8.83235 24.8324C8.68232 24.9824 8.47883 25.0667 8.26666 25.0667Z" fill="#06A3DA"/>
<path d="M11.7333 26.1333C11.8748 26.1333 12.0104 26.0771 12.1105 25.9771C12.2105 25.8771 12.2667 25.7414 12.2667 25.6V23.4667H14.4V25.6C14.4 25.7414 14.4562 25.8771 14.5562 25.9771C14.6562 26.0771 14.7919 26.1333 14.9333 26.1333C15.0748 26.1333 15.2104 26.0771 15.3105 25.9771C15.4105 25.8771 15.4667 25.7414 15.4667 25.6V21.8667C15.4667 21.3009 15.2419 20.7583 14.8418 20.3582C14.4417 19.9581 13.8991 19.7333 13.3333 19.7333C12.7675 19.7333 12.2249 19.9581 11.8248 20.3582C11.4248 20.7583 11.2 21.3009 11.2 21.8667V25.6C11.2 25.7414 11.2562 25.8771 11.3562 25.9771C11.4562 26.0771 11.5919 26.1333 11.7333 26.1333ZM13.3333 20.8C13.6162 20.8 13.8875 20.9124 14.0876 21.1124C14.2876 21.3125 14.4 21.5838 14.4 21.8667V22.4H12.2667V21.8667C12.2667 21.5838 12.379 21.3125 12.5791 21.1124C12.7791 20.9124 13.0504 20.8 13.3333 20.8Z" fill="#06A3DA"/>
<path d="M17.0667 26.1333H20.2667C20.4081 26.1333 20.5438 26.0771 20.6438 25.9771C20.7438 25.8771 20.8 25.7414 20.8 25.6C20.8 25.4586 20.7438 25.3229 20.6438 25.2229C20.5438 25.1229 20.4081 25.0667 20.2667 25.0667H17.6V20.2667C17.6 20.1252 17.5438 19.9896 17.4438 19.8895C17.3438 19.7895 17.2081 19.7333 17.0667 19.7333C16.9252 19.7333 16.7896 19.7895 16.6895 19.8895C16.5895 19.9896 16.5333 20.1252 16.5333 20.2667V25.6C16.5333 25.7414 16.5895 25.8771 16.6895 25.9771C16.7896 26.0771 16.9252 26.1333 17.0667 26.1333Z" fill="#06A3DA"/>
<path d="M21.8667 26.1333H25.0667C25.2081 26.1333 25.3438 26.0771 25.4438 25.9771C25.5438 25.8771 25.6 25.7414 25.6 25.6C25.6 25.4586 25.5438 25.3229 25.4438 25.2229C25.3438 25.1229 25.2081 25.0667 25.0667 25.0667H22.4V23.4667H24C24.1414 23.4667 24.2771 23.4105 24.3771 23.3105C24.4771 23.2104 24.5333 23.0748 24.5333 22.9333C24.5333 22.7919 24.4771 22.6562 24.3771 22.5562C24.2771 22.4562 24.1414 22.4 24 22.4H22.4V20.8H25.0667C25.2081 20.8 25.3438 20.7438 25.4438 20.6438C25.5438 20.5438 25.6 20.4081 25.6 20.2667C25.6 20.1252 25.5438 19.9896 25.4438 19.8895C25.3438 19.7895 25.2081 19.7333 25.0667 19.7333H21.8667C21.7252 19.7333 21.5896 19.7895 21.4895 19.8895C21.3895 19.9896 21.3333 20.1252 21.3333 20.2667V25.6C21.3333 25.7414 21.3895 25.8771 21.4895 25.9771C21.5896 26.0771 21.7252 26.1333 21.8667 26.1333Z" fill="#06A3DA"/>
</g>
<defs>
<clipPath id="clip0_536_61">
<rect width="32" height="32" fill="white"/>
</clipPath>
</defs>
</svg>
