<svg width="32" height="32" viewBox="0 0 32 32" fill="none" xmlns="http://www.w3.org/2000/svg">
<path d="M8.34425 0.9375H9.647V2.3325C9.647 2.59137 9.85688 2.80125 10.1158 2.80125C10.3746 2.80125 10.5845 2.59137 10.5845 2.3325V0.46875C10.5845 0.209875 10.3746 0 10.1158 0H8.34425C8.08538 0 7.8755 0.209875 7.8755 0.46875C7.8755 0.727625 8.08538 0.9375 8.34425 0.9375Z" fill="#091E3E"/>
<path d="M2.66263 2.80125C2.9215 2.80125 3.13138 2.59137 3.13138 2.3325V0.9375H4.43407C4.69294 0.9375 4.90282 0.727625 4.90282 0.46875C4.90282 0.209875 4.69294 0 4.43407 0H2.66263C2.40375 0 2.19388 0.209875 2.19388 0.46875V2.3325C2.19388 2.59137 2.40369 2.80125 2.66263 2.80125Z" fill="#091E3E"/>
<path d="M2.05537 22.1186V18.9187C2.05537 18.0889 2.44844 17.2923 3.10675 16.7874C3.13675 16.7572 4.05394 16.1823 4.11644 16.1404V22.0756C4.11644 22.3344 4.32631 22.5443 4.58519 22.5443C4.84406 22.5443 5.05394 22.3344 5.05394 22.0756V12.7975C5.05394 12.5386 4.84406 12.3288 4.58519 12.3288C4.32631 12.3288 4.11644 12.5386 4.11644 12.7975V15.0374C3.93169 15.1398 2.68862 15.9313 2.53631 16.0435C1.64812 16.7245 1.11787 17.7993 1.11787 18.9187V22.1186C1.11787 23.5682 1.65706 24.9554 2.63619 26.0245C3.64594 27.1271 4.202 28.5576 4.202 30.0527V31.5312C4.202 31.7901 4.41187 32 4.67075 32C4.92962 32 5.1395 31.7901 5.1395 31.5312V30.0526C5.1395 28.3226 4.496 26.6672 3.32756 25.3913C2.50719 24.4955 2.05537 23.3333 2.05537 22.1186Z" fill="#091E3E"/>
<path d="M24.284 22.2875H15.3059C15.2004 22.2875 15.1146 22.2017 15.1146 22.0963V20.8062C15.1146 20.5474 14.9047 20.3375 14.6459 20.3375C14.387 20.3375 14.1771 20.5474 14.1771 20.8062V22.0963C14.1771 22.7186 14.6835 23.225 15.3059 23.225H18.5287C18.3739 24.2558 18.0259 25.2332 17.4905 26.1347C16.6599 27.5332 16.2242 29.1322 16.2302 30.7569V31.5312C16.2302 31.7901 16.4401 32 16.699 32C16.9579 32 17.1677 31.7901 17.1677 31.5312V30.7552C17.1623 29.2983 17.5526 27.8661 18.2966 26.6134C18.9185 25.5662 19.3147 24.4274 19.4762 23.225H24.284C24.5429 23.225 24.7527 23.0151 24.7527 22.7563C24.7527 22.4974 24.5429 22.2875 24.284 22.2875Z" fill="#091E3E"/>
<path d="M29.7534 4.74375H15.3059C14.6835 4.74375 14.1771 5.25012 14.1771 5.8725V10.1093C14.0373 10.0833 13.8947 10.0694 13.7496 10.0694C13.1934 10.0694 12.6824 10.2662 12.2823 10.5936C12.0114 9.61238 11.1113 8.88944 10.0451 8.88944C9.527 8.88944 9.04806 9.06013 8.66144 9.34813V7.95206H10.1157C10.3746 7.95206 10.5844 7.74219 10.5844 7.48331V5.61956C10.5844 5.36069 10.3746 5.15081 10.1157 5.15081C9.85682 5.15081 9.64694 5.36069 9.64694 5.61956V7.01456H8.66144V5.0575C8.66144 3.80444 7.642 2.785 6.38894 2.785C5.7825 2.785 5.21188 3.02119 4.7815 3.45069C4.35263 3.88044 4.11638 4.45106 4.11638 5.05744V7.0145H3.13138V5.6195C3.13138 5.36062 2.9215 5.15075 2.66263 5.15075C2.40375 5.15075 2.19388 5.36062 2.19388 5.6195V7.48325C2.19388 7.74212 2.40375 7.952 2.66263 7.952H4.1165V10.6099C4.1165 10.8687 4.32638 11.0786 4.58525 11.0786C4.84413 11.0786 5.054 10.8687 5.054 10.6099V5.0575C5.054 4.70119 5.19294 4.36575 5.44457 4.11362C5.69725 3.86137 6.03269 3.7225 6.38907 3.7225C7.12519 3.7225 7.72407 4.32137 7.72407 5.0575V16.3619C7.72407 16.6208 7.93394 16.8306 8.19282 16.8306C8.45169 16.8306 8.66157 16.6208 8.66157 16.3619C8.66163 16.3614 8.66138 11.2112 8.66163 11.2104C8.66163 10.4476 9.28225 9.82694 10.0451 9.82694C10.808 9.82694 11.4286 10.4476 11.4286 11.2104V17.5416C11.4286 17.8005 11.6385 18.0104 11.8974 18.0104C12.1563 18.0104 12.3661 17.8005 12.3661 17.5416V12.3904C12.3661 11.6275 12.9868 11.0068 13.7496 11.0068C13.8969 11.0068 14.0401 11.0298 14.1771 11.0744V18.6187C14.1771 18.8776 14.387 19.0875 14.6459 19.0875C14.9048 19.0875 15.1146 18.8776 15.1146 18.6187V5.8725C15.1146 5.767 15.2004 5.68125 15.3059 5.68125H29.7534C29.8589 5.68125 29.9446 5.76706 29.9446 5.8725V7.17062C29.9446 7.4295 30.1545 7.63937 30.4134 7.63937C30.6723 7.63937 30.8821 7.4295 30.8821 7.17062V5.8725C30.8821 5.25006 30.3758 4.74375 29.7534 4.74375Z" fill="#091E3E"/>
<path d="M30.4134 8.88937C30.1545 8.88937 29.9446 9.09925 29.9446 9.35812V22.0962C29.9446 22.2017 29.8588 22.2875 29.7534 22.2875H26.4715C26.2126 22.2875 26.0027 22.4974 26.0027 22.7562C26.0027 23.0151 26.2126 23.225 26.4715 23.225H29.7534C30.3757 23.225 30.8821 22.7186 30.8821 22.0962V9.35812C30.8821 9.09925 30.6722 8.88937 30.4134 8.88937Z" fill="#091E3E"/>
<path d="M17.7671 18.4676C17.584 18.2846 17.2872 18.2846 17.1042 18.4676C16.9211 18.6507 16.9211 18.9475 17.1042 19.1305C17.9559 19.9822 19.0742 20.4081 20.1918 20.4081C21.3064 20.4081 22.4205 19.9843 23.2682 19.1366C24.9099 17.4949 24.9749 14.8585 23.4162 13.1346C23.2427 12.9425 22.9462 12.9276 22.7542 13.1012C22.5621 13.2749 22.5472 13.5713 22.7209 13.7633C23.9443 15.1164 23.8936 17.1855 22.6054 18.4737C21.2731 19.806 19.1027 19.8033 17.7671 18.4676Z" fill="#06A3DA"/>
<path d="M27.1129 19.6404C27.1746 19.6678 27.2389 19.6806 27.3022 19.6806C27.4821 19.6806 27.6537 19.5764 27.7312 19.4014C28.3973 17.8956 28.5955 16.2391 28.3042 14.6109C28.0063 12.9449 27.2129 11.4283 26.0097 10.2251C25.1841 9.39944 24.0871 8.94444 22.922 8.9445C21.7601 8.9445 20.6676 9.39706 19.8457 10.219C18.1479 11.9167 18.1506 14.6819 19.8517 16.3831C20.0347 16.5661 20.3316 16.5661 20.5146 16.3831C20.6977 16.2 20.6977 15.9032 20.5146 15.7202C19.1791 14.3846 19.1763 12.2141 20.5086 10.8819C21.1534 10.2371 22.0104 9.882 22.922 9.882C23.8367 9.88194 24.6982 10.2394 25.3467 10.888C27.5054 13.0467 28.1048 16.2395 26.8738 19.0221C26.7691 19.2589 26.8761 19.5357 27.1129 19.6404Z" fill="#06A3DA"/>
<path d="M23.9686 20.9696C24.0762 20.9696 24.1843 20.9328 24.2725 20.8576C25.4884 19.8261 26.2789 18.3368 26.4504 16.7547C26.4787 16.4974 26.2929 16.2659 26.0356 16.2376C25.7788 16.2092 25.5468 16.3951 25.5186 16.6524C25.3731 18.0135 24.7087 19.2554 23.6644 20.1441C23.4674 20.3121 23.4438 20.6079 23.6117 20.8049C23.7044 20.9137 23.8361 20.9696 23.9686 20.9696Z" fill="#06A3DA"/>
<path d="M18.4688 8.84219C16.0136 11.2974 16.0177 15.2966 18.4779 17.7568C18.9495 18.2284 19.5686 18.4642 20.1875 18.4641C20.8048 18.4641 21.4219 18.2294 21.8914 17.7598C22.3473 17.3039 22.5981 16.6978 22.5973 16.0532C22.5966 15.4089 22.3448 14.8028 21.8884 14.3463C21.6087 14.0666 21.4544 13.6955 21.454 13.3013C21.4536 12.9075 21.6068 12.5372 21.8853 12.2586C22.1635 11.9804 22.5331 11.8273 22.9263 11.8273C23.3211 11.8273 23.6929 11.9816 23.973 12.2617C24.5909 12.8796 25.0531 13.6434 25.3095 14.4705C25.3862 14.7178 25.6486 14.856 25.8961 14.7794C26.1434 14.7027 26.2816 14.4401 26.2049 14.1928C25.9036 13.2208 25.361 12.3238 24.6359 11.5988C24.1788 11.1416 23.5714 10.8898 22.9263 10.8898C22.2827 10.8898 21.6776 11.1404 21.2224 11.5957C20.7664 12.0516 20.5158 12.6577 20.5165 13.3023C20.5172 13.9466 20.769 14.5527 21.2254 15.0092C21.5051 15.2889 21.6593 15.6599 21.6598 16.0542C21.6603 16.448 21.5071 16.8183 21.2285 17.0969C20.6538 17.6716 19.7172 17.6702 19.1408 17.0939C17.0461 14.9991 17.0419 11.5947 19.1317 9.50506C21.2214 7.41531 24.6258 7.41944 26.7205 9.51419C26.9036 9.69725 27.2004 9.69725 27.3834 9.51419C27.5664 9.33113 27.5664 9.03431 27.3834 8.85131C24.9232 6.391 20.9241 6.38688 18.4688 8.84219Z" fill="#06A3DA"/>
</svg>
