<svg width="32" height="32" viewBox="0 0 32 32" fill="none" xmlns="http://www.w3.org/2000/svg">
<path fill-rule="evenodd" clip-rule="evenodd" d="M23.0146 31.9882H8.98557C7.68994 31.9882 6.63562 30.9339 6.63562 29.6382V2.36176C6.63562 1.06613 7.68994 0.0118103 8.98557 0.0118103H23.0146C24.3102 0.0118103 25.3645 1.06613 25.3645 2.36176V29.6382C25.3619 30.9339 24.3076 31.9882 23.0146 31.9882ZM8.98557 0.767063C8.10694 0.767063 7.39087 1.48313 7.39087 2.36176V29.6382C7.39087 30.5169 8.10694 31.2329 8.98557 31.2329H23.0146C23.8932 31.2329 24.6093 30.5169 24.6093 29.6382V2.36176C24.6093 1.48313 23.8932 0.767063 23.0146 0.767063H8.98557Z" fill="#091E3E"/>
<path fill-rule="evenodd" clip-rule="evenodd" d="M24.9843 4.41284H7.01307C6.51526 4.41284 6.51526 3.65739 7.01307 3.65739H24.9867C25.4836 3.65739 25.4855 4.41284 24.9841 4.41284H24.9843ZM24.9843 28.0096H7.01307C6.51582 28.0096 6.51582 27.2542 7.01307 27.2542H24.9867C25.4828 27.2542 25.4849 28.0096 24.9841 28.0096H24.9843Z" fill="#091E3E"/>
<path fill-rule="evenodd" clip-rule="evenodd" d="M11.0732 2.58995C10.4965 2.58995 9.8222 2.71707 9.8222 2.21232C9.8222 1.70738 10.4965 1.8347 11.0732 1.8347C11.571 1.8347 11.571 2.58995 11.0732 2.58995ZM17.617 2.58995H14.3805C13.8827 2.58995 13.8827 1.8347 14.3805 1.8347H17.6144C18.1109 1.8347 18.1118 2.58995 17.617 2.58995ZM18.3856 29.9977H13.6122C13.1149 29.9977 13.1149 29.2422 13.6122 29.2422H18.3856C18.8811 29.2422 18.8839 29.9977 18.3856 29.9977ZM13.5098 22.2213C13.2612 22.2213 13.0782 21.9783 13.1479 21.7386L14.5877 16.7659L12.9223 16.5979C12.6289 16.5691 12.4778 16.2237 12.6627 15.9895L17.3627 9.9231C17.6134 9.60023 18.1367 9.85691 18.0263 10.2589L16.7464 14.8094H19.0412C19.3658 14.8094 19.5304 15.1876 19.3298 15.4283L13.801 22.085C13.7248 22.1742 13.6174 22.2215 13.5098 22.2215V22.2213ZM13.675 15.9136L15.1148 16.0604C15.3488 16.0834 15.5063 16.3156 15.4401 16.543L14.3779 20.2096L18.2359 15.5646H16.2479C15.9932 15.5646 15.817 15.3209 15.8834 15.0846L16.7751 11.9217L13.6752 15.9136H13.675Z" fill="#06A3DA"/>
</svg>
