<svg width="64" height="69" viewBox="0 0 64 69" fill="none" xmlns="http://www.w3.org/2000/svg">
<path d="M43.8328 2.06055H14.3801C14.2411 2.06055 14.1284 2.17325 14.1284 2.31228V12.6333C14.1284 12.7723 14.0157 12.885 13.8767 12.885H2.54873C2.4097 12.885 2.29699 12.9977 2.29699 13.1367V57.945C2.29699 58.084 2.4097 58.1967 2.54873 58.1967H43.8328C43.9718 58.1967 44.0845 58.084 44.0845 57.945V2.31228C44.0845 2.17325 43.9718 2.06055 43.8328 2.06055Z" stroke="#06A3DA" stroke-width="3.77598"/>
<path d="M12.6017 12.1499L1.41597 11.2488L12.6017 1.12544L12.6017 12.1499Z" fill="#06A3DA"/>
<g clip-path="url(#clip0_621_36)">
<path d="M23.9346 68.4496L25.3046 63.9252L28.7964 67.6392L23.9346 68.4496Z" fill="#06A3DA"/>
<path d="M44.1421 39.9901L25.6608 58.3658L33.4758 66.4976L51.9571 47.6995L48.2608 44.0032L44.1421 39.9901Z" fill="#06A3DA"/>
<path d="M49.8631 34.5777L46.6584 37.6933C46.4928 37.8543 46.4872 38.1184 46.6458 38.2863L53.2302 45.258C53.3983 45.4361 53.6821 45.4343 53.848 45.2542L56.9703 41.8643C57.1207 41.701 57.119 41.4491 56.9665 41.2878L53.5412 37.6668L50.4563 34.5818C50.2929 34.4185 50.0287 34.4167 49.8631 34.5777Z" fill="#06A3DA"/>
</g>
<path d="M15.2572 27.1143C15.2572 27.1266 15.139 27.1819 14.9027 27.2801C14.6695 27.3752 14.3733 27.4657 14.0142 27.5517C13.6552 27.6345 13.2685 27.676 12.8541 27.676C11.8997 27.676 11.1585 27.3967 10.6307 26.8381C10.1028 26.2796 9.83885 25.4755 9.83885 24.4259C9.83885 23.7108 9.96775 23.0878 10.2255 22.5569C10.4833 22.0229 10.8486 21.6116 11.3212 21.3231C11.7969 21.0346 12.3554 20.8904 12.9969 20.8904C13.3038 20.8904 13.6137 20.9257 13.9268 20.9963C14.2429 21.0638 14.5206 21.1405 14.76 21.2265C14.9994 21.3093 15.1191 21.3538 15.1191 21.36L15.073 22.9159H14.4562L14.1753 21.8802C14.1447 21.8679 14.071 21.8479 13.9544 21.8203C13.8378 21.7896 13.6843 21.7605 13.494 21.7328C13.3068 21.7052 13.1089 21.6914 12.9002 21.6914C12.2649 21.6914 11.7754 21.9231 11.4317 22.3865C11.091 22.8469 10.9207 23.5113 10.9207 24.3799C10.9207 25.2023 11.1079 25.8238 11.4823 26.2443C11.8567 26.6647 12.3616 26.875 12.9969 26.875C13.1902 26.875 13.3835 26.8581 13.5769 26.8243C13.7733 26.7906 13.9375 26.7553 14.0695 26.7184C14.2014 26.6785 14.2843 26.6525 14.3181 26.6402V25.0934L13.517 24.9047V24.3891L15.9661 24.3384V24.9047L15.2572 25.0934V27.1143ZM17.9456 26.6402C17.9702 26.6525 18.0269 26.6785 18.1159 26.7184C18.2049 26.7553 18.3262 26.7906 18.4796 26.8243C18.6331 26.8581 18.8003 26.875 18.9814 26.875C19.3589 26.875 19.6934 26.786 19.985 26.608C20.2796 26.4299 20.4269 26.1829 20.4269 25.8668C20.4269 25.6642 20.364 25.4954 20.2382 25.3604C20.1123 25.2223 19.9558 25.1103 19.7686 25.0243C19.5845 24.9384 19.3297 24.8356 19.0044 24.7159C18.5778 24.5655 18.2326 24.4244 17.9686 24.2924C17.7078 24.1604 17.4837 23.9701 17.2965 23.7216C17.1124 23.473 17.0203 23.1538 17.0203 22.764C17.0203 22.141 17.2321 21.673 17.6556 21.36C18.0822 21.0469 18.6162 20.8904 19.2576 20.8904C19.5216 20.8904 19.8008 20.9196 20.0955 20.9779C20.3901 21.0331 20.6417 21.0914 20.8504 21.1528C21.0591 21.2111 21.1911 21.2495 21.2463 21.2679L21.2003 22.8699H20.588L20.2658 21.8617C20.2412 21.8556 20.1814 21.8387 20.0862 21.8111C19.9911 21.7804 19.8683 21.7528 19.718 21.7282C19.5676 21.7037 19.4172 21.6914 19.2668 21.6914C18.8648 21.6914 18.5548 21.7819 18.3369 21.963C18.119 22.141 18.0101 22.3558 18.0101 22.6075C18.0101 22.8101 18.073 22.9804 18.1988 23.1185C18.3246 23.2535 18.4812 23.3655 18.6684 23.4545C18.8586 23.5436 19.1241 23.6479 19.4648 23.7676C19.873 23.9118 20.2075 24.0484 20.4683 24.1773C20.7292 24.3062 20.9502 24.4888 21.1312 24.7251C21.3154 24.9584 21.4075 25.2545 21.4075 25.6136C21.4075 26.0647 21.297 26.4468 21.076 26.7599C20.855 27.0698 20.5573 27.3 20.1829 27.4504C19.8116 27.6008 19.3988 27.676 18.9446 27.676C18.65 27.676 18.3599 27.6483 18.0745 27.5931C17.7891 27.5379 17.5513 27.4811 17.361 27.4228C17.1738 27.3614 17.0541 27.3215 17.0019 27.3031V25.6504H17.7569L17.9456 26.6402ZM23.1936 27.0177L24.1373 26.8289V21.7374H22.9128L22.678 22.6812H22.0612V20.9825H27.2033V22.6812H26.591L26.3516 21.7374H25.1271V26.8289L26.0708 27.0177V27.5839H23.1936V27.0177ZM29.8963 22.5891C29.8963 22.0612 30.0406 21.6469 30.329 21.3461C30.6206 21.0423 30.995 20.8904 31.4523 20.8904C31.8912 20.8904 32.2441 21.027 32.5111 21.3001C32.7812 21.5733 32.9162 21.9707 32.9162 22.4924C32.9162 23.0387 32.772 23.4592 32.4835 23.7538C32.1981 24.0453 31.8236 24.1911 31.3602 24.1911C30.9152 24.1911 30.5592 24.0591 30.2922 23.7952C30.0283 23.5313 29.8963 23.1292 29.8963 22.5891ZM31.7838 27.5839H30.9321L34.753 20.9825H35.6001L31.7838 27.5839ZM30.6053 22.5385C30.6053 23.232 30.8723 23.5788 31.4063 23.5788C31.9403 23.5788 32.2073 23.232 32.2073 22.5385C32.2073 22.2193 32.1413 21.9676 32.0093 21.7835C31.8774 21.5963 31.6763 21.5027 31.4063 21.5027C31.1362 21.5027 30.9352 21.5963 30.8032 21.7835C30.6712 21.9676 30.6053 22.2193 30.6053 22.5385ZM33.6205 26.0739C33.6205 25.5461 33.7648 25.1318 34.0533 24.831C34.3448 24.5302 34.7193 24.3799 35.1765 24.3799C35.6154 24.3799 35.9683 24.5164 36.2353 24.7896C36.5023 25.0627 36.6358 25.4601 36.6358 25.9819C36.6358 26.5282 36.4931 26.9471 36.2077 27.2386C35.9223 27.5302 35.5479 27.676 35.0845 27.676C34.6395 27.676 34.2835 27.544 34.0164 27.2801C33.7525 27.0161 33.6205 26.6141 33.6205 26.0739ZM34.3295 26.0279C34.3295 26.7184 34.5965 27.0637 35.1305 27.0637C35.6645 27.0637 35.9315 26.7184 35.9315 26.0279C35.9315 25.7087 35.8655 25.4571 35.7336 25.2729C35.6016 25.0857 35.4006 24.9921 35.1305 24.9921C34.8604 24.9921 34.6594 25.0857 34.5274 25.2729C34.3955 25.4571 34.3295 25.7087 34.3295 26.0279Z" fill="#091E3E"/>
<path d="M6.71921 35.8743L6.3187 35.7799V35.5222L7.21408 35.4968H7.73198C8.06497 35.4968 8.32506 35.5728 8.51227 35.7247C8.69948 35.8751 8.79309 36.0822 8.79309 36.3462C8.79309 36.8081 8.589 37.1142 8.18082 37.2646C8.25601 37.3306 8.35038 37.4725 8.46394 37.6904L8.83682 38.4385L9.17057 38.5144V38.7975H8.46394L8.06343 37.9252C7.98824 37.7625 7.92226 37.6428 7.86548 37.5661C7.8087 37.4878 7.74809 37.4341 7.68364 37.405C7.61919 37.3743 7.53326 37.359 7.42585 37.359H7.21408V38.4201L7.61459 38.5144V38.7975H6.3187V38.5144L6.71921 38.4201V35.8743ZM7.56855 37.0068C7.79719 37.0068 7.97596 36.9554 8.10486 36.8526C8.23376 36.7482 8.29821 36.6032 8.29821 36.4175C8.29821 36.261 8.24297 36.1314 8.13248 36.0285C8.02353 35.9257 7.88236 35.8743 7.70896 35.8743H7.21408V37.0068H7.56855ZM11.4125 36.8894V37.2646H10.3284V38.4201H11.4125L11.5069 37.9482H11.813V38.7975H9.43067V38.5144L9.83118 38.4201V35.8743L9.43067 35.7799V35.5222L10.3284 35.4968H11.7646V36.3001H11.4585L11.3411 35.8743H10.3284V36.8894H11.4125ZM15.0884 38.5628C15.0884 38.5689 15.0293 38.5965 14.9111 38.6456C14.7945 38.6932 14.6464 38.7385 14.4669 38.7814C14.2874 38.8229 14.094 38.8436 13.8869 38.8436C13.4096 38.8436 13.0391 38.7039 12.7751 38.4247C12.5112 38.1454 12.3792 37.7433 12.3792 37.2185C12.3792 36.861 12.4437 36.5495 12.5726 36.284C12.7015 36.017 12.8841 35.8114 13.1204 35.6672C13.3582 35.5229 13.6375 35.4508 13.9582 35.4508C14.1117 35.4508 14.2667 35.4684 14.4232 35.5037C14.5812 35.5375 14.7201 35.5759 14.8398 35.6188C14.9595 35.6603 15.0193 35.6825 15.0193 35.6856L14.9963 36.4636H14.6879L14.5475 35.9457C14.5321 35.9395 14.4953 35.9296 14.437 35.9158C14.3787 35.9004 14.3019 35.8858 14.2068 35.872C14.1132 35.8582 14.0142 35.8513 13.9099 35.8513C13.5922 35.8513 13.3475 35.9672 13.1756 36.1989C13.0053 36.429 12.9201 36.7613 12.9201 37.1955C12.9201 37.6068 13.0137 37.9175 13.2009 38.1277C13.3881 38.338 13.6406 38.4431 13.9582 38.4431C14.0549 38.4431 14.1516 38.4346 14.2482 38.4178C14.3464 38.4009 14.4285 38.3832 14.4945 38.3648C14.5605 38.3449 14.6019 38.3318 14.6188 38.3257V37.5523L14.2183 37.4579V37.2001L15.4428 37.1748V37.4579L15.0884 37.5523V38.5628ZM15.8434 38.5144L16.2439 38.4201V35.8743L15.8434 35.7799V35.5222L17.1392 35.4968V35.7799L16.7387 35.8743V38.4201L17.1392 38.5144V38.7975H15.8434V38.5144ZM18.1543 38.3257C18.1666 38.3318 18.195 38.3449 18.2395 38.3648C18.284 38.3832 18.3446 38.4009 18.4213 38.4178C18.498 38.4346 18.5817 38.4431 18.6722 38.4431C18.8609 38.4431 19.0282 38.3986 19.174 38.3096C19.3213 38.2206 19.395 38.097 19.395 37.939C19.395 37.8377 19.3635 37.7533 19.3006 37.6858C19.2377 37.6167 19.1594 37.5607 19.0658 37.5178C18.9737 37.4748 18.8464 37.4234 18.6837 37.3636C18.4704 37.2884 18.2978 37.2178 18.1658 37.1518C18.0354 37.0858 17.9234 36.9907 17.8298 36.8664C17.7377 36.7421 17.6917 36.5825 17.6917 36.3876C17.6917 36.0761 17.7975 35.8421 18.0093 35.6856C18.2226 35.5291 18.4896 35.4508 18.8103 35.4508C18.9423 35.4508 19.0819 35.4654 19.2292 35.4945C19.3765 35.5222 19.5024 35.5513 19.6067 35.582C19.7111 35.6112 19.777 35.6303 19.8047 35.6395L19.7816 36.4406H19.4755L19.3144 35.9365C19.3021 35.9334 19.2722 35.925 19.2246 35.9111C19.1771 35.8958 19.1157 35.882 19.0405 35.8697C18.9653 35.8574 18.8901 35.8513 18.8149 35.8513C18.6139 35.8513 18.4589 35.8966 18.35 35.9871C18.241 36.0761 18.1865 36.1835 18.1865 36.3094C18.1865 36.4106 18.218 36.4958 18.2809 36.5648C18.3438 36.6324 18.4221 36.6884 18.5157 36.7329C18.6108 36.7774 18.7436 36.8295 18.9139 36.8894C19.118 36.9615 19.2852 37.0298 19.4157 37.0943C19.5461 37.1587 19.6566 37.25 19.7471 37.3682C19.8392 37.4848 19.8852 37.6329 19.8852 37.8124C19.8852 38.038 19.83 38.229 19.7195 38.3855C19.609 38.5405 19.4602 38.6556 19.273 38.7308C19.0873 38.806 18.8809 38.8436 18.6538 38.8436C18.5065 38.8436 18.3615 38.8298 18.2188 38.8021C18.0761 38.7745 17.9571 38.7461 17.862 38.717C17.7684 38.6863 17.7085 38.6663 17.6825 38.6571V37.8308H18.0599L18.1543 38.3257ZM20.7783 38.5144L21.2502 38.4201V35.8743H20.6379L20.5205 36.3462H20.2121V35.4968H22.7831V36.3462H22.477L22.3573 35.8743H21.745V38.4201L22.2169 38.5144V38.7975H20.7783V38.5144ZM23.4207 35.8743L23.0202 35.7799V35.5222L23.9156 35.4968H24.4335C24.7665 35.4968 25.0266 35.5728 25.2138 35.7247C25.401 35.8751 25.4946 36.0822 25.4946 36.3462C25.4946 36.8081 25.2905 37.1142 24.8823 37.2646C24.9575 37.3306 25.0519 37.4725 25.1654 37.6904L25.5383 38.4385L25.8721 38.5144V38.7975H25.1654L24.7649 37.9252C24.6898 37.7625 24.6238 37.6428 24.567 37.5661C24.5102 37.4878 24.4496 37.4341 24.3852 37.405C24.3207 37.3743 24.2348 37.359 24.1274 37.359H23.9156V38.4201L24.3161 38.5144V38.7975H23.0202V38.5144L23.4207 38.4201V35.8743ZM24.2701 37.0068C24.4987 37.0068 24.6775 36.9554 24.8064 36.8526C24.9353 36.7482 24.9997 36.6032 24.9997 36.4175C24.9997 36.261 24.9445 36.1314 24.834 36.0285C24.725 35.9257 24.5839 35.8743 24.4105 35.8743H23.9156V37.0068H24.2701ZM27.382 35.5222L27.8539 35.4968L28.9012 38.4247L29.2925 38.5144V38.7975H27.9252V38.5144L28.3626 38.4247L28.183 37.9022H26.9585L26.7744 38.4247L27.2163 38.5144V38.7975H25.9204V38.5144L26.3071 38.4247L27.382 35.5222ZM27.58 36.1068L27.0851 37.5247H28.0564L27.58 36.1068ZM29.548 38.5144L30.0198 38.4201V35.8743H29.4076L29.2902 36.3462H28.9818V35.4968H31.5528V36.3462H31.2467L31.127 35.8743H30.5147V38.4201L30.9866 38.5144V38.7975H29.548V38.5144ZM31.8129 38.5144L32.2134 38.4201V35.8743L31.8129 35.7799V35.5222L33.1088 35.4968V35.7799L32.7083 35.8743V38.4201L33.1088 38.5144V38.7975H31.8129V38.5144ZM35.1366 35.4508C35.4389 35.4508 35.6998 35.5175 35.9192 35.6511C36.1402 35.7846 36.3082 35.9756 36.4233 36.2242C36.5399 36.4728 36.5982 36.7651 36.5982 37.1012C36.5982 37.4433 36.533 37.7464 36.4026 38.0103C36.2722 38.2743 36.0888 38.4791 35.8525 38.6249C35.6177 38.7707 35.3484 38.8436 35.0446 38.8436C34.5827 38.8436 34.2274 38.7001 33.9789 38.4132C33.7303 38.1262 33.606 37.7119 33.606 37.1702C33.606 36.828 33.6681 36.5265 33.7924 36.2656C33.9167 36.0048 34.0939 35.8037 34.3241 35.6626C34.5558 35.5214 34.8267 35.4508 35.1366 35.4508ZM35.1136 35.8513C34.799 35.8513 34.5589 35.9572 34.3932 36.1689C34.229 36.3807 34.1469 36.7068 34.1469 37.1472C34.1469 37.5753 34.2236 37.8983 34.3771 38.1162C34.532 38.3341 34.7622 38.4431 35.0676 38.4431C35.3822 38.4431 35.6254 38.3326 35.7972 38.1116C35.9706 37.8907 36.0573 37.5615 36.0573 37.1242C36.0573 36.7037 35.9768 36.3868 35.8157 36.1735C35.6561 35.9587 35.4221 35.8513 35.1136 35.8513ZM38.343 38.5144V38.7975H37.0701V38.5144L37.4706 38.4201V35.8743L37.0701 35.7799V35.5222L38.0599 35.4968L39.6158 38.1323V35.8743L39.2153 35.7799V35.5222L40.4399 35.4968V35.7799L40.0394 35.8743V38.7975H39.4501L37.8941 36.2012V38.4201L38.343 38.5144Z" fill="#091E3E"/>
<defs>
<clipPath id="clip0_621_36">
<rect width="45.2" height="45.2" fill="white" transform="translate(17.9149 23.7266)"/>
</clipPath>
</defs>
</svg>
