<svg width="565" height="540" viewBox="0 0 565 540" fill="none" xmlns="http://www.w3.org/2000/svg">
<g clip-path="url(#clip0_695_680)">
<path d="M565 540L545.2 528.8C525.3 517.7 485.7 495.3 471.2 472.8C456.7 450.3 467.3 427.7 485.5 405.2C503.7 382.7 529.3 360.3 534.8 337.8C540.3 315.3 525.7 292.7 501.7 270.2C477.7 247.7 444.3 225.3 439.3 202.8C434.3 180.3 457.7 157.7 454.8 135.2C452 112.7 423 90.3 427 67.8C431 45.3 468 22.7 486.5 11.3L505 0H0V11.3C0 22.7 0 45.3 0 67.8C0 90.3 0 112.7 0 135.2C0 157.7 0 180.3 0 202.8C0 225.3 0 247.7 0 270.2C0 292.7 0 315.3 0 337.8C0 360.3 0 382.7 0 405.2C0 427.7 0 450.3 0 472.8C0 495.3 0 517.7 0 528.8V540H565Z" fill="#22EEF2"/>
<path d="M446 540L441.7 528.8C437.3 517.7 428.7 495.3 423.3 472.8C418 450.3 416 427.7 414.3 405.2C412.7 382.7 411.3 360.3 405 337.8C398.7 315.3 387.3 292.7 399.8 270.2C412.3 247.7 448.7 225.3 442.3 202.8C436 180.3 387 157.7 364.2 135.2C341.3 112.7 344.7 90.3 356 67.8C367.3 45.3 386.7 22.7 396.3 11.3L406 0H0V11.3C0 22.7 0 45.3 0 67.8C0 90.3 0 112.7 0 135.2C0 157.7 0 180.3 0 202.8C0 225.3 0 247.7 0 270.2C0 292.7 0 315.3 0 337.8C0 360.3 0 382.7 0 405.2C0 427.7 0 450.3 0 472.8C0 495.3 0 517.7 0 528.8V540H446Z" fill="#00D8F2"/>
<path d="M293 540L300.7 528.8C308.3 517.7 323.7 495.3 335.2 472.8C346.7 450.3 354.3 427.7 367 405.2C379.7 382.7 397.3 360.3 406.5 337.8C415.7 315.3 416.3 292.7 408.7 270.2C401 247.7 385 225.3 373.5 202.8C362 180.3 355 157.7 341 135.2C327 112.7 306 90.3 313.2 67.8C320.3 45.3 355.7 22.7 373.3 11.3L391 0H-0.000427246V11.3C-0.000427246 22.7 -0.000427246 45.3 -0.000427246 67.8C-0.000427246 90.3 -0.000427246 112.7 -0.000427246 135.2C-0.000427246 157.7 -0.000427246 180.3 -0.000427246 202.8C-0.000427246 225.3 -0.000427246 247.7 -0.000427246 270.2C-0.000427246 292.7 -0.000427246 315.3 -0.000427246 337.8C-0.000427246 360.3 -0.000427246 382.7 -0.000427246 405.2C-0.000427246 427.7 -0.000427246 450.3 -0.000427246 472.8C-0.000427246 495.3 -0.000427246 517.7 -0.000427246 528.8V540H293Z" fill="#00C1ED"/>
<path d="M251 540L259.2 528.8C267.3 517.7 283.7 495.3 288.7 472.8C293.7 450.3 287.3 427.7 286.3 405.2C285.3 382.7 289.7 360.3 298 337.8C306.3 315.3 318.7 292.7 307.8 270.2C297 247.7 263 225.3 266.3 202.8C269.7 180.3 310.3 157.7 326.3 135.2C342.3 112.7 333.7 90.3 330.7 67.8C327.7 45.3 330.3 22.7 331.7 11.3L333 0H-0.000488281V11.3C-0.000488281 22.7 -0.000488281 45.3 -0.000488281 67.8C-0.000488281 90.3 -0.000488281 112.7 -0.000488281 135.2C-0.000488281 157.7 -0.000488281 180.3 -0.000488281 202.8C-0.000488281 225.3 -0.000488281 247.7 -0.000488281 270.2C-0.000488281 292.7 -0.000488281 315.3 -0.000488281 337.8C-0.000488281 360.3 -0.000488281 382.7 -0.000488281 405.2C-0.000488281 427.7 -0.000488281 450.3 -0.000488281 472.8C-0.000488281 495.3 -0.000488281 517.7 -0.000488281 528.8V540H251Z" fill="#00AAE2"/>
<path d="M164 540L172 528.8C180 517.7 196 495.3 209.5 472.8C223 450.3 234 427.7 236.5 405.2C239 382.7 233 360.3 223.5 337.8C214 315.3 201 292.7 202.5 270.2C204 247.7 220 225.3 220.5 202.8C221 180.3 206 157.7 197.2 135.2C188.3 112.7 185.7 90.3 192.3 67.8C199 45.3 215 22.7 223 11.3L231 0H-0.000137329V11.3C-0.000137329 22.7 -0.000137329 45.3 -0.000137329 67.8C-0.000137329 90.3 -0.000137329 112.7 -0.000137329 135.2C-0.000137329 157.7 -0.000137329 180.3 -0.000137329 202.8C-0.000137329 225.3 -0.000137329 247.7 -0.000137329 270.2C-0.000137329 292.7 -0.000137329 315.3 -0.000137329 337.8C-0.000137329 360.3 -0.000137329 382.7 -0.000137329 405.2C-0.000137329 427.7 -0.000137329 450.3 -0.000137329 472.8C-0.000137329 495.3 -0.000137329 517.7 -0.000137329 528.8V540H164Z" fill="#0092D4"/>
<path d="M151.999 540L150.299 528.8C148.699 517.7 145.299 495.3 151.499 472.8C157.699 450.3 173.299 427.7 177.199 405.2C180.999 382.7 172.999 360.3 167.499 337.8C161.999 315.3 158.999 292.7 162.499 270.2C165.999 247.7 175.999 225.3 175.699 202.8C175.299 180.3 164.699 157.7 161.499 135.2C158.299 112.7 162.699 90.3 165.999 67.8C169.299 45.3 171.699 22.7 172.799 11.3L173.999 0H-0.000961304V11.3C-0.000961304 22.7 -0.000961304 45.3 -0.000961304 67.8C-0.000961304 90.3 -0.000961304 112.7 -0.000961304 135.2C-0.000961304 157.7 -0.000961304 180.3 -0.000961304 202.8C-0.000961304 225.3 -0.000961304 247.7 -0.000961304 270.2C-0.000961304 292.7 -0.000961304 315.3 -0.000961304 337.8C-0.000961304 360.3 -0.000961304 382.7 -0.000961304 405.2C-0.000961304 427.7 -0.000961304 450.3 -0.000961304 472.8C-0.000961304 495.3 -0.000961304 517.7 -0.000961304 528.8V540H151.999Z" fill="#007AC4"/>
<path d="M67.0008 540L66.8008 528.8C66.7008 517.7 66.3008 495.3 64.5008 472.8C62.7008 450.3 59.3008 427.7 59.8008 405.2C60.3008 382.7 64.7008 360.3 69.8008 337.8C75.0008 315.3 81.0008 292.7 89.0008 270.2C97.0008 247.7 107.001 225.3 110.301 202.8C113.701 180.3 110.301 157.7 100.001 135.2C89.7008 112.7 72.3008 90.3 66.7008 67.8C61.0008 45.3 67.0008 22.7 70.0008 11.3L73.0008 0H0.000785828V11.3C0.000785828 22.7 0.000785828 45.3 0.000785828 67.8C0.000785828 90.3 0.000785828 112.7 0.000785828 135.2C0.000785828 157.7 0.000785828 180.3 0.000785828 202.8C0.000785828 225.3 0.000785828 247.7 0.000785828 270.2C0.000785828 292.7 0.000785828 315.3 0.000785828 337.8C0.000785828 360.3 0.000785828 382.7 0.000785828 405.2C0.000785828 427.7 0.000785828 450.3 0.000785828 472.8C0.000785828 495.3 0.000785828 517.7 0.000785828 528.8V540H67.0008Z" fill="#0062B2"/>
</g>
<defs>
<clipPath id="clip0_695_680">
<rect width="565" height="540" fill="white" transform="matrix(-1 0 0 1 565 0)"/>
</clipPath>
</defs>
</svg>
