<svg id="visual" viewBox="0 0 960 540" width="960" height="540" xmlns="http://www.w3.org/2000/svg" xmlns:xlink="http://www.w3.org/1999/xlink" version="1.1"><rect x="0" y="0" width="960" height="540" fill="#ffffff"></rect><path d="M395 540L414.8 528.8C434.7 517.7 474.3 495.3 488.8 472.8C503.3 450.3 492.7 427.7 474.5 405.2C456.3 382.7 430.7 360.3 425.2 337.8C419.7 315.3 434.3 292.7 458.3 270.2C482.3 247.7 515.7 225.3 520.7 202.8C525.7 180.3 502.3 157.7 505.2 135.2C508 112.7 537 90.3 533 67.8C529 45.3 492 22.7 473.5 11.3L455 0L960 0L960 11.3C960 22.7 960 45.3 960 67.8C960 90.3 960 112.7 960 135.2C960 157.7 960 180.3 960 202.8C960 225.3 960 247.7 960 270.2C960 292.7 960 315.3 960 337.8C960 360.3 960 382.7 960 405.2C960 427.7 960 450.3 960 472.8C960 495.3 960 517.7 960 528.8L960 540Z" fill="#22eef2"></path><path d="M514 540L518.3 528.8C522.7 517.7 531.3 495.3 536.7 472.8C542 450.3 544 427.7 545.7 405.2C547.3 382.7 548.7 360.3 555 337.8C561.3 315.3 572.7 292.7 560.2 270.2C547.7 247.7 511.3 225.3 517.7 202.8C524 180.3 573 157.7 595.8 135.2C618.7 112.7 615.3 90.3 604 67.8C592.7 45.3 573.3 22.7 563.7 11.3L554 0L960 0L960 11.3C960 22.7 960 45.3 960 67.8C960 90.3 960 112.7 960 135.2C960 157.7 960 180.3 960 202.8C960 225.3 960 247.7 960 270.2C960 292.7 960 315.3 960 337.8C960 360.3 960 382.7 960 405.2C960 427.7 960 450.3 960 472.8C960 495.3 960 517.7 960 528.8L960 540Z" fill="#00d8f2"></path><path d="M667 540L659.3 528.8C651.7 517.7 636.3 495.3 624.8 472.8C613.3 450.3 605.7 427.7 593 405.2C580.3 382.7 562.7 360.3 553.5 337.8C544.3 315.3 543.7 292.7 551.3 270.2C559 247.7 575 225.3 586.5 202.8C598 180.3 605 157.7 619 135.2C633 112.7 654 90.3 646.8 67.8C639.7 45.3 604.3 22.7 586.7 11.3L569 0L960 0L960 11.3C960 22.7 960 45.3 960 67.8C960 90.3 960 112.7 960 135.2C960 157.7 960 180.3 960 202.8C960 225.3 960 247.7 960 270.2C960 292.7 960 315.3 960 337.8C960 360.3 960 382.7 960 405.2C960 427.7 960 450.3 960 472.8C960 495.3 960 517.7 960 528.8L960 540Z" fill="#00c1ed"></path><path d="M709 540L700.8 528.8C692.7 517.7 676.3 495.3 671.3 472.8C666.3 450.3 672.7 427.7 673.7 405.2C674.7 382.7 670.3 360.3 662 337.8C653.7 315.3 641.3 292.7 652.2 270.2C663 247.7 697 225.3 693.7 202.8C690.3 180.3 649.7 157.7 633.7 135.2C617.7 112.7 626.3 90.3 629.3 67.8C632.3 45.3 629.7 22.7 628.3 11.3L627 0L960 0L960 11.3C960 22.7 960 45.3 960 67.8C960 90.3 960 112.7 960 135.2C960 157.7 960 180.3 960 202.8C960 225.3 960 247.7 960 270.2C960 292.7 960 315.3 960 337.8C960 360.3 960 382.7 960 405.2C960 427.7 960 450.3 960 472.8C960 495.3 960 517.7 960 528.8L960 540Z" fill="#00aae2"></path><path d="M796 540L788 528.8C780 517.7 764 495.3 750.5 472.8C737 450.3 726 427.7 723.5 405.2C721 382.7 727 360.3 736.5 337.8C746 315.3 759 292.7 757.5 270.2C756 247.7 740 225.3 739.5 202.8C739 180.3 754 157.7 762.8 135.2C771.7 112.7 774.3 90.3 767.7 67.8C761 45.3 745 22.7 737 11.3L729 0L960 0L960 11.3C960 22.7 960 45.3 960 67.8C960 90.3 960 112.7 960 135.2C960 157.7 960 180.3 960 202.8C960 225.3 960 247.7 960 270.2C960 292.7 960 315.3 960 337.8C960 360.3 960 382.7 960 405.2C960 427.7 960 450.3 960 472.8C960 495.3 960 517.7 960 528.8L960 540Z" fill="#0092d4"></path><path d="M808 540L809.7 528.8C811.3 517.7 814.7 495.3 808.5 472.8C802.3 450.3 786.7 427.7 782.8 405.2C779 382.7 787 360.3 792.5 337.8C798 315.3 801 292.7 797.5 270.2C794 247.7 784 225.3 784.3 202.8C784.7 180.3 795.3 157.7 798.5 135.2C801.7 112.7 797.3 90.3 794 67.8C790.7 45.3 788.3 22.7 787.2 11.3L786 0L960 0L960 11.3C960 22.7 960 45.3 960 67.8C960 90.3 960 112.7 960 135.2C960 157.7 960 180.3 960 202.8C960 225.3 960 247.7 960 270.2C960 292.7 960 315.3 960 337.8C960 360.3 960 382.7 960 405.2C960 427.7 960 450.3 960 472.8C960 495.3 960 517.7 960 528.8L960 540Z" fill="#007ac4"></path><path d="M893 540L893.2 528.8C893.3 517.7 893.7 495.3 895.5 472.8C897.3 450.3 900.7 427.7 900.2 405.2C899.7 382.7 895.3 360.3 890.2 337.8C885 315.3 879 292.7 871 270.2C863 247.7 853 225.3 849.7 202.8C846.3 180.3 849.7 157.7 860 135.2C870.3 112.7 887.7 90.3 893.3 67.8C899 45.3 893 22.7 890 11.3L887 0L960 0L960 11.3C960 22.7 960 45.3 960 67.8C960 90.3 960 112.7 960 135.2C960 157.7 960 180.3 960 202.8C960 225.3 960 247.7 960 270.2C960 292.7 960 315.3 960 337.8C960 360.3 960 382.7 960 405.2C960 427.7 960 450.3 960 472.8C960 495.3 960 517.7 960 528.8L960 540Z" fill="#0062b2"></path></svg>